<svg xmlns="http://www.w3.org/2000/svg" width="40" height="40" fill="none"><g clip-path="url(#a)"><path d="M0 20c0-2.17.339-4.277 1.016-6.32a20.033 20.033 0 0 1 2.84-5.488 19.902 19.902 0 0 1 4.336-4.336 20.033 20.033 0 0 1 5.488-2.84A19.95 19.95 0 0 1 20 0c2.17 0 4.277.339 6.32 1.016a20.032 20.032 0 0 1 5.488 2.84 19.902 19.902 0 0 1 4.336 4.336 20.032 20.032 0 0 1 2.84 5.488A19.951 19.951 0 0 1 40 20c0 2.17-.339 4.277-1.016 6.32a20.032 20.032 0 0 1-2.84 5.488 19.902 19.902 0 0 1-4.336 4.336 20.032 20.032 0 0 1-5.488 2.84A19.951 19.951 0 0 1 20 40c-2.17 0-4.277-.339-6.32-1.016a20.032 20.032 0 0 1-5.488-2.84 19.902 19.902 0 0 1-4.336-4.336 20.032 20.032 0 0 1-2.84-5.488A19.95 19.95 0 0 1 0 20Zm21.416 11.096V20.208h3.008l.4-3.744h-3.408l.008-1.88c0-.283.01-.499.032-.648.037-.197.101-.355.192-.472a.912.912 0 0 1 .456-.288c.203-.064.475-.096.816-.096h1.88V9.336h-3.008c-1.173 0-2.128.195-2.864.584a3.37 3.37 0 0 0-1.552 1.664c-.31.693-.464 1.568-.464 2.624v2.256h-2.248v3.752h2.248v10.88h4.504Z" fill="#FDB52B"/></g><defs><clipPath id="a"><path fill="#fff" transform="matrix(1 0 0 -1 0 40)" d="M0 0h40v40H0z"/></clipPath></defs></svg>