<svg xmlns="http://www.w3.org/2000/svg" width="19" height="19" class="svg__instagram" viewBox="0 0 19 19"><path fill="currentColor" fill-rule="evenodd" d="M7.33,10.5 C7.33,8.75 8.75,7.33 10.5,7.33 C12.25,7.33 13.67,8.75 13.67,10.5 C13.67,12.25 12.25,13.67 10.5,13.67 C8.75,13.67 7.33,12.25 7.33,10.5 Z M5.62,10.5 C5.62,13.2 7.8,15.38 10.5,15.38 C13.2,15.38 15.38,13.2 15.38,10.5 C15.38,7.8 13.189,5.62 10.5,5.62 C7.81,5.62 5.62,7.8 5.62,10.5 Z M6.58,1.06 C5.57,1.1 4.88,1.26 4.28,1.5 C3.66,1.74 3.13,2.07 2.6,2.6 C2.07,3.12 1.74,3.65 1.5,4.28 C1.27,4.88 1.1,5.57 1.06,6.59 C1.01,7.6 1,7.92 1,10.5 C1,13.08 1.01,13.4 1.06,14.42 C1.11,15.43 1.27,16.12 1.5,16.73 C1.74,17.35 2.07,17.88 2.6,18.41 C3.13,18.94 3.66,19.26 4.28,19.51 C4.88,19.74 5.57,19.91 6.59,19.95 C7.6,19.99 7.92,20 10.5,20 C13.08,20 13.399,19.99 14.42,19.94 C15.43,19.89 16.12,19.73 16.729,19.5 C17.35,19.26 17.88,18.93 18.41,18.4 C18.939,17.87 19.26,17.34 19.51,16.72 C19.74,16.12 19.91,15.43 19.95,14.41 C19.99,13.4 20,13.08 20,10.5 C20,7.92 19.99,7.6 19.939,6.58 C19.89,5.57 19.729,4.88 19.5,4.27 C19.26,3.65 18.93,3.12 18.399,2.59 C17.87,2.06 17.34,1.74 16.72,1.49 C16.12,1.26 15.43,1.09 14.41,1.05 C13.399,1.01 13.08,1 10.5,1 C7.92,1 7.6,1.01 6.58,1.06 Z M16.7103,5.4301 C16.7103,6.0601 16.1993,6.5701 15.5693,6.5701 C14.9403,6.5701 14.4293,6.0601 14.4293,5.4301 C14.4293,4.8001 14.9403,4.2901 15.5693,4.2901 C16.1993,4.2901 16.7103,4.8001 16.7103,5.4301 Z M14.34,2.77 C15.27,2.81 15.77,2.97 16.1,3.1 C16.54,3.27 16.859,3.48 17.189,3.81 C17.52,4.14 17.729,4.46 17.899,4.9 C18.03,5.23 18.18,5.74 18.229,6.66 C18.28,7.66 18.29,7.96 18.29,10.5 C18.29,13.04 18.28,13.34 18.229,14.34 C18.189,15.271 18.03,15.771 17.899,16.1 C17.729,16.54 17.52,16.86 17.189,17.19 C16.859,17.521 16.54,17.73 16.1,17.9 C15.77,18.03 15.26,18.18 14.34,18.23 C13.34,18.28 13.04,18.29 10.5,18.29 C7.96,18.29 7.66,18.28 6.66,18.23 C5.73,18.19 5.23,18.03 4.9,17.9 C4.46,17.73 4.14,17.521 3.81,17.19 C3.48,16.86 3.27,16.54 3.1,16.1 C2.97,15.771 2.82,15.26 2.77,14.34 C2.72,13.34 2.71,13.04 2.71,10.5 C2.71,7.96 2.72,7.66 2.77,6.66 C2.81,5.73 2.97,5.23 3.1,4.9 C3.27,4.45 3.47,4.14 3.8,3.8 C4.14,3.47 4.45,3.27 4.9,3.09 C5.23,2.96 5.74,2.81 6.66,2.76 C7.66,2.72 7.96,2.71 10.5,2.71 C13.04,2.71 13.34,2.72 14.34,2.77 Z" transform="translate(-1 -1)"/></svg>