<svg xmlns="http://www.w3.org/2000/svg" width="40" height="40" fill="none"><g clip-path="url(#a)"><path d="M0 19.688c0-2.139.333-4.21 1-6.216a19.605 19.605 0 0 1 2.8-5.408A19.48 19.48 0 0 1 8.064 3.8 19.603 19.603 0 0 1 13.472 1c2.005-.667 4.079-1 6.22-1s4.217.333 6.228 1a19.634 19.634 0 0 1 5.4 2.8 19.479 19.479 0 0 1 4.264 4.264 19.605 19.605 0 0 1 2.8 5.408c.667 2.005 1 4.079 1 6.22a19.66 19.66 0 0 1-1 6.228 19.632 19.632 0 0 1-2.8 5.4 19.478 19.478 0 0 1-4.264 4.264 19.633 19.633 0 0 1-5.4 2.8c-2.01.667-4.087 1-6.228 1s-4.215-.333-6.22-1a19.602 19.602 0 0 1-5.408-2.8A19.479 19.479 0 0 1 3.8 31.32a19.632 19.632 0 0 1-2.8-5.4c-.667-2.01-1-4.088-1-6.232ZM19.696 9.192c-1.36 0-2.299.003-2.816.008-.416.01-.923.03-1.52.056a9.273 9.273 0 0 0-1.44.16c-.384.08-.752.19-1.104.328-.71.267-1.33.67-1.864 1.208a5.152 5.152 0 0 0-1.208 1.856 7.035 7.035 0 0 0-.328 1.112 9.273 9.273 0 0 0-.16 1.44 85.71 85.71 0 0 0-.056 1.52c-.005.523-.008 1.463-.008 2.82 0 1.357.003 2.292.008 2.804.01.416.03.923.056 1.52a9.27 9.27 0 0 0 .16 1.44c.08.384.19.752.328 1.104.267.71.67 1.33 1.208 1.864.283.283.579.523.888.72a5.6 5.6 0 0 0 .972.488c.355.139.724.248 1.108.328a9.26 9.26 0 0 0 1.44.16c.603.032 1.11.05 1.52.056.523.005 1.463.008 2.82.008 1.357 0 2.292-.003 2.804-.008.416-.005.923-.024 1.52-.056a9.26 9.26 0 0 0 1.44-.16c.384-.08.755-.19 1.112-.328a5.061 5.061 0 0 0 1.856-1.208 5.136 5.136 0 0 0 1.208-1.864c.139-.352.248-.72.328-1.104a9.27 9.27 0 0 0 .16-1.44c.027-.608.045-1.115.056-1.52.005-.528.008-1.467.008-2.816 0-1.35-.003-2.285-.008-2.808-.005-.41-.024-.917-.056-1.52a9.273 9.273 0 0 0-.16-1.44 7.031 7.031 0 0 0-.328-1.112 5.152 5.152 0 0 0-1.208-1.856 5.138 5.138 0 0 0-1.864-1.208 7.106 7.106 0 0 0-1.104-.328 9.423 9.423 0 0 0-1.44-.16 85.676 85.676 0 0 0-1.52-.056c-.523-.005-1.461-.008-2.816-.008h.008Zm-.944 1.888h.944c1.35 0 2.267.005 2.752.016.41.005.907.021 1.488.048.459.021.867.07 1.224.144.25.053.496.127.736.22s.453.201.64.324.372.276.556.46c.184.184.337.37.46.556.123.187.23.4.324.64.093.24.167.485.22.736.075.357.123.765.144 1.224.027.587.043 1.083.048 1.488.01.496.016 1.416.016 2.76 0 1.344-.005 2.261-.016 2.752-.005.41-.021.907-.048 1.488-.021.459-.07.864-.144 1.216a4.76 4.76 0 0 1-.22.736c-.093.24-.201.455-.324.644-.123.19-.275.375-.456.556-.347.352-.75.613-1.208.784-.235.09-.477.163-.728.216-.357.08-.765.128-1.224.144-.587.027-1.083.045-1.488.056-.496.005-1.416.008-2.76.008-1.344 0-2.261-.003-2.752-.008-.41-.005-.907-.021-1.488-.048a6.991 6.991 0 0 1-1.216-.152 5.049 5.049 0 0 1-.736-.216 3.283 3.283 0 0 1-1.208-.784 3.2 3.2 0 0 1-.784-1.208 4.761 4.761 0 0 1-.216-.728 7.79 7.79 0 0 1-.144-1.224 45.276 45.276 0 0 1-.048-1.48c-.005-.49-.008-1.41-.008-2.76 0-1.35.003-2.27.008-2.76.005-.405.021-.899.048-1.48.021-.459.07-.867.144-1.224.053-.25.127-.496.22-.736a3.54 3.54 0 0 1 .324-.644c.123-.19.275-.375.456-.556.347-.352.75-.616 1.208-.792.24-.09.485-.163.736-.216a7.628 7.628 0 0 1 1.216-.144c.523-.021.95-.035 1.28-.04a90.21 90.21 0 0 1 2.024-.016Zm6.552 1.744a1.268 1.268 0 0 0-1.096.632 1.232 1.232 0 0 0-.168.632 1.237 1.237 0 0 0 .628 1.088c.195.112.405.168.632.168.227 0 .437-.056.632-.168a1.237 1.237 0 0 0 .628-1.088c0-.23-.056-.44-.168-.632a1.268 1.268 0 0 0-1.088-.632Zm-5.608 1.472a5.432 5.432 0 0 0-4.736 2.68 5.265 5.265 0 0 0-.652 1.776c-.11.63-.11 1.257 0 1.884s.327 1.219.652 1.776a5.428 5.428 0 0 0 2.868 2.372c.6.213 1.223.315 1.868.304a5.295 5.295 0 0 0 2.072-.448 5.317 5.317 0 0 0 1.692-1.16 5.446 5.446 0 0 0 1.14-1.704 5.325 5.325 0 0 0 .416-2.08c0-.725-.139-1.421-.416-2.088a5.446 5.446 0 0 0-1.14-1.704 5.319 5.319 0 0 0-1.692-1.16 5.197 5.197 0 0 0-2.072-.44v-.008Zm0 1.896c.63 0 1.216.16 1.76.48.528.31.947.728 1.256 1.256.32.544.48 1.133.48 1.768s-.16 1.224-.48 1.768c-.31.528-.728.947-1.256 1.256a3.463 3.463 0 0 1-1.764.472c-.632 0-1.22-.157-1.764-.472a3.458 3.458 0 0 1-1.256-1.256 3.426 3.426 0 0 1-.48-1.768c0-.635.16-1.224.48-1.768a3.46 3.46 0 0 1 1.256-1.256 3.426 3.426 0 0 1 1.768-.48Z" fill="#FDB52B"/></g><defs><clipPath id="a"><path fill="#fff" transform="matrix(1 0 0 -1 0 40)" d="M0 0h40v40H0z"/></clipPath></defs></svg>