<svg width="16" height="20" viewBox="0 0 16 20" fill="none" xmlns="http://www.w3.org/2000/svg"><path d="M13.68 2.05C12.305.728 10.4 0 8.317 0c-3.181 0-5.138 1.304-6.22 2.398C.765 3.746 0 5.536 0 7.31c0 2.226.931 3.935 2.49 4.57.105.043.21.065.314.065.329 0 .59-.216.68-.56.053-.199.175-.688.228-.9.113-.419.021-.62-.226-.912-.451-.534-.661-1.165-.661-1.986 0-2.44 1.816-5.032 5.183-5.032 2.671 0 4.33 1.518 4.33 3.962 0 1.542-.331 2.97-.935 4.022-.42.73-1.157 1.601-2.288 1.601-.49 0-.93-.2-1.207-.551-.262-.332-.348-.76-.243-1.206.119-.504.281-1.03.439-1.538.286-.928.557-1.805.557-2.505 0-1.196-.736-2-1.83-2-1.392 0-2.481 1.413-2.481 3.217 0 .884.235 1.546.341 1.8l-1.414 5.99c-.115.486-.803 4.325.336 4.63 1.28.345 2.424-3.394 2.54-3.816.095-.344.425-1.643.627-2.442.618.596 1.613.998 2.581.998 1.825 0 3.466-.821 4.621-2.312 1.12-1.446 1.738-3.462 1.738-5.675 0-1.73-.744-3.437-2.04-4.68Z" fill="currentColor"/></svg>