<svg xmlns="http://www.w3.org/2000/svg" width="40" height="40" fill="none"><g clip-path="url(#a)"><path d="M0 20c0-2.17.339-4.277 1.016-6.32a20.033 20.033 0 0 1 2.84-5.488 19.902 19.902 0 0 1 4.336-4.336 20.033 20.033 0 0 1 5.488-2.84A19.95 19.95 0 0 1 20 0c2.17 0 4.277.339 6.32 1.016a20.032 20.032 0 0 1 5.488 2.84 19.902 19.902 0 0 1 4.336 4.336 20.032 20.032 0 0 1 2.84 5.488A19.951 19.951 0 0 1 40 20c0 2.17-.339 4.277-1.016 6.32a20.032 20.032 0 0 1-2.84 5.488 19.902 19.902 0 0 1-4.336 4.336 20.032 20.032 0 0 1-5.488 2.84A19.951 19.951 0 0 1 20 40c-2.17 0-4.277-.339-6.32-1.016a20.032 20.032 0 0 1-5.488-2.84 19.902 19.902 0 0 1-4.336-4.336 20.032 20.032 0 0 1-2.84-5.488A19.95 19.95 0 0 1 0 20Zm19.4-3.744.04.688-.696-.08c-2.539-.325-4.757-1.419-6.656-3.28l-.928-.912-.24.672a4.439 4.439 0 0 0-.228 1.516c.013.51.113.992.3 1.448.187.456.453.863.8 1.22.187.203.295.345.324.428.03.083-.024.116-.16.1s-.37-.085-.7-.208c-.41-.139-.63-.19-.66-.156-.03.035-.017.177.036.428.048.235.115.493.2.776.096.299.187.53.272.696.181.352.444.69.788 1.012.344.323.721.588 1.132.796l.68.32-.808.016c-.283 0-.467.005-.552.016-.112.01-.177.036-.196.076-.019.04-.012.113.02.22.09.299.265.6.524.904.259.304.57.58.936.828.365.248.75.441 1.156.58l.872.296-.76.456a7.69 7.69 0 0 1-1.808.76 7.969 7.969 0 0 1-1.944.288c-.304.005-.57.02-.8.044-.23.024-.344.047-.344.068 0 .043.16.147.48.312.304.16.664.325 1.08.496.443.187.824.33 1.144.432.981.304 2.019.467 3.112.488a12.336 12.336 0 0 0 3.16-.36 11.02 11.02 0 0 0 2.904-1.176 10.179 10.179 0 0 0 1.848-1.44 12.76 12.76 0 0 0 1.624-1.912c.496-.71.89-1.419 1.184-2.128.155-.373.307-.835.456-1.384.144-.528.261-1.048.352-1.56.096-.533.144-.963.144-1.288 0-.235.013-.405.04-.512a1.08 1.08 0 0 1 .224-.408c.09-.117.277-.315.56-.592.219-.219.43-.44.632-.664a4.38 4.38 0 0 0 .352-.424c.048-.096.07-.157.064-.184-.005-.027-.056-.027-.152 0a6.817 6.817 0 0 0-.504.152c-.405.15-.693.239-.864.268-.17.03-.248.003-.232-.08.016-.083.125-.233.328-.452.139-.15.283-.328.432-.536a5.63 5.63 0 0 0 .372-.584c.099-.181.148-.312.148-.392 0-.021-.045-.016-.136.016-.09.032-.196.08-.316.144-.12.064-.303.144-.548.24-.235.09-.461.168-.68.232l-.752.24-.688-.464a7.3 7.3 0 0 0-.636-.376 3.457 3.457 0 0 0-.556-.248A4.446 4.446 0 0 0 23.328 12c-.475.01-.875.075-1.2.192a4.196 4.196 0 0 0-1.504.928c-.427.41-.747.885-.96 1.424a3.826 3.826 0 0 0-.264 1.712Z" fill="#FDB52B"/></g><defs><clipPath id="a"><path fill="#fff" transform="matrix(1 0 0 -1 0 40)" d="M0 0h40v40H0z"/></clipPath></defs></svg>