<svg xmlns="http://www.w3.org/2000/svg" width="22" height="20" fill="none"><path fill="currentColor" d="M1.049 19 8.77 9.072 1 1h1.749l6.803 7.067L15.05 1H21l-8.156 10.486L20.076 19h-1.749l-6.265-6.509L7 19H1.049Zm2.572-1.239h2.734L18.428 2.24h-2.734L3.62 17.76Z"/><path fill="currentColor" d="M1.049 19v.06H.926L1 18.963 1.05 19ZM8.77 9.072l.044-.042.036.038-.032.04-.048-.036ZM1 1l-.043.042L.859.94H1V1Zm1.749 0V.94h.026l.017.018L2.75 1Zm6.803 7.067.048.037-.043.055-.048-.05.043-.042ZM15.05 1 15 .963 15.02.94h.03V1ZM21 1V.94h.123l-.076.097L21 1Zm-8.156 10.486-.044.042-.036-.037.032-.041.048.036ZM20.076 19l.044-.042.098.102h-.142V19Zm-1.749 0v.06h-.025l-.018-.018.043-.042Zm-6.265-6.509-.047-.037.042-.054.048.05-.043.041ZM7 19l.047.037-.018.023H7V19Zm-3.38-1.239v.06h-.122l.075-.097.048.037Zm2.735 0 .047.037-.018.023h-.03v-.06ZM18.428 2.24v-.06h.123l-.076.097-.047-.037Zm-2.734 0-.048-.037.018-.023h.03v.06ZM1 18.963l7.722-9.928.095.074-7.722 9.928-.095-.074Zm7.726-9.85L.957 1.043l.086-.084 7.77 8.072-.086.084ZM1 .94h1.749v.12H1V.94Zm1.792.018 6.803 7.068-.086.083-6.803-7.067.086-.084ZM9.505 8.03 15 .963l.095.074L9.6 8.104l-.095-.074ZM15.049.94H21v.12h-5.951V.94Zm5.998.097-8.156 10.486-.095-.073L20.953.963l.094.074Zm-8.16 10.408 7.233 7.513-.087.084-7.233-7.514.087-.083Zm7.19 7.615h-1.75v-.12h1.75v.12Zm-1.793-.018-6.265-6.509.086-.083 6.266 6.508-.087.084Zm-6.174-6.514-5.063 6.509-.094-.074 5.062-6.509.095.074ZM7 19.06H1.049v-.12H7v.12Zm-3.38-1.359h2.735v.12H3.62v-.12Zm2.687.023L18.38 2.202l.095.074L6.402 17.798l-.095-.073ZM18.427 2.3h-2.733v-.12h2.734v.12Zm-2.686-.023L3.668 17.798l-.095-.073L15.646 2.201l.095.074Z"/></svg>