<svg xmlns="http://www.w3.org/2000/svg" width="21" height="17" class="svg__twitter" viewBox="0 0 21 17"><path fill="currentColor" fill-rule="evenodd" d="M18.5254581,4.68820945 C19.4150335,4.15711727 20.0982113,3.31598538 20.4198288,2.31386546 C19.5874026,2.80570534 18.6653352,3.1628019 17.683968,3.35531421 C16.8980906,2.52122172 15.7783057,2 14.5392297,2 C12.1597059,2 10.2306924,3.9216034 10.2306924,6.29158603 C10.2306924,6.62802348 10.2687918,6.95550865 10.3422254,7.26960365 C6.76157138,7.09063454 3.5869527,5.38204953 1.46198837,2.78558183 C1.09105673,3.41943397 0.878667837,4.15665817 0.878667837,4.94315819 C0.878667837,6.43206798 1.63927357,7.74568139 2.79531439,8.51534805 C2.08909251,8.49308212 1.4247339,8.29995769 0.843871393,7.97851722 C0.843564139,7.99642179 0.843487326,8.01440287 0.843487326,8.03246046 C0.843487326,10.1118383 2.32859651,11.8464384 4.29955009,12.2407214 C3.93798969,12.3387374 3.55737957,12.3911503 3.16447932,12.3911503 C2.88679908,12.3911503 2.6169538,12.3642935 2.3538681,12.3142525 C2.90216175,14.0192413 4.49319653,15.2600888 6.37850324,15.2947502 C4.90399429,16.4457687 3.04634039,17.1318042 1.02776254,17.1318042 C0.680028531,17.1318042 0.337056952,17.1115277 0,17.0718928 C1.90673763,18.2895561 4.17134862,19 6.60441128,19 C14.5291671,19 18.8626687,12.4605496 18.8626687,6.78924106 C18.8626687,6.60315603 18.858444,6.4180657 18.850225,6.23404658 C19.6919456,5.62896416 20.4223637,4.87307024 21,4.01242697 C20.2273346,4.3537614 19.3970591,4.58453132 18.5254581,4.68820945 Z" transform="translate(0 -2)"/></svg>