<svg xmlns="http://www.w3.org/2000/svg" width="21" height="15" class="svg__youtube" viewBox="0 0 21 15"><path fill="currentColor" fill-rule="evenodd" d="M8,14 L8,7 L14,10.5 L8,14 Z M20.5611,5.34214286 C20.3196,4.42071429 19.6077,3.69428571 18.7047,3.44785714 C17.0667,3 10.5,3 10.5,3 C10.5,3 3.9333,3 2.2953,3.44785714 C1.3923,3.69428571 0.6804,4.42071429 0.4389,5.34214286 C0,7.01357143 0,10.5 0,10.5 C0,10.5 0,13.9864286 0.4389,15.6578571 C0.6804,16.5792857 1.3923,17.3057143 2.2953,17.5521429 C3.9333,18 10.5,18 10.5,18 C10.5,18 17.0667,18 18.7047,17.5521429 C19.6077,17.3057143 20.3196,16.5792857 20.5611,15.6578571 C21,13.9864286 21,10.5 21,10.5 C21,10.5 21,7.01357143 20.5611,5.34214286 L20.5611,5.34214286 Z" transform="translate(0 -3)"/></svg>