<svg xmlns="http://www.w3.org/2000/svg" width="40" height="40" fill="none"><g clip-path="url(#a)"><path d="M0 20c0-2.17.339-4.277 1.016-6.32a20.033 20.033 0 0 1 2.84-5.488 19.902 19.902 0 0 1 4.336-4.336 20.033 20.033 0 0 1 5.488-2.84A19.95 19.95 0 0 1 20 0c2.17 0 4.277.339 6.32 1.016a20.032 20.032 0 0 1 5.488 2.84 19.902 19.902 0 0 1 4.336 4.336 20.032 20.032 0 0 1 2.84 5.488A19.951 19.951 0 0 1 40 20c0 2.17-.339 4.277-1.016 6.32a20.032 20.032 0 0 1-2.84 5.488 19.902 19.902 0 0 1-4.336 4.336 20.032 20.032 0 0 1-5.488 2.84A19.951 19.951 0 0 1 20 40c-2.17 0-4.277-.339-6.32-1.016a20.032 20.032 0 0 1-5.488-2.84 19.902 19.902 0 0 1-4.336-4.336 20.032 20.032 0 0 1-2.84-5.488A19.95 19.95 0 0 1 0 20Zm30.408-4.024a4.904 4.904 0 0 0-.184-.832 4.684 4.684 0 0 0-.256-.72 2.333 2.333 0 0 0-.408-.616 2.78 2.78 0 0 0-1.432-.824 4.656 4.656 0 0 0-.56-.08l-.144-.016a76.612 76.612 0 0 0-3.256-.152c-.917-.032-1.89-.053-2.92-.064l-1.272-.008-1.28.008c-1.03.01-2.005.032-2.928.064-1.285.037-2.37.088-3.256.152l-.128.016c-.23.021-.416.048-.56.08-.25.053-.485.139-.704.256-.272.139-.52.328-.744.568-.144.155-.277.36-.4.616a4.681 4.681 0 0 0-.256.72 4.916 4.916 0 0 0-.144.584l-.04.248-.056.52c-.043.437-.077.875-.104 1.312a27.792 27.792 0 0 0-.056 1.696v1.656c0 .523.019 1.088.056 1.696.027.437.061.872.104 1.304l.056.528.04.24c.037.203.085.4.144.592.075.267.16.504.256.712.123.261.256.467.4.616.208.219.445.397.712.536.219.112.461.197.728.256.155.032.363.064.624.096.139.021.235.037.288.048.507.048 1.384.09 2.632.128.896.027 1.933.05 3.112.072l1.496.016 1.272-.008c1.035-.016 2.01-.037 2.928-.064 1.29-.037 2.376-.09 3.256-.16l.136-.008c.23-.021.416-.048.56-.08.25-.059.485-.144.704-.256.267-.144.512-.336.736-.576.15-.15.285-.355.408-.616.096-.208.181-.445.256-.712.053-.192.101-.39.144-.592l.04-.24.056-.528c.043-.432.077-.867.104-1.304.037-.608.056-1.173.056-1.696v-1.656c0-.523-.019-1.088-.056-1.696a36.203 36.203 0 0 0-.104-1.312l-.056-.52Zm-12.88 6.832-.008-6.032L23.2 19.8l-5.672 3.008Z" fill="#FDB52B"/></g><defs><clipPath id="a"><path fill="#fff" transform="matrix(1 0 0 -1 0 40)" d="M0 0h40v40H0z"/></clipPath></defs></svg>