<svg width="69" height="30" viewBox="0 0 69 30" fill="none" xmlns="http://www.w3.org/2000/svg"><path d="m9.572 3.919 2.698 25.696H8.159l-.45-5.075H4.754l-.45 5.075H0L3.084 3.919h6.488ZM5.075 21.006h2.313L6.296 8.416l-1.22 12.59ZM21.842 3.92v3.404h-3.726v7.003h3.726v3.404h-3.726v8.351h3.726v3.47h-7.966V3.854l7.966.064Zm9.443 8.8V8.802c0-.129.128-1.863-1.285-1.863-1.413 0-1.22 1.734-1.22 1.863V24.54c-.065.578.064 1.156.45 1.606.192.192.513.32.834.32.257 0 .514-.063.707-.256.385-.321.45-.77.514-1.735V19.53h4.176v3.469c0 .964-.065 1.991-.193 2.955-.386 1.413-1.478 3.854-5.14 3.919-1.027 0-3.854-.065-5.01-3.148-.642-1.606-.642-3.598-.642-7.195v-9.25c.064-1.928.192-3.855 1.541-5.332 1.028-1.028 2.441-1.542 3.919-1.478.578 0 3.02.064 4.368 1.735 1.22 1.413 1.22 3.212 1.22 5.01v2.57l-4.24-.064ZM49.4 19.98c.064 1.863-.065 3.661-.193 5.524C48.95 27.11 47.988 30 43.876 30c-.707 0-3.148-.064-4.561-2.056-1.028-1.541-1.092-3.597-1.156-7.323v-7.516c-.065-1.606.064-3.276.192-4.882.193-1.542 1.028-4.754 5.332-4.754 3.148 0 4.304 1.478 4.947 2.762.77 1.67.77 3.34.77 6.874v6.874Zm-6.938 4.69c0 .192-.129 1.798 1.284 1.798 1.414 0 1.285-1.734 1.285-1.863V8.801c0-.193 0-.385-.064-.578.064-.707-.514-1.35-1.285-1.35-1.413 0-1.22 1.864-1.22 1.928v15.867Zm19.4-20.75a6.744 6.744 0 0 0-6.745 6.745c0 3.726 3.02 6.68 6.745 6.68a6.744 6.744 0 0 0 6.745-6.744c0-3.726-3.083-6.681-6.745-6.681Zm2.762 5.589c.129-.257.386-.707.386-.707l.385-.77.129-.322c.192-.321.32-.643.514-.964l.128-.32a6.47 6.47 0 0 1 1.735 4.175l-3.277-1.092Zm-.706-.9-.322.321-.128.129c-.064 0-.064-.129-.064-.129a3.628 3.628 0 0 0-.257-.77c0-.065-.064-.193-.064-.257.064-.065.128-.065.192-.129l.514-.257L66.04 6.36l-.643.642-1.477 1.606Zm2.12-2.312-.129.064-.385.193c-.065.064-.129.064-.193.128l-1.542.77a1.924 1.924 0 0 1-.514.258l-.257.128c-.064-.257-.192-.514-.257-.77l-.77-2.506c1.541.064 3.019.707 4.047 1.735Zm-2.698 2.89 3.79 1.221.642.193-5.846-.064c0 .064.257-.258.322-.258l1.092-1.092Zm-1.478-4.368v5.846c-.064-.064-.128-.193-.257-.257L60.45 9.251v-.065c0-.064 0-.128.064-.192 0-.065.064-.129.064-.257.129-.257.193-.578.257-.835.257-.771.45-1.478.707-2.249a8.4 8.4 0 0 0 .193-.642l.128-.193Zm-.064-.193c0 .065 0 .129-.064.129l-.129.514c-.193.578-.385 1.22-.642 1.863-.064.257-.193.514-.257.77-.129 0-.193-.064-.321-.128L60 7.58l-.193-.128c-.192-.064-.32-.193-.514-.257a1.923 1.923 0 0 1-.513-.257l-.45-.257a1.923 1.923 0 0 0-.514-.257c-.064-.064-.129-.064-.193-.128a6.1 6.1 0 0 1 4.176-1.67ZM60.32 9.122c-.128 0-.192.064-.257.064l-.192.065c-.065 0-.129 0-.193.064-.064 0-.129.064-.193.064s-.128 0-.192.064h-.065c-.128-.192-.193-.45-.321-.642-.321-.578-.578-1.156-.9-1.735l-.192-.385c-.064-.064-.064-.128-.064-.128l2.57 2.57Zm-2.826-2.698c0 .064.064.064.064.129l.064.128.257.45c.257.45.514.963.707 1.413.064.128.128.193.128.257l.257.45a.49.49 0 0 1 .129.32l-.257.065-.771.257-2.248.707a6.1 6.1 0 0 1 1.67-4.176Zm0 8.415a6.304 6.304 0 0 1-1.735-4.11l2.056.706c.257.064.578.192.835.257.129.064.257.128.45.128l-.386.707-.578 1.156-.193.45c0 .064-.064.128-.064.128-.064.193-.193.322-.257.514l-.128.064Zm2.248-2.184.386-.385.192-.193.065.064c.064.129.128.322.128.45.064.129.128.321.128.386 0 .064.065.128.065.192s-.193.129-.193.129l-.514.257-1.606.835-.706.321 2.055-2.056Zm-2.184 2.249.707-.321 1.413-.707c.128-.064.193-.129.321-.193l.514-.257c.064 0 .128-.064.193-.128.064.064.064.128.064.193.064.128.064.32.129.45.192.642.45 1.348.642 1.99.064.258.193.514.257.707-1.67 0-3.148-.642-4.24-1.734Zm3.919-3.919-.771.771-.193.193c-.064 0-.064.064-.064.128h-.064l-.322-.128-.963-.257-3.212-1.028h5.91c.064 0-.321.257-.321.321Zm.385-.321 1.156 1.156c.129.064.193.193.257.257 0 .129-.064.193-.064.321-.128.257-.193.579-.321.9l-.707 2.248c-.064.257-.128.45-.192.707-.065.128-.065.192-.129.321v-5.91Zm.064 6.039.193-.643.514-1.799.193-.578c.064-.128.064-.257.128-.385l.064.064c.129.064.193.129.322.129l.32.128 1.607.964.706.385c-1.092 1.092-2.505 1.67-4.047 1.735Zm1.606-4.433c-.064-.064-.128-.129-.192-.129.064 0 .064 0 .128-.064l.257-.064.514-.129.193-.064.064.064s.064 0 .064.065l.386.706c.192.386.45.836.642 1.285.129.257.321.578.45.9l-2.506-2.57Zm2.634 2.57-.257-.579c-.192-.385-.385-.835-.642-1.284l-.257-.45c-.064-.064-.386-.771-.386-.835l.771-.257 2.056-.643.385-.128c.065 1.606-.642 3.083-1.67 4.175Zm-14.325-3.213V0h1.477v11.627h-1.477Z" fill="#fff"/></svg>
