<svg width="72" height="72" viewBox="0 0 72 72" fill="none" xmlns="http://www.w3.org/2000/svg"><path d="M36.077 71.43c19.563 0 35.42-15.86 35.42-35.421 0-19.563-15.857-35.42-35.42-35.42C16.515.588.657 16.445.657 36.008c0 19.562 15.858 35.42 35.42 35.42Z" fill="#fff"/><path d="M36.078 72A36 36 0 1 1 35.922.001 36 36 0 0 1 36.078 72Zm0-70.84a34.85 34.85 0 1 0 34.84 34.849 34.875 34.875 0 0 0-34.84-34.85Z" fill="#fff"/><path d="M36.077 71.43c19.563 0 35.42-15.86 35.42-35.421 0-19.563-15.857-35.42-35.42-35.42C16.515.588.657 16.445.657 36.008c0 19.562 15.858 35.42 35.42 35.42Z" fill="#383D49"/><path d="M36.069 63.766c15.33 0 27.757-12.428 27.757-27.757 0-15.33-12.427-27.757-27.757-27.757-15.33 0-27.757 12.427-27.757 27.757 0 15.33 12.427 27.757 27.757 27.757Z" fill="#383D49"/><path d="M36.078 9.238a26.753 26.753 0 1 1-.032 53.507 26.753 26.753 0 0 1 .032-53.507Zm0-.986a27.757 27.757 0 1 0-.018 55.513 27.757 27.757 0 0 0 .018-55.513ZM3.096 44.122l.865-.553-.389-1.904-1.003-.138-.104-.493 4.67.71.079.389L3.19 44.65l-.095-.528Zm3.46-2.041-2.465-.346.311 1.652 2.154-1.306Z" fill="#fff"/><path d="m4.402 48.37 2.595-3.383-3.338 1.16-.122-.45 4.187-1.471.147.424-2.604 3.39 3.348-1.167.156.44-4.187 1.471-.182-.415Zm5.034 1.27-3.59 1.808-.215-.406 3.59-1.8-.58-1.167.38-.19 1.367 2.716-.38.19-.572-1.15ZM8.2 55.41l.648-.865L7.81 52.91l-1.038.242-.276-.38 4.618-1.02.217.336-2.855 3.763-.276-.441Zm2.456-3.131-2.422.562.865 1.393 1.557-1.955Zm.104 6.357.865-2.041-.683-.813-1.514 1.254-.303-.363 3.4-2.846 1.09 1.306a1.193 1.193 0 0 1 0 1.73l-.122.104a1.15 1.15 0 0 1-1.53 0l-.866 2.093-.337-.424Zm2.508-3.27-.76-.864-1.246 1.046.752.865a.865.865 0 0 0 1.142.2.803.803 0 0 0 .199-1.134.55.55 0 0 0-.087-.112Zm-.216 5.588a1.506 1.506 0 0 1-.519-1.072c0-.588.225-.865.917-1.635.692-.77.969-1.012 1.557-1.038.414-.008.815.147 1.116.432a1.497 1.497 0 0 1 .19 2.05l-.355-.328a1.038 1.038 0 0 0-.164-1.401 1.073 1.073 0 0 0-.779-.295c-.397 0-.64.243-1.262.865-.623.623-.813.926-.805 1.324a1.09 1.09 0 0 0 1.142 1.038c.219-.011.43-.087.605-.216l.346.32a1.514 1.514 0 0 1-1.989-.044Zm5.518-.674-2.37 3.235-.389-.286 2.38-3.235-1.039-.752.25-.346 2.449 1.799-.251.346-1.03-.761Zm-.432 4.54 2.327-3.78.398.243-2.318 3.78-.407-.242Zm2.95 1.679a1.524 1.524 0 0 1-.805-.865c-.19-.554-.043-.917.407-1.825.45-.908.649-1.246 1.202-1.436a1.583 1.583 0 0 1 1.99 1.963l-.45-.233a1.073 1.073 0 0 0-1.375-1.323c-.381.13-.554.406-.952 1.22-.398.812-.519 1.124-.398 1.504a1.098 1.098 0 0 0 1.393.666c.205-.072.383-.204.51-.38l.433.207a1.505 1.505 0 0 1-1.955.502Zm5.068 1.998v-1.02l-1.86-.684-.665.865-.45-.182 3.001-3.659.372.139.078 4.723-.476-.182Zm0-3.979L24.6 66.456l1.566.544-.009-2.482Zm5.06 1.021-.674 3.961-.467-.078.674-3.961-1.262-.216.077-.416 2.993.51-.043.407-1.298-.207Zm4.144 4.013a1.617 1.617 0 0 1-2.206-.12c-.398-.433-.398-.866-.346-1.835.052-.968.095-1.4.536-1.799a1.635 1.635 0 0 1 2.197.121c.39.441.398.865.346 1.834-.052.969-.086 1.401-.527 1.8Zm-.156-3.356a1.098 1.098 0 0 0-1.531-.078c-.294.268-.346.588-.39 1.497-.043.908 0 1.237.226 1.54a1.09 1.09 0 0 0 1.53.077c.295-.268.347-.588.398-1.496.052-.909 0-1.237-.233-1.54Zm3.546 3.676a1.454 1.454 0 0 1-1.643-1.254v-.121l-.225-2.967h.467l.234 2.924a1.072 1.072 0 0 0 2.128-.113v-.086l-.234-2.924h.476l.225 2.967a1.46 1.46 0 0 1-1.306 1.609l-.122-.035Zm5.605-.925-1.392-1.73-1.038.225.406 1.929-.458.095-.934-4.325 1.66-.355a1.2 1.2 0 0 1 1.514.779c.034.056.06.118.078.181a1.159 1.159 0 0 1-.692 1.367l1.453 1.73-.597.104Zm-1.73-3.737-1.159.242.346 1.592 1.16-.242a.822.822 0 0 0-.208-1.627h-.139v.035Zm7.318 1.401a1.609 1.609 0 0 1-2.041.865c-.554-.225-.718-.57-1.107-1.505-.39-.934-.52-1.306-.294-1.85a1.547 1.547 0 0 1 .864-.866 1.488 1.488 0 0 1 1.185 0c.545.225.727.571 1.116 1.505.39.934.502 1.263.277 1.851Zm-1.591-2.95a1.09 1.09 0 0 0-1.42.589c-.146.372-.05.683.295 1.522.346.84.502 1.125.865 1.28a1.099 1.099 0 0 0 1.419-.588c.147-.372.051-.683-.303-1.522-.355-.84-.502-1.125-.865-1.289l.008.009Zm3.987.035-1.02.588.864 1.583-.406.234-2.171-3.815 1.427-.865a1.306 1.306 0 1 1 1.436 2.18.441.441 0 0 1-.139.078l.009.017Zm-1.124-1.877-.97.571.866 1.531.995-.57a.884.884 0 0 0-.788-1.584l-.095.052h-.008Zm4.22 2.068-2.594-3.547 2.197-1.652.26.337-1.826 1.376.934 1.245 1.557-1.167.26.337-1.557 1.168.96 1.28 1.825-1.367.25.337-2.266 1.653Zm5.061-4.299-2.094-.71-.76.744 1.366 1.41-.337.329-3.088-3.183 1.22-1.185a1.21 1.21 0 0 1 1.73-.139l.112.113a1.142 1.142 0 0 1 .13 1.522l2.162.718-.441.38Zm-3.46-2.258-.865.865 1.133 1.168.865-.822a.827.827 0 0 0-1.003-1.315.593.593 0 0 0-.096.104h-.034Zm6.357-1.15-1.038-.346-1.21 1.513.562.865-.32.398-2.405-4.022.25-.311 4.481 1.514-.32.389Zm-3.754-1.324 1.306 2.12 1.038-1.298-2.344-.822Zm1.739-2.871 3.373 2.18-.26.397-3.373-2.18-.692 1.082-.354-.234 1.643-2.595.355.225-.692 1.125Zm5.302-2.206a1.618 1.618 0 0 1-.977 1.99c-.554.19-.917 0-1.825-.407-.909-.407-1.246-.64-1.436-1.185a1.617 1.617 0 0 1 .969-1.99c.562-.19.925 0 1.833.407.909.407 1.246.623 1.436 1.185Zm-3.148-1.168a1.098 1.098 0 0 0-.675 1.376c.139.371.415.544 1.228.951.813.407 1.125.519 1.505.39a1.107 1.107 0 0 0 .675-1.376c-.138-.38-.415-.554-1.228-.951-.813-.398-1.116-.52-1.497-.398l-.008.008Zm5.077-2.845-2.188.328-.346 1.012 1.868.623-.156.45-4.204-1.419.545-1.609a1.211 1.211 0 0 1 1.445-.865l.147.044a1.16 1.16 0 0 1 .865 1.297l2.24-.355-.216.494Zm-4.091-.442-.38 1.125 1.539.519.38-1.125a.817.817 0 1 0-1.496-.657.864.864 0 0 0 0 .138h-.043Zm4.844-2.491a1.937 1.937 0 0 1-.865 1.367l-.251-.372a1.506 1.506 0 0 0 .71-1.09c.129-.64-.087-1.09-.598-1.194a.708.708 0 0 0-.588.104.97.97 0 0 0-.329.528l-.173.484a1.514 1.514 0 0 1-.493.736 1.064 1.064 0 0 1-.865.172 1.254 1.254 0 0 1-.986-1.47 1 1 0 0 1 0-.173 1.842 1.842 0 0 1 .744-1.202l.234.363a1.366 1.366 0 0 0-.58.934.865.865 0 0 0 .493 1.055h.13a.64.64 0 0 0 .545-.095c.16-.138.28-.317.346-.519l.182-.493a1.35 1.35 0 0 1 .467-.726 1.125 1.125 0 0 1 .925-.156c.787.147 1.133.84.952 1.747Zm-33.284-6.15a.683.683 0 1 1-.018-1.366.683.683 0 0 1 .018 1.366Z" fill="#fff"/><path d="M36.078 45.117a9.117 9.117 0 1 1-.017-18.234 9.117 9.117 0 0 1 .017 18.234Zm0-17.896a8.788 8.788 0 1 0-.018 17.576 8.788 8.788 0 0 0 .018-17.576Z" fill="#fff"/><path d="M35.879 57.097a21.07 21.07 0 1 1 21.07-21.088 21.097 21.097 0 0 1-21.07 21.088Zm0-41.657a20.587 20.587 0 1 0 20.586 20.586 20.596 20.596 0 0 0-20.586-20.604v.018Z" fill="#fff"/><path d="M8.442 35.844h55.254v.329H8.442v-.329Z" fill="#fff"/><path d="M35.827 8.373h.493v55.254h-.493V8.373Z" fill="#fff"/><path d="m16.359 16.645.348-.349 39.071 39.07-.349.35-39.07-39.071Z" fill="#fff"/><path d="m16.42 55.434 39.07-39.07.233.232-39.07 39.07-.233-.232ZM3.183 34.919h2.18v2.18h-2.18v-2.18Zm63.601 0h2.18v2.18h-2.18v-2.18ZM7.04 30.698l-4.324-.865.086-.467 4.325.865-.086.467Zm1.108-4.334-4.083 1.237 3.408 1.02-.138.46-4.247-1.28.13-.433L7.29 26.13l-3.399-1.038.138-.45 4.247 1.315-.13.406ZM5.587 22.04l3.66 1.643-.191.432-3.659-1.617-.528 1.176-.389-.173 1.246-2.776.389.173-.528 1.142Zm4.533-.139-3.806-2.283 1.41-2.362.363.216-1.167 1.964 1.34.796.995-1.661.363.216-.994 1.67 1.375.821 1.168-1.954.363.216-1.41 2.361Zm3.477-5.051-2.171-.407-.657.865 1.548 1.22-.294.372-3.46-2.751 1.03-1.384a1.194 1.194 0 0 1 1.651-.363l.13.095a1.15 1.15 0 0 1 .337 1.496l2.206.45-.32.407Zm-3.702-1.79-.735.933 1.297 1.004.736-.926a.865.865 0 0 0-.044-1.159.865.865 0 0 0-1.15.043l-.087.104h-.017Zm6.66-1.212-4.16-.951 2.456 2.595-.346.328-3.062-3.209.32-.311 4.152.943-2.448-2.595.346-.329 3.062 3.21-.32.32Zm3.313-2.543-.865-.605-1.566 1.133.303 1.02-.415.303-1.297-4.558.328-.234 3.919 2.647-.407.294Zm-3.27-2.275.692 2.388 1.35-.97-2.041-1.418Zm3.028-2.24 1.99 3.46-.407.233-1.998-3.46-1.116.64-.208-.371 2.639-1.514.207.372-1.107.64Zm3.806 2.552L21.546 5.32l.433-.208 1.868 4.03-.415.2Zm3.693-1.903a1.626 1.626 0 0 1-2.084.735c-.537-.25-.684-.614-1.021-1.566-.337-.951-.45-1.332-.19-1.868a1.54 1.54 0 0 1 .865-.778 1.522 1.522 0 0 1 1.185 0c.527.26.692.605 1.029 1.565.337.96.467 1.401.216 1.912Zm-1.427-3.036a1.107 1.107 0 0 0-1.453.51c-.165.363-.087.675.216 1.531.303.856.441 1.16.805 1.332a1.098 1.098 0 0 0 1.444-.51c.173-.364.087-.684-.216-1.54s-.467-1.15-.796-1.323Zm5.692 2.439-3.01-3.027.7 3.46-.459.12-.864-4.324.44-.087 3.02 2.984-.701-3.46.467-.095.865 4.325-.459.104Zm4.151-.372-.415-.977-1.937.12-.294 1.021h-.502l1.358-4.523h.398l1.894 4.324-.502.035Zm-1.548-3.667-.692 2.395 1.66-.103-.968-2.292Zm2.647 3.676.25-4.429h.476l-.233 4.013 2.266.13v.424l-2.76-.138Zm7.43 1.081-.121-1.055-1.886-.442-.57.865-.494-.12 2.595-3.954.39.087.579 4.697-.493-.078Zm-.433-3.962-1.34 2.094 1.608.371-.268-2.465Zm2.526 4.706a1.928 1.928 0 0 1-1.22-1.073l.407-.181a1.548 1.548 0 0 0 .977.865c.606.224 1.09.077 1.272-.416a.718.718 0 0 0 0-.596c-.087-.165-.19-.243-.467-.398l-.459-.251a1.54 1.54 0 0 1-.648-.597 1.055 1.055 0 0 1 0-.865 1.254 1.254 0 0 1 1.6-.753l.164.07c.457.137.842.447 1.073.865l-.441.225a1.411 1.411 0 0 0-.865-.718.865.865 0 0 0-1.116.337.302.302 0 0 0-.052.121.623.623 0 0 0 0 .554c.113.176.271.32.458.415l.459.25c.273.118.501.321.649.58a1.142 1.142 0 0 1 .051.952c-.233.692-.968.968-1.842.614Zm3.217 1.392a1.92 1.92 0 0 1-1.09-1.21l.433-.139a1.505 1.505 0 0 0 .865.977c.588.294 1.073.208 1.315-.26a.692.692 0 0 0 .052-.596c-.06-.173-.156-.268-.415-.458l-.424-.303a1.48 1.48 0 0 1-.57-.666 1.064 1.064 0 0 1 .068-.865 1.254 1.254 0 0 1 1.678-.554l.156.087a1.825 1.825 0 0 1 .96 1.038l-.432.095a1.385 1.385 0 0 0-.736-.779.865.865 0 0 0-1.15.208.65.65 0 0 0-.06.104.658.658 0 0 0-.061.553c.092.192.236.353.415.468l.424.31c.256.145.457.37.57.641a1.106 1.106 0 0 1-.06.951 1.315 1.315 0 0 1-1.79.528l-.147-.13Zm4.395 2.171a1.617 1.617 0 0 1-1.8-1.245c-.112-.58.087-.865.658-1.73.571-.865.805-1.142 1.384-1.254a1.626 1.626 0 0 1 1.834 1.245c.112.58-.078.917-.657 1.73-.58.813-.84 1.142-1.42 1.254Zm1.6-2.95a1.099 1.099 0 0 0-1.271-.864c-.39.078-.597.329-1.108 1.081-.51.753-.666 1.038-.596 1.436a1.09 1.09 0 0 0 1.263.865c.397-.078.605-.337 1.115-1.081s.658-1.038.597-1.436Zm.268 5.053a1.53 1.53 0 0 1-.536-1.065c0-.588.199-.864.865-1.652.666-.787.951-1.038 1.54-1.072a1.548 1.548 0 0 1 1.115.406 1.505 1.505 0 0 1 .268 2.016l-.363-.32a1.037 1.037 0 0 0-.19-1.376 1.081 1.081 0 0 0-.779-.276c-.398 0-.64.25-1.245.934-.606.683-.796.943-.779 1.35a1.1 1.1 0 0 0 1.73.778l.355.31a1.522 1.522 0 0 1-1.98-.034Zm1.817 1.695 3.243-3.028.32.346-3.235 3.028-.328-.346Zm2.716 3.261.58-.865-1.194-1.523-1.012.338-.312-.433L62.745 15l.242.311-2.5 4.013-.311-.397Zm2.18-3.348-2.362.779 1.012 1.306 1.35-2.085Zm2.334 2.95-3.407 2.119-.251-.407 3.408-2.119-.683-1.09.363-.225 1.609 2.595-.364.225-.674-1.098Zm-2.421 3.875 3.953-2.024.216.423-3.953 2.016-.216-.415Zm2.033 3.641a1.626 1.626 0 0 1-.814-2.058c.243-.545.589-.71 1.531-1.082.943-.372 1.315-.493 1.86-.26a1.618 1.618 0 0 1 .813 2.06c-.233.544-.588.709-1.53 1.08-.944.373-1.316.494-1.86.26Zm2.984-1.54a1.09 1.09 0 0 0-.563-1.427c-.371-.155-.683-.069-1.53.268-.848.338-1.134.485-1.298.866a1.107 1.107 0 0 0 .57 1.427c.364.155.676.06 1.523-.268.848-.33 1.133-.485 1.306-.865h-.008Zm-2.232 5.779 2.915-3.123-3.46.865-.112-.458 4.324-1.038.104.432-2.897 3.114 3.46-.822.103.459-4.325 1.038-.112-.467Z" fill="#fff"/><path d="m14.505 21.633-.398-.095-.112.501-.562.701.536.528.294.683.052 1.047.484.58.372.82.407.503v.622l.545.121.354-.164.606.467-.484 1.142.172.502.407 1.107.727.181.13.269.518.51 1.03-.51.666-.692.138-.805-.173-.623.64.614.052 1.324v1.107l-.865.865.07.407.665.44-.718.944-.778.718v1.773l-.623.545.614 2.102.865-.052.753-.52.778-.172.38-.243v1.28l.312.416-.32.58.865 3.122.666 1.306h.865l.96.813 2.085.744 1.237.657.865-.354 1.228-.606.908.77.476-.64 1.124-.121 2.146.76 1.911.65 1.41-.06.969-.762.76 1.53.122 1.73-.917 1.143-.26 1.115.148.97 1.496.475 2.033.147.735.355 2.059.233 1.73-1.116 1.496.761 2.266-1.323 3.028-2.24-.442-.865.563-.433.735-.467v-.796l1.583-2.5 1.384-.907.06-1.177-.38-.648 1.41-1.531 1.09-.528-.537-.502.476-.761.415-1.168v-.562l-1.047-.303-.493-2.326.736-.71-1.445-2.231-1.47-1.35-1.436-.38.147-.71.614-.908-.112-.467.674-.64-1.176-3.46-.087-1.53.294-.701-1.038-1.454-1.21.173-.148-.562-.76.208-.468-.649-2.326-.355-1.116.684-.424-.588-.234-1.506-1.937-.32-.476.528-2.543-1.418-3.356-.952-3.702-.19-2.059.614-1.557 1.237-.233.77-1.384 1.263-.294 1.877-.7.294.086.562-.147.527.233.675-.726 2.327-1.203 1.15-.908.32-.268-.233-4.377.527-6.055-3.59-.925-.345v-.234l-.675-.674-.294-.623-.277-1.064Z" fill="#fff"/><path d="M24.712 39.936v-9.1h1.73v9.091l-1.73.009Zm8.468 0-.52-1.618h-3.104l-.528 1.618h-1.782l3.183-9.1h1.341l3.192 9.1H33.18Zm-2.033-6.418L30.04 36.83h2.171l-1.064-3.312Zm9.869 6.418-.518-1.618h-3.106l-.527 1.618h-1.782l3.183-9.1h1.34l3.192 9.1h-1.782Zm-2.015-6.418-1.124 3.312h2.17l-1.046-3.312Zm6.868-1.098v7.516h-1.678v-7.517h-2.31v-1.583h6.28v1.583H45.87Zm8.459 6.625a3.33 3.33 0 0 1-4.679 0c-.865-.865-.865-1.93-.865-3.66 0-1.729 0-2.758.865-3.667a3.33 3.33 0 0 1 4.68 0c.864.909.864 1.93.864 3.668 0 1.738 0 2.76-.864 3.659Zm-1.245-6.22a1.383 1.383 0 0 0-1.107-.484 1.464 1.464 0 0 0-1.107.485c-.32.38-.416.865-.416 2.594 0 1.73.096 2.163.416 2.544a1.489 1.489 0 0 0 1.107.493 1.385 1.385 0 0 0 1.09-.493c.32-.39.432-.805.432-2.544 0-1.738-.112-2.17-.432-2.594h.017Z" fill="#383D49"/><path d="M36.078 64.016a27.99 27.99 0 1 1 .034-55.98 27.99 27.99 0 0 1-.034 55.98Zm0-55.314A27.333 27.333 0 1 0 63.41 36.035 27.332 27.332 0 0 0 36.078 8.658v.044Z" fill="#fff"/></svg>
