<svg xmlns="http://www.w3.org/2000/svg" width="32" height="47" fill="none"><path d="M5.322 20.086c1.196.312 1.785.121 2.07-1.025l2.821-10.229c.335-.901-.144-1.897-1.071-2.224a1.837 1.837 0 0 0-.25-.068c-2.008.22-3.812 1.295-4.926 2.935l-.821 8.04c-.214 1.112 1 2.276 2.177 2.57ZM15.414 8.562c2.109.57 4.28-.68 4.848-2.79a3.954 3.954 0 1 0-7.637-2.062 3.923 3.923 0 0 0 2.719 4.833l.07.02ZM31.92 18.314a2.202 2.202 0 0 0-2.21-2.176h-5.942l-3.006-5.16a2.156 2.156 0 0 0-1.343-1.017L15.21 8.837c-2.317-.59-4.682.779-5.304 3.072l-.973 3.51-.973 3.51-1.131 4.194a4.374 4.374 0 0 0-.177 1.053v10.232l-5.11 8.775a2.182 2.182 0 0 0 .134 3.1c.9.819 2.297.76 3.123-.133.158-.172.289-.368.385-.58l5.411-9.284v-.106c.066-.139.114-.287.142-.438a1.5 1.5 0 0 0 0-.404v-6.44a4.5 4.5 0 0 0 1.962-.44l3.43 5.897V44.5c0 1.212.99 2.194 2.21 2.194 1.221 0 2.211-.982 2.211-2.194V33.565c.017-.14.017-.28 0-.42a1.577 1.577 0 0 0-.141-.404v-.14l-4.88-8.39.777-2.895.973-3.51.707-2.686 2.546 4.37.177.194c.086.123.187.235.3.333l.337.228c.124.075.254.14.389.193.14.017.283.017.424 0h7.214L22.46 46.061a.42.42 0 0 0 .283.51.424.424 0 0 0 .512-.3l7.073-25.938a2.18 2.18 0 0 0 1.592-2.018Z" fill="#232933"/></svg>
