<svg xmlns="http://www.w3.org/2000/svg" width="29" height="42" viewBox="0 0 29 42" fill="none"><path d="M4.798 17.52c1.063.278 1.587.108 1.84-.91l2.508-9.093c.298-.801-.128-1.687-.952-1.977a1.634 1.634 0 0 0-.222-.06 6.086 6.086 0 0 0-4.38 2.608l-.73 7.148c-.19.987.89 2.022 1.936 2.284Z" fill="#FDB52B"/><path d="M13.77 7.278A3.52 3.52 0 0 0 15.6.483a3.515 3.515 0 0 0-4.31 2.48 3.487 3.487 0 0 0 2.416 4.298l.062.017ZM28.44 15.946a1.957 1.957 0 0 0-1.964-1.934h-5.28l-2.673-4.587a1.916 1.916 0 0 0-1.195-.905l-3.74-.998c-2.06-.525-4.163.692-4.715 2.73l-.865 3.12-.864 3.12-1.006 3.728c-.09.305-.144.62-.158.937v9.094l-4.542 7.8a1.94 1.94 0 0 0 .12 2.755 1.975 1.975 0 0 0 3.118-.633l4.81-8.252v-.094c.058-.124.1-.255.125-.39.016-.12.016-.24 0-.359v-5.725a4 4 0 0 0 1.745-.39l3.049 5.241v9.017c0 1.077.88 1.95 1.965 1.95a1.957 1.957 0 0 0 1.964-1.95v-9.718c.015-.125.015-.25 0-.375a1.4 1.4 0 0 0-.125-.359v-.124l-4.338-7.457.691-2.574.865-3.12.628-2.387 2.264 3.884.157.172c.076.11.166.21.267.296l.299.203c.11.067.226.124.345.172.126.015.252.015.378 0h6.412L20.032 40.61a.374.374 0 0 0 .251.452c.2.05.402-.068.456-.265l6.287-23.057a1.938 1.938 0 0 0 1.415-1.794Z" fill="#232933"/></svg>
