<svg xmlns="http://www.w3.org/2000/svg" width="36" height="34" viewBox="0 0 36 34" fill="none"><path d="m22.784 18.047-.004-.001-.005.007.009-.006Zm-2.835 2.377c-1.305.663-2.684.879-4.124.62-1.829-.328-3.387-1.315-4.634-2.933a.603.603 0 0 0-.057-.067.586.586 0 0 0-.076.027c-.08.035-.162.068-.243.102-.072.783-.37 3.788-.983 6.928-.666 3.415-1.46 5.837-2.402 7.323h13.826c-1.937-1.607-3.169-3.998-3.169-6.673 0-2.006.699-3.85 1.861-5.327Zm-14.177 12c1.881-1.917 3.172-8.876 3.646-13.67l-.77.319c-.888.367-1.806.746-2.704 1.126-1.995.845-3.443 2.302-4.307 4.332-.11.29-.248 2.314-.349 3.791-.145 2.124-.224 3.171-.33 3.558v.544h4.814Z" fill="#232933"/><path d="M24.487 9.618c-.457-.433-.438-.9-.422-1.275.005-.11.004-.214.002-.324l-.001-.157v-.368l.016-.001-.008-.113c-.025-.376-.049-.732-.107-1.083-.163-.99-.389-1.713-1.003-2.262-.187-.167-.237-.415-.27-.579-.2-1.008-.782-1.717-1.78-2.168A9.19 9.19 0 0 0 17.066.44c-.546 0-1.1.048-1.667.142-2.8.465-4.71 2.335-5.112 5.001-.098.655-.106 1.315-.115 2.015-.005.355-.01.722-.027 1.084-.016.332-.11.572-.282.714-.253.208-.37.48-.415.97-.154 1.646.405 3.147 1.706 4.589.191.21.343.467.428.722.377 1.12.893 2.002 1.578 2.699 1.7 1.728 3.475 2.25 5.43 1.594 1.883-.633 3.19-2.021 3.995-4.245a2.6 2.6 0 0 1 .483-.815c1.28-1.45 1.822-2.93 1.657-4.523-.057-.545-.185-.72-.237-.77Z" fill="#232933"/><path d="M27.596 17.9c-.294 0-.59.014-.883.044a.638.638 0 0 0 .097-.49c-.077-.343-.447-.574-.92-.574-.096 0-.194.01-.293.03a1.29 1.29 0 0 0-.678.351c-.174.184-.243.402-.195.615.037.167.145.31.305.412a8.275 8.275 0 0 0-3.952 2.669 7.452 7.452 0 0 0-1.683 4.721c0 4.29 3.68 7.78 8.203 7.78s8.203-3.49 8.203-7.78-3.68-7.779-8.203-7.779Zm-1.706-.494c.214 0 .36.081.377.158.01.044-.016.1-.069.154a.718.718 0 0 0-.433-.048.69.69 0 0 0-.373.209c-.07-.03-.116-.07-.125-.112-.011-.05.022-.114.09-.175a.774.774 0 0 1 .356-.168.924.924 0 0 1 .177-.018Zm3.485 13.678-.654-1.006a.147.147 0 0 0-.152-.062.139.139 0 0 0-.113.115l-.165 1.17c-.23.025-.464.038-.695.038-1.55 0-3.01-.557-4.126-1.57a.177.177 0 0 0 .034-.02l3.236-2.332c.217.096.452.155.688.174l.82 1.635a.147.147 0 0 0 .16.075.138.138 0 0 0 .113-.13l.05-1.81c.18-.093.344-.212.486-.354l.97.326a.148.148 0 0 0 .168-.054.13.13 0 0 0-.016-.168l-.708-.707c.078-.182.126-.371.143-.566l1.723-.779a.134.134 0 0 0 .078-.15.14.14 0 0 0-.136-.107l-1.762-.044 2.373-2.96a.135.135 0 0 0 .019-.033 5.611 5.611 0 0 1 1.388 2.227l-1.061.62a.133.133 0 0 0-.065.145.14.14 0 0 0 .121.106l1.233.157c.026.22.04.44.04.658 0 1.512-.621 2.934-1.748 4.003a6.038 6.038 0 0 1-2.442 1.403ZM23.022 26.6a.142.142 0 0 0-.12-.106l-1.234-.157c-.027-.22-.04-.44-.04-.659 0-1.512.62-2.933 1.748-4.002a6.04 6.04 0 0 1 2.442-1.404l.654 1.007c.032.049.093.073.152.061a.14.14 0 0 0 .113-.115l.165-1.17a6.47 6.47 0 0 1 .694-.037c1.55 0 3.01.557 4.127 1.57a.13.13 0 0 0-.034.019l-3.237 2.333a2.129 2.129 0 0 0-.687-.175l-.821-1.634a.146.146 0 0 0-.16-.075.138.138 0 0 0-.113.13l-.049 1.81a1.953 1.953 0 0 0-.487.354l-.97-.327a.148.148 0 0 0-.167.055.13.13 0 0 0 .016.167l.708.708a1.82 1.82 0 0 0-.143.566l-1.723.778a.134.134 0 0 0-.079.151c.014.062.07.107.137.108l1.762.043-2.373 2.96a.147.147 0 0 0-.019.033 5.618 5.618 0 0 1-1.388-2.227l1.061-.62a.133.133 0 0 0 .065-.145Zm5.341.266a1.547 1.547 0 0 1-1.095.17l.985-.709a.144.144 0 0 0 .027-.026l.748-.933.006.02c.128.577-.141 1.171-.67 1.478Zm-1.072-2.55a1.567 1.567 0 0 1 .488-.02l.016.002c.043.006.087.013.129.022l-.984.71a.132.132 0 0 0-.027.026l-.749.933a.249.249 0 0 0-.004-.02c-.169-.752.34-1.494 1.131-1.653Z" fill="#FDB52B"/></svg>
