<svg xmlns="http://www.w3.org/2000/svg" width="40" height="38" fill="none"><path d="m24.955 20.053-.003-.002-.007.008c.003-.003.007-.004.01-.006Zm-3.19 2.673c-1.466.746-3.018.99-4.638.698-2.057-.369-3.81-1.48-5.213-3.3a.671.671 0 0 0-.065-.075.66.66 0 0 0-.085.031c-.09.039-.183.076-.273.114-.081.88-.417 4.262-1.106 7.794-.75 3.841-1.642 6.567-2.702 8.239h15.554c-2.179-1.808-3.565-4.498-3.565-7.508 0-2.257.786-4.33 2.094-5.993Zm-15.948 13.5c2.117-2.156 3.57-9.985 4.102-15.378l-.865.358c-1 .413-2.033.84-3.044 1.268-2.243.95-3.873 2.59-4.844 4.873-.125.326-.28 2.603-.393 4.265C.61 34.002.52 35.18.402 35.615v.612h5.415Z" fill="#231F20"/><path d="M26.871 10.57c-.514-.487-.492-1.012-.474-1.434.005-.124.004-.24.002-.365l-.001-.177V8.18l.018-.001-.009-.127c-.028-.423-.055-.823-.12-1.218-.184-1.114-.438-1.927-1.129-2.545-.21-.188-.266-.467-.303-.651-.225-1.134-.88-1.932-2.002-2.44a10.34 10.34 0 0 0-4.33-.953c-.615 0-1.239.053-1.877.16-3.15.522-5.299 2.626-5.75 5.626-.111.736-.12 1.48-.13 2.266-.005.4-.01.813-.03 1.22-.018.374-.125.643-.318.803-.285.234-.416.54-.467 1.091-.172 1.852.456 3.541 1.92 5.162.215.238.385.527.482.813.423 1.26 1.004 2.252 1.774 3.036 1.912 1.945 3.91 2.532 6.108 1.793 2.12-.712 3.59-2.273 4.495-4.775.119-.328.312-.653.544-.916 1.44-1.632 2.05-3.297 1.864-5.09-.064-.612-.208-.809-.267-.864ZM30.37 19.886c-.332 0-.664.017-.994.05a.717.717 0 0 0 .11-.55c-.087-.386-.503-.647-1.036-.647-.108 0-.218.011-.33.033a1.45 1.45 0 0 0-.762.396c-.196.207-.274.453-.22.692.041.188.164.349.343.464a9.308 9.308 0 0 0-4.446 3.002c-1.239 1.536-1.893 3.373-1.893 5.311 0 4.827 4.14 8.753 9.228 8.753s9.228-3.926 9.228-8.753c0-4.826-4.14-8.751-9.228-8.751Zm-1.92-.554c.24 0 .405.09.424.177.01.05-.018.112-.077.173a.808.808 0 0 0-.488-.054.776.776 0 0 0-.42.235c-.077-.033-.13-.078-.14-.126-.013-.055.025-.128.1-.197a.872.872 0 0 1 .402-.188c.067-.013.134-.02.2-.02Zm3.92 15.387-.736-1.132a.166.166 0 0 0-.17-.069.156.156 0 0 0-.127.13l-.186 1.315a7.163 7.163 0 0 1-.781.043c-1.745 0-3.387-.627-4.642-1.767a.199.199 0 0 0 .038-.02l3.64-2.625c.245.107.508.174.774.196l.924 1.839a.165.165 0 0 0 .179.084.155.155 0 0 0 .127-.146l.056-2.036a2.22 2.22 0 0 0 .547-.398l1.091.366a.167.167 0 0 0 .19-.06.147.147 0 0 0-.02-.19l-.796-.795c.088-.204.143-.417.162-.636l1.938-.877c.067-.03.104-.1.088-.17a.158.158 0 0 0-.153-.12l-1.982-.049 2.669-3.33a.15.15 0 0 0 .021-.036 6.311 6.311 0 0 1 1.562 2.505l-1.194.698a.15.15 0 0 0-.073.162.157.157 0 0 0 .136.12l1.387.176c.03.247.046.495.046.74 0 1.702-.7 3.3-1.967 4.504a6.794 6.794 0 0 1-2.748 1.578Zm-7.146-5.044a.16.16 0 0 0-.137-.12l-1.387-.177a6.178 6.178 0 0 1-.045-.74c0-1.702.698-3.3 1.967-4.503a6.794 6.794 0 0 1 2.747-1.58l.736 1.133a.165.165 0 0 0 .171.07.158.158 0 0 0 .126-.13l.187-1.316c.259-.028.52-.043.78-.043 1.745 0 3.388.627 4.643 1.768a.15.15 0 0 0-.038.02l-3.641 2.625a2.395 2.395 0 0 0-.773-.196l-.924-1.84a.164.164 0 0 0-.18-.083.155.155 0 0 0-.127.146l-.055 2.036a2.197 2.197 0 0 0-.548.398l-1.09-.367a.167.167 0 0 0-.19.061.146.146 0 0 0 .018.188l.797.796a2.048 2.048 0 0 0-.161.637l-1.939.876a.151.151 0 0 0-.088.17c.016.07.08.12.154.121l1.982.048-2.67 3.331a.165.165 0 0 0-.02.037 6.318 6.318 0 0 1-1.562-2.506l1.194-.698a.15.15 0 0 0 .073-.162Zm6.009.3a1.742 1.742 0 0 1-1.232.191l1.107-.799a.16.16 0 0 0 .031-.029l.841-1.05.006.024c.145.648-.158 1.316-.753 1.662Zm-1.207-2.87a1.768 1.768 0 0 1 .55-.023c.005.002.012.002.018.003.048.006.096.015.144.025l-1.107.798a.152.152 0 0 0-.03.03l-.842 1.05a.294.294 0 0 0-.006-.024c-.189-.845.383-1.68 1.273-1.859Z" fill="#231F20"/></svg>
