<svg xmlns="http://www.w3.org/2000/svg" width="45" height="38" fill="none"><path d="M.63 31.543c.297-1.033.564-2.073.892-3.094.945-2.934 2.748-5.102 5.681-6.25.693-.272 1.389-.55 2.039-.906 1.821-.992 3.221-1.205 5.029.566 2.63 2.576 6.378 1.994 9.201-.833.603-.606 1.327-.706 2.172-.302-3.461 4.735-3.214 9.521.087 14.477-1.87.093-3.505.216-5.14.247-5.686.107-11.356-.031-16.903-1.459-1.042-.267-2.041-.71-3.058-1.073v-1.373Z" fill="#231F20"/><path d="M26.064 8.703c0 .175.007.35-.002.524-.016.385-.032.716.315 1.05.244.239.333.703.371 1.079.204 1.993-.548 3.66-1.828 5.142-.183.211-.335.471-.428.734-.79 2.234-2.122 3.994-4.435 4.787-2.433.835-4.424-.055-6.112-1.806-.829-.863-1.37-1.905-1.742-3.04a1.887 1.887 0 0 0-.364-.625c-1.319-1.49-2.07-3.18-1.887-5.21.047-.503.163-.965.582-1.316.104-.09.138-.304.147-.462.052-1.117-.011-2.25.152-3.348.453-3.079 2.61-5.167 5.683-5.688C18.61.168 20.607.42 22.53 1.31c1.135.526 1.853 1.375 2.093 2.612.028.136.06.305.155.39.783.715 1.019 1.673 1.178 2.654.093.573.106 1.156.156 1.735l-.048.002ZM44.321 27.876c.003 5.42-4.25 9.75-9.58 9.756-5.61.01-10.073-4.231-10.154-9.648-.08-5.336 4.49-9.978 9.878-10.037 5.437-.059 9.854 4.39 9.856 9.929Zm-11.439 1.828c-1.749-1.776-3.373-3.448-5.982-2.866 1.832 2.32 3.536 4.542 5.32 6.698.764.922 1.518.49 2.098-.321a2187.78 2187.78 0 0 0 6.62-9.29c.044-.061-.03-.206-.096-.553-3.604.863-5.618 3.663-7.96 6.332Z" fill="#231F20"/></svg>
