<svg xmlns="http://www.w3.org/2000/svg" width="40" height="34" viewBox="0 0 40 34" fill="none"><path d="M.76 28.26c.265-.918.502-1.842.794-2.75.84-2.607 2.442-4.534 5.05-5.555.616-.242 1.234-.49 1.812-.806 1.62-.882 2.863-1.071 4.47.504 2.338 2.289 5.67 1.771 8.18-.741.535-.539 1.178-.628 1.93-.268-3.077 4.208-2.857 8.463.077 12.868-1.661.083-3.115.192-4.57.22-5.053.095-10.093-.028-15.024-1.297-.926-.238-1.814-.632-2.718-.954v-1.22Z" fill="#232933"/><path d="M23.369 7.959c0 .155.006.31-.002.465-.014.342-.028.636.28.934.217.212.296.624.33.958.181 1.772-.487 3.255-1.625 4.571a2.065 2.065 0 0 0-.38.653c-.703 1.985-1.887 3.55-3.943 4.254-2.162.743-3.932-.048-5.432-1.604-.737-.768-1.219-1.694-1.549-2.703a1.677 1.677 0 0 0-.324-.555c-1.172-1.325-1.84-2.827-1.677-4.631.042-.447.145-.858.517-1.17.093-.08.123-.27.131-.411.046-.993-.01-2 .135-2.976.403-2.737 2.32-4.593 5.052-5.056 1.86-.316 3.636-.093 5.346.699 1.009.467 1.647 1.222 1.86 2.321.024.121.053.272.137.347.697.636.906 1.488 1.047 2.36.083.51.095 1.027.14 1.542l-.043.002Z" fill="#232933"/><path d="M39.597 25c.002 4.82-3.777 8.667-8.515 8.673-4.987.008-8.954-3.761-9.026-8.576-.07-4.744 3.99-8.87 8.78-8.922 4.833-.052 8.76 3.903 8.761 8.826ZM29.43 26.627c-1.554-1.579-2.998-3.065-5.318-2.548 1.63 2.063 3.143 4.038 4.73 5.954.679.82 1.35.435 1.865-.285 1.969-2.749 3.93-5.502 5.883-8.258.04-.054-.026-.183-.084-.492-3.204.768-4.994 3.257-7.076 5.629Z" fill="#FDB52B"/></svg>
