<svg width="173" height="50" viewBox="0 0 173 50" fill="none" xmlns="http://www.w3.org/2000/svg"><path d="m16.37 37.62-.003-.002-.226-.15.007-.013c-6.653-4.58-8.512-13.758-4.12-20.65 4.443-6.97 13.589-8.951 20.428-4.424 6.842 4.525 8.785 13.844 4.342 20.812a14.837 14.837 0 0 1-4.295 4.389l7.81 5.166C45.035 38.353 48 32.03 48 25 48 11.728 37.438.969 24.413.969S.827 11.728.827 24.999c0 13.273 10.561 24.032 23.586 24.032a23.15 23.15 0 0 0 7.379-1.206L16.372 37.62l-.002-.002Z" fill="#FDB52B"/><path d="M131.724 27.451c0 .683-.542 1.236-1.213 1.236a1.224 1.224 0 0 1-1.212-1.236c0-.682.543-1.235 1.212-1.235.671 0 1.213.553 1.213 1.235ZM56.34 42.715V26.226h9.856v2.252h-7.443v4.79h6.681v2.25h-6.681v4.945h7.723v2.252H56.339ZM75.67 42.715l-2.998-4.323-3.023 4.323h-2.464l4.32-5.875-4.027-5.644h2.642l2.806 4.064 2.77-4.064h2.413l-4.014 5.617 4.243 5.902h-2.667ZM81.385 40.412c.507.31 1.372.517 2.286.517 2.184 0 3.81-1.269 3.81-4.194 0-2.588-1.523-3.753-3.81-3.753-.813 0-1.727.155-2.286.388v7.042Zm2.312 2.562c-.814 0-1.575-.13-2.312-.389v6.342l-2.11.513V31.972c1.271-.672 2.872-1.035 4.65-1.035 3.582 0 5.792 2.071 5.792 5.798 0 3.779-2.514 6.24-6.02 6.24ZM98.76 35.467v-.362c0-1.373-.762-2.278-2.49-2.278-1.703 0-2.743 1.268-2.921 2.64h5.41Zm1.829 6.368c-.915.776-2.312 1.14-3.734 1.14-3.481 0-5.844-2.382-5.844-5.954 0-3.858 2.49-6.084 5.462-6.084 2.667 0 4.471 1.656 4.471 4.478 0 .492-.025 1.346-.075 1.864h-7.698c.05 2.226 1.651 3.624 4.014 3.624 1.499 0 2.768-.621 3.404-1.268v2.2ZM110.662 33.5c-.433-.285-1.449-.518-2.287-.518-2.159 0-3.811 1.268-3.811 4.194 0 2.536 1.448 3.753 3.811 3.753.889 0 1.753-.181 2.287-.415v-7.015Zm2.108 8.283c-1.27.75-2.87 1.191-4.649 1.191-3.581 0-5.792-2.097-5.792-5.798 0-3.78 2.617-6.239 5.869-6.239 1.04 0 1.879.207 2.464.492v-6.925l2.108-.506v17.785ZM115.817 42.715v-11.52h2.108v11.52h-2.108ZM127.401 41.835c-.661.803-1.678 1.14-2.642 1.14-1.678 0-2.896-.907-2.896-2.797v-7.092h-1.907v-1.89h1.907v-3.242l2.108-.503v3.745h2.972v1.89h-2.972v6.782c0 .777.457 1.087 1.345 1.087.89 0 1.652-.441 2.085-.984v1.864ZM129.457 42.715v-11.52h2.108v11.52h-2.108ZM143.022 36.916c0-2.46-1.524-3.934-3.581-3.934-2.084 0-3.659 1.579-3.659 4.012 0 2.46 1.525 3.935 3.582 3.935 2.085 0 3.658-1.58 3.658-4.013Zm-3.658 6.058c-3.354 0-5.818-2.434-5.818-5.98 0-3.495 2.643-6.057 5.895-6.057 3.353 0 5.818 2.433 5.818 5.98 0 3.495-2.643 6.057-5.895 6.057ZM154.58 42.715v-8.231c0-1.035-.559-1.528-1.88-1.528-1.143 0-2.591.595-3.354 1.191v8.568h-2.108v-11.52h1.855l.228 1.062c1.296-.957 2.642-1.32 3.989-1.32 1.98 0 3.379.932 3.379 3.495v8.283h-2.109ZM159.099 39.893c.636.674 1.855 1.088 3.099 1.088 1.499 0 2.007-.544 2.007-1.45 0-1.967-5.233-1.528-5.233-5.1 0-2.096 1.728-3.494 4.116-3.494 1.22 0 2.235.233 2.923.699v2.304c-.483-.544-1.678-1.01-2.871-1.01-1.424 0-1.932.518-1.932 1.398 0 1.734 5.234 1.398 5.234 5.1 0 1.992-1.499 3.546-4.218 3.546-1.397 0-2.617-.336-3.277-.855l.152-2.226ZM59.163 7.591c1.842-2.892 5.635-3.712 8.472-1.836 2.837 1.878 3.643 5.742 1.8 8.632-1.842 2.892-5.634 3.713-8.471 1.835-2.837-1.877-3.643-5.741-1.801-8.631Zm12.097 8.004c2.496-3.917 1.404-9.154-2.44-11.697-3.845-2.544-8.985-1.432-11.482 2.485-2.468 3.874-1.423 9.031 2.316 11.606l.053.044 9.778 6.47 2.948-.692-6.783-4.488a8.264 8.264 0 0 0 5.61-3.728ZM76.419 7.73v8.231c0 1.036.56 1.528 1.88 1.528.966 0 2.414-.596 3.176-1.19V7.73h2.109v11.52h-1.855l-.229-1.088c-1.244.932-2.642 1.346-3.81 1.346-1.982 0-3.38-.932-3.38-3.495V7.73h2.109ZM91.501 14.202c-2.717.413-3.708 1.01-3.708 2.174 0 .906.508 1.32 1.779 1.32.711 0 1.549-.233 1.93-.57v-2.924Zm-2.844 5.306c-1.678 0-3.075-.958-3.075-2.796 0-2.33 1.905-3.65 5.92-4.194v-1.656c0-.517-.127-.75-.432-.958-.38-.259-.965-.388-1.727-.388-1.373 0-2.693.57-3.303 1.295V8.688c.763-.802 2.159-1.216 3.582-1.216 2.566 0 3.99 1.216 3.99 3.623 0 .389-.128 5.617-.128 6.187.305.207.711.31 1.092.31.103 0 .177 0 .255-.025l-.204 1.863a2.262 2.262 0 0 1-.584.078c-.864 0-1.626-.259-2.185-.932-1.093.725-2.211.932-3.201.932ZM102.94 9.827c-.279-.13-.659-.207-1.143-.207-.966 0-2.134.363-3.1 1.217v8.412h-2.109V7.731h1.856l.253 1.19c1.017-1.061 2.033-1.45 3.024-1.45.534 0 .889.13 1.219.363v1.993ZM111.653 19.25l-4.471-5.359h-.585v5.358h-2.109V1.07l2.109-.509v11.881h.585l4.572-4.84 2.489.259-5.08 5.125 5.233 6.264h-2.743ZM170.35 29.098c-.348 0-.686.092-1.015.272-.329.182-.586.44-.771.779-.185.337-.279.69-.279 1.053s.092.71.274 1.043c.18.333.439.594.764.779.329.184.671.279 1.027.279.356 0 .698-.095 1.026-.28.327-.184.583-.445.762-.779a2.14 2.14 0 0 0-.004-2.095 1.912 1.912 0 0 0-.771-.78 2.105 2.105 0 0 0-1.013-.271Zm0-.418c.415 0 .821.109 1.216.325.395.219.704.527.923.933.221.403.332.826.332 1.264 0 .434-.109.85-.326 1.253-.218.399-.523.712-.913.932a2.465 2.465 0 0 1-1.232.333c-.428 0-.838-.11-1.231-.333a2.335 2.335 0 0 1-.917-.932 2.593 2.593 0 0 1-.326-1.253c0-.438.111-.86.331-1.265a2.31 2.31 0 0 1 .927-.932 2.507 2.507 0 0 1 1.216-.325Z" fill="#fff"/><path d="M169.669 31.048h.698a.99.99 0 0 0 .349-.05.372.372 0 0 0 .19-.147.402.402 0 0 0 .064-.224.368.368 0 0 0-.126-.293c-.082-.075-.215-.114-.397-.114h-.778v.828Zm-.323 1.396v-2.5h1.085c.221 0 .389.023.5.069a.546.546 0 0 1 .273.237.703.703 0 0 1 .101.377.632.632 0 0 1-.167.447c-.113.122-.287.198-.523.232a.764.764 0 0 1 .194.124c.096.09.187.2.27.332l.428.682h-.409l-.325-.52a4.264 4.264 0 0 0-.233-.344.714.714 0 0 0-.165-.17.46.46 0 0 0-.15-.065.991.991 0 0 0-.179-.011h-.377v1.11h-.323ZM118.082 27.451c0 .683-.542 1.236-1.21 1.236-.67 0-1.214-.553-1.214-1.236 0-.682.544-1.235 1.214-1.235.668 0 1.21.553 1.21 1.235Z" fill="#fff"/></svg>
