<svg xmlns="http://www.w3.org/2000/svg" width="46" height="32" viewBox="0 0 46 32" fill="none"><g clip-path="url(#amex_a)"><path fill="#016FD0" fill-rule="evenodd" d="M0 2.996A3.004 3.004 0 0 1 3 0h40c1.657 0 3 1.334 3 2.996v26.008A3.004 3.004 0 0 1 43 32H3c-1.657 0-3-1.334-3-2.996V2.996Z" clip-rule="evenodd"/><path fill="#fff" fill-rule="evenodd" d="M8.936 24.202v-7.138h7.612l.817 1.057.844-1.057H45.84v6.646s-.723.485-1.558.492h-15.3l-.921-1.125v1.125h-3.018v-1.92s-.412.267-1.303.267h-1.027v1.653h-4.569l-.816-1.08-.828 1.08H8.936ZM.046 11.684 1.763 7.71H4.73l.975 2.226V7.71h3.69l.58 1.61.562-1.61h16.566v.81s.871-.81 2.303-.81l5.375.019.957 2.197V7.71h3.089l.85 1.262V7.71h3.116v7.139h-3.116l-.815-1.266v1.266h-4.538l-.456-1.126h-1.22L32.2 14.85h-3.077c-1.231 0-2.019-.793-2.019-.793v.793h-4.64l-.92-1.126v1.126H4.292l-.456-1.126H2.62l-.453 1.126H.046v-3.166Z" clip-rule="evenodd"/><path fill="#016FD0" d="M2.37 8.59.055 13.935h1.507l.427-1.07h2.484l.425 1.07h1.54L4.127 8.59H2.37Zm.857 1.244.757 1.87H2.468l.759-1.87Z"/><path fill="#016FD0" fill-rule="evenodd" d="M6.598 13.934V8.59l2.142.008 1.246 3.446 1.216-3.454h2.125v5.345h-1.346V9.996l-1.426 3.938h-1.18L7.944 9.996v3.938H6.598Zm7.65 0V8.59h4.392v1.196h-3.032v.914h2.961v1.125h-2.96v.95h3.03v1.16l-4.391-.001Z" clip-rule="evenodd"/><path fill="#016FD0" d="M19.419 8.59v5.345h1.346v-1.899h.567l1.613 1.9h1.645l-1.771-1.97a1.632 1.632 0 0 0 1.476-1.642c0-1.124-.889-1.734-1.881-1.734h-2.995Zm1.346 1.196h1.538c.37 0 .638.287.638.563 0 .355-.348.562-.618.562h-1.558V9.786Z"/><path fill="#016FD0" fill-rule="evenodd" d="M26.22 13.934h-1.375V8.59h1.374l.001 5.344Zm3.257 0h-.296c-1.435 0-2.307-1.122-2.307-2.65 0-1.566.862-2.695 2.674-2.695h1.488v1.266h-1.542c-.736 0-1.256.57-1.256 1.442 0 1.035.595 1.47 1.452 1.47h.354l-.567 1.167Z" clip-rule="evenodd"/><path fill="#016FD0" d="m32.406 8.59-2.315 5.345h1.507l.427-1.07h2.484l.425 1.07h1.54L34.162 8.59H32.406Zm.857 1.244.757 1.87h-1.517l.76-1.87Z"/><path fill="#016FD0" fill-rule="evenodd" d="M36.632 13.934V8.59h1.71l2.186 3.359v-3.36h1.345v5.345h-1.655l-2.24-3.446v3.446h-1.346ZM9.856 23.288v-5.345h4.392v1.195h-3.032v.915h2.961v1.125h-2.96v.95h3.031v1.16H9.856Zm21.52 0v-5.345h4.391v1.195h-3.031v.915h2.946v1.125h-2.946v.95h3.031v1.16h-4.391Zm-16.957 0 2.138-2.64-2.19-2.705h1.696l1.304 1.672 1.308-1.672h1.63l-2.161 2.672 2.142 2.673h-1.695l-1.266-1.646-1.235 1.646h-1.671Z" clip-rule="evenodd"/><path fill="#016FD0" d="M20.446 17.944v5.345h1.381V21.6h1.417c1.199 0 2.107-.632 2.107-1.86 0-1.017-.712-1.797-1.932-1.797l-2.973.001Zm1.381 1.209h1.492c.388 0 .664.235.664.615 0 .357-.275.615-.668.615h-1.488v-1.23Zm4.109-1.21v5.345h1.346v-1.9h.566l1.614 1.9h1.645l-1.771-1.97a1.632 1.632 0 0 0 1.476-1.641c0-1.125-.889-1.734-1.881-1.734h-2.995Zm1.346 1.195h1.538c.37 0 .638.287.638.563 0 .355-.348.563-.618.563h-1.558v-1.126Z"/><path fill="#016FD0" fill-rule="evenodd" d="M36.39 23.288v-1.16h2.694c.399 0 .571-.215.571-.449 0-.225-.172-.452-.57-.452h-1.218c-1.058 0-1.647-.64-1.647-1.6 0-.858.54-1.684 2.112-1.684h2.62l-.566 1.202h-2.267c-.433 0-.566.226-.566.442 0 .221.164.466.495.466h1.275c1.18 0 1.692.664 1.692 1.534 0 .935-.57 1.7-1.756 1.7h-2.868l-.001.001Zm4.94 0v-1.16h2.694c.398 0 .571-.215.571-.449 0-.225-.172-.452-.571-.452h-1.217c-1.058 0-1.647-.64-1.647-1.6 0-.858.54-1.684 2.111-1.684h2.621l-.567 1.202H43.06c-.434 0-.567.226-.567.442 0 .221.165.466.496.466h1.275c1.18 0 1.691.664 1.691 1.534 0 .935-.57 1.7-1.755 1.7l-2.87.001Z" clip-rule="evenodd"/></g><defs><clipPath id="amex_a"><path fill="#fff" d="M0 0h46v32H0z"/></clipPath></defs></svg>