<svg xmlns="http://www.w3.org/2000/svg" width="46" height="32" viewBox="0 0 46 32" fill="none"><g clip-path="url(#mastercard_a)"><path fill="#fff" fill-rule="evenodd" stroke="#E6E7E8" d="M.5 2.996v26.008A2.494 2.494 0 0 0 3 31.5h40c1.375 0 2.5-1.12 2.5-2.496V2.996A2.493 2.493 0 0 0 43 .5H3C1.625.5.5 1.62.5 2.996Z" clip-rule="evenodd"/><path fill="#FF5F00" fill-rule="evenodd" d="M19.277 10.105h7.32v11.769h-7.32V10.105Z" clip-rule="evenodd"/><path fill="#EB001B" fill-rule="evenodd" d="M20.03 15.99a7.431 7.431 0 0 1 2.905-5.884c-3.118-2.411-7.595-2.06-10.284.807a7.398 7.398 0 0 0 0 10.155c2.69 2.867 7.166 3.219 10.284.807a7.43 7.43 0 0 1-2.905-5.885Z" clip-rule="evenodd"/><path fill="#F79E1B" d="M34.595 21.185v-.703h.166v-.145h-.396v.145h.156v.703h.074Zm.77 0v-.848h-.12l-.14.606-.14-.606h-.12v.848h.086v-.642l.13.551h.09l.13-.551v.642h.084Z"/><path fill="#F79E1B" fill-rule="evenodd" d="M35.237 15.99c0 2.865-1.662 5.479-4.28 6.731a7.702 7.702 0 0 1-8.022-.848 7.442 7.442 0 0 0 2.905-5.884 7.443 7.443 0 0 0-2.905-5.885 7.702 7.702 0 0 1 8.021-.848c2.619 1.252 4.281 3.866 4.281 6.732v.002Z" clip-rule="evenodd"/></g><defs><clipPath id="mastercard_a"><path fill="#fff" d="M0 0h46v32H0z"/></clipPath></defs></svg>