<svg xmlns="http://www.w3.org/2000/svg" width="46" height="32" viewBox="0 0 46 32" fill="none"><g clip-path="url(#visa_a)"><path fill="#fff" fill-rule="evenodd" stroke="#E6E7E8" d="M.5 2.996v26.008A2.494 2.494 0 0 0 3 31.5h40c1.375 0 2.5-1.12 2.5-2.496V2.996A2.493 2.493 0 0 0 43 .5H3C1.625.5.5 1.62.5 2.996Z" clip-rule="evenodd"/><path fill="#0742A6" fill-rule="evenodd" d="M20.925 20.691h-2.467L20 11.417h2.467l-1.542 9.274Zm8.943-9.047a6.234 6.234 0 0 0-2.213-.395c-2.436 0-4.152 1.263-4.162 3.068-.02 1.332 1.228 2.072 2.162 2.516.954.454 1.279.75 1.279 1.155-.01.621-.771.908-1.482.908-.985 0-1.512-.148-2.314-.494l-.325-.148-.346 2.082c.58.256 1.645.484 2.752.494 2.589 0 4.274-1.244 4.294-3.168.01-1.055-.65-1.864-2.071-2.525-.863-.425-1.391-.711-1.391-1.145.01-.395.447-.8 1.42-.8a4.295 4.295 0 0 1 1.838.356l.223.098.336-2.002Z" clip-rule="evenodd"/><path fill="#0742A6" d="m33.147 17.406.985-2.595c-.01.02.203-.543.324-.888l.173.8s.467 2.22.569 2.683h-2.051Zm3.045-5.989h-1.908c-.589 0-1.036.168-1.29.77L29.33 20.69h2.589l.517-1.39h3.168c.07.325.294 1.39.294 1.39h2.284l-1.99-9.273Z"/><path fill="#0742A6" fill-rule="evenodd" d="m16.397 11.417-2.416 6.324-.264-1.282c-.447-1.48-1.848-3.088-3.41-3.888l2.212 8.11h2.609l3.878-9.264h-2.609Z" clip-rule="evenodd"/><path fill="#0742A6" fill-rule="evenodd" d="M11.737 11.417H7.768l-.04.187c3.096.77 5.146 2.625 5.989 4.855l-.863-4.262c-.142-.593-.579-.76-1.117-.78Z" clip-rule="evenodd"/></g><defs><clipPath id="visa_a"><path fill="#fff" d="M0 0h46v32H0z"/></clipPath></defs></svg>