<svg xmlns="http://www.w3.org/2000/svg" width="26" height="25" viewBox="0 0 26 25" fill="none"><g fill="#232933"><path d="M25.08 6.89c.18 1.284.09 2.378-.201 3.332a7.585 7.585 0 0 0-5.72-2.59c-4.225 0-7.656 3.432-7.656 7.646a7.623 7.623 0 0 0 3.11 6.152c-1.053 1.364-1.836 2.66-1.886 3.482-.06-.833-.833-2.057-1.857-3.331-1.013-1.285-2.277-2.61-3.32-3.633-1.295-1.315-3.031-2.409-4.466-3.763-1.717-1.646-3-3.673-2.54-6.904.322-2.127 1.285-3.653 2.54-4.626 1.645-1.284 6.833-2.85 9.633 2.157l.05.302c.843-2.299 2.007-3.412 4.034-3.984 2.69-.693 5.84.25 7.406 3.09.41.753.712 1.646.873 2.67Z"/><path d="M19.399 9.9a5.721 5.721 0 0 1 5.73 5.73 5.72 5.72 0 0 1-5.73 5.72 5.726 5.726 0 1 1 0-11.45Zm3.483 4.606h-2.078v-2.077h-2.137v2.077H16.59v2.137h2.077v2.077h2.137v-2.077h2.078v-2.137Z"/></g></svg>
