<svg xmlns="http://www.w3.org/2000/svg" width="38" height="37" fill="none"><path d="M37.12 9.835c.27 1.926.135 3.567-.301 4.997a11.378 11.378 0 0 0-8.58-3.884c-6.337 0-11.485 5.148-11.485 11.47 0 3.778 1.836 7.15 4.666 9.227-1.58 2.046-2.754 3.989-2.83 5.223-.09-1.25-1.25-3.086-2.784-4.997-1.52-1.927-3.417-3.914-4.982-5.45-1.941-1.971-4.546-3.612-6.699-5.644-2.574-2.469-4.5-5.509-3.808-10.356.482-3.19 1.926-5.48 3.808-6.939 2.469-1.926 10.251-4.275 14.45 3.236l.075.452c1.265-3.447 3.01-5.117 6.052-5.976 4.033-1.039 8.76.377 11.108 4.637.616 1.129 1.068 2.468 1.31 4.004Z" fill="#232933"/><path d="M28.599 14.35a8.582 8.582 0 0 1 8.595 8.595c0 4.741-3.838 8.58-8.595 8.58-4.742 0-8.595-3.838-8.595-8.58a8.592 8.592 0 0 1 8.595-8.595Zm5.223 6.909h-3.116v-3.116h-3.205v3.116h-3.116v3.206h3.116v3.115h3.205v-3.115h3.116v-3.206Z" fill="#232933"/></svg>
