<svg xmlns="http://www.w3.org/2000/svg" width="49" height="36" viewBox="0 0 49 36" fill="none"><path d="M37.54 32.535c-3.946 0-7.123-2.792-7.123-6.353 0-3.465 3.177-6.353 7.123-6.353 2.984 0 5.583 1.636 6.642 4.043.289.674.481 1.444.481 2.214 0 3.561-3.176 6.449-7.123 6.449Zm-26.374 0c-3.947 0-7.123-2.792-7.123-6.353 0-.77.192-1.54.481-2.214 1.059-2.407 3.754-4.043 6.642-4.043 3.946 0 7.123 2.792 7.123 6.353 0 3.37-3.177 6.257-7.123 6.257Zm36.866-9.818L40.14 4.139C39.08 1.733 36.385.096 33.497.096c-2.984 0-5.583 1.637-6.641 4.043-.29.674-.482 1.444-.482 2.214v8.085h-4.042V6.353C22.332 2.888 19.155 0 15.209 0c-2.984 0-5.583 1.636-6.642 4.043L.674 22.62A8.878 8.878 0 0 0 0 26.086C0 31.572 5.005 36 11.166 36c6.16 0 11.166-4.428 11.166-9.914v-.867h4.042v.867C26.374 31.572 31.38 36 37.54 36s11.166-4.428 11.166-9.914a8.755 8.755 0 0 0-.674-3.37Z" fill="#232933"/></svg>
