<svg xmlns="http://www.w3.org/2000/svg" viewBox="0 0 72 72"><path d="M49.7 51c-4.1 0-7.4-2.9-7.4-6.6 0-3.6 3.3-6.6 7.4-6.6 3.1 0 5.8 1.7 6.9 4.2.3.7.5 1.5.5 2.3 0 3.7-3.3 6.7-7.4 6.7m-27.4 0c-4.1 0-7.4-2.9-7.4-6.6 0-.8.2-1.6.5-2.3 1.1-2.5 3.9-4.2 6.9-4.2 4.1 0 7.4 2.9 7.4 6.6 0 3.5-3.3 6.5-7.4 6.5m38.3-10.2-8.2-19.3c-1.1-2.5-3.9-4.2-6.9-4.2-3.1 0-5.8 1.7-6.9 4.2-.3.7-.5 1.5-.5 2.3v8.4h-4.2v-8.4c0-3.6-3.3-6.6-7.4-6.6-3.1 0-5.8 1.7-6.9 4.2l-8.2 19.3c-.5 1.2-.7 2.4-.7 3.6 0 5.7 5.2 10.3 11.6 10.3 6.4 0 11.6-4.6 11.6-10.3v-.9h4.2v.9c0 5.7 5.2 10.3 11.6 10.3 6.4 0 11.6-4.6 11.6-10.3 0-1.1-.2-2.3-.7-3.5"/></svg>
