<svg xmlns="http://www.w3.org/2000/svg" width="52" height="56" viewBox="0 0 52 56" fill="none">
<path d="M50.5 49C50.2 48.8 50 48.7 49.7 48.6C49.1 48.4 48.6999 48 48.5999 47.4C48.3999 46.5 47.7 46.1 47 46C45.5999 45.8 44.7 44.9 44 43.9C43.4 43.2 43.1999 42.2 43.5999 41.2C43.6999 41 43.6999 40.8 43.5999 40.5C43.5 40.2 43.6 39.7 43.7 39.4C44.1 35.7 45.5999 32.3 47.5 29.2C47.7 28.9 47.8999 28.6 48.0999 28.3C48.5999 27.5 48.8 26.7 48.9 25.8C49.1 23.9 49.2 21.9 49.7999 20.1C50.3999 18.2 50.4 16.2 50 14.2C49.7999 13.2 49.8999 12.1 49.7999 11.1C49.5999 8.7 49 6.4 47.7999 4.3C47.2999 3.4 46.6999 2.5 46.0999 1.5C45.8999 1.1 45.5999 0.699999 45 0.899999C44.4 0.899999 44 1.7 44 2.1C44 2.2 44.0999 2.3 44.0999 2.4C44.0999 2.6 44 2.9 44 3.1C43.9 3.5 43.7999 3.8 43.7999 4.1C43.7999 4.4 43.7999 4.8 43.7999 5.1C43.7999 5.5 43.7999 5.9 43.7999 6.2C43.7999 6.8 43.8999 7.4 43.5999 8.1C43.3999 8.4 43.5 8.9 43.4 9.3C43.3 9.7 43.1999 10.1 43.0999 10.5C42.8999 11.1 42.7999 11.7 42.7 12.3C42.5 13.4 42.4 14.5 42.2 15.6C41.9 17 41.5999 18.4 41.2999 19.8C41.2 20.4 41.0999 21 41 21.6C41 21.8 40.7999 22 40.7999 22.2C40.7 22.6 40.5999 22.9 40.5 23.3C40.5 23.4 40.5 23.4 40.5 23.5C40.2 24.2 39.8 25 39.4 25.7C39.2 26.1 39 26.5 38.7999 26.9C38.7999 27 38.7999 27.1 38.7 27.1C38 28.7 37.2 30.2 36.5 31.8C35.7 33.6 35.2 35.4 35 37.3C34.7999 39.3 34.4 41.2 34 43.1C33.9 43.7 33.6 44.3 33.4 44.8C33.3 45.2 32.6999 45.4 32.2999 45.3C30.0999 44.8 28 44.3 25.7999 44.3C24.5 44.3 23.1999 44.7 21.7999 44.8C17.7999 45.3 13.8 45.8 9.79995 46.3C6.99995 46.6 4.09995 46.7 1.29995 46.3C1.19995 46.3 0.999951 46.3 0.899951 46.3C0.899951 46.3 0.799951 46.3 0.699951 46.4C0.899951 46.6 0.999951 46.7 1.19995 46.7C1.89995 46.9 2.59995 47 3.29995 47.2C3.89995 47.3 4.49995 47.4 5.09995 47.5C6.49995 47.9 7.79995 47.7 9.19995 47.6C10.3 47.5 11.5 47.4 12.6 47.3C13 47.3 13.5 47.6 13.9 47.6C14.4 47.7 14.9 47.7 15.4 47.7C16 47.7 16.5 47.7 17.1 47.7C17.7 47.7 18.3 47.6 18.9 47.7C19.8 47.9 20.8 48.1 21.7 48.4C22.6 48.6 23.6 48.9 24.5 49.1C25.2 49.3 25.7999 49.4 26.5 49.6C26.6 49.6 26.6999 49.6 26.7999 49.6C27.1999 49.4 27.4 49.5 27.4 50C27.8 49.9 28.1999 49.8 28.5999 49.6L28.7 49.7C27.1 50.8 25.5 51.9 23.9 52.9C22.2 53.9 20.4 54.4 18.4 54.7C18.4 54.8 18.4 54.9 18.4 54.9C18.8 55 19.3 55.1 19.7 55.1C20.7 54.9 21.6999 54.6 22.5999 54.4C22.7999 54.4 23 54.3 23.2 54.5C23.3 54.6 23.7 54.6 23.9 54.6C24.5 54.5 25.1 54.4 25.7 54.4C26.1 54.4 26.5 54.4 26.7999 54.4C26.9 54.4 27.1 54.5 27.2 54.4C28.1 53.9 29.1 54.1 30 54C31.5 54 33 54.1 34.5999 54.2C36.0999 54.3 37.5 54 38.7999 53.5C40.5999 52.7 42.4 52.1 44.4 51.6C45.5 51.4 46.5999 51.1 47.5 50.4C48.2999 49.8 49.2999 49.7 50.2999 50.1C50.7999 50.3 51.3 50.4 51.9 50.6C51.5 50 51.0999 49.4 50.5 49Z" fill="#232933"/>
</svg>
