<svg xmlns="http://www.w3.org/2000/svg" width="18" height="18" viewBox="0 0 18 18" fill="none"><path fill="currentColor" fill-rule="evenodd" d="M4.905.667a.598.598 0 0 0-.598.598v1.677H2.175c-.832 0-1.508.675-1.508 1.508v11.375c0 .833.676 1.508 1.508 1.508h13.65c.833 0 1.509-.675 1.509-1.508V4.45c0-.833-.676-1.508-1.509-1.508h-2.131V1.265a.599.599 0 0 0-1.197 0v1.677H5.504V1.265a.598.598 0 0 0-.599-.598ZM1.864 4.45c0-.172.14-.312.311-.312h13.65c.172 0 .312.14.312.312v1.677H1.864V4.45Zm0 11.375V7.323h14.273v8.502c0 .172-.14.312-.312.312H2.175a.312.312 0 0 1-.311-.312Z" clip-rule="evenodd"/></svg>