<svg viewBox="0 0 26 28" width="26" height="28" fill="none" xmlns="http://www.w3.org/2000/svg"><path d="M21.155 24.5c-2.137 0-4.248-.51-6.334-1.53-2.086-1.02-3.984-2.465-5.694-4.336a20.878 20.878 0 0 1-3.962-6.23C4.233 10.12 3.767 7.81 3.767 5.47a1.2 1.2 0 0 1 .308-.842.999.999 0 0 1 .77-.337h4.154c.24 0 .453.09.641.267.188.178.3.388.334.632l.666 3.929c.035.3.026.552-.025.758a1.21 1.21 0 0 1-.282.533l-2.488 2.75a13.75 13.75 0 0 0 1.218 2.007c.47.646.987 1.268 1.552 1.866a18.66 18.66 0 0 0 1.667 1.614c.581.496 1.197.95 1.846 1.361l2.411-2.638c.154-.168.355-.294.603-.379.248-.084.491-.107.73-.07l3.54.786c.24.075.436.21.59.407.154.197.23.416.23.66v4.546a1.2 1.2 0 0 1-.307.842.999.999 0 0 1-.77.337Z" fill="currentColor"/></svg>
