<svg xmlns="http://www.w3.org/2000/svg" width="37" height="25" viewBox="0 0 37 25" fill="none">
<path d="M32.6336 3.3729H12.4657V0.846802H5.38925V3.3729H4.32775C2.37355 3.3729 0.789551 4.957 0.789551 6.9111V21.4178C0.789551 23.372 2.37365 24.956 4.32775 24.956H32.6336C34.5877 24.956 36.1718 23.3719 36.1718 21.4178V6.9111C36.1718 4.9569 34.5877 3.3729 32.6336 3.3729ZM25.9761 14.1645C25.9761 18.4018 22.541 21.8368 18.3038 21.8368C14.0665 21.8368 10.6315 18.4018 10.6315 14.1645C10.6315 9.9272 14.0665 6.4922 18.3038 6.4922C22.541 6.4922 25.9761 9.9272 25.9761 14.1645Z" fill="#232933"/>
<path d="M18.3037 9.47281C15.7169 9.47281 13.6121 11.5776 13.6121 14.1644C13.6121 16.7512 15.7169 18.856 18.3037 18.856C20.8905 18.856 22.9953 16.7512 22.9953 14.1644C22.9953 11.5776 20.8905 9.47281 18.3037 9.47281Z" fill="#232933"/>
</svg>
