<svg xmlns="http://www.w3.org/2000/svg" width="45" height="38" viewBox="0 0 45 38" fill="none">
<path d="M0.629618 31.5431C0.926518 30.5099 1.19372 29.4704 1.52202 28.449C2.46682 25.5154 4.26972 23.3475 7.20332 22.199C7.89642 21.9273 8.59172 21.6484 9.24192 21.2928C11.0631 20.3008 12.463 20.0877 14.2708 21.8592C16.9007 24.4347 20.6495 23.8526 23.4722 21.0257C24.0746 20.42 24.7987 20.3196 25.6444 20.7245C22.183 25.4588 22.4302 30.2451 25.7305 35.2013C23.8618 35.2943 22.2262 35.4167 20.5906 35.4484C14.905 35.5548 9.23512 35.4166 3.68762 33.9893C2.64562 33.7221 1.64672 33.2782 0.629517 32.9158L0.629618 31.5431Z" fill="#232933"/>
<path d="M26.0642 8.70349C26.0642 8.87769 26.0711 9.05219 26.0619 9.22669C26.0462 9.61199 26.0301 9.94269 26.3768 10.2779C26.6214 10.5156 26.7098 10.9801 26.7484 11.356C26.9521 13.3494 26.2001 15.0168 24.9203 16.4982C24.7367 16.709 24.5851 16.9693 24.4921 17.2322C23.7015 19.4656 22.3697 21.2259 20.0567 22.0185C17.6239 22.8543 15.6328 21.9642 13.9452 20.2133C13.1163 19.35 12.5748 18.308 12.2032 17.1733C12.1285 16.949 11.995 16.7271 11.8385 16.548C10.5201 15.0574 9.76815 13.3678 9.95185 11.3381C9.99935 10.8352 10.1148 10.373 10.5339 10.022C10.638 9.93129 10.6721 9.71849 10.6812 9.55979C10.7333 8.44309 10.6698 7.31039 10.8328 6.21199C11.2859 3.13329 13.4424 1.04499 16.5161 0.52379C18.6093 0.16829 20.6073 0.419691 22.5304 1.31009C23.6654 1.83559 24.3834 2.68479 24.6234 3.92169C24.6506 4.05789 24.6823 4.22749 24.7776 4.31129C25.5614 5.02729 25.797 5.98549 25.9555 6.96629C26.0485 7.53949 26.0619 8.12159 26.1117 8.70139C26.096 8.70139 26.0799 8.70349 26.0642 8.70349Z" fill="#232933"/>
<path d="M44.3213 27.8756C44.3236 33.2964 40.0719 37.6253 34.7418 37.6319C29.1308 37.6411 24.6683 33.4005 24.5868 27.9843C24.5076 22.6476 29.0765 18.006 34.4655 17.9471C39.902 17.8882 44.319 22.3373 44.3213 27.8756ZM32.882 29.7037C31.1331 27.9277 29.509 26.256 26.8995 26.8381C28.7322 29.1579 30.4355 31.3799 32.2207 33.5363C32.9839 34.4582 33.7384 34.0257 34.3182 33.2148C36.5336 30.1227 38.7398 27.026 40.9372 23.925C40.9824 23.8638 40.9077 23.7191 40.842 23.3721C37.2382 24.2354 35.2241 27.0352 32.882 29.7037Z" fill="#232933"/>
</svg>
