<svg xmlns="http://www.w3.org/2000/svg" width="19" height="18" viewBox="0 0 19 18"><path fill="#232933" d="M16,7 C11.038,7 7,11.037 7,16 C7,20.962 11.037,25 16,25 C20.963,25 25,20.962 25,16 C25,11.037 20.963,7 16,7 Z M17.25,17.315 L11.43,20.347 L14.75,14.685 L20.57,11.653 L17.25,17.315 Z M16,17.076 C16.3924202,17.0879618 16.7602607,16.8854384 16.9600054,16.5474461 C17.15975,16.2094538 17.15975,15.7895462 16.9600054,15.4515539 C16.7602607,15.1135616 16.3924202,14.9110382 16,14.923 C15.4182361,14.9407333 14.9558139,15.4174659 14.9558139,15.9995 C14.9558139,16.5815341 15.4182361,17.0582667 16,17.076 Z" transform="translate(-6.6 -7)"/></svg>