<svg xmlns="http://www.w3.org/2000/svg" width="25" height="25" viewBox="0 0 25 25" fill="none"><path fill="currentColor" d="M12.152 6.773a6.05 6.05 0 0 0-6.043 6.043 6.05 6.05 0 0 0 6.043 6.043 6.05 6.05 0 0 0 6.044-6.043 6.05 6.05 0 0 0-6.044-6.043Zm-3.338 9.381 1.714-4.078 2.364 2.363-4.078 1.715Zm4.966-2.607-2.358-2.359 4.069-1.71-1.711 4.069Z"/><path fill="currentColor" d="M12.153.708C5.452.708.02 6.142.02 12.84c0 6.7 5.432 12.136 12.133 12.136 6.701 0 12.135-5.433 12.135-12.136C24.288 6.14 18.854.708 12.153.708Zm0 19.41c-4.027 0-7.301-3.276-7.301-7.303a7.309 7.309 0 0 1 7.301-7.3c4.027 0 7.303 3.275 7.303 7.3 0 4.026-3.276 7.303-7.303 7.303Z"/></svg>