<svg xmlns="http://www.w3.org/2000/svg" width="54" height="37" viewBox="0 0 54 37" fill="none"><path d="M53.8525 35.5634C52.065 33.3282 51.0799 30.5234 51.0799 27.6648V18.5949C51.0799 15.0772 50.0698 11.6599 48.1569 8.71176L48.1139 8.64728L47.4369 4.86454C46.9354 2.0454 44.4888 0 41.6267 0C39.5598 0 37.6183 1.10688 36.5544 2.89078L36.4433 3.07706H35.2612C32.571 3.07706 30.1853 4.6926 29.1859 7.18935C29.0964 7.41144 29.125 7.66219 29.2576 7.85921C29.3901 8.05623 29.6158 8.17443 29.8522 8.17443H35.7233V8.69026L35.6553 8.78698C34.9926 9.75058 34.4051 10.7822 33.9143 11.8605C32.9794 12.8384 29.8809 16.2056 27.0044 20.5865C24.128 16.2056 21.0294 12.8384 20.0945 11.8605C19.6001 10.7822 19.0162 9.75058 18.3535 8.78698L18.2855 8.69026V8.17443H24.1566C24.3966 8.17443 24.6187 8.05623 24.7512 7.85921C24.8838 7.66219 24.9124 7.41144 24.8229 7.18935C23.8235 4.68902 21.4378 3.07706 18.7476 3.07706H17.5655L17.4544 2.89078C16.3905 1.10688 14.449 0 12.3821 0C9.52 0 7.07698 2.0454 6.5719 4.86454L5.89488 8.64728L5.85189 8.71176C3.93903 11.6599 2.92887 15.0772 2.92887 18.5949V27.6648C2.92887 30.527 1.94378 33.3318 0.156297 35.5634C-0.0156454 35.7784 -0.0478853 36.0793 0.0703252 36.3264C0.188536 36.5736 0.442868 36.7348 0.718692 36.7348H22.6844C23.082 36.7348 23.4044 36.4124 23.4044 36.0148C23.4044 33.6363 21.7888 31.5909 19.4748 31.0428L18.9768 30.9246L19.2348 30.484C20.5207 28.2953 21.3625 25.9168 21.7315 23.4128C24.4396 24.3406 26.0802 24.5054 27.0008 23.943C27.9214 24.5054 29.5621 24.3406 32.2701 23.4128C32.6391 25.9168 33.4773 28.2953 34.7669 30.484L35.0248 30.9246L34.5269 31.0428C32.2128 31.5944 30.5973 33.6398 30.5973 36.0148C30.5973 36.4124 30.9197 36.7348 31.3173 36.7348H53.283C53.5588 36.7348 53.8131 36.5736 53.9313 36.3264C54.0567 36.0793 54.0245 35.7784 53.8525 35.5634ZM34.8959 13.2217L34.9567 13.0676L35.1108 13.0103C36.343 12.5446 37.5431 12.2867 38.4887 12.2867C39.2052 12.2867 39.764 12.4336 40.1508 12.7237C40.767 13.1858 41.0034 14.0957 40.8565 15.4318C40.835 15.6324 40.8135 15.7936 40.7741 16.0086L40.7598 16.1017L40.7025 16.1769C40.158 16.8898 39.155 18.362 38.5532 20.2247C37.672 22.9579 38.0051 25.5227 39.5204 27.6433C39.6314 27.7974 39.7962 27.9013 39.9861 27.9335L40.2332 27.9765L40.2906 28.2237C40.7992 30.4374 41.6983 32.6225 42.97 34.7181L43.3175 35.2912H41.0715L40.9497 35.2017C36.2857 31.8094 33.5024 26.343 33.5024 20.5794V20.3859C33.506 17.9035 33.9752 15.4927 34.8959 13.2217ZM41.7413 27.063C42.2751 26.6618 42.7694 26.1997 43.2172 25.6911C44.4673 24.2618 45.9575 21.7185 45.9575 17.7101C45.9575 17.3125 45.6351 16.9901 45.2375 16.9901C44.8399 16.9901 44.5175 17.3125 44.5175 17.7101C44.5175 22.5961 42.1318 25.0248 40.7097 26.0385L40.3479 26.2965L40.1508 25.8953C38.195 21.9191 41.3509 17.6671 42.0028 16.8575C42.078 16.7644 42.1282 16.6498 42.1497 16.5316C42.2106 16.1877 42.2536 15.9226 42.2894 15.5895C42.4971 13.7124 42.0709 12.3584 41.0177 11.5703C40.0362 10.836 38.5461 10.6569 36.6833 11.0473L35.8272 11.2264L36.2821 10.4813C36.5221 10.0909 36.7765 9.70759 37.0344 9.34221C37.1239 9.22042 37.1669 9.07355 37.1669 8.9231V5.90336C37.1669 3.44243 39.1693 1.4436 41.6267 1.4436C43.7903 1.4436 45.6387 2.99108 46.0184 5.11887L46.7205 9.04848C46.7384 9.1452 46.7742 9.23833 46.8315 9.32072C48.6692 12.0754 49.6399 15.285 49.6399 18.5949V27.6648C49.6399 30.1365 50.2955 32.5759 51.5385 34.7252L51.868 35.2912H45.0655L44.9545 35.1264C43.2315 32.6189 42.1318 30.1043 41.598 27.4356L41.5515 27.2027L41.7413 27.063ZM35.8774 4.52066L35.8057 4.95768C35.7556 5.2729 35.7269 5.59171 35.7269 5.90336V6.738H30.9591L31.5645 6.10038C32.5173 5.0938 33.8678 4.51707 35.2648 4.51707H35.8774V4.52066ZM36.1245 32.49C36.712 33.253 37.3568 33.9766 38.0481 34.6428L38.7216 35.2948H32.0731L32.2522 34.7897C32.7716 33.3246 34.1615 32.3431 35.7162 32.3431H36.0135L36.1245 32.49ZM32.109 21.8224C28.4158 23.1299 27.7961 22.5961 27.7925 22.5961C27.7638 22.5316 27.8247 22.2092 27.9859 21.937C29.605 19.408 31.3388 17.1978 32.614 15.6718C32.2522 17.2122 32.0695 18.7955 32.0695 20.3895V20.583C32.066 20.9877 32.0803 21.4033 32.109 21.8224ZM21.4055 15.6718C22.6844 17.1978 24.4145 19.408 26.0336 21.937C26.1913 22.2021 26.2522 22.5137 26.2307 22.5925C26.1626 22.6427 25.439 23.0725 21.9106 21.8224C21.9393 21.4033 21.95 20.9877 21.95 20.583V20.3895C21.95 18.7955 21.7673 17.2122 21.4055 15.6718ZM16.9816 9.34221C17.2395 9.70401 17.4938 10.0873 17.7338 10.4813L18.1888 11.2264L17.3362 11.0473C15.4735 10.6604 13.9798 10.836 13.0018 11.5703C11.9487 12.3584 11.5224 13.7124 11.7302 15.5895C11.766 15.9226 11.809 16.1841 11.8699 16.5316C11.8914 16.6498 11.9415 16.7608 12.0168 16.8575C12.6687 17.6707 15.8246 21.9227 13.8687 25.8953L13.6717 26.2965L13.3099 26.0385C11.8878 25.0248 9.50209 22.5961 9.50209 17.7101C9.50209 17.3125 9.1797 16.9901 8.78208 16.9901C8.38446 16.9901 8.06207 17.3125 8.06207 17.7101C8.06207 21.7149 9.55224 24.2618 10.8024 25.6911C11.2466 26.1997 11.7445 26.6618 12.2782 27.063L12.4681 27.2063L12.4215 27.4392C11.8878 30.1079 10.7881 32.6261 9.06507 35.13L8.95402 35.2948H2.14796L2.47752 34.7288C3.72052 32.5795 4.37605 30.1365 4.37605 27.6684V18.5985C4.37605 15.2886 5.34681 12.079 7.18445 9.3243C7.23818 9.24191 7.27758 9.14878 7.29549 9.05206L7.99759 5.12245C8.3773 2.99108 10.2257 1.44718 12.3893 1.44718C14.8502 1.44718 16.8491 3.4496 16.8491 5.90694V8.92668C16.8491 9.07355 16.8956 9.22042 16.9816 9.34221ZM11.0424 34.7216C12.3141 32.6261 13.2168 30.441 13.7218 28.2272L13.7792 27.9801L14.0263 27.9371C14.2162 27.9048 14.381 27.801 14.492 27.6469C16.0072 25.5263 16.3404 22.9615 15.4592 20.2283C14.8574 18.3656 13.8544 16.8934 13.3099 16.1805L13.2526 16.1053L13.2383 16.0121C13.2024 15.7972 13.1809 15.636 13.1559 15.4354C13.009 14.0993 13.2454 13.1894 13.8615 12.7273C14.2484 12.4372 14.8072 12.2903 15.5237 12.2903C16.4693 12.2903 17.6694 12.5482 18.9016 13.0139L19.0556 13.0712L19.1165 13.2252C20.0372 15.4927 20.5064 17.9071 20.5064 20.3931V20.5865C20.5064 26.3502 17.7231 31.8165 13.0592 35.2088L12.9374 35.2984H10.6914L11.0424 34.7216ZM18.2103 4.95768L18.1386 4.52066H18.7476C20.1446 4.52066 21.4915 5.09738 22.4479 6.10396L23.0533 6.74158H18.2891V5.90336C18.2891 5.59171 18.2604 5.2729 18.2103 4.95768ZM18.0025 32.3431H18.2998C19.8509 32.3431 21.2443 33.3282 21.7637 34.7897L21.9428 35.2948H15.2908L15.9643 34.6428C16.6556 33.9766 17.304 33.2494 17.8879 32.49L18.0025 32.3431Z" fill="currentColor"/></svg>