<svg xmlns="http://www.w3.org/2000/svg" width="64" height="64" viewBox="0 0 64 64" fill="none"><path fill="currentColor" d="M58.852 49.563a12.694 12.694 0 0 1-2.772-7.898v-9.07c0-3.518-1.01-6.935-2.923-9.883l-.043-.065-.677-3.782A5.895 5.895 0 0 0 46.627 14a5.935 5.935 0 0 0-5.073 2.89l-.11.187H40.26a6.515 6.515 0 0 0-6.075 4.112.719.719 0 0 0 .666.985h5.871v.516l-.068.097a20.218 20.218 0 0 0-1.74 3.073c-.936.978-4.034 4.346-6.91 8.727-2.877-4.381-5.976-7.749-6.91-8.727a20.53 20.53 0 0 0-1.741-3.073l-.069-.097v-.516h5.872a.715.715 0 0 0 .666-.985 6.51 6.51 0 0 0-6.075-4.112h-1.183l-.11-.186A5.935 5.935 0 0 0 17.381 14a5.898 5.898 0 0 0-5.81 4.864l-.677 3.783-.043.065a18.114 18.114 0 0 0-2.923 9.883v9.07c0 2.862-.985 5.667-2.773 7.898a.723.723 0 0 0 .562 1.171h21.966a.72.72 0 0 0 .72-.72 5.09 5.09 0 0 0-3.93-4.971l-.497-.118.258-.441a19.515 19.515 0 0 0 2.497-7.071c2.708.928 4.348 1.092 5.269.53.92.562 2.561.398 5.27-.53a19.447 19.447 0 0 0 2.496 7.071l.258.44-.498.119a5.096 5.096 0 0 0-3.93 4.972c0 .397.323.72.72.72h21.966c.276 0 .53-.161.648-.409a.712.712 0 0 0-.078-.763ZM39.897 27.222l.06-.154.155-.058c1.232-.465 2.432-.723 3.378-.723.716 0 1.275.147 1.662.437.616.462.852 1.372.705 2.708-.021.2-.043.362-.082.577l-.014.093-.057.075c-.545.713-1.548 2.185-2.15 4.048-.881 2.733-.548 5.298.967 7.418a.719.719 0 0 0 .466.29l.247.044.058.247c.508 2.213 1.407 4.399 2.679 6.494l.348.573h-2.246l-.122-.09a18.136 18.136 0 0 1-7.448-14.622v-.193a19.054 19.054 0 0 1 1.394-7.164Zm6.845 13.841a9.89 9.89 0 0 0 1.476-1.372c1.25-1.43 2.74-3.973 2.74-7.98a.72.72 0 0 0-1.44 0c0 4.885-2.385 7.314-3.807 8.328l-.362.258-.197-.402c-1.956-3.976 1.2-8.228 1.852-9.038a.73.73 0 0 0 .147-.325c.06-.344.104-.61.14-.942.207-1.878-.22-3.232-1.272-4.02-.982-.734-2.472-.913-4.335-.523l-.856.18.455-.746c.24-.39.495-.773.752-1.139a.703.703 0 0 0 .133-.419v-3.02a4.465 4.465 0 0 1 4.46-4.46 4.458 4.458 0 0 1 4.391 3.676l.703 3.93c.017.096.053.19.11.272a16.664 16.664 0 0 1 2.809 9.274v9.07c0 2.471.655 4.91 1.898 7.06l.33.566h-6.803l-.11-.165c-1.724-2.507-2.823-5.022-3.357-7.69l-.047-.233.19-.14Zm-5.864-22.542-.071.437c-.05.315-.08.634-.08.945v.835H35.96l.605-.638a5.114 5.114 0 0 1 3.7-1.583h.613v.004Zm.247 27.969a19.606 19.606 0 0 0 1.924 2.153l.674.652h-6.649l.18-.505a3.678 3.678 0 0 1 3.463-2.447h.297l.111.147ZM37.11 35.822c-3.693 1.308-4.313.774-4.317.774-.028-.064.033-.387.194-.659 1.619-2.529 3.353-4.74 4.628-6.265a20.633 20.633 0 0 0-.544 4.717v.194c-.004.405.01.82.039 1.24Zm-10.704-6.15c1.28 1.526 3.01 3.736 4.629 6.265.157.265.218.577.197.656-.068.05-.792.48-4.32-.77.028-.42.039-.835.039-1.24v-.194c0-1.594-.183-3.177-.544-4.717Zm-4.423-6.33c.258.362.512.745.752 1.14l.455.744-.853-.179c-1.862-.387-3.356-.211-4.334.523-1.053.788-1.48 2.142-1.272 4.02.036.333.079.594.14.942.021.118.072.229.147.326.652.813 3.808 5.065 1.852 9.037l-.197.401-.362-.258c-1.422-1.013-3.808-3.442-3.808-8.328a.72.72 0 0 0-1.44 0c0 4.005 1.49 6.552 2.74 7.981.445.509.942.97 1.476 1.372l.19.143-.046.233c-.534 2.669-1.634 5.187-3.357 7.691l-.111.165H7.148l.33-.566a14.127 14.127 0 0 0 1.898-7.06v-9.07c0-3.31.97-6.52 2.808-9.275a.753.753 0 0 0 .112-.272l.702-3.93a4.454 4.454 0 0 1 4.391-3.675c2.461 0 4.46 2.003 4.46 4.46v3.02c0 .147.047.293.133.415Zm-5.94 25.38c1.272-2.096 2.175-4.281 2.68-6.495l.057-.247.247-.043a.719.719 0 0 0 .466-.29c1.515-2.12 1.848-4.685.967-7.419-.602-1.862-1.605-3.335-2.15-4.048l-.056-.075-.015-.093a12.899 12.899 0 0 1-.082-.577c-.147-1.336.09-2.246.706-2.708.386-.29.945-.437 1.662-.437.945 0 2.145.258 3.378.724l.154.057.06.154a18.972 18.972 0 0 1 1.39 7.168v.194c0 5.763-2.783 11.23-7.447 14.622l-.122.09h-2.246l.351-.577Zm7.168-29.764-.071-.437h.609a5.12 5.12 0 0 1 3.7 1.583l.605.638H23.29v-.839c0-.311-.029-.63-.079-.945Zm-.207 27.385h.297c1.55 0 2.944.985 3.464 2.447l.179.505H20.29l.673-.652a19.566 19.566 0 0 0 1.924-2.153l.114-.147Z"/></svg>