<svg xmlns="http://www.w3.org/2000/svg" width="12" height="12" viewBox="0 0 12 12"><path fill="currentColor" fill-rule="evenodd" d="M11.5616664,0.268666174 C11.3896888,0.0966444849 11.1564106,8.8817842e-16 10.9131664,8.8817842e-16 C10.6699221,8.8817842e-16 10.436644,0.0966444849 10.2646664,0.268666174 L5.91366637,4.62066617 L1.56166637,0.268666174 L1.48166637,0.198666174 C1.10058056,-0.0991583283 0.553701579,-0.0498018353 0.232097419,0.311441292 C-0.08950674,0.672684419 -0.0752528048,1.22160108 0.264666371,1.56566617 L4.61666637,5.91766617 L0.264666371,10.2686662 L0.194666371,10.3486662 C-0.103158132,10.729752 -0.0538016386,11.276631 0.307441489,11.5982351 C0.668684616,11.9198393 1.21760128,11.9055853 1.56166637,11.5656662 L5.91366637,7.21366617 L10.2646664,11.5656662 L10.3446664,11.6366662 C10.7257522,11.9344907 11.2726312,11.8851342 11.5942353,11.5238911 C11.9158395,11.1626479 11.9015855,10.6137313 11.5616664,10.2696662 L7.20966637,5.91766617 L11.5616664,1.56566617 L11.6326664,1.48566617 C11.921106,1.12071144 11.8905878,0.597603955 11.5616664,0.268666174 L11.5616664,0.268666174 Z" transform="translate(.003)"/></svg>
