<svg xmlns="http://www.w3.org/2000/svg" viewBox="0 0 636.49 518.07"><path d="M27.67 333.37H144.8v162.18H27.67zM182.34 265.79h117.13v229.75H182.34zM337.01 314.26h117.13v181.28H337.01zM491.68 198.22h117.13v297.33H491.68z"/><path d="M509.93 123.54c10.5 9.98 24.69 16.11 40.32 16.11 32.34 0 58.56-26.22 58.56-58.56s-26.22-58.56-58.56-58.56-58.56 26.22-58.56 58.56c0 9.87 2.45 19.16 6.76 27.31l-62.55 47.36c-10.5-9.98-24.69-16.11-40.32-16.11-21.65 0-40.54 11.75-50.67 29.22l-46.58-17.64a58.91 58.91 0 0 0 1.15-11.58c0-32.34-26.22-58.56-58.56-58.56s-58.56 26.22-58.56 58.56c0 8.45 1.8 16.47 5.02 23.73l-53.26 34.9c-10.6-15.02-28.08-24.85-47.87-24.85-32.34 0-58.56 26.22-58.56 58.56s26.22 58.56 58.56 58.56 58.56-26.22 58.56-58.56c0-5.72-.83-11.24-2.36-16.46l55.35-36.27c10.7 11.64 26.06 18.95 43.12 18.95 21.65 0 40.54-11.75 50.67-29.22l46.58 17.64a58.91 58.91 0 0 0-1.15 11.58c0 32.34 26.22 58.56 58.56 58.56s58.56-26.22 58.56-58.56c0-9.87-2.45-19.16-6.76-27.31l62.55-47.36z"/></svg>
