<svg xmlns="http://www.w3.org/2000/svg" viewBox="0 0 654.97 618.56"><path d="M622.19 78.33c-.01-27.75-13.99-41.83-41.55-41.84-144.87-.04-343.48-.04-505.96 0-27.78.01-41.87 13.98-41.89 41.52-.07 106.93-.07 233.5 0 347.26.02 27.05 13.8 40.8 40.98 40.86l9.99.02c39.37.08 83.99.18 121.09-.17 6.29-.06 8.82 1.55 11.35 7.16 9.91 21.92 19.41 41.74 29.05 60.61 14.98 29.33 40.87 45.74 74.86 47.46 13.33.67 26.77.91 40.19.91 15.87 0 31.69-.33 47.23-.65l2.89-.06c41.09-.85 73.82-34.07 74.52-75.62.15-9.11.12-18.29.08-28-.02-3.75-.03-7.61-.04-11.62h19.29c25.95.01 61.49.02 75.31-.01 29.08-.06 42.62-13.37 42.63-41.9.04-111.98.03-238.06-.02-345.93zm-57.32-7.68H91.45c-10.27 0-18.62 8.35-18.62 18.62v317.88c0 10.27 8.35 18.62 18.62 18.62h100.76v12H91.45c-16.89 0-30.62-13.74-30.62-30.62V89.27c0-16.89 13.74-30.62 30.62-30.62h473.42c16.89 0 30.62 13.74 30.62 30.62v317.88c0 16.89-13.74 30.62-30.62 30.62h-75.33v-12h75.33c10.27 0 18.62-8.35 18.62-18.62V89.27c0-10.27-8.35-18.62-18.62-18.62zm-243.2 489.58c-27.27-1.12-47.75-14.51-59.23-38.71-8.37-17.66-16.99-35.57-25.32-52.89-4.89-10.17-9.79-20.34-14.66-30.53l-.56-1.17c-3.19-6.57-8.52-17.57 3.31-24.78 11.33-6.9 18.74 2.13 23.18 7.53.43.52.86 1.05 1.29 1.55 2.81 3.34 5.6 6.71 8.38 10.08 7.61 9.2 15.47 18.72 23.8 27.4 2.62 2.73 8.19 4.95 11.13 4.49 1.34-1.17 3.59-6.25 3.66-9.76.46-23.14.4-46.7.35-69.49-.02-7.7-.04-15.41-.04-23.11-.01-9.92 0-19.84 0-29.76.01-20.19.01-41.06-.06-61.58-.02-5.4.53-12.15 4.93-16.43 2.48-2.41 5.81-3.7 9.9-3.84 1.21-.37 2.48-.57 3.81-.57 7.25 0 13.14 5.89 13.14 13.14 0 1.32-.2 2.58-.56 3.78.09 1.43.09 2.71.08 3.69-.08 31.2-.07 62.92-.06 93.6l.01 29.98c0 1.31-.13 2.6-.25 3.85-.15 1.54-.38 3.88 0 4.56.47.85 1.02 1.7 1.68 2.61a7.106 7.106 0 0 0 6.3 2.92c2.34-.17 4.29-1.42 5.35-3.43.23-.43.38-.83.44-1.19 1.2-6.58.96-13.48.71-20.78-.11-3.02-.21-6.13-.21-9.22 0-3.54 0-7.08-.01-10.62-.01-7.54-.02-15.33.05-23.01.01-.89 0-1.81-.01-2.74-.06-6.12-.13-13.07 4.5-17.66 2.74-2.72 6.66-4.04 11.63-3.96 15.52.28 15.37 13.95 15.28 22.12-.01.58-.01 1.15-.01 1.72-.05 13.91-.04 28.06-.03 41.74 0 5.34.01 10.67.01 16.01 0 1.08-.11 2.11-.22 3.12-.09.82-.22 2.03-.15 2.56a45.1 45.1 0 0 0 2.72 3.66c1.26 1.55 3.14 2.39 5.17 2.29 1.91-.08 3.6-1.01 4.63-2.53.47-.69.53-1.04.54-1.13.91-10.92.8-22.23.69-33.16-.05-4.85-.1-9.87-.06-14.82.05-6.47.48-13.16 5.06-17.51 2.85-2.71 6.84-3.98 11.84-3.75 15.41.67 15.32 15.06 15.28 21.2-.02 3.81-.09 7.63-.15 11.45-.2 11.58-.4 23.55.62 35.1.31 3.45 5.02 9.01 6.91 9.34 1.9.33 2.77-.19 3.26-.61 1.51-1.29 2.4-4.44 2.33-8.21-.15-7.82-.11-15.76-.08-23.43.02-4.75.04-9.5.02-14.25-.05-12.67 5.16-19.32 15.49-19.77 4.88-.21 8.83 1.11 11.77 3.91 3.39 3.24 5.11 8.23 5.12 14.83.02 11.98.08 23.97.13 35.95.16 34.48.33 70.13-.37 105.21-.31 15.75-5.92 29.37-16.21 39.38-10.18 9.9-23.99 15.35-39.93 15.75-13.91.35-29.21.65-45.2.65-13.35.02-27.2-.19-41.12-.77zm-9.16-431.92c-57.51 0-104.3 46.79-104.3 104.3 0 29.68 12.71 58.05 34.87 77.84 4.33 3.86 4.7 10.5.84 14.83a10.486 10.486 0 0 1-7.84 3.51c-2.49 0-4.99-.88-6.99-2.67-26.62-23.76-41.89-57.84-41.89-93.5 0-69.09 56.21-125.3 125.3-125.3s125.3 56.21 125.3 125.3c0 24.93-7.3 49.01-21.12 69.64-3.23 4.82-9.75 6.11-14.57 2.88-4.82-3.23-6.11-9.75-2.88-14.57 11.5-17.16 17.57-37.2 17.57-57.96.01-57.51-46.78-104.3-104.29-104.3zm35.26 55.15c-21.42-16.54-48.9-16.36-70.54.47-20.79 16.16-26.94 44.07-15.05 70.01 3.29 7.19 6.27 14.53-2.56 18.95-9.82 4.91-13.85-3.12-17.34-10.26-25.52-52.11 12.44-112.68 70.51-112.63 58.15.06 96.13 60.76 70.49 112.66-3.43 6.95-7.53 13.6-16.66 9.28-9.32-4.41-6.17-11.6-3.03-18.69 11.53-25.97 5.2-53.57-15.82-69.79z"/></svg>
