<svg xmlns="http://www.w3.org/2000/svg" viewBox="0 0 1370 985"><path d="M1129.11 908.11c-7.82-6.38-12.74-9.76-16.9-13.9-39.3-39.12-78.79-78.05-117.47-117.77-10.32-10.6-20.86-15.12-35.78-15.05-115.79.55-231.58.45-347.37.08-12.59-.04-26.2-.61-37.56-5.27-24.7-10.14-39.13-29.45-39.16-57.21-.11-132.45-.18-264.9.03-397.36.06-35.07 27.35-62.06 63.05-62.95 20.24-.51 40.5-.14 60.76-.14 183.15 0 366.31-.03 549.46.04 34.94.01 59.15 16.86 67.84 47.5 2 7.06 2.42 14.77 2.43 22.18.15 128.05.09 256.1.14 384.15.01 29.1-11.64 51.56-38.82 63.23-10.15 4.36-22.21 5.29-33.49 5.8-19.77.9-39.63.75-59.42.09-11.83-.39-16.36 3.49-16.14 15.82.64 36.51.28 73.04.16 109.57-.02 5.52-.89 11.06-1.76 21.19z"/><path d="M241.23 745.44c-.97-9.24-2.02-14.7-2.05-20.17-.15-36.96-.44-73.93.12-110.88.17-11.31-3.08-15.74-14.93-15.32-21.98.77-44.02.35-66.03.15-38.42-.35-66.1-25.74-66.3-63.76-.69-130.67-.87-261.35-.21-392.02.22-42.54 25.9-66.05 68.75-66.07 202.07-.12 404.14.49 606.2-.48 43.99-.21 72.51 33.91 68.59 69.18-.87 7.82-.56 15.85-.04 23.74.81 12.4-4.21 17.12-16.91 17.04-66.91-.41-133.83-.16-200.75-.19-24.66-.01-49.28-.72-72.13 11.48-40.9 21.83-63.34 56.06-63.95 101.88-1.22 92.38-.39 184.8-.43 277.2-.01 21.92-.18 22.04-22 22.07-17.61.02-35.24.52-52.82-.18-10.99-.44-19.03 3.04-26.78 10.91-40.46 41.07-81.38 81.7-122.25 122.36-4.07 4.06-8.94 7.31-16.08 13.06z"/></svg>
