<svg width="24" height="24" viewBox="0 0 24 24" fill="none" xmlns="http://www.w3.org/2000/svg"><path d="M12.4 11.05v.39l.379.095c1.012.253 2.13.55 2.987 1.104.822.531 1.377 1.28 1.334 2.494v.017c0 .782-.27 1.587-.92 2.232-.653.648-1.732 1.177-3.422 1.32l-.458.038v1.76h-.55v-1.816l-.464-.033c-1.896-.135-3.49-.779-4.582-1.848l.498-.498a6.911 6.911 0 0 0 4.048 1.843l.55.055v-6.15l-.387-.09c-1.079-.251-2.177-.549-3.003-1.068-.797-.5-1.31-1.18-1.31-2.245 0-1.667 1.607-3.11 4.236-3.301l.464-.034V3.5h.55v1.798l.445.049c1.62.18 2.948.738 3.937 1.649l-.498.479c-.865-.834-1.962-1.32-3.258-1.52l-.576-.088v5.183Zm0 6.6v.562l.558-.065c1.153-.134 2.001-.517 2.567-1.053.568-.538.825-1.207.825-1.844 0-.826-.365-1.444-.984-1.902-.586-.434-1.402-.728-2.335-.98l-.631-.171V17.65ZM11.85 6.4v-.548l-.545.05C9.559 6.061 8.05 7.056 8.05 8.6c0 .725.363 1.266.943 1.663.552.377 1.325.644 2.236.872l.621.155V6.4Z" fill="#232933" stroke="#000"/></svg>
