<svg xmlns="http://www.w3.org/2000/svg" width="16" height="40" viewBox="0 0 16 40" fill="none">
<path d="M14.5283 15.2164C14.7728 14.3738 14.9671 13.5158 15.1133 12.6514C15.1242 12.6056 15.1329 12.5553 15.1395 12.5051C15.6023 9.67589 15.5412 6.76819 14.9452 3.96519L14.3842 1.31718C14.2751 0.795484 13.7664 0.417786 13.1748 0.417786H3.0631C2.4715 0.417786 1.9629 0.795484 1.8537 1.31718L1.2927 3.96519C0.696702 6.76819 0.635603 9.67599 1.0984 12.5051C1.1028 12.5553 1.1115 12.6055 1.1246 12.6535C1.2709 13.5158 1.4651 14.3737 1.7096 15.2164C2.6177 18.3468 4.4056 21.2786 6.8877 23.7236V35.5883L4.327 36.9963C3.8577 37.2561 3.635 37.7625 3.7856 38.2406C3.934 38.7165 4.4187 39.0461 4.9688 39.0461H11.2668C11.8191 39.0461 12.3037 38.7165 12.4522 38.2406C12.6028 37.7625 12.3802 37.2561 11.9108 36.9963L9.3501 35.5883V23.7236C11.8322 21.2786 13.6202 18.3468 14.5283 15.2164Z" fill="#232933"/>
</svg>
