<svg xmlns="http://www.w3.org/2000/svg" width="50" height="50" viewBox="0 0 50 50" fill="none"><path d="M16.48 25.13c0-9.75 5.25-17.89 12.25-19.86C17.76 3.24 7.22 10.48 5.19 21.45 3.16 32.42 10.4 42.96 21.37 44.99c2.43.45 4.93.45 7.37 0-7-1.97-12.25-10.11-12.25-19.86" fill="#fff"/><path d="M25.13.47C11.51.47.47 11.51.47 25.13c0 13.62 11.04 24.66 24.66 24.66 13.62 0 24.66-11.04 24.66-24.66C49.78 11.52 38.74.49 25.13.47Zm3.6 44.52C17.76 47.03 7.22 39.78 5.18 28.81 3.14 17.84 10.39 7.3 21.36 5.26c2.44-.45 4.93-.45 7.37 0-7 1.97-12.25 10.11-12.25 19.86s5.25 17.89 12.26 19.86" fill="#040504"/></svg>
