<svg xmlns="http://www.w3.org/2000/svg" width="46" height="41" viewBox="0 0 46 41" fill="none"><path d="M33.4359 5.4209C33.0369 5.4209 32.7129 5.7449 32.7129 6.1439C32.7129 6.5429 33.0369 6.8669 33.4359 6.8669C33.8349 6.8669 34.1589 6.5429 34.1589 6.1439C34.1589 5.7479 33.8349 5.4209 33.4359 5.4209Z" fill="currentColor"/><path d="M45.0911 6.183C45.0821 6.15 45.0791 6.12 45.0701 6.087L44.9951 5.874V5.871C44.9831 5.649 44.9501 5.424 44.8931 5.199C44.5151 3.735 43.1381 2.712 41.5481 2.712H38.5001L38.3111 2.463C37.1381 0.921 35.2871 0 33.3611 0C31.9421 0 30.5531 0.491999 29.4521 1.383C28.3481 2.274 27.5771 3.531 27.2801 4.917L26.5661 8.25C25.9451 11.148 23.9711 13.569 21.2591 14.763L8.72811 20.277C5.18211 21.837 2.89311 25.344 2.89311 29.22V32.325C2.89311 34.824 2.06511 37.353 0.232113 39.051C-0.0468866 39.309 -0.0858867 39.741 0.178113 40.059C0.316113 40.224 0.535113 40.305 0.751113 40.305H2.71011C4.61211 40.305 6.45111 39.621 7.89411 38.379C9.32211 37.149 10.2701 35.457 10.5641 33.609L10.6481 33.084C10.6481 33.078 10.6541 33.075 10.6601 33.075H20.0891C20.0981 33.075 20.1011 33.084 20.0981 33.09L19.6331 33.996C19.3151 34.617 19.1561 35.283 19.1561 35.979C19.1591 37.371 20.3051 38.496 21.6971 38.496H26.2031C28.1801 38.496 29.9681 37.398 30.8711 35.631L31.2281 34.929C31.2311 34.923 31.2401 34.92 31.2461 34.926L31.8431 35.433C32.7911 36.24 33.9941 36.687 35.2421 36.687H39.7481C41.1131 36.687 42.2621 35.607 42.2891 34.242C42.3371 31.812 40.3721 29.82 37.9511 29.82H36.8771C36.8711 29.82 36.8651 29.814 36.8651 29.808V27.771L37.0391 27.534C37.0811 27.477 37.1231 27.42 37.1621 27.363C38.7401 25.11 39.5771 22.458 39.5771 19.698V10.281L39.6761 10.248L40.6451 12.108C40.9151 12.624 41.3711 13.023 41.9201 13.218L42.7451 13.512C42.9971 13.602 43.2611 13.647 43.5221 13.647C44.1161 13.647 44.7101 13.419 45.1691 12.96C45.5651 12.564 45.7811 12.024 45.8291 11.466L45.8801 10.851C45.7601 9.261 45.5531 7.665 45.0911 6.183ZM37.9571 31.266C39.5621 31.266 40.8671 32.58 40.8491 34.191C40.8431 34.779 40.3421 35.244 39.7541 35.244H35.2451C33.5891 35.244 32.0951 34.131 31.6121 32.538L31.4561 32.025C31.4531 32.019 31.4561 32.013 31.4621 32.013L31.9451 31.785C32.8241 31.368 33.6581 30.855 34.4201 30.261L35.2511 29.613C35.2571 29.607 35.2661 29.613 35.2691 29.619L35.4311 30.651C35.4881 31.008 35.7941 31.269 36.1541 31.269H37.9571V31.266ZM44.3351 11.406C44.2271 12.03 43.8281 12.09 43.8281 12.09C43.8281 12.09 42.9581 12.285 42.0641 11.571C41.3291 10.983 41.0531 9.927 40.9781 9.57C40.9481 9.525 40.9151 9.48 40.8911 9.429C40.6691 8.976 40.0781 8.814 39.4661 8.796L39.3251 8.844L38.6381 9.072C38.3381 9.171 38.1371 9.453 38.1371 9.768V19.701C38.1371 23.817 35.9441 27.72 32.4131 29.883L31.4651 30.462C31.4591 30.465 31.4471 30.462 31.4471 30.453V26.982C31.4471 26.598 31.1741 26.244 30.7901 26.211C30.3611 26.172 30.0011 26.511 30.0011 26.931V33.246C30.0011 35.349 28.2971 37.053 26.1941 37.053H21.7001C21.1121 37.053 20.6111 36.588 20.6051 36C20.5871 34.392 21.8921 33.075 23.4971 33.075H25.2941C25.6991 33.075 26.0291 32.745 26.0291 32.34V26.982C26.0291 26.598 25.7531 26.244 25.3721 26.211C24.9431 26.172 24.5831 26.511 24.5831 26.931V31.62C24.5831 31.626 24.5771 31.632 24.5711 31.632H10.6751C10.6691 31.632 10.6631 31.626 10.6631 31.62V28.791C10.6631 28.407 10.3871 28.053 10.0061 28.02C9.57711 27.981 9.21711 28.32 9.21711 28.74V32.349C9.21711 35.586 6.84111 38.331 3.63711 38.796L2.37711 38.979C2.36811 38.979 2.36211 38.97 2.36511 38.964L3.00711 37.854C3.87711 36.348 4.33611 34.638 4.33611 32.913V29.211C4.33611 25.917 6.28611 22.929 9.30111 21.603L21.8381 16.086C24.9761 14.706 27.2591 11.904 27.9761 8.553L28.6601 5.355C29.1161 3.222 30.9101 1.572 33.0881 1.455C34.8971 1.356 36.5501 2.25 37.4651 3.801C37.5971 4.023 37.8371 4.158 38.0951 4.158H41.5421C41.9561 4.158 42.3491 4.281 42.6761 4.491C42.8351 4.566 42.9821 4.668 43.0991 4.8C43.1951 4.908 43.2761 5.022 43.3571 5.139C43.3601 5.136 44.4341 7.134 44.3351 11.406Z" fill="currentColor"/></svg>