<svg xmlns="http://www.w3.org/2000/svg" width="64" height="64" viewBox="0 0 64 64" fill="none"><path fill="currentColor" d="M42.436 17.42a.723.723 0 1 0 0 1.448.723.723 0 0 0 0-1.447Z"/><path fill="#2A5F8C" d="M54.091 18.183c-.009-.033-.012-.063-.02-.096l-.076-.213v-.003a3.505 3.505 0 0 0-.102-.672c-.378-1.464-1.755-2.487-3.345-2.487H47.5l-.189-.249A6.26 6.26 0 0 0 42.361 12a6.235 6.235 0 0 0-3.909 1.383 6.236 6.236 0 0 0-2.172 3.534l-.714 3.333a9.228 9.228 0 0 1-5.307 6.513l-12.53 5.514a9.768 9.768 0 0 0-5.836 8.943v3.105c0 2.499-.828 5.028-2.66 6.726a.725.725 0 0 0-.055 1.008.745.745 0 0 0 .573.246h1.96a7.947 7.947 0 0 0 5.183-1.926 7.955 7.955 0 0 0 2.67-4.77l.084-.525c0-.006.006-.009.012-.009h9.43c.008 0 .011.009.008.015l-.465.906a4.305 4.305 0 0 0-.477 1.983c.003 1.392 1.15 2.517 2.541 2.517h4.506a5.224 5.224 0 0 0 4.668-2.865l.357-.702c.003-.006.012-.009.018-.003l.597.507a5.243 5.243 0 0 0 3.4 1.254h4.505c1.365 0 2.514-1.08 2.541-2.445a4.342 4.342 0 0 0-4.338-4.422h-1.074a.013.013 0 0 1-.012-.012v-2.037l.174-.237c.042-.057.084-.114.123-.171a13.3 13.3 0 0 0 2.415-7.665v-9.417l.1-.033.968 1.86c.27.516.726.915 1.275 1.11l.825.294a2.315 2.315 0 0 0 2.424-.552c.396-.396.612-.936.66-1.494l.051-.615c-.12-1.59-.327-3.186-.789-4.668Zm-7.134 25.083a2.895 2.895 0 0 1 2.892 2.925c-.006.588-.507 1.053-1.095 1.053h-4.509a3.829 3.829 0 0 1-3.633-2.706l-.156-.513c-.003-.006 0-.012.006-.012l.483-.228c.88-.417 1.713-.93 2.475-1.524l.831-.648c.006-.006.015 0 .018.006l.162 1.032a.732.732 0 0 0 .723.618h1.803v-.003Zm6.378-19.86c-.108.624-.507.684-.507.684s-.87.195-1.764-.519c-.735-.588-1.01-1.644-1.086-2.001-.03-.045-.063-.09-.087-.141-.222-.453-.813-.615-1.425-.633l-.14.048-.688.228a.732.732 0 0 0-.5.696v9.933c0 4.116-2.194 8.019-5.725 10.182l-.948.579c-.006.003-.018 0-.018-.009v-3.471c0-.384-.273-.738-.657-.771a.723.723 0 0 0-.789.72v6.315a3.806 3.806 0 0 1-3.807 3.807H30.7c-.588 0-1.089-.465-1.095-1.053a2.897 2.897 0 0 1 2.892-2.925h1.797c.405 0 .735-.33.735-.735v-5.358c0-.384-.276-.738-.657-.771a.723.723 0 0 0-.789.72v4.689a.013.013 0 0 1-.012.012H19.675a.013.013 0 0 1-.012-.012v-2.829c0-.384-.276-.738-.657-.771a.723.723 0 0 0-.789.72v3.609a6.514 6.514 0 0 1-5.58 6.447l-1.26.183c-.009 0-.015-.009-.012-.015l.642-1.11a9.897 9.897 0 0 0 1.33-4.941v-3.702a8.316 8.316 0 0 1 4.964-7.608l12.537-5.517a10.667 10.667 0 0 0 6.138-7.533l.684-3.198c.456-2.133 2.25-3.783 4.428-3.9a4.732 4.732 0 0 1 4.377 2.346.733.733 0 0 0 .63.357h3.447c.414 0 .807.123 1.134.333.16.075.306.177.423.309.096.108.177.222.258.339.003-.003 1.077 1.995.978 6.267Z"/></svg>