<svg xmlns="http://www.w3.org/2000/svg" width="44" height="41" viewBox="0 0 44 41" fill="none">
<path d="M27.3362 22.1479C27.335 22.1472 27.3337 22.1467 27.3322 22.1461C27.3304 22.1488 27.3279 22.1512 27.3256 22.1542C27.3289 22.1518 27.3326 22.1499 27.3362 22.1479ZM23.9017 25.0267C22.3217 25.83 20.6508 26.0919 18.9057 25.7787C16.6906 25.3811 14.8023 24.185 13.2927 22.2246C13.2605 22.1832 13.2377 22.1582 13.2227 22.1442C13.2038 22.1491 13.1747 22.1589 13.1312 22.1771C13.0335 22.2187 12.9343 22.2589 12.8364 22.3003C12.7497 23.2484 12.388 26.8894 11.6458 30.693C10.8385 34.8296 9.87729 37.7647 8.73603 39.5651H25.4856C23.1394 37.6177 21.6468 34.7211 21.6468 31.4802C21.6468 29.0499 22.4932 26.8165 23.9017 25.0267ZM6.7267 39.5651C9.006 37.2424 10.5704 28.812 11.1443 23.0044C10.8328 23.1337 10.5192 23.2636 10.2123 23.3902C9.13608 23.8346 8.02336 24.2935 6.93507 24.7548C4.51923 25.7777 2.76415 27.5439 1.7183 30.0026C1.58358 30.3542 1.41688 32.8059 1.29488 34.5957C1.11967 37.1688 1.02329 38.4369 0.895142 38.906V39.5651H6.7267Z" fill="#232933"/>
<path d="M29.3993 11.9356C28.8457 11.4112 28.8692 10.846 28.8883 10.3916C28.8941 10.2587 28.8928 10.1324 28.891 9.99886C28.8903 9.93532 28.8894 9.872 28.8894 9.80847V9.36221L28.9093 9.36103C28.9056 9.31505 28.9029 9.26982 28.8998 9.22448C28.8691 8.76854 28.8401 8.33811 28.7699 7.91286C28.5716 6.71377 28.299 5.83774 27.5547 5.17245C27.3281 4.97021 27.2678 4.66966 27.2283 4.47065C26.9855 3.24992 26.2804 2.39036 25.0722 1.84374C23.558 1.15746 22.0175 0.817383 20.4085 0.817383C19.7472 0.817383 19.0752 0.874564 18.3881 0.988928C14.997 1.55202 12.6818 3.81721 12.1952 7.04792C12.0763 7.8406 12.0665 8.64093 12.0555 9.48864C12.0504 9.91874 12.0452 10.3635 12.0236 10.8024C12.0044 11.2045 11.8891 11.4947 11.6813 11.6666C11.3747 11.9191 11.2339 12.2488 11.1785 12.8417C10.993 14.8363 11.6692 16.655 13.2458 18.4009C13.4773 18.6564 13.661 18.9675 13.7647 19.2764C14.221 20.6318 14.8458 21.7014 15.6756 22.5458C17.7349 24.6397 19.8864 25.2715 22.2533 24.4767C24.5356 23.7099 26.1191 22.028 27.094 19.3339C27.2217 18.981 27.4298 18.6309 27.6796 18.3474C29.2301 16.5901 29.8867 14.7978 29.6863 12.8672C29.6173 12.2069 29.463 11.9955 29.3993 11.9356Z" fill="#232933"/>
<path d="M33.1669 21.9681C32.8101 21.9681 32.4521 21.9863 32.0965 22.0228C32.2157 21.8373 32.2592 21.6311 32.2142 21.43C32.1212 21.0139 31.6731 20.7334 31.1 20.7334C30.9831 20.7334 30.8642 20.7452 30.7447 20.7689C30.4123 20.8365 30.1211 20.9876 29.9237 21.1954C29.7129 21.4177 29.6283 21.6823 29.6865 21.9397C29.7312 22.1426 29.8632 22.316 30.0564 22.4395C28.1708 23.0296 26.4816 24.1682 25.2685 25.6723C23.9341 27.3268 23.2292 29.3049 23.2292 31.3922C23.2292 36.5895 27.6874 40.8174 33.1669 40.8174C38.6464 40.8174 43.1049 36.5895 43.1049 31.3922C43.1049 26.1949 38.6464 21.9681 33.1669 21.9681ZM31.1 21.3712C31.3588 21.3712 31.5352 21.4689 31.5562 21.5626C31.5678 21.6155 31.5367 21.6831 31.4732 21.7488C31.3117 21.6761 31.1261 21.6542 30.9476 21.6901C30.7717 21.7254 30.6133 21.8158 30.4962 21.9438C30.4122 21.9079 30.3553 21.8593 30.3443 21.8076C30.331 21.7486 30.3714 21.6697 30.4529 21.5959C30.5575 21.5013 30.7148 21.4277 30.8848 21.393C30.9575 21.3787 31.03 21.3712 31.1 21.3712ZM35.321 37.9417L34.5286 36.7228C34.4899 36.6635 34.4161 36.6337 34.3446 36.648C34.2727 36.662 34.2187 36.718 34.2086 36.787L34.0078 38.2038C33.7289 38.2345 33.4464 38.25 33.1668 38.25C31.2884 38.25 29.5197 37.5754 28.1679 36.3477C28.1822 36.3418 28.1962 36.334 28.2089 36.3251L32.1298 33.499C32.3926 33.6149 32.6764 33.6867 32.9623 33.7099L33.9573 35.6904C33.992 35.7589 34.072 35.7963 34.1502 35.7808C34.2287 35.7646 34.2856 35.6999 34.2874 35.6236L34.347 33.4316C34.5664 33.3181 34.7641 33.1739 34.9365 33.0024L36.1116 33.3971C36.1873 33.4223 36.2713 33.3953 36.3151 33.3318C36.359 33.2673 36.3508 33.1834 36.2953 33.1286L35.4373 32.2717C35.5325 32.0515 35.5908 31.8221 35.6113 31.5864L37.6983 30.6428C37.7706 30.61 37.8101 30.5343 37.7934 30.4598C37.777 30.3853 37.7086 30.3317 37.6283 30.3302L35.4938 30.2774L38.3683 26.6907C38.378 26.6789 38.3853 26.6655 38.3911 26.6521C39.1656 27.4196 39.7435 28.347 40.0726 29.3502L38.7872 30.1012C38.7245 30.138 38.6932 30.2079 38.7087 30.2757C38.7239 30.3439 38.7825 30.3956 38.8553 30.4044L40.3492 30.5948C40.3812 30.8607 40.3979 31.1284 40.3979 31.3923C40.3979 33.2244 39.6453 34.9464 38.2799 36.2416C37.4497 37.0291 36.4288 37.6151 35.321 37.9417ZM27.6252 32.5095C27.6097 32.442 27.551 32.3899 27.4786 32.3805L25.9844 32.1901C25.9522 31.9242 25.9357 31.6565 25.9357 31.3922C25.9357 29.5605 26.688 27.8388 28.0537 26.5435C28.8841 25.756 29.9044 25.1699 31.0128 24.8432L31.805 26.0623C31.8436 26.1219 31.9172 26.1517 31.989 26.1371C32.0602 26.1223 32.1149 26.0668 32.125 25.9978L32.3258 24.5809C32.6047 24.5508 32.8867 24.5347 33.1668 24.5347C35.0452 24.5347 36.8139 25.2094 38.1657 26.438C38.1514 26.4435 38.1374 26.4502 38.125 26.4596L34.2038 29.2864C33.9416 29.1702 33.6572 29.0982 33.3713 29.075L32.3763 27.0948C32.3416 27.0261 32.2616 26.9886 32.1834 27.0044C32.1049 27.0199 32.0477 27.0853 32.0462 27.1617L31.9866 29.3539C31.7672 29.4671 31.5695 29.6107 31.3968 29.7832L30.222 29.3878C30.1465 29.3628 30.0623 29.3899 30.0185 29.4534C29.9746 29.5176 29.9829 29.6016 30.0383 29.6563L30.8963 30.5135C30.8011 30.7337 30.743 30.9631 30.7223 31.1995L28.635 32.1425C28.563 32.1756 28.5233 32.2508 28.5401 32.3253C28.5569 32.3999 28.6253 32.454 28.7057 32.4559L30.8398 32.5075L27.965 36.0948C27.9558 36.107 27.9483 36.1198 27.9425 36.1338C27.1686 35.3663 26.5904 34.4392 26.261 33.4354L27.5464 32.684C27.6091 32.6479 27.6401 32.5776 27.6252 32.5095ZM34.0961 32.8318C33.9234 32.9318 33.7351 33.0033 33.5365 33.0429C33.3443 33.0821 33.1474 33.0906 32.9485 33.0681C32.9407 33.0662 32.933 33.065 32.9251 33.0647C32.8735 33.0584 32.8218 33.0492 32.77 33.0377L33.9624 32.1783C33.9749 32.1692 33.9861 32.1589 33.9956 32.147L34.9014 31.0166C34.9036 31.0251 34.9057 31.0331 34.9078 31.0418C35.0635 31.74 34.7373 32.4594 34.0961 32.8318ZM32.7968 29.742C32.9203 29.7174 33.0453 29.7049 33.1688 29.7049C33.2415 29.7049 33.3154 29.7092 33.3884 29.7177C33.3948 29.7189 33.4018 29.7195 33.4079 29.7202C33.4599 29.7272 33.5123 29.7363 33.5633 29.7472L32.3715 30.6069C32.359 30.6157 32.3478 30.6264 32.3384 30.6382L31.4319 31.7688C31.4303 31.76 31.4285 31.7521 31.4264 31.7436C31.2225 30.8334 31.838 29.9352 32.7968 29.742Z" fill="#232933"/>
</svg>
