<svg xmlns="http://www.w3.org/2000/svg" width="60" height="26" viewBox="0 0 60 26" fill="none"><path d="M26.01 5.81c-.96 1.26-2.03 2.42-3.2 3.48-.95.62-3.08 1.63-3.08 1.63s-1.3-.23-1.72.7c-.47.82-.88 1.68-1.25 2.56-.95 2.12-2.06 4.16-3.32 6.12-.1.1-.35.36-.65.7l2.96-1a10.71 10.71 0 0 1 3.91-3.02 7.12 7.12 0 0 0 3.24-2.65c.03-.06.06-.11.08-.16.42-1.03.9-2.04 1.42-3.02.18-.08 2.19-1.47 2.19-1.47l1.13-3.48 1.12-3.57s-2.19 0-2.85 3.17M50.01 21.14c-.4-.37-.73-.81-.99-1.28l-1.4-2.52L46 15.76l-2.4 1.01h-1.33s-1.51-2.75-1.96-3.6a7.57 7.57 0 0 0-1.75-1.64c-.64-.38-1.25-.81-1.81-1.3 0 0 1.42 2.48 1.13 4.26-.29 1.78.12 4.1 1.01 4.88.78.49 1.67.78 2.59.85 0 0 1.65.04 2.34 0 .9.16 1.75.55 2.46 1.12.36.31 4.64.63 4.64.63l-.89-.83h-.02Z" fill="#fff"/><path d="M55.28 22.85c-.63-.38-1.23-.8-1.8-1.27-.53-.43-1.16-.94-1.48-1.15a24.522 24.522 0 0 1-2.86-4.08c-.27-.53-1.82-3.03-2.27-3.16-.45-.13-4.36-2.24-4.36-2.24-1.3-.75-2.54-1.58-3.73-2.5-1.23-1.2-2.38-2.47-3.45-3.82-.18-.39-2.18-3.03-3.09-3.03A21.2 21.2 0 0 1 28.42.55s-2.82.13-3.27 2.1c-.45 1.97-2.18 3.56-2.64 4.22-.95 1.05-2.01 1.97-3.18 2.76-.82.53-2.36 0-2.91 2.24-.4 1.65-2.44.86-3.48.34-.45-.24-.96-.34-1.47-.3-.6 0-1.18.16-1.68.48L8.61 14.5l-2.5 3.85-1.41 3-4.33 4.08H59.6l-4.28-2.58h-.04ZM27.73 6.2 26.6 9.68s-2.02 1.39-2.19 1.47c-.52.98-1 1.99-1.42 3.02-.02.05-.05.1-.08.16a7.12 7.12 0 0 1-3.24 2.65c-1.52.68-2.87 1.72-3.91 3.02l-2.96 1c.3-.34.54-.61.65-.7 1.26-1.95 2.37-4 3.32-6.12.36-.88.78-1.73 1.25-2.56.42-.93 1.72-.7 1.72-.7s2.14-1.01 3.08-1.63c1.17-1.06 2.24-2.23 3.2-3.48.65-3.17 2.85-3.17 2.85-3.17L27.75 6.2h-.02Zm9.02 4.02c.56.49 1.17.92 1.81 1.3.67.45 1.26 1.01 1.75 1.64.44.85 1.96 3.6 1.96 3.6h1.33l2.4-1.01 1.62 1.58 1.4 2.51c.26.48.6.91.99 1.28l.89.83s-4.28-.32-4.64-.63c-.71-.57-1.56-.96-2.46-1.12-.68.04-2.33 0-2.33 0a5.84 5.84 0 0 1-2.59-.85c-.89-.77-1.3-3.1-1.01-4.88.29-1.78-1.13-4.26-1.13-4.26" fill="#1A1818"/></svg>
