<svg xmlns="http://www.w3.org/2000/svg" width="33" height="16" viewBox="0 0 33 16" fill="none"><path fill="currentColor" d="M29.59 9.67a7.94 7.94 0 0 0-7.304-5.645h-.524V1.913h10.043c.29 0 .524-.234.524-.524a.532.532 0 0 0-.524-.532H10.67a.532.532 0 1 0 0 1.056h10.036v2.112H1.69v-1.81a.532.532 0 1 0-1.064 0v3.398a.635.635 0 0 0 .524.611l12.997 2.001a.69.69 0 0 1 .413.183l3.7 3.7c.249.225.569.357.905.373h1.373l-.699 2.111h-1.762a.54.54 0 0 0-.54.532.516.516 0 0 0 .524.524h11.473a.665.665 0 0 0 .373-.135l1.19-1.048a.548.548 0 0 0 .048-.746.524.524 0 0 0-.739-.054l-.007.006-1.048.921h-1.397l-.691-2.112h.857c.397 0 2.231.263 1.47-2.81Zm-7.94 2.81h4.518l.707 2.112h-5.963l.739-2.111Zm.358-6.351a5.272 5.272 0 0 1 3.636 1.334 5.025 5.025 0 0 1 1.588 2.247.516.516 0 0 1-.476.706h-5.05a1.143 1.143 0 0 1-1.032-.976V6.93a1.294 1.294 0 0 1 1.302-.825l.032.024Z"/></svg>