<svg xmlns="http://www.w3.org/2000/svg" width="38" height="38" viewBox="0 0 38 38" fill="none">
<path d="M6.30852 27.8002L0.0388184 24.5159L2.56632 22.5042L7.86922 24.2679L20.6705 13.4721L2.50762 3.29669L5.89722 0.61969L27.2197 7.84319L29.3295 6.09879C30.6877 5.03489 32.021 4.23079 33.3723 3.72169L35.2141 3.04949C36.5723 2.56589 37.4331 2.52029 37.7813 2.95759C38.088 3.34309 37.8393 4.17279 37.0628 5.38039L35.9782 7.02049C35.1686 8.21559 34.1047 9.31199 32.8045 10.3441L30.5648 12.0754L32.6608 34.4697L29.2715 37.1474L23.5624 17.1365L10.1159 27.1088L10.5994 32.6604L8.05882 34.6708L6.30852 27.8002Z" fill="#232933"/>
</svg>
