<svg xmlns="http://www.w3.org/2000/svg" width="54" height="54" viewBox="0 0 54 54" fill="none">
<path d="M18.1 40.7L17.8 40.5C10.4 35.5 8.40005 25.5 13.2 18C18.1 10.4 28.3001 8.29999 35.9001 13.2C43.5 18.1 45.6001 28.3 40.7001 35.9C39.4001 37.9 37.8001 39.5 35.9001 40.7L44.6 46.3C49.8 41.5 53.1 34.6 53.1 27C53.2 12.5 41.5 0.799988 27 0.799988C12.5 0.799988 0.800049 12.5 0.800049 27C0.800049 41.5 12.5 53.2 27 53.2C29.9 53.2 32.6 52.7 35.2001 51.9L18.1 40.7Z" fill="#FDB52B"/>
<path d="M13.1001 37.7L7.1001 34.6L9.5001 32.7L14.5001 34.4L26.8001 24L9.5001 14.3L12.7001 11.8L33.0001 18.7L35.0001 17C36.3001 16 37.6001 15.2 38.8001 14.7L40.6001 14.1C41.9001 13.6 42.7001 13.6 43.0001 14C43.3001 14.4 43.1001 15.2 42.3001 16.3L41.3001 17.9C40.5001 19 39.5001 20.1 38.3001 21.1L36.2001 22.7L38.2001 44L35.0001 46.5L29.6001 27.5L16.7001 37L17.2001 42.3L14.8001 44.2L13.1001 37.7Z" fill="#232933"/>
</svg>
