<svg xmlns="http://www.w3.org/2000/svg" width="22" height="22" viewBox="0 0 22 22" fill="none"><path fill="#FDB52B" d="m7.539 16.328-.117-.078c-2.878-1.944-3.655-5.833-1.789-8.75 1.906-2.956 5.872-3.772 8.828-1.867 2.956 1.906 3.772 5.872 1.867 8.828a6.105 6.105 0 0 1-1.867 1.867l3.383 2.178A10.22 10.22 0 0 0 21.15 11C21.189 5.36 16.639.81 11 .81A10.174 10.174 0 0 0 .81 11c0 5.639 4.55 10.189 10.189 10.189 1.128 0 2.178-.195 3.189-.506l-6.65-4.355Z"/><path fill="#232933" d="M5.595 15.161 3.26 13.956l.934-.74 1.944.662 4.783-4.045-6.727-3.772 1.244-.972 7.895 2.683.777-.66c.506-.39 1.011-.7 1.478-.895l.7-.234c.506-.194.817-.194.933-.039.117.156.04.467-.272.895l-.389.622c-.31.428-.7.856-1.166 1.245l-.817.622.778 8.283-1.245.972-2.1-7.389-5.016 3.695.194 2.061-.933.739-.661-2.528Z"/></svg>