<svg xmlns="http://www.w3.org/2000/svg" width="32" height="41" viewBox="0 0 32 41" fill="none">
<path d="M13.1732 24.0731C13.1732 24.0731 13.1713 24.0712 13.1713 24.0692C13.1384 24.0149 13.0977 23.9568 13.0647 23.9006C12.8186 23.4568 12.2876 22.108 12.8825 19.5267C12.8864 19.517 12.8883 19.5073 12.8922 19.4957C12.9251 19.3678 12.9581 19.2321 12.9891 19.0946C12.9949 19.0733 12.9988 19.0539 13.0046 19.0326C13.0046 19.0268 13.0046 19.0229 13.0065 19.019C13.0239 18.9415 13.0394 18.862 13.0569 18.7826C13.0898 18.6334 13.1247 18.4822 13.1441 18.3388C13.6208 15.7711 13.7972 12.2363 13.3166 9.61245C12.3031 4.07195 10.1404 0.858948 7.21606 0.0953477C0.977959 -0.817452 0.196958 5.01375 0.0380577 9.46125C-0.223542 11.3216 0.890759 17.1702 2.54186 20.7514C2.62136 20.9258 2.70466 21.0944 2.78606 21.2572C2.78606 21.2572 2.78606 21.2591 2.78796 21.2591L2.78986 21.261C2.96616 21.6118 3.15036 21.9315 3.33826 22.2164C3.81696 23.1873 4.55916 25.007 5.39436 28.2026C5.40796 28.2549 5.42536 28.2976 5.43896 28.3479C8.04736 38.861 18.8125 33.7917 13.1732 24.0731Z" fill="#232933"/>
<path d="M27.7351 28.0547C29.8048 24.8959 31.3319 17.4505 31.0315 15.3013C30.8745 10.8577 30.0897 5.02458 23.8516 5.93728C20.9292 6.70278 18.7685 9.91188 17.753 15.4524C17.1949 18.4988 17.5205 22.7757 18.1755 25.3396C18.3848 25.9617 18.4953 26.3531 18.5786 26.6167C18.7433 28.731 18.0437 29.6108 18.0437 29.6108L18.0379 29.6883C12.1641 39.4457 22.7703 44.6722 25.5434 34.5273C25.65 34.2928 25.7449 34.037 25.8225 33.7386C26.5763 30.8472 27.2584 29.0837 27.7351 28.0547Z" fill="#232933"/>
</svg>
