<svg xmlns="http://www.w3.org/2000/svg" width="45" height="45" viewBox="0 0 45 45" fill="none"><path d="M33.3524 6.8879C32.9054 6.8879 32.6444 6.5009 32.6294 6.1379C32.6204 5.9279 32.7434 5.7659 32.8184 5.6879C32.9654 5.5349 33.1664 5.44189 33.3524 5.44189C33.7994 5.44189 34.0604 5.82889 34.0754 6.19189C34.0844 6.40189 33.9614 6.56389 33.8864 6.64189C33.7424 6.79789 33.5414 6.8879 33.3524 6.8879Z" fill="currentColor"/><path d="M24.216 44.997C24.072 44.997 23.934 44.955 23.814 44.877L18.474 41.316L13.143 39.54C12.927 39.468 12.756 39.297 12.687 39.084L10.995 34.005L5.916 32.313C5.619 32.214 5.421 31.938 5.421 31.626V28.383L5.022 28.224C4.653 28.077 4.326 27.915 4.011 27.756C3.123 27.312 2.358 26.928 0.723 26.928C0.324 26.928 0 26.604 0 26.205C0 25.806 0.324 25.482 0.723 25.482C2.541 25.482 3.513 25.893 4.509 26.385L5.424 26.841V25.302C5.424 25.137 5.481 24.978 5.583 24.849L9.075 20.484L9.951 14.355C9.987 14.1 10.158 13.881 10.398 13.785L14.562 12.12L16.287 4.359C16.329 4.167 16.452 3.999 16.62 3.897L22.944 0.102C23.055 0.036 23.184 0 23.316 0C23.553 0 23.775 0.117 23.91 0.312L28.305 6.639L32.622 8.367C32.787 8.433 32.922 8.556 33 8.715L35.712 14.136C35.778 14.268 35.802 14.415 35.781 14.562L34.935 20.478L39.132 23.835C39.303 23.973 39.402 24.18 39.402 24.399V26.841L40.317 26.388C41.085 26.007 42.135 25.485 44.103 25.485C44.502 25.485 44.826 25.809 44.826 26.208C44.826 26.607 44.502 26.931 44.103 26.931C42.465 26.931 41.697 27.315 40.809 27.759C40.494 27.918 40.167 28.08 39.801 28.227L39.402 28.386V32.535C39.402 32.727 39.327 32.91 39.189 33.045L35.574 36.66C35.46 36.774 35.31 36.846 35.151 36.867L28.305 37.722L24.864 44.604C24.771 44.79 24.603 44.925 24.402 44.979C24.342 44.988 24.279 44.997 24.216 44.997ZM6.867 31.104L11.793 32.745C12.009 32.817 12.18 32.988 12.249 33.201L13.941 38.28L19.02 39.972C19.08 39.993 19.14 40.02 19.194 40.056L23.934 43.215L26.577 37.926L25.026 38.121C24.996 38.124 24.966 38.127 24.936 38.127C24.573 38.127 24.267 37.854 24.219 37.494C24.171 37.098 24.45 36.738 24.846 36.687L34.719 35.454L37.947 32.226V28.695L37.29 28.722C37.143 28.728 37.002 28.731 36.861 28.731C34.881 28.731 33.885 28.233 32.922 27.75C32.034 27.306 31.266 26.922 29.628 26.922C27.993 26.922 27.225 27.306 26.337 27.75C25.374 28.233 24.378 28.731 22.401 28.731C20.424 28.731 19.428 28.233 18.462 27.75C17.574 27.306 16.806 26.922 15.171 26.922C13.536 26.922 12.768 27.306 11.88 27.75C10.917 28.233 9.921 28.731 7.944 28.731C7.803 28.731 7.665 28.728 7.521 28.722L6.864 28.695V31.104H6.867ZM29.631 25.479C31.611 25.479 32.607 25.977 33.57 26.46C34.458 26.904 35.226 27.288 36.864 27.288C37.026 27.288 37.185 27.285 37.353 27.276L37.953 27.243V24.744L30.318 18.636C30.006 18.387 29.955 17.931 30.204 17.619C30.342 17.448 30.549 17.349 30.768 17.349C30.933 17.349 31.089 17.403 31.218 17.508L33.618 19.428L34.311 14.58L31.824 9.606L28.134 8.13L25.842 11.949V16.266C25.842 16.665 25.518 16.989 25.119 16.989C24.72 16.989 24.396 16.665 24.396 16.266V11.745C24.396 11.613 24.432 11.484 24.498 11.373L26.967 7.257L23.1 1.689L17.625 4.974L16.182 11.466L18.3 10.62C18.387 10.584 18.477 10.569 18.567 10.569C18.864 10.569 19.128 10.746 19.239 11.025C19.311 11.205 19.308 11.4 19.233 11.577C19.158 11.754 19.017 11.892 18.837 11.964L11.319 14.97L10.476 20.883C10.458 21.012 10.404 21.132 10.326 21.231L6.87 25.551V27.24L7.47 27.27C7.635 27.279 7.794 27.282 7.95 27.282C9.585 27.282 10.353 26.898 11.241 26.454C12.204 25.971 13.2 25.473 15.177 25.473C17.154 25.473 18.15 25.971 19.116 26.454C20.004 26.898 20.772 27.282 22.407 27.282C24.042 27.282 24.81 26.898 25.698 26.454C26.658 25.977 27.654 25.479 29.631 25.479Z" fill="currentColor"/></svg>