<svg xmlns="http://www.w3.org/2000/svg" width="64" height="64" viewBox="0 0 64 64" fill="none"><path fill="currentColor" d="M42.352 16.888c-.447 0-.708-.387-.723-.75a.631.631 0 0 1 .19-.45.77.77 0 0 1 .533-.246c.447 0 .708.387.723.75a.631.631 0 0 1-.189.45.747.747 0 0 1-.534.246ZM33.216 54.997a.734.734 0 0 1-.402-.12l-5.34-3.561-5.331-1.776a.719.719 0 0 1-.456-.456l-1.692-5.079-5.079-1.692a.722.722 0 0 1-.495-.687v-3.243l-.399-.159a12.318 12.318 0 0 1-1.011-.468c-.888-.444-1.653-.828-3.288-.828a.723.723 0 0 1 0-1.446c1.818 0 2.79.411 3.786.903l.915.456v-1.539a.73.73 0 0 1 .159-.453l3.492-4.365.876-6.129a.725.725 0 0 1 .447-.57l4.164-1.665 1.725-7.761a.727.727 0 0 1 .333-.462l6.324-3.795a.723.723 0 0 1 .966.21l4.395 6.327 4.317 1.728c.165.066.3.189.378.348l2.712 5.421a.72.72 0 0 1 .069.426l-.846 5.916 4.197 3.357c.171.138.27.345.27.564v2.442l.915-.453c.768-.381 1.818-.903 3.786-.903a.723.723 0 0 1 0 1.446c-1.638 0-2.406.384-3.294.828-.315.159-.642.321-1.008.468l-.399.159v4.149a.71.71 0 0 1-.213.51l-3.615 3.615a.735.735 0 0 1-.423.207l-6.846.855-3.441 6.882a.724.724 0 0 1-.462.375 1.26 1.26 0 0 1-.186.018ZM15.867 41.104l4.926 1.641a.719.719 0 0 1 .456.456l1.692 5.079 5.079 1.692c.06.021.12.048.174.084l4.74 3.159 2.643-5.289-1.551.195a.727.727 0 0 1-.807-.627.725.725 0 0 1 .627-.807l9.873-1.233 3.228-3.228v-3.531l-.657.027a10.45 10.45 0 0 1-.429.009c-1.98 0-2.976-.498-3.939-.981-.888-.444-1.656-.828-3.294-.828-1.635 0-2.403.384-3.291.828-.963.483-1.959.981-3.936.981-1.977 0-2.973-.498-3.939-.981-.888-.444-1.656-.828-3.291-.828s-2.403.384-3.291.828c-.963.483-1.959.981-3.936.981-.141 0-.279-.003-.423-.009l-.657-.027v2.409h.003Zm22.764-5.625c1.98 0 2.976.498 3.939.981.888.444 1.656.828 3.294.828.162 0 .321-.003.489-.012l.6-.033v-2.499l-7.635-6.108a.724.724 0 0 1-.114-1.017.724.724 0 0 1 1.014-.111l2.4 1.92.693-4.848-2.487-4.974-3.69-1.476-2.292 3.819v4.317a.723.723 0 0 1-1.446 0v-4.521a.73.73 0 0 1 .102-.372l2.469-4.116-3.867-5.568-5.475 3.285-1.443 6.492 2.118-.846a.719.719 0 0 1 .939.405.718.718 0 0 1-.402.939l-7.518 3.006-.843 5.913a.727.727 0 0 1-.15.348l-3.456 4.32v1.689l.6.03c.165.009.324.012.48.012 1.635 0 2.403-.384 3.291-.828.963-.483 1.959-.981 3.936-.981 1.977 0 2.973.498 3.939.981.888.444 1.656.828 3.291.828s2.403-.384 3.291-.828c.96-.477 1.956-.975 3.933-.975Z"/></svg>