<svg xmlns="http://www.w3.org/2000/svg" width="32" height="42" viewBox="0 0 32 42" fill="none"><path d="M16.9966 6.07197C17.3296 6.07197 17.5996 5.80199 17.5996 5.46897C17.5996 5.13594 17.3296 4.86597 16.9966 4.86597C16.6635 4.86597 16.3936 5.13594 16.3936 5.46897C16.3936 5.80199 16.6635 6.07197 16.9966 6.07197Z" fill="currentColor"/><path d="M28.4864 18.3991L24.9014 19.0261C24.8684 15.3091 23.7494 11.7391 21.6524 8.69707L21.5834 8.59507V8.06107H26.9594C27.1604 8.06107 27.3464 7.96207 27.4574 7.79707C27.5684 7.63207 27.5924 7.42207 27.5174 7.23607C26.6174 4.98907 24.4754 3.53707 22.0544 3.53707H20.9534L20.8394 3.34507C19.8854 1.74307 18.1394 0.74707 16.2824 0.74707C13.7114 0.74707 11.5154 2.58307 11.0654 5.11507L10.4504 8.56207L10.4084 8.62807C8.67744 11.2951 7.76544 14.3821 7.76544 17.5621V21.5161L0.148438 19.7131V21.0901V21.1201C0.166438 21.4831 0.190438 21.8521 0.220438 22.2151C1.13844 33.0661 7.91844 41.2471 15.9854 41.2471C24.7364 41.2471 31.8554 31.5931 31.8554 19.7251V19.2001L28.4864 18.3991ZM22.2104 12.4501L22.3724 12.5101L22.4384 12.6691C23.2754 14.7331 23.7014 16.9261 23.7014 19.1881V19.2361L19.8584 19.9081L19.2944 20.1091C19.2254 19.7611 19.1354 19.4101 19.0214 19.0561C18.4784 17.3731 17.5724 16.0441 17.0804 15.3991L17.0204 15.3211L17.0054 15.2251C16.9724 15.0301 16.9514 14.8801 16.9334 14.7001C16.7954 13.4701 17.0174 12.6271 17.5934 12.1981C17.9534 11.9281 18.4724 11.7901 19.1324 11.7901C19.9934 11.7871 21.0884 12.0241 22.2104 12.4501ZM8.96544 17.5621C8.96544 14.5471 9.85044 11.6311 11.5214 9.12307C11.5664 9.05407 11.5994 8.97907 11.6144 8.89507L12.2504 5.33107C12.5984 3.37507 14.2964 1.95307 16.2824 1.95307C18.0854 1.95307 19.6184 3.12607 20.1644 4.74907C20.6204 4.74007 21.0734 4.73107 21.5294 4.72807C21.5594 4.72807 21.5864 4.73407 21.6134 4.74007H22.0544C23.3354 4.74007 24.5714 5.26807 25.4474 6.19207L26.0804 6.85807H21.9884C21.9464 6.86707 21.9044 6.87307 21.8624 6.87307C21.5354 6.86707 21.2084 6.85807 20.8814 6.86107C20.8364 6.86107 20.7944 6.86107 20.7494 6.86407C20.7374 6.86407 20.7344 6.86407 20.7284 6.86407C20.7224 6.86407 20.7194 6.86407 20.7074 6.86407C20.6204 6.86707 20.5364 6.87007 20.4494 6.87307C20.4254 6.87307 20.4014 6.87607 20.3774 6.87907V8.78707C20.3774 8.91307 20.4164 9.03307 20.4884 9.13807C20.7254 9.46807 20.9534 9.81607 21.1724 10.1731L21.6494 10.9501L20.7584 10.7641C19.0844 10.4161 17.7434 10.5751 16.8674 11.2321C15.9284 11.9371 15.5474 13.1461 15.7334 14.8321C15.7664 15.1351 15.8054 15.3721 15.8624 15.6841C15.8804 15.7831 15.9224 15.8761 15.9854 15.9541C16.3754 16.4401 17.7494 18.2851 18.1394 20.5231L14.7794 21.7261C14.1164 20.5141 13.6124 18.8941 13.6124 16.7581C13.6124 16.4251 13.3424 16.1551 13.0094 16.1551C12.6764 16.1551 12.4064 16.4251 12.4064 16.7581C12.4064 19.0591 12.9524 20.8201 13.6364 22.1341L12.3314 22.6021L8.96244 21.8041V17.5621H8.96544ZM15.9854 39.9211C8.61144 39.9211 2.40144 32.2621 1.54344 22.1041C1.52244 21.8701 1.50744 21.6331 1.49244 21.3961L12.4154 23.9821L20.2004 21.1981L28.4474 19.7551L30.5264 20.2531C30.3224 31.1461 23.8784 39.9211 15.9854 39.9211Z" fill="currentColor"/></svg>