<svg xmlns="http://www.w3.org/2000/svg" width="64" height="64" viewBox="0 0 64 64" fill="none"><path fill="currentColor" d="M30.997 15.072a.603.603 0 1 0 0-1.206.603.603 0 0 0 0 1.206Z"/><path fill="#2A5F8C" d="m42.486 27.4-3.585.626a18.405 18.405 0 0 0-3.249-10.329l-.069-.102v-.534h5.376a.599.599 0 0 0 .558-.825 5.856 5.856 0 0 0-5.463-3.699h-1.1l-.115-.192a5.332 5.332 0 0 0-4.557-2.598 5.292 5.292 0 0 0-5.217 4.368l-.615 3.447-.042.066a16.365 16.365 0 0 0-2.643 8.934v3.954l-7.617-1.803v1.407c.018.363.042.732.072 1.095.918 10.851 7.698 19.032 15.765 19.032 8.751 0 15.87-9.654 15.87-21.522V28.2l-3.369-.8Zm-6.276-5.95.162.06.066.16a17.263 17.263 0 0 1 1.263 6.518v.048l-3.843.672-.564.201a9.386 9.386 0 0 0-.273-1.053c-.543-1.683-1.449-3.012-1.94-3.657l-.06-.078-.016-.096a7.298 7.298 0 0 1-.072-.525c-.138-1.23.084-2.073.66-2.502.36-.27.88-.408 1.54-.408.86-.003 1.955.234 3.077.66Zm-13.245 5.112c0-3.015.885-5.93 2.556-8.439a.61.61 0 0 0 .093-.228l.636-3.564a4.093 4.093 0 0 1 7.914-.582c.456-.009.91-.018 1.365-.02.03 0 .057.005.084.011h.441a4.69 4.69 0 0 1 3.393 1.452l.633.666h-4.092a.602.602 0 0 1-.126.015c-.327-.006-.654-.015-.98-.012-.046 0-.088 0-.133.003H34.707l-.258.01a.583.583 0 0 0-.072.005v1.908c0 .126.04.246.111.351.237.33.465.678.684 1.035l.477.777-.89-.186c-1.675-.348-3.016-.189-3.892.468-.939.705-1.32 1.914-1.134 3.6.033.303.072.54.13.852a.6.6 0 0 0 .122.27c.39.486 1.764 2.331 2.154 4.57l-3.36 1.202c-.663-1.212-1.167-2.832-1.167-4.968a.603.603 0 0 0-1.206 0c0 2.301.546 4.062 1.23 5.376l-1.305.468-3.369-.798v-4.242h.003Zm7.02 22.36c-7.374 0-13.584-7.66-14.442-17.818-.02-.234-.036-.47-.05-.708l10.922 2.586 7.785-2.784 8.247-1.443 2.08.498c-.205 10.893-6.649 19.668-14.542 19.668Z"/></svg>