<svg xmlns="http://www.w3.org/2000/svg" width="48" height="23" viewBox="0 0 48 23" fill="none">
<path d="M43.885 14.005C42.4176 9.13121 38.0149 5.72871 32.9285 5.53761H32.1425V2.36981H47.2076C47.6417 2.36981 47.9936 2.0179 47.9936 1.5838C47.9936 1.1477 47.6436 0.792406 47.2076 0.785906H15.5054C15.068 0.732206 14.6699 1.04321 14.6161 1.48061C14.5624 1.91801 14.8734 2.31611 15.3108 2.36991C15.3754 2.37781 15.4408 2.37781 15.5054 2.36991H30.5586V5.53771H2.03611V2.8224C2.03611 2.3817 1.67891 2.02451 1.23821 2.02451C0.797508 2.02451 0.440308 2.3817 0.440308 2.8224V7.9195C0.450308 8.3734 0.779308 8.7572 1.22631 8.8365L20.7216 11.8376C20.9529 11.857 21.171 11.9534 21.3409 12.1115L26.8906 17.6612C27.2642 18.0001 27.7444 18.198 28.2482 18.2209H30.3085L29.2605 21.3887H26.6166C26.174 21.3887 25.8133 21.744 25.8068 22.1866C25.8002 22.6141 26.1413 22.966 26.5688 22.9726C26.5768 22.9727 26.5848 22.9727 26.5928 22.9726H43.8016C44.0044 22.9635 44.1996 22.8929 44.3613 22.7701L46.1477 21.1981C46.4621 20.9018 46.4933 20.4125 46.2192 20.0786C45.9354 19.7501 45.4391 19.7138 45.1106 19.9976C45.107 20.0007 45.1033 20.0039 45.0998 20.0071L43.5278 21.3886H41.4318L40.3957 18.2207H41.6819C42.2774 18.2207 45.0283 18.6139 43.885 14.005ZM31.9758 18.2209H38.7521L39.812 21.3887H30.8682L31.9758 18.2209ZM32.5117 8.69351C34.5178 8.64421 36.4677 9.3594 37.9661 10.6942C39.0581 11.5742 39.883 12.7414 40.3479 14.0645C40.5058 14.4618 40.3117 14.9119 39.9143 15.0697C39.8248 15.1052 39.7296 15.1238 39.6333 15.1244H32.0591C31.2654 15.055 30.6241 14.4482 30.5109 13.6596V9.89631C30.8181 9.09841 31.6112 8.5954 32.464 8.6578L32.5117 8.69351Z" fill="#232933"/>
</svg>
