<svg xmlns="http://www.w3.org/2000/svg" width="19" height="32" viewBox="0 0 19 32" fill="none"><path fill="currentColor" d="M7.1 5.325a2.59 2.59 0 1 0-2.578-2.602v.012a2.578 2.578 0 0 0 2.565 2.59H7.1ZM17.661 11.316l-4.153-1.122-2.136-3.712a1.456 1.456 0 0 0-1.29-.716H4.08a1.468 1.468 0 0 0-1.301.716L.38 10.731v.083a1.27 1.27 0 0 0-.107.299 1.016 1.016 0 0 0 0 .262.37.37 0 0 0 0 .096v4.905a1.492 1.492 0 0 0 2.971 0v-4.5l.836-1.682v13.379L.619 29.54a1.528 1.528 0 0 0 2.625 1.563l3.652-6.313v-.084a2.2 2.2 0 0 0 .108-.298 1.013 1.013 0 0 0 0-.274v-4.38c.459.005.912-.098 1.325-.299l2.315 4.01v6.898a1.492 1.492 0 0 0 2.983 0V22.94a.825.825 0 0 0 0-.286 1.852 1.852 0 0 0-.083-.275.312.312 0 0 1 0-.095l-3.45-5.968v-6.122l1.194 2.029c.097.16.222.302.37.418.11.078.23.139.358.179l.167.083 4.774 1.265c.212.048.433.048.645 0v17.389c0 .158.128.286.286.286a.275.275 0 0 0 .275-.274V13.965a1.456 1.456 0 0 0-.43-2.65h-.072Z"/></svg>