<svg xmlns="http://www.w3.org/2000/svg" width="32" height="38" viewBox="0 0 32 38" fill="none">
<path d="M18.6379 37.9025H13.4206L11.9592 32.4514H20.0409L18.6379 37.9025Z" fill="#232933"/>
<path d="M12.2222 24.6473C12.9237 27.1902 13.5667 29.4262 14.1221 31.2237H12.9676C11.8715 29.7623 7.89645 24.5011 5.66045 21.8559C1.32005 16.5363 0.764648 12.2104 0.764648 9.4922C0.912548 5.0453 4.52895 1.4997 8.97795 1.4397C9.46915 1.4313 9.95965 1.4803 10.4393 1.5858C9.50445 2.7628 8.99005 4.2186 8.97795 5.7217C9.29925 12.1372 10.3884 18.4911 12.2222 24.6473ZM10.3808 5.6487C10.4517 2.5259 13.0406 0.0518983 16.1634 0.122698C16.1845 0.123198 16.2055 0.123799 16.2266 0.124499C17.7733 0.115499 19.2605 0.719898 20.3625 1.8051C21.3849 2.8226 21.9583 4.2063 21.9555 5.6487C21.5568 11.9733 20.4289 18.2308 18.5942 24.2966C17.8927 26.9856 17.1328 29.3824 16.6067 31.2238H15.5106C14.9553 29.4262 14.2684 26.9856 13.5231 24.2966C11.7432 18.2415 10.6884 11.9964 10.381 5.6926L10.3808 5.6487ZM31.2354 9.4923C31.2354 12.2398 30.7824 16.5656 26.3542 21.8852C24.1621 24.5304 20.2308 29.7623 19.047 31.253H17.9509C18.5062 29.4554 19.1931 27.161 19.8508 24.6766C21.7154 18.4993 22.834 12.1211 23.1829 5.678C23.1817 4.1597 22.6666 2.6865 21.7215 1.4983C26.1718 0.755599 30.3815 3.7612 31.1242 8.2115C31.1948 8.6349 31.232 9.0631 31.2354 9.4923Z" fill="#232933"/>
</svg>
