<svg xmlns="http://www.w3.org/2000/svg" width="27" height="30" viewBox="0 0 27 30" fill="none"><path fill="currentColor" d="M20.868 9.413 19.76 6.42l-2.734-3.232L14.81.05l-4.152 1.736L9.354 4.76l-3.05.67-1.432 3.105-3.901 4.53h25.882l-5.985-3.653Zm-5.64.438-3.517 2.525H2.476l2.982-3.463 1.33-2.88 3.058-.673 1.334-3.045L14.566.9l-.654 2.964 3.037 4.04-2.694 1.049.973.898ZM5.43 17.327l2.28 5.44 1.873 2.241 2.456 4.435 3.981-1.891 2.31-2.487-.151-1.066 2.686-1.405.898-1.501V20.09l4.466-6.08-25.258-.112 4.46 3.429Z"/></svg>