<svg xmlns="http://www.w3.org/2000/svg" width="22" height="22" viewBox="0 0 22 22" fill="none"><path fill="currentColor" d="M9.9 16.5h2.2V9.9H9.9v6.6ZM11 7.7c.312 0 .573-.105.784-.316.21-.211.316-.472.316-.784 0-.312-.105-.573-.316-.784A1.065 1.065 0 0 0 11 5.5c-.312 0-.573.105-.784.316-.21.211-.316.472-.316.784 0 .312.105.573.316.784.211.21.472.316.784.316ZM11 22c-1.522 0-2.952-.289-4.29-.866a11.11 11.11 0 0 1-3.493-2.352 11.109 11.109 0 0 1-2.35-3.492A10.711 10.711 0 0 1 0 11c0-1.522.289-2.952.866-4.29a11.108 11.108 0 0 1 2.351-3.493c.99-.99 2.155-1.773 3.493-2.35A10.711 10.711 0 0 1 11 0c1.522 0 2.952.289 4.29.866a11.109 11.109 0 0 1 3.492 2.351 11.11 11.11 0 0 1 2.352 3.493C21.71 8.048 22 9.478 22 11c0 1.522-.289 2.952-.866 4.29a11.11 11.11 0 0 1-2.352 3.492 11.11 11.11 0 0 1-3.492 2.352A10.711 10.711 0 0 1 11 22Z"/></svg>