<svg xmlns="http://www.w3.org/2000/svg" width="21" height="20" viewBox="0 0 21 20"><path fill="currentColor" d="M11,17 L13,17 L13,11 L11,11 L11,17 Z M12,9 C12.283,9 12.52,8.904 12.713,8.713 C12.9030661,8.5251927 13.0069502,8.26711119 13,8 C13.0069502,7.73288881 12.9030661,7.4748073 12.713,7.287 C12.5251927,7.09693393 12.2671112,6.99304979 12,7 C11.7329105,6.99316992 11.4748749,7.09703557 11.287,7.287 C11.0970356,7.4748749 10.9931699,7.73291048 11,8 C11,8.283 11.096,8.52 11.287,8.713 C11.479,8.904 11.717,9 12,9 Z M12,22.0001992 C10.6596219,22.0085441 9.33191238,21.7402787 8.1,21.212 C6.91513141,20.708548 5.83744992,19.983192 4.925,19.075 C4.025,18.175 3.313,17.117 2.788,15.9 C2.25972128,14.6680876 1.99145587,13.3403781 1.99980214,12 C1.99980214,10.617 2.263,9.317 2.788,8.1 C3.29145201,6.91513141 4.01680803,5.83744992 4.925,4.925 C5.825,4.025 6.883,3.313 8.1,2.788 C9.33191238,2.25972128 10.6596219,1.99145587 12,1.99980214 C13.383,1.99980214 14.683,2.263 15.9,2.788 C17.0848804,3.29143029 18.1625658,4.01678893 19.075,4.925 C19.975,5.825 20.687,6.883 21.212,8.1 C21.7402787,9.33191238 22.0085441,10.6596219 22,12 C22.00886,13.340308 21.7409356,14.6680146 21.213,15.9 C20.7092714,17.0849615 19.9835695,18.1626526 19.075,19.075 C18.175,19.975 17.117,20.688 15.9,21.212 C14.6680962,21.7403063 13.3403809,22.0085729 12,22.0001992 L12,22.0001992 Z" transform="translate(-1.6 -2)"/></svg>