<svg class="icon info-icon" xmlns="http://www.w3.org/2000/svg" width="25" height="24" fill="none"><mask id="a" style="mask-type:alpha" maskUnits="userSpaceOnUse" x="0" y="0" width="25" height="24"><path fill="#D9D9D9" d="M.4 0h24v24H.4z"/></mask><g mask="url(#a)"><path d="M11.4 17h2v-6h-2v6Zm1-8c.283 0 .52-.096.713-.287A.967.967 0 0 0 13.4 8a.967.967 0 0 0-.287-.713A.967.967 0 0 0 12.4 7a.968.968 0 0 0-.713.287A.968.968 0 0 0 11.4 8c0 .283.096.52.287.713.192.191.43.287.713.287Zm0 13a9.738 9.738 0 0 1-3.9-.788 10.099 10.099 0 0 1-3.175-2.137c-.9-.9-1.612-1.958-2.137-3.175A9.738 9.738 0 0 1 2.4 12c0-1.383.263-2.683.788-3.9a10.099 10.099 0 0 1 2.137-3.175c.9-.9 1.958-1.612 3.175-2.137A9.738 9.738 0 0 1 12.4 2c1.383 0 2.683.263 3.9.788a10.098 10.098 0 0 1 3.175 2.137c.9.9 1.612 1.958 2.137 3.175A9.738 9.738 0 0 1 22.4 12a9.738 9.738 0 0 1-.787 3.9 10.098 10.098 0 0 1-2.138 3.175c-.9.9-1.958 1.613-3.175 2.137a9.737 9.737 0 0 1-3.9.788Z" fill="#4C8BBF"/></g></svg>
