<svg class="icon icon-itinerary" width="33" height="32" fill="none" xmlns="http://www.w3.org/2000/svg"><circle cx="16.8" cy="16" r="16" fill="#ECEEF2"/><path d="M21.343 9.848h2.52v-.035l-2.52-2.8v2.835ZM12.613 21.375h8.437v.563h-8.438v-.563ZM16.039 15.569h.08l1.089-1.526h-.733l-.436 1.526Z" fill="#232933"/><path d="M20.78 10.41V7H9.8v18h14.063V10.41H20.78Zm.27 10.09h-8.437v-.563h8.437v.563Zm0-1.437h-8.437V18.5h8.437v.563Zm.716-5.9a.87.87 0 0 1-.859.879H17.9l-1.492 2.09h-1.115l.598-2.09h-2.759a.87.87 0 0 1-.858-.879l-.377-1.989h.801l.717.988h2.48l-.602-2.105h1.115l1.504 2.105h2.995a.87.87 0 0 1 .858.879v.122h.001Z" fill="#232933"/><path d="m17.208 12.145-1.09-1.526h-.08l.437 1.526h.733ZM20.907 12.725h-7.779l-.497-.686.2 1.072c.005.226.138.368.301.368h7.775c.163 0 .296-.142.296-.316v-.123c0-.173-.133-.315-.296-.315Z" fill="#232933"/></svg>
