<svg class="icon icon-itinerary" width="33" height="32" viewBox="0 0 33 32" fill="none" xmlns="http://www.w3.org/2000/svg">
<circle cx="16.8" cy="16" r="16" fill="#ECEEF2"/>
<path d="M21.3435 9.84842H23.863V9.81288L21.3435 7.01331V9.84842Z" fill="#232933"/>
<path d="M12.6125 21.3754H21.05V21.9379H12.6125V21.3754Z" fill="#232933"/>
<path d="M16.0388 15.5686H16.1182L17.2078 14.0426H16.4754L16.0388 15.5686Z" fill="#232933"/>
<path d="M20.7807 10.4107V7H9.80005V25H23.8625V10.4107H20.7807ZM21.0501 20.5H12.6126V19.9375H21.0501V20.5ZM21.0501 19.0629H12.6126V18.5004H21.0501V19.0629ZM21.7662 13.1634C21.7662 13.6476 21.3803 14.042 20.9072 14.042H17.9001L16.4084 16.1312H15.2935L15.8909 14.042H13.1324C12.6588 14.042 12.2735 13.6483 12.2735 13.1634L11.8965 11.1744H12.6981L13.4153 12.1621H15.8953L15.2934 10.0567H16.4082L17.9117 12.1621H20.9066C21.3801 12.1621 21.7655 12.5559 21.7655 13.0408L21.7656 13.1633L21.7662 13.1634Z" fill="#232933"/>
<path d="M17.2078 12.1452L16.1182 10.6191H16.0388L16.4754 12.1452H17.2078Z" fill="#232933"/>
<path d="M20.9067 12.7247H13.1284L12.6306 12.0391L12.8309 13.1106C12.8359 13.3367 12.9687 13.479 13.1323 13.479H20.9067C21.0705 13.479 21.2032 13.3372 21.2032 13.1628V13.0396C21.2038 12.8665 21.0705 12.7247 20.9069 12.7247L20.9067 12.7247Z" fill="#232933"/>
</svg>
