<svg xmlns="http://www.w3.org/2000/svg" width="15" height="18" viewBox="0 0 15 18"><path fill="#232933" d="M19.98,10.41 L19.98,7 L9,7 L9,25 L23.063,25 L23.063,10.41 L19.98,10.41 Z M20.25,20.5 L11.813,20.5 L11.813,19.937 L20.25,19.937 L20.25,20.5 Z M20.25,19.063 L11.813,19.063 L11.813,18.5 L20.25,18.5 L20.25,19.063 Z M20.9660483,13.163 C20.971001,13.6427261 20.5867142,14.0359602 20.107,14.042 L17.1,14.042 L15.608,16.132 L14.493,16.132 L15.091,14.042 L12.332,14.042 C11.8526782,14.0354142 11.4689958,13.6423409 11.474,13.163 L11.097,11.174 L11.898,11.174 L12.615,12.162 L15.095,12.162 L14.493,10.057 L15.608,10.057 L17.112,12.162 L20.107,12.162 C20.5863218,12.1685858 20.9700042,12.5616591 20.965,13.041 L20.965,13.163 L20.9660483,13.163 L20.9660483,13.163 Z" transform="translate(-8.2 -7)"/></svg>