<svg xmlns="http://www.w3.org/2000/svg" width="39" height="26" viewBox="0 0 39 26" fill="none"><path fill="currentColor" d="M18.894 4.17a2.074 2.074 0 0 0 2.538-1.47 2.074 2.074 0 1 0-4.007-1.073 2.08 2.08 0 0 0 1.469 2.544Z"/><path fill="currentColor" d="M24.654 12.819c-.012.15-.664.35-1.691.482l1.418-1.328.016.008a1.2 1.2 0 0 0 1.59-.578c.166-.36.12-.75-.058-1.074h.133l2-1.87c.158-.061.327-.102.507-.11 1.327-.129 2.568-.714 3.672-1.759l1.061-1.005c.551-.521.56-1.334.038-1.885l-.856-.905c-.524-.553-1.336-.59-1.887-.068L29.536 3.73c-1.105 1.045-1.756 2.253-1.957 3.572a1.63 1.63 0 0 1-.138.497L25.33 9.777l-3.206-1.495-2.078-2.968c-.005-.007-.013-.01-.017-.017a2.352 2.352 0 0 0-1.223-.8l-.02-.004-.019-.006a2.371 2.371 0 0 0-2.904 1.677l-.525 1.962-.526 1.961-.614 2.29.006.002c-.047.16-.075.322-.087.486-.013-.016-.033-.032-.034-.046-7.378.01-14.042.735-14.042.735-.011.115 1.177 2.862 4.556 3.251 3.62.417 7.124.599 12.604.651l-1.999 1.871c-.16.06-.328.101-.508.11-1.327.129-2.567.714-3.671 1.759L9.96 22.2c-.551.52-.56 1.333-.038 1.885l.856.905c.524.553 1.336.59 1.887.068l1.062-1.005c1.104-1.045 1.755-2.252 1.956-3.571a1.63 1.63 0 0 1 .138-.497l2.692-2.52.577.003.278-.001c.09 0 .187.002.277.001 6.604-.027 10.474-.2 14.494-.664 3.379-.39 4.567-3.136 4.557-3.25 0 0-6.665-.726-14.042-.736Zm-4.089.633c-.385.009-.786.013-1.197.013-.175 0-.338-.004-.509-.005l.572-2.135.526-1.962V9.36l.391.557c.014.02.035.029.05.047.052.067.116.12.183.174.058.048.112.096.177.131.024.013.039.035.064.047l.005.001 2.671 1.245-1.984 1.857-.949.034Z"/></svg>