<svg xmlns="http://www.w3.org/2000/svg" width="46" height="36" viewBox="0 0 46 36" fill="none">
<path d="M39.7808 35.055C37.9976 35.055 37.0296 34.6238 36.2503 34.2779C35.6304 34.0017 35.2195 33.8197 34.2223 33.8197C33.2274 33.8197 32.8186 34.0016 32.1965 34.2779C31.4194 34.6238 30.4492 35.055 28.666 35.055C26.885 35.055 25.9148 34.6238 25.1355 34.2779C24.5156 34.0017 24.1069 33.8197 23.1097 33.8197C22.1148 33.8197 21.7038 34.0016 21.0839 34.2779C20.3046 34.6238 19.3366 35.055 17.5534 35.055C15.7702 35.055 14.8022 34.6238 14.0229 34.2779C13.403 34.0017 12.992 33.8197 11.9971 33.8197C10.9999 33.8197 10.5912 34.0016 9.97132 34.2779C9.19202 34.6238 8.22182 35.055 6.44082 35.055C4.65762 35.055 3.68742 34.6238 2.91032 34.2779C2.28822 34.0017 1.87952 33.8197 0.882324 33.8197V30.1163C2.66552 30.1163 3.63572 30.5453 4.41502 30.8934C5.03492 31.1674 5.44362 31.3493 6.44082 31.3493C7.43572 31.3493 7.84672 31.1674 8.46662 30.8934C9.24592 30.5453 10.2139 30.1163 11.9971 30.1163C13.7781 30.1163 14.7483 30.5453 15.5276 30.8934C16.1475 31.1674 16.5562 31.3493 17.5534 31.3493C18.5483 31.3493 18.9593 31.1674 19.5792 30.8934C20.3585 30.5453 21.3265 30.1163 23.1097 30.1163C24.8929 30.1163 25.8609 30.5453 26.6402 30.8934C27.2601 31.1674 27.671 31.3493 28.666 31.3493C29.6632 31.3493 30.0719 31.1674 30.6918 30.8934C31.4711 30.5453 32.4413 30.1163 34.2223 30.1163C36.0055 30.1163 36.9757 30.5453 37.755 30.8934C38.3749 31.1674 38.7836 31.3493 39.7808 31.3493C40.778 31.3493 41.1867 31.1674 41.8066 30.8934C42.5859 30.5453 43.5561 30.1163 45.3393 30.1163V33.8197C44.3421 33.8197 43.9311 34.0016 43.3113 34.2779C42.532 34.6238 41.564 35.055 39.7808 35.055Z" fill="#232933"/>
<path d="M5.91881 27.5073C6.02661 27.5545 6.15691 27.6129 6.21971 27.6376C6.25341 27.6421 6.32301 27.6466 6.43981 27.6466C6.55881 27.6466 6.62851 27.6421 6.65991 27.6376C6.72501 27.6129 6.85531 27.5545 6.96081 27.5073C7.88381 27.0963 9.42901 26.4113 11.996 26.4113C14.5653 26.4113 16.1104 27.0963 17.0312 27.5073C17.139 27.5545 17.2693 27.6129 17.3344 27.6376C17.3658 27.6421 17.4355 27.6466 17.5522 27.6466C17.6712 27.6466 17.7409 27.6421 17.7723 27.6376C17.8374 27.6129 17.9677 27.5545 18.0755 27.5073C18.9963 27.0963 20.5415 26.4113 23.1107 26.4113C25.6777 26.4113 27.2229 27.0963 28.1459 27.5073C28.2515 27.5545 28.3817 27.6129 28.4468 27.6376C28.4782 27.6421 28.5479 27.6466 28.6669 27.6466C28.7837 27.6466 28.8533 27.6421 28.8847 27.6376C28.9498 27.6129 29.0801 27.5545 29.1879 27.5073C30.1109 27.0963 31.6539 26.4113 34.2231 26.4113C36.7923 26.4113 38.3353 27.0963 39.2583 27.5073C39.3661 27.5545 39.4964 27.6129 39.5592 27.6376C39.5929 27.6421 39.6625 27.6466 39.7793 27.6466C39.8983 27.6466 39.968 27.6421 39.9994 27.6376C40.0645 27.6129 40.1948 27.5545 40.3026 27.5073C40.352 27.4848 40.4037 27.4624 40.4553 27.4377L35.6918 14.1018C35.5683 13.7514 35.1663 13.592 34.8361 13.7559L30.5196 15.9142L24.2447 1.27567C23.818 0.276273 22.4031 0.276273 21.9764 1.27567L15.7015 15.9142L11.385 13.7559C11.0549 13.5897 10.6528 13.7514 10.5271 14.1018L5.76361 27.44C5.81751 27.4625 5.86941 27.4848 5.91881 27.5073Z" fill="#232933"/>
</svg>
