<svg xmlns="http://www.w3.org/2000/svg" viewBox="0 0 797.38 748.75"><path d="M158.55 106.18c11.36-1.42 35.4-3.16 66.53 1.61 58.36 8.94 112.75 35.3 161.68 78.35 7.45 6.56 18.64 6.32 25.77-.59.21-.2 21.78-20.64 63.38-40.72 36.54-17.63 96.18-38.44 176.17-40.09 3.01 6.81 7.04 16.99 10.82 29.9 12.35-.59 25.41-.89 39.2-.86-8.93-34.7-20.82-56.09-21.63-57.52a19.008 19.008 0 0 0-16.49-9.66h-1.72c-93.26 0-162.73 24.35-204.67 44.84-27.01 13.2-46.46 26.54-58.19 35.58-64.36-52.25-127.68-70.85-170.56-77.14-50.12-7.35-84.17-.07-85.59.24-4.55 1-8.58 3.64-11.32 7.42-12.34 17.05-20.47 37.8-25.76 56.27 13.88.13 26.99.6 39.35 1.36 3.31-9.9 7.57-20.01 13.03-28.99zM352.35 215.96h94.42v466.18h-94.42zM140.83 151.33c-12.22-.68-25.13-1.09-38.8-1.16-8.35-.04-16.97.04-25.88.26-.21.01-.42.01-.63.01v466.18s161.27-22.68 257.03 65.52V208.4c-.01 0-44.99-48.86-191.72-57.07z"/><path d="M705.84 150.19c-13.61-.1-26.52.12-38.75.63-144.98 5.97-195.62 51.07-201.63 56.95-.42.41-.63.64-.63.64v473.74c95.76-88.2 257.03-65.52 257.03-65.52V150.44c-5.45-.13-10.77-.21-16.02-.25z"/></svg>
