<svg xmlns="http://www.w3.org/2000/svg" viewBox="39.54 39.56 314.5 131.73"><path fill="currentColor" d="M60.57 160.09h-2.22v6.56h-2.61v-17.49h4.92c4.28 0 6.32 2.14 6.32 5.35s-2.36 5.57-6.4 5.57Zm-2.22-2.22h2.22c2.25 0 3.65-1.15 3.65-3.32s-1.26-3.16-3.93-3.16h-1.95v6.48Zm16.59 9.06c-3.62 0-6.29-2.58-6.29-6.34s2.86-6.43 6.37-6.43 6.29 2.58 6.29 6.34-2.86 6.42-6.37 6.42Zm3.95-6.43c0-2.61-1.65-4.17-3.87-4.17s-3.95 1.68-3.95 4.26 1.65 4.17 3.87 4.17 3.95-1.67 3.95-4.26Zm5.47 6.15v-19.28l2.28-.55v19.83h-2.28Zm8.92.28c-1.81 0-3.32-1.02-3.32-2.97 0-2.47 2.06-3.87 6.4-4.45v-1.76c0-.55-.14-.8-.47-1.02-.41-.28-1.04-.41-1.87-.41-1.48 0-2.91.6-3.57 1.37v-2.25c.82-.85 2.33-1.29 3.87-1.29 2.77 0 4.31 1.29 4.31 3.84 0 .41-.14 5.96-.14 6.56.33.22.77.33 1.18.33.11 0 .19 0 .27-.03l-.22 1.98c-.19.05-.44.08-.63.08-.93 0-1.76-.27-2.36-.99-1.18.77-2.39.99-3.46.99Zm3.08-5.63c-2.94.44-4.01 1.07-4.01 2.31 0 .96.55 1.4 1.92 1.4.77 0 1.67-.25 2.09-.6v-3.1Zm13.38-4.64c-.3-.14-.71-.22-1.24-.22-1.04 0-2.31.38-3.35 1.29v8.92h-2.28v-12.22h2l.27 1.26c1.1-1.13 2.2-1.54 3.27-1.54.58 0 .96.14 1.32.38v2.11Zm1.54 5.41v-2.14l5.38-1.07V161l-5.38 1.07Zm8.12-3.98c0-5.63 4.28-9.2 9.09-9.2s8.95 3.38 8.95 8.84-4.28 9.2-9.09 9.2-8.95-3.38-8.95-8.84Zm15.27-.36c0-3.9-2.47-6.45-6.18-6.45s-6.32 2.66-6.32 6.81c0 3.9 2.47 6.45 6.18 6.45s6.32-2.66 6.32-6.81Zm6.02-10.35 2.28-.55v8.18c.99-.6 2.11-.85 3.24-.85 3.27 0 5.77 2.09 5.77 6.15s-2.72 6.62-6.51 6.62c-1.87 0-3.6-.41-4.78-1.26v-18.29Zm4.75 17.38c2.36 0 4.12-1.35 4.12-4.45 0-2.69-1.51-3.98-3.84-3.98-.96 0-2.14.28-2.75.71v7.17c.55.33 1.48.55 2.47.55Zm8.9-1.1c.69.71 2 1.15 3.35 1.15 1.62 0 2.17-.58 2.17-1.54 0-2.09-5.66-1.62-5.66-5.41 0-2.22 1.87-3.71 4.45-3.71 1.32 0 2.42.25 3.16.74v2.44c-.52-.58-1.81-1.07-3.1-1.07-1.54 0-2.09.55-2.09 1.48 0 1.84 5.66 1.48 5.66 5.41 0 2.11-1.62 3.76-4.56 3.76-1.51 0-2.83-.36-3.54-.91l.16-2.36Zm20.38 2.06c-.99.82-2.5 1.21-4.04 1.21-3.76 0-6.32-2.53-6.32-6.31 0-4.09 2.69-6.45 5.9-6.45 2.88 0 4.83 1.76 4.83 4.75 0 .52-.03 1.43-.08 1.98h-8.32c.05 2.36 1.78 3.84 4.34 3.84 1.62 0 2.99-.66 3.68-1.35v2.33Zm-1.98-6.76v-.38c0-1.46-.82-2.42-2.69-2.42s-2.97 1.35-3.16 2.8h5.85Zm5 4.7c.69.71 2 1.15 3.35 1.15 1.62 0 2.17-.58 2.17-1.54 0-2.09-5.66-1.62-5.66-5.41 0-2.22 1.87-3.71 4.45-3.71 1.32 0 2.42.25 3.16.74v2.44c-.52-.58-1.81-1.07-3.1-1.07-1.54 0-2.09.55-2.09 1.48 0 1.84 5.66 1.48 5.66 5.41 0 2.11-1.62 3.76-4.56 3.76-1.51 0-2.83-.36-3.54-.91l.16-2.36Zm10.49 0c.69.71 2 1.15 3.35 1.15 1.62 0 2.17-.58 2.17-1.54 0-2.09-5.66-1.62-5.66-5.41 0-2.22 1.87-3.71 4.45-3.71 1.32 0 2.42.25 3.16.74v2.44c-.52-.58-1.81-1.07-3.1-1.07-1.54 0-2.09.55-2.09 1.48 0 1.84 5.66 1.48 5.66 5.41 0 2.11-1.62 3.76-4.56 3.76-1.51 0-2.83-.36-3.54-.91l.16-2.36Zm20.38 2.06c-.99.82-2.5 1.21-4.04 1.21-3.76 0-6.32-2.53-6.32-6.31 0-4.09 2.69-6.45 5.9-6.45 2.88 0 4.83 1.76 4.83 4.75 0 .52-.03 1.43-.08 1.98h-8.32c.05 2.36 1.78 3.84 4.34 3.84 1.62 0 2.99-.66 3.68-1.35v2.33Zm-1.98-6.76v-.38c0-1.46-.82-2.42-2.69-2.42s-2.97 1.35-3.16 2.8h5.85Zm15.96 6.7c-1.37.8-3.1 1.26-5.03 1.26-3.87 0-6.26-2.22-6.26-6.15s2.83-6.62 6.34-6.62c1.13 0 2.03.22 2.66.52v-7.3l2.28-.55v18.84Zm-2.28-8.78c-.47-.3-1.57-.55-2.47-.55-2.33 0-4.12 1.35-4.12 4.45 0 2.69 1.57 3.98 4.12 3.98.96 0 1.89-.19 2.47-.44v-7.44Zm17 10.05c-1.7 0-3.57-.36-4.72-1.26l.22-2.64c1.13.99 2.91 1.54 4.5 1.54 1.87 0 3.02-.77 3.02-2.39 0-3.27-7.63-3.24-7.63-8.27 0-2.83 2.28-5.02 5.9-5.02 1.73 0 3.1.3 3.84.8v2.64c-.71-.61-2.31-1.07-3.84-1.07-2.11 0-3.19.91-3.19 2.44 0 3.1 7.63 3.02 7.63 8.29 0 2.77-2.25 4.94-5.74 4.94Zm10.22-15.3c-.99 0-1.56-.69-1.56-1.59s.58-1.62 1.59-1.62 1.57.69 1.57 1.62-.58 1.59-1.59 1.59Zm-1.13 15.02v-12.22h2.28v12.22h-2.28Zm14.55 0v-8.73c0-1.1-.6-1.62-2.03-1.62-1.24 0-2.8.63-3.62 1.26v9.09h-2.28v-12.22h2l.25 1.13c1.4-1.02 2.86-1.4 4.31-1.4 2.14 0 3.65.99 3.65 3.71v8.79h-2.28Zm13.57-8.65c-.33-.96-1.02-1.73-2.53-1.73-2.28 0-3.46 1.59-3.46 4.34s1.73 4.12 4.15 4.12c1.62 0 3.05-.8 3.68-1.51v2.33c-.96.91-2.47 1.37-4.12 1.37-3.62 0-6.1-2.53-6.1-6.31 0-4.17 2.66-6.45 6.04-6.45 2.61 0 4.09 1.13 4.5 2.69l-2.17 1.15Zm14.2 7.72c-.99.82-2.5 1.21-4.04 1.21-3.76 0-6.32-2.53-6.32-6.31 0-4.09 2.69-6.45 5.9-6.45 2.88 0 4.83 1.76 4.83 4.75 0 .52-.03 1.43-.08 1.98h-8.32c.05 2.36 1.78 3.84 4.34 3.84 1.62 0 2.99-.66 3.68-1.35v2.33Zm-1.98-6.76v-.38c0-1.46-.82-2.42-2.69-2.42s-2.97 1.35-3.16 2.8h5.85Zm11.9 7.69v-1.87l2.91-.22v-8.84h-2.91v-1.78l2.91-.41h2.36v11.04l2.39.22v1.87h-7.66Zm14.83-13.4c3.08 0 5.24 2.03 5.24 5.77 0 4.04-2.86 9.34-9.03 12.27l-1.35-1.76c4.28-1.98 6.86-5.35 7.44-7.33-.71.71-1.73 1.07-2.97 1.07-2.42 0-4.61-1.65-4.61-4.78 0-3.3 2.58-5.25 5.27-5.25Zm-2.86 5.06c0 1.92 1.07 2.91 2.86 2.91 1.67 0 2.86-1.04 2.86-2.91s-1.13-2.97-2.83-2.97-2.88.91-2.88 2.97Zm15.99-5.06c3.08 0 5.24 2.03 5.24 5.77 0 4.04-2.86 9.34-9.03 12.27l-1.35-1.76c4.28-1.98 6.86-5.35 7.44-7.33-.71.71-1.73 1.07-2.97 1.07-2.42 0-4.61-1.65-4.61-4.78 0-3.3 2.58-5.25 5.27-5.25Zm-2.86 5.06c0 1.92 1.07 2.91 2.86 2.91 1.67 0 2.86-1.04 2.86-2.91s-1.13-2.97-2.83-2.97-2.88.91-2.88 2.97Zm11.26 8.34v-1.87l2.91-.22v-8.84H335v-1.78l2.91-.41h2.36v11.04l2.39.22v1.87H335Z"/><path fill="#FDB52B" d="m67.7 105.43-.41-.27v-.02C55.25 97 51.89 80.68 59.84 68.43c8.05-12.39 24.61-15.91 37-7.86 12.39 8.04 15.91 24.61 7.86 36.99a26.533 26.533 0 0 1-7.78 7.8l14.14 9.18c8.55-7.81 13.92-19.05 13.92-31.55 0-23.59-19.13-42.72-42.72-42.72S39.54 59.39 39.54 82.99s19.13 42.72 42.72 42.72c4.67 0 9.16-.76 13.36-2.14l-27.93-18.14Z"/><path fill="currentColor" d="M254.91 87.35c0 1.21-.98 2.2-2.19 2.2s-2.2-.98-2.2-2.2.98-2.2 2.2-2.2 2.19.98 2.19 2.2Zm24.71 0c0 1.21-.98 2.2-2.2 2.2s-2.2-.98-2.2-2.2.98-2.2 2.2-2.2 2.2.98 2.2 2.2Zm-136.53 27.14V85.18h17.85v4h-13.48v8.51h12.1v4h-12.1v8.79h13.99v4h-18.36Zm35.01 0-5.43-7.68-5.48 7.68h-4.46l7.82-10.44-7.29-10.03h4.78l5.08 7.22 5.02-7.22h4.37l-7.27 9.98 7.68 10.49h-4.83Zm14.54.46c-1.47 0-2.85-.23-4.19-.69v11.27l-3.82.91V95.39c2.3-1.2 5.2-1.84 8.42-1.84 6.49 0 10.49 3.68 10.49 10.31s-4.55 11.09-10.9 11.09Zm-4.19-4.56c.92.55 2.49.92 4.14.92 3.96 0 6.9-2.26 6.9-7.46 0-4.6-2.76-6.67-6.9-6.67-1.47 0-3.13.28-4.14.69v12.52Zm34.78 2.53c-1.66 1.38-4.19 2.03-6.76 2.03-6.3 0-10.58-4.23-10.58-10.58 0-6.86 4.51-10.81 9.89-10.81 4.83 0 8.1 2.94 8.1 7.96 0 .88-.04 2.39-.14 3.31H209.8c.09 3.96 2.99 6.44 7.27 6.44 2.71 0 5.01-1.1 6.17-2.25v3.91Zm-3.31-11.32v-.64c0-2.44-1.38-4.05-4.51-4.05s-4.97 2.25-5.29 4.69h9.8Zm25.37 11.23c-2.3 1.33-5.2 2.12-8.42 2.12-6.49 0-10.49-3.73-10.49-10.31s4.74-11.09 10.63-11.09c1.88 0 3.4.37 4.46.87V82.11l3.82-.9v31.61Zm-3.82-14.72c-.78-.51-2.62-.92-4.14-.92-3.91 0-6.9 2.25-6.9 7.45 0 4.51 2.62 6.67 6.9 6.67 1.61 0 3.18-.32 4.14-.74V98.1Zm9.34 16.38V94.01h3.82v20.48h-3.82Zm20.98-1.57c-1.2 1.43-3.04 2.03-4.79 2.03-3.04 0-5.25-1.61-5.25-4.97V97.37h-3.45v-3.36h3.45v-5.76l3.82-.89v6.66h5.38v3.36h-5.38v12.06c0 1.38.83 1.93 2.44 1.93s2.99-.78 3.78-1.75v3.31Zm3.72 1.57V94.01h3.82v20.48h-3.82Zm17.95.46c-6.07 0-10.54-4.33-10.54-10.63s4.79-10.77 10.68-10.77 10.54 4.32 10.54 10.63-4.79 10.77-10.68 10.77Zm6.62-10.77c0-4.37-2.76-6.99-6.49-6.99s-6.63 2.81-6.63 7.13 2.76 6.99 6.49 6.99 6.62-2.81 6.62-7.13Zm20.93 10.31V99.86c0-1.84-1.01-2.71-3.4-2.71-2.07 0-4.69 1.06-6.07 2.12v15.23h-3.82V94.02h3.36l.41 1.89c2.35-1.7 4.79-2.35 7.22-2.35 3.59 0 6.12 1.66 6.12 6.21v14.72h-3.82Zm8.19-5.02c1.15 1.2 3.36 1.93 5.61 1.93 2.71 0 3.63-.97 3.63-2.58 0-3.5-9.48-2.71-9.48-9.06 0-3.73 3.13-6.21 7.46-6.21 2.21 0 4.05.41 5.29 1.24v4.09c-.87-.97-3.04-1.79-5.2-1.79-2.58 0-3.5.92-3.5 2.49 0 3.08 9.48 2.48 9.48 9.06 0 3.54-2.71 6.3-7.64 6.3-2.53 0-4.74-.6-5.94-1.52l.28-3.96ZM170.11 66.28c4.52-6.96 2.54-16.27-4.42-20.79s-16.27-2.54-20.79 4.42c-4.47 6.89-2.58 16.05 4.19 20.63l.1.08 17.71 11.5 5.34-1.23-12.28-7.98c4.02-.67 7.76-2.94 10.16-6.63ZM148.2 52.05c3.34-5.14 10.21-6.6 15.34-3.26 5.14 3.34 6.6 10.21 3.26 15.34-3.34 5.14-10.21 6.6-15.34 3.26-5.14-3.34-6.6-10.2-3.26-15.34Zm31.26.25v14.63c0 1.84 1.01 2.71 3.4 2.71 1.75 0 4.37-1.06 5.75-2.12V52.29h3.82v20.48h-3.36l-.41-1.93c-2.25 1.66-4.79 2.39-6.9 2.39-3.59 0-6.12-1.66-6.12-6.21V52.3h3.82Zm22.16 20.94c-3.04 0-5.57-1.7-5.57-4.97 0-4.14 3.45-6.49 10.72-7.45v-2.94c0-.92-.23-1.33-.78-1.7-.69-.46-1.75-.69-3.13-.69-2.48 0-4.88 1.01-5.98 2.3v-3.77c1.38-1.43 3.91-2.16 6.49-2.16 4.65 0 7.23 2.16 7.23 6.44 0 .69-.23 9.98-.23 11 .55.37 1.29.55 1.98.55.19 0 .32 0 .46-.05l-.37 3.31c-.32.09-.74.14-1.06.14-1.56 0-2.95-.46-3.96-1.66-1.98 1.29-4 1.66-5.8 1.66Zm5.15-9.44c-4.92.74-6.72 1.79-6.72 3.86 0 1.61.92 2.35 3.22 2.35 1.29 0 2.81-.41 3.5-1.01v-5.2Zm20.72-7.77c-.51-.23-1.2-.37-2.07-.37-1.75 0-3.87.64-5.62 2.16v14.95h-3.82V52.29h3.36l.46 2.12c1.84-1.89 3.68-2.58 5.48-2.58.97 0 1.61.23 2.21.64v3.54Zm15.78 16.75-8.1-9.52h-1.06v9.52h-3.82V40.46l3.82-.9v21.12h1.06l8.28-8.6 4.51.46-9.2 9.11 9.48 11.13h-4.97Zm106.3 16.76c.75 0 1.49.19 2.2.58.72.39 1.27.94 1.67 1.66.4.72.6 1.47.6 2.25s-.2 1.51-.59 2.23c-.39.71-.95 1.27-1.65 1.66-.71.4-1.46.59-2.23.59s-1.52-.2-2.23-.59c-.71-.39-1.26-.95-1.66-1.66-.4-.72-.59-1.45-.59-2.23s.2-1.53.6-2.25c.4-.72.96-1.27 1.68-1.66.72-.38 1.45-.58 2.2-.58Zm0 .74c-.63 0-1.24.16-1.84.48-.6.32-1.06.78-1.4 1.38-.34.6-.5 1.23-.5 1.87s.17 1.26.5 1.85c.33.59.79 1.06 1.38 1.38.6.33 1.21.5 1.86.5s1.26-.17 1.86-.5c.59-.33 1.06-.79 1.38-1.38.33-.59.5-1.21.5-1.85s-.16-1.27-.5-1.87c-.33-.6-.8-1.06-1.4-1.38a3.85 3.85 0 0 0-1.83-.48Z"/><path fill="currentColor" d="M347.76 96.23v-4.44h1.97c.4 0 .7.04.9.12.21.08.37.22.49.42.12.2.18.42.18.67 0 .31-.1.58-.3.79-.2.22-.52.35-.95.41.16.07.28.15.35.22.17.16.34.35.49.59l.77 1.21h-.74l-.59-.93c-.17-.27-.31-.47-.42-.61a1.4 1.4 0 0 0-.3-.3c-.09-.05-.18-.1-.27-.12-.07-.01-.17-.02-.33-.02h-.68v1.97h-.58Zm.58-2.48h1.27c.27 0 .48-.03.63-.09a.64.64 0 0 0 .34-.26c.08-.12.12-.26.12-.4 0-.21-.08-.39-.23-.52-.15-.13-.39-.2-.72-.2h-1.41v1.47Z"/></svg>