<svg xmlns="http://www.w3.org/2000/svg" viewBox="39.54 39.56 314.5 86.88"><path fill="#FDB52B" d="m67.7 105.43-.41-.27v-.02C55.25 97 51.89 80.68 59.84 68.43c8.05-12.39 24.61-15.91 37-7.86 12.39 8.04 15.91 24.61 7.86 36.99a26.533 26.533 0 0 1-7.78 7.8l14.14 9.18c8.55-7.81 13.92-19.05 13.92-31.55 0-23.59-19.13-42.72-42.72-42.72S39.54 59.39 39.54 82.99s19.13 42.72 42.72 42.72c4.67 0 9.16-.76 13.36-2.14l-27.93-18.14Z"></path><path fill="currentColor" d="M254.91 87.35c0 1.21-.98 2.2-2.19 2.2s-2.2-.98-2.2-2.2.98-2.2 2.2-2.2 2.19.98 2.19 2.2Zm24.71 0c0 1.21-.98 2.2-2.2 2.2s-2.2-.98-2.2-2.2.98-2.2 2.2-2.2 2.2.98 2.2 2.2Zm-136.53 27.14V85.18h17.85v4h-13.48v8.51h12.1v4h-12.1v8.79h13.99v4h-18.36Zm35.01 0-5.43-7.68-5.48 7.68h-4.46l7.82-10.44-7.29-10.03h4.78l5.08 7.22 5.02-7.22h4.37l-7.27 9.98 7.68 10.49h-4.83Zm14.54.46c-1.47 0-2.85-.23-4.19-.69v11.27l-3.82.91V95.39c2.3-1.2 5.2-1.84 8.42-1.84 6.49 0 10.49 3.68 10.49 10.31s-4.55 11.09-10.9 11.09Zm-4.19-4.56c.92.55 2.49.92 4.14.92 3.96 0 6.9-2.26 6.9-7.46 0-4.6-2.76-6.67-6.9-6.67-1.47 0-3.13.28-4.14.69v12.52Zm34.78 2.53c-1.66 1.38-4.19 2.03-6.76 2.03-6.3 0-10.58-4.23-10.58-10.58 0-6.86 4.51-10.81 9.89-10.81 4.83 0 8.1 2.94 8.1 7.96 0 .88-.04 2.39-.14 3.31H209.8c.09 3.96 2.99 6.44 7.27 6.44 2.71 0 5.01-1.1 6.17-2.25v3.91Zm-3.31-11.32v-.64c0-2.44-1.38-4.05-4.51-4.05s-4.97 2.25-5.29 4.69h9.8Zm25.37 11.23c-2.3 1.33-5.2 2.12-8.42 2.12-6.49 0-10.49-3.73-10.49-10.31s4.74-11.09 10.63-11.09c1.88 0 3.4.37 4.46.87V82.11l3.82-.9v31.61Zm-3.82-14.72c-.78-.51-2.62-.92-4.14-.92-3.91 0-6.9 2.25-6.9 7.45 0 4.51 2.62 6.67 6.9 6.67 1.61 0 3.18-.32 4.14-.74V98.1Zm9.34 16.38V94.01h3.82v20.48h-3.82Zm20.98-1.57c-1.2 1.43-3.04 2.03-4.79 2.03-3.04 0-5.25-1.61-5.25-4.97V97.37h-3.45v-3.36h3.45v-5.76l3.82-.89v6.66h5.38v3.36h-5.38v12.06c0 1.38.83 1.93 2.44 1.93s2.99-.78 3.78-1.75v3.31Zm3.72 1.57V94.01h3.82v20.48h-3.82Zm17.95.46c-6.07 0-10.54-4.33-10.54-10.63s4.79-10.77 10.68-10.77 10.54 4.32 10.54 10.63-4.79 10.77-10.68 10.77Zm6.62-10.77c0-4.37-2.76-6.99-6.49-6.99s-6.63 2.81-6.63 7.13 2.76 6.99 6.49 6.99 6.62-2.81 6.62-7.13Zm20.93 10.31V99.86c0-1.84-1.01-2.71-3.4-2.71-2.07 0-4.69 1.06-6.07 2.12v15.23h-3.82V94.02h3.36l.41 1.89c2.35-1.7 4.79-2.35 7.22-2.35 3.59 0 6.12 1.66 6.12 6.21v14.72h-3.82Zm8.19-5.02c1.15 1.2 3.36 1.93 5.61 1.93 2.71 0 3.63-.97 3.63-2.58 0-3.5-9.48-2.71-9.48-9.06 0-3.73 3.13-6.21 7.46-6.21 2.21 0 4.05.41 5.29 1.24v4.09c-.87-.97-3.04-1.79-5.2-1.79-2.58 0-3.5.92-3.5 2.49 0 3.08 9.48 2.48 9.48 9.06 0 3.54-2.71 6.3-7.64 6.3-2.53 0-4.74-.6-5.94-1.52l.28-3.96ZM170.11 66.28c4.52-6.96 2.54-16.27-4.42-20.79s-16.27-2.54-20.79 4.42c-4.47 6.89-2.58 16.05 4.19 20.63l.1.08 17.71 11.5 5.34-1.23-12.28-7.98c4.02-.67 7.76-2.94 10.16-6.63ZM148.2 52.05c3.34-5.14 10.21-6.6 15.34-3.26 5.14 3.34 6.6 10.21 3.26 15.34-3.34 5.14-10.21 6.6-15.34 3.26-5.14-3.34-6.6-10.2-3.26-15.34Zm31.26.25v14.63c0 1.84 1.01 2.71 3.4 2.71 1.75 0 4.37-1.06 5.75-2.12V52.29h3.82v20.48h-3.36l-.41-1.93c-2.25 1.66-4.79 2.39-6.9 2.39-3.59 0-6.12-1.66-6.12-6.21V52.3h3.82Zm22.16 20.94c-3.04 0-5.57-1.7-5.57-4.97 0-4.14 3.45-6.49 10.72-7.45v-2.94c0-.92-.23-1.33-.78-1.7-.69-.46-1.75-.69-3.13-.69-2.48 0-4.88 1.01-5.98 2.3v-3.77c1.38-1.43 3.91-2.16 6.49-2.16 4.65 0 7.23 2.16 7.23 6.44 0 .69-.23 9.98-.23 11 .55.37 1.29.55 1.98.55.19 0 .32 0 .46-.05l-.37 3.31c-.32.09-.74.14-1.06.14-1.56 0-2.95-.46-3.96-1.66-1.98 1.29-4 1.66-5.8 1.66Zm5.15-9.44c-4.92.74-6.72 1.79-6.72 3.86 0 1.61.92 2.35 3.22 2.35 1.29 0 2.81-.41 3.5-1.01v-5.2Zm20.72-7.77c-.51-.23-1.2-.37-2.07-.37-1.75 0-3.87.64-5.62 2.16v14.95h-3.82V52.29h3.36l.46 2.12c1.84-1.89 3.68-2.58 5.48-2.58.97 0 1.61.23 2.21.64v3.54Zm15.78 16.75-8.1-9.52h-1.06v9.52h-3.82V40.46l3.82-.9v21.12h1.06l8.28-8.6 4.51.46-9.2 9.11 9.48 11.13h-4.97Zm106.3 16.76c.75 0 1.49.19 2.2.58.72.39 1.27.94 1.67 1.66.4.72.6 1.47.6 2.25s-.2 1.51-.59 2.23c-.39.71-.95 1.27-1.65 1.66-.71.4-1.46.59-2.23.59s-1.52-.2-2.23-.59c-.71-.39-1.26-.95-1.66-1.66-.4-.72-.59-1.45-.59-2.23s.2-1.53.6-2.25c.4-.72.96-1.27 1.68-1.66.72-.38 1.45-.58 2.2-.58Zm0 .74c-.63 0-1.24.16-1.84.48-.6.32-1.06.78-1.4 1.38-.34.6-.5 1.23-.5 1.87s.17 1.26.5 1.85c.33.59.79 1.06 1.38 1.38.6.33 1.21.5 1.86.5s1.26-.17 1.86-.5c.59-.33 1.06-.79 1.38-1.38.33-.59.5-1.21.5-1.85s-.16-1.27-.5-1.87c-.33-.6-.8-1.06-1.4-1.38a3.85 3.85 0 0 0-1.83-.48Z"></path><path fill="currentColor" d="M347.76 96.23v-4.44h1.97c.4 0 .7.04.9.12.21.08.37.22.49.42.12.2.18.42.18.67 0 .31-.1.58-.3.79-.2.22-.52.35-.95.41.16.07.28.15.35.22.17.16.34.35.49.59l.77 1.21h-.74l-.59-.93c-.17-.27-.31-.47-.42-.61a1.4 1.4 0 0 0-.3-.3c-.09-.05-.18-.1-.27-.12-.07-.01-.17-.02-.33-.02h-.68v1.97h-.58Zm.58-2.48h1.27c.27 0 .48-.03.63-.09a.64.64 0 0 0 .34-.26c.08-.12.12-.26.12-.4 0-.21-.08-.39-.23-.52-.15-.13-.39-.2-.72-.2h-1.41v1.47Z"></path></svg>