<svg width="174" height="80" viewBox="0 0 174 80" fill="none" xmlns="http://www.w3.org/2000/svg">
<path d="M15.5426 41.0594L15.54 41.0582L15.3138 40.9077L15.3213 40.8956C8.6681 36.315 6.80912 27.1367 11.2005 20.2446C15.6435 13.2753 24.7896 11.2939 31.6287 15.821C38.4704 20.3462 40.4141 29.6657 35.9711 36.6336C34.8169 38.4455 33.3417 39.9111 31.6758 41.022L39.4852 46.1885C44.2087 41.7934 47.1726 35.4704 47.1726 28.4399C47.1726 15.1678 36.6106 4.40897 23.5861 4.40897C10.5611 4.40897 0 15.1678 0 28.4399C0 41.712 10.5611 52.4714 23.5861 52.4714C26.1638 52.4714 28.6428 52.044 30.9649 51.265L15.5454 41.0616L15.5426 41.0594Z" fill="#FDB52B"/>
<path d="M118.91 30.8909C118.91 31.5736 118.367 32.1264 117.699 32.1264C117.029 32.1264 116.485 31.5736 116.485 30.8909C116.485 30.2085 117.029 29.6552 117.699 29.6552C118.367 29.6552 118.91 30.2085 118.91 30.8909Z" fill="#232933"/>
<path d="M132.552 30.8909C132.552 31.5736 132.009 32.1264 131.338 32.1264C130.669 32.1264 130.126 31.5736 130.126 30.8909C130.126 30.2085 130.669 29.6552 131.338 29.6552C132.009 29.6552 132.552 30.2085 132.552 30.8909Z" fill="#232933"/>
<path d="M57.166 46.1543V29.6656H67.023V31.9175H59.5795V36.7067H66.261V38.9579H59.5795V43.9029H67.3024V46.1543H57.166Z" fill="#232933"/>
<path d="M76.4972 46.1543L73.499 41.8317L70.476 46.1543H68.0117L72.3306 40.2791L68.3049 34.6352H70.9464L73.753 38.6993L76.5226 34.6352H78.936L74.9219 40.2527L79.1646 46.1543H76.4972Z" fill="#232933"/>
<path d="M82.2118 43.8513C82.7192 44.1612 83.5838 44.3689 84.4977 44.3689C86.6825 44.3689 88.3086 43.0997 88.3086 40.1747C88.3086 37.5866 86.7847 36.4215 84.4977 36.4215C83.6849 36.4215 82.7705 36.5769 82.2118 36.8094V43.8513ZM84.5236 46.4137C83.7103 46.4137 82.9489 46.2841 82.2118 46.0247V52.367L80.1025 52.879V35.4117C81.373 34.7392 82.9737 34.3766 84.7516 34.3766C88.334 34.3766 90.5443 36.4479 90.5443 40.1747C90.5443 43.9535 88.0298 46.4137 84.5236 46.4137Z" fill="#232933"/>
<path d="M99.5862 38.9062V38.5442C99.5862 37.1718 98.8248 36.2664 97.096 36.2664C95.3943 36.2664 94.3535 37.5344 94.1757 38.9062H99.5862ZM101.416 45.2741C100.501 46.051 99.1042 46.4136 97.6818 46.4136C94.2005 46.4136 91.8379 44.0325 91.8379 40.4603C91.8379 36.6027 94.3275 34.3765 97.2998 34.3765C99.9666 34.3765 101.771 36.0328 101.771 38.8541C101.771 39.3463 101.746 40.201 101.695 40.7185H93.9979C94.0487 42.9447 95.6488 44.3423 98.0115 44.3423C99.5106 44.3423 100.78 43.7215 101.416 43.0743V45.2741Z" fill="#232933"/>
<path d="M111.489 36.9389C111.056 36.6543 110.04 36.4213 109.202 36.4213C107.043 36.4213 105.391 37.6898 105.391 40.6152C105.391 43.1512 106.839 44.3687 109.202 44.3687C110.091 44.3687 110.955 44.1874 111.489 43.9534V36.9389ZM113.597 45.2225C112.327 45.973 110.727 46.4136 108.948 46.4136C105.367 46.4136 103.156 44.316 103.156 40.6152C103.156 36.8356 105.773 34.3765 109.025 34.3765C110.065 34.3765 110.905 34.583 111.489 34.8683V27.943L113.597 27.4376V45.2225Z" fill="#232933"/>
<path d="M116.644 46.1543V34.6352H118.752V46.1543H116.644Z" fill="#232933"/>
<path d="M128.228 45.2742C127.567 46.0774 126.55 46.4136 125.586 46.4136C123.908 46.4136 122.689 45.5071 122.689 43.6172V36.5251H120.783V34.6351H122.689V31.3937L124.797 30.8907V34.6351H127.77V36.5251H124.797V43.3073C124.797 44.0841 125.255 44.394 126.143 44.394C127.033 44.394 127.794 43.9534 128.228 43.4106V45.2742Z" fill="#232933"/>
<path d="M130.284 46.1543V34.6352H132.392V46.1543H130.284Z" fill="#232933"/>
<path d="M143.849 40.3559C143.849 37.8964 142.325 36.4213 140.268 36.4213C138.184 36.4213 136.609 38.0003 136.609 40.4339C136.609 42.893 138.134 44.3687 140.191 44.3687C142.275 44.3687 143.849 42.7887 143.849 40.3559ZM140.191 46.4136C136.837 46.4136 134.373 43.9798 134.373 40.4339C134.373 36.9389 137.016 34.3765 140.268 34.3765C143.62 34.3765 146.086 36.8092 146.086 40.3559C146.086 43.8512 143.443 46.4136 140.191 46.4136Z" fill="#232933"/>
<path d="M155.406 46.1543V37.9231C155.406 36.888 154.848 36.3957 153.526 36.3957C152.383 36.3957 150.935 36.9906 150.173 37.5866V46.1543H148.064V34.6352H149.919L150.148 35.6969C151.443 34.7392 152.79 34.3766 154.137 34.3766C156.117 34.3766 157.516 35.3083 157.516 37.8714V46.1543H155.406Z" fill="#232933"/>
<path d="M159.926 43.3326C160.562 44.0061 161.781 44.4204 163.025 44.4204C164.525 44.4204 165.033 43.8765 165.033 42.97C165.033 41.0031 159.799 41.4426 159.799 37.8713C159.799 35.7741 161.527 34.3765 163.916 34.3765C165.135 34.3765 166.151 34.6094 166.838 35.0753V37.3791C166.355 36.8356 165.16 36.3692 163.967 36.3692C162.543 36.3692 162.035 36.8879 162.035 37.7674C162.035 39.5017 167.269 39.1651 167.269 42.8667C167.269 44.8599 165.77 46.4136 163.051 46.4136C161.654 46.4136 160.434 46.0773 159.774 45.5587L159.926 43.3326Z" fill="#232933"/>
<path d="M59.99 11.0305C61.8325 8.13884 65.6258 7.31803 68.4627 9.19424C71.2997 11.0721 72.1058 14.9365 70.2633 17.8265C68.4208 20.7181 64.628 21.5392 61.7911 19.6611C58.9541 17.7849 58.148 13.9205 59.99 11.0305ZM72.0876 19.0344C74.5833 15.1171 73.4917 9.88003 69.6471 7.33715C65.8025 4.79315 60.6625 5.90537 58.1657 9.82264C55.697 13.696 56.7428 18.8538 60.4819 21.4284L60.5344 21.473L70.3124 27.9432L73.2604 27.2505L66.4772 22.7628C68.6979 22.3881 70.7646 21.1089 72.0876 19.0344Z" fill="#232933"/>
<path d="M77.2454 11.1699V19.4011C77.2454 20.437 77.8047 20.9284 79.1255 20.9284C80.0912 20.9284 81.5394 20.3331 82.3014 19.7381V11.1699H84.4101V22.6887H82.5554L82.3268 21.6017C81.0823 22.5337 79.6842 22.9477 78.5164 22.9477C76.5342 22.9477 75.1367 22.0153 75.1367 19.4528V11.1699H77.2454Z" fill="#232933"/>
<path d="M92.3282 17.6413C89.6111 18.0548 88.62 18.6506 88.62 19.8155C88.62 20.7216 89.128 21.136 90.3985 21.136C91.1102 21.136 91.9478 20.9029 92.3282 20.5662V17.6413ZM89.4836 22.9477C87.8061 22.9477 86.4092 21.9898 86.4092 20.1517C86.4092 17.8225 88.3141 16.5021 92.3282 15.9581V14.3013C92.3282 13.7843 92.2012 13.5519 91.897 13.3437C91.5166 13.085 90.9318 12.9556 90.1693 12.9556C88.7972 12.9556 87.477 13.5255 86.8669 14.2506V12.1274C87.6294 11.3258 89.0258 10.9111 90.4487 10.9111C93.0151 10.9111 94.438 12.1274 94.438 14.5347C94.438 14.9235 94.3105 20.1517 94.3105 20.7216C94.6158 20.9284 95.0222 21.0323 95.4032 21.0323C95.5053 21.0323 95.5798 21.0323 95.6577 21.0064L95.4534 22.8699C95.2756 22.9218 95.047 22.9477 94.8703 22.9477C94.0062 22.9477 93.2437 22.6887 92.6844 22.0153C91.5917 22.7405 90.4736 22.9477 89.4836 22.9477Z" fill="#232933"/>
<path d="M103.767 13.2668C103.488 13.1374 103.107 13.0598 102.624 13.0598C101.658 13.0598 100.49 13.4227 99.5237 14.2761V22.6888H97.415V11.1701H99.2703L99.5237 12.3605C100.54 11.2995 101.556 10.9113 102.547 10.9113C103.081 10.9113 103.437 11.0407 103.767 11.2736V13.2668Z" fill="#232933"/>
<path d="M112.479 22.6888L108.008 17.3309H107.424V22.6888H105.314V4.50854L107.424 3.99996V15.8806H108.008L112.581 11.0407L115.07 11.2995L109.99 16.4246L115.223 22.6888H112.479Z" fill="#232933"/>
<path d="M171.176 32.5371C170.828 32.5371 170.491 32.6297 170.162 32.8094C169.833 32.9912 169.576 33.25 169.391 33.5885C169.205 33.9254 169.112 34.2779 169.112 34.6416C169.112 35.0046 169.203 35.3518 169.386 35.6841C169.566 36.0173 169.824 36.279 170.15 36.4631C170.479 36.6477 170.821 36.7422 171.176 36.7422C171.532 36.7422 171.875 36.6477 172.202 36.4631C172.53 36.279 172.785 36.0173 172.964 35.6841C173.146 35.3518 173.238 35.0046 173.238 34.6416C173.238 34.2779 173.146 33.9254 172.96 33.5885C172.776 33.25 172.519 32.9912 172.19 32.8094C171.859 32.6297 171.521 32.5371 171.176 32.5371ZM171.176 32.1198C171.592 32.1198 171.997 32.2286 172.393 32.4446C172.788 32.6635 173.096 32.9721 173.315 33.3771C173.537 33.781 173.648 34.2038 173.648 34.6416C173.648 35.0756 173.538 35.4911 173.322 35.8942C173.104 36.2935 172.799 36.6066 172.408 36.8266C172.014 37.0497 171.604 37.1595 171.176 37.1595C170.749 37.1595 170.338 37.0497 169.946 36.8266C169.552 36.6066 169.248 36.2935 169.029 35.8942C168.811 35.4911 168.702 35.0756 168.702 34.6416C168.702 34.2038 168.813 33.781 169.034 33.3771C169.255 32.9721 169.565 32.6635 169.96 32.4446C170.356 32.2286 170.762 32.1198 171.176 32.1198Z" fill="#232933"/>
<path d="M170.496 34.4876H171.194C171.343 34.4876 171.459 34.4709 171.543 34.4381C171.626 34.4085 171.689 34.3573 171.733 34.2903C171.778 34.2213 171.797 34.1452 171.797 34.0661C171.797 33.9453 171.756 33.8485 171.671 33.7738C171.589 33.698 171.455 33.6596 171.274 33.6596H170.496V34.4876ZM170.173 35.8833V33.3833H171.258C171.479 33.3833 171.647 33.4062 171.758 33.4521C171.872 33.4956 171.963 33.5769 172.031 33.6897C172.1 33.8015 172.132 33.9279 172.132 34.0661C172.132 34.2435 172.077 34.3922 171.965 34.5131C171.852 34.6353 171.678 34.7118 171.442 34.7451C171.527 34.7867 171.594 34.8287 171.636 34.87C171.732 34.959 171.823 35.0688 171.906 35.2018L172.334 35.8833H171.925L171.6 35.3627C171.507 35.2108 171.426 35.0974 171.367 35.0192C171.306 34.9383 171.251 34.8821 171.202 34.8502C171.153 34.8203 171.105 34.7946 171.052 34.7843C171.017 34.7768 170.957 34.7733 170.873 34.7733H170.496V35.8833H170.173Z" fill="#232933"/>
<path d="M8.98123 68.3421V75.8633H7.70631V68.3421H4.90137V67.1523H11.7864V68.3421H8.98123Z" fill="#232933"/>
<path d="M16.9104 75.8633V71.5145C16.9104 70.9678 16.6151 70.7078 15.9171 70.7078C15.1924 70.7078 14.4276 71.0223 14.0247 71.3367V75.8633H12.9111V66.2634L14.0247 65.99V70.3381C14.7363 69.8325 15.4072 69.6411 16.2393 69.6411C17.286 69.6411 18.0243 70.1333 18.0243 71.487V75.8633H16.9104Z" fill="#232933"/>
<path d="M23.2966 72.0344V71.8425C23.2966 71.1178 22.8941 70.6396 21.9813 70.6396C21.0819 70.6396 20.5317 71.3092 20.4379 72.0344H23.2966ZM24.2629 75.3984C23.7797 75.8081 23.0415 75.9999 22.2898 75.9999C20.451 75.9999 19.2031 74.742 19.2031 72.8545C19.2031 70.8169 20.5183 69.641 22.0888 69.641C23.498 69.641 24.4507 70.5165 24.4507 72.0067C24.4507 72.2667 24.4373 72.7178 24.4106 72.9912H20.3439C20.3708 74.1676 21.2163 74.9062 22.4645 74.9062C23.2565 74.9062 23.9274 74.5776 24.2629 74.2357V75.3984Z" fill="#232933"/>
<path d="M28.918 75.8633V67.1523H30.1931V74.674H34.1794V75.8633H28.918Z" fill="#232933"/>
<path d="M38.7672 72.0344V71.8425C38.7672 71.1178 38.3648 70.6396 37.4522 70.6396C36.5529 70.6396 36.0024 71.3092 35.9086 72.0344H38.7672ZM39.7335 75.3984C39.2504 75.8081 38.5121 75.9999 37.7607 75.9999C35.9217 75.9999 34.6738 74.742 34.6738 72.8545C34.6738 70.8169 35.989 69.641 37.5594 69.641C38.9687 69.641 39.9214 70.5165 39.9214 72.0067C39.9214 72.2667 39.908 72.7178 39.8813 72.9912H35.8146C35.8415 74.1676 36.687 74.9062 37.9354 74.9062C38.7272 74.9062 39.3981 74.5776 39.7335 74.2357V75.3984Z" fill="#232933"/>
<path d="M44.2014 73.1965C42.7652 73.4153 42.2419 73.7298 42.2419 74.3454C42.2419 74.8236 42.51 75.0429 43.1812 75.0429C43.557 75.0429 44 74.9198 44.2014 74.742V73.1965ZM42.6981 75.9999C41.8125 75.9999 41.0742 75.4943 41.0742 74.5231C41.0742 73.2923 42.0806 72.5945 44.2014 72.3071V71.4322C44.2014 71.1588 44.1341 71.0362 43.973 70.9259C43.7717 70.7899 43.4631 70.7211 43.0604 70.7211C42.3357 70.7211 41.6378 71.0222 41.3158 71.4052V70.284C41.7182 69.8598 42.4565 69.641 43.2082 69.641C44.5638 69.641 45.315 70.284 45.315 71.5555C45.315 71.7608 45.2481 74.5231 45.2481 74.8236C45.4092 74.9328 45.6238 74.9879 45.8251 74.9879C45.8788 74.9879 45.9193 74.9879 45.9594 74.9743L45.8523 75.9588C45.758 75.9865 45.6372 75.9999 45.5434 75.9999C45.087 75.9999 44.6845 75.8632 44.3893 75.5077C43.8121 75.8907 43.2215 75.9999 42.6981 75.9999Z" fill="#232933"/>
<path d="M50.9099 70.9947C50.6817 70.8444 50.1451 70.7211 49.7021 70.7211C48.5611 70.7211 47.6889 71.3918 47.6889 72.9367C47.6889 74.2768 48.4537 74.9198 49.7021 74.9198C50.1716 74.9198 50.6282 74.8236 50.9099 74.7003V70.9947ZM52.0239 75.371C51.3529 75.7676 50.5072 75.9999 49.5677 75.9999C47.6753 75.9999 46.5078 74.8921 46.5078 72.9367C46.5078 70.94 47.8901 69.641 49.6078 69.641C50.1582 69.641 50.6011 69.7506 50.9099 69.901V66.2633L52.0239 65.9899V75.371Z" fill="#232933"/>
<path d="M57.2691 72.0344V71.8425C57.2691 71.1178 56.8666 70.6396 55.9539 70.6396C55.0546 70.6396 54.5044 71.3092 54.4106 72.0344H57.2691ZM58.2354 75.3984C57.7522 75.8081 57.014 75.9999 56.2625 75.9999C54.4238 75.9999 53.1758 74.742 53.1758 72.8545C53.1758 70.8169 54.4911 69.641 56.0615 69.641C57.4706 69.641 58.4236 70.5165 58.4236 72.0067C58.4236 72.2667 58.4098 72.7178 58.3833 72.9912H54.3166C54.3435 74.1676 55.189 74.9062 56.437 74.9062C57.2288 74.9062 57.9002 74.5776 58.2354 74.2357V75.3984Z" fill="#232933"/>
<path d="M63.1591 70.8856C63.0112 70.817 62.8102 70.7763 62.5551 70.7763C62.0449 70.7763 61.4276 70.9678 60.9174 71.4189V75.8633H59.8037V69.7777H60.7832L60.9174 70.4074C61.4546 69.8459 61.9913 69.6411 62.5148 69.6411C62.7964 69.6411 62.9846 69.7092 63.1591 69.8325V70.8856Z" fill="#232933"/>
<path d="M67.1967 75.8633V69.7777H68.3109V75.8633H67.1967ZM67.7471 68.3831C67.264 68.3831 66.9824 68.0412 66.9824 67.5901C66.9824 67.1253 67.264 66.7831 67.7604 66.7831C68.2435 66.7831 68.5257 67.1253 68.5257 67.5901C68.5257 68.0412 68.2435 68.3831 67.7471 68.3831Z" fill="#232933"/>
<path d="M73.7992 75.8633V71.5145C73.7992 70.9678 73.5044 70.7078 72.8059 70.7078C72.2024 70.7078 71.4371 71.0223 71.0346 71.3367V75.8633H69.9209V69.7777H70.9004L71.0213 70.3381C71.7055 69.8325 72.4172 69.6411 73.1283 69.6411C74.1752 69.6411 74.9134 70.1333 74.9134 71.487V75.8633H73.7992Z" fill="#232933"/>
<path d="M80.815 71.487H81.9021C83.0026 71.487 83.6872 70.913 83.6872 69.8325C83.6872 68.7932 83.0699 68.2599 81.768 68.2599H80.815V71.487ZM81.9021 72.5946H80.815V75.8633H79.54V67.1523H81.9424C84.0362 67.1523 85.0295 68.219 85.0295 69.8189C85.0295 71.3644 83.875 72.5946 81.9021 72.5946Z" fill="#232933"/>
<path d="M90.4497 72.7994C90.4497 71.501 89.6441 70.7211 88.5575 70.7211C87.4571 70.7211 86.625 71.5555 86.625 72.8411C86.625 74.1401 87.43 74.9198 88.5166 74.9198C89.6176 74.9198 90.4497 74.0854 90.4497 72.7994ZM88.5166 75.9999C86.7453 75.9999 85.4434 74.7143 85.4434 72.8411C85.4434 70.9947 86.8392 69.641 88.5575 69.641C90.3293 69.641 91.6308 70.9259 91.6308 72.7994C91.6308 74.6464 90.2349 75.9999 88.5166 75.9999Z" fill="#232933"/>
<path d="M92.876 75.8633V66.2634L93.9902 65.99V75.8633H92.876Z" fill="#232933"/>
<path d="M98.4321 73.1965C96.9959 73.4153 96.4725 73.7298 96.4725 74.3454C96.4725 74.8236 96.7414 75.0429 97.4117 75.0429C97.7877 75.0429 98.2305 74.9198 98.4321 74.742V73.1965ZM96.9286 75.9999C96.0429 75.9999 95.3047 75.4943 95.3047 74.5231C95.3047 73.2923 96.3113 72.5945 98.4321 72.3071V71.4322C98.4321 71.1588 98.3647 71.0362 98.204 70.9259C98.0025 70.7899 97.6938 70.7211 97.2913 70.7211C96.5663 70.7211 95.8684 71.0222 95.546 71.4052V70.284C95.949 69.8598 96.6873 69.641 97.4387 69.641C98.7943 69.641 99.5463 70.284 99.5463 71.5555C99.5463 71.7608 99.4789 74.5231 99.4789 74.8236C99.6402 74.9328 99.8544 74.9879 100.056 74.9879C100.109 74.9879 100.15 74.9879 100.19 74.9743L100.082 75.9588C99.9886 75.9865 99.8682 75.9999 99.7743 75.9999C99.3177 75.9999 98.9152 75.8632 98.6198 75.5077C98.0428 75.8907 97.4525 75.9999 96.9286 75.9999Z" fill="#232933"/>
<path d="M104.591 70.8856C104.443 70.817 104.242 70.7763 103.987 70.7763C103.477 70.7763 102.86 70.9678 102.35 71.4189V75.8633H101.235V69.7777H102.215L102.35 70.4074C102.886 69.8459 103.423 69.6411 103.946 69.6411C104.229 69.6411 104.416 69.7092 104.591 69.8325V70.8856Z" fill="#232933"/>
<path d="M110.318 72.1575H112.895L111.835 69.2855L111.634 68.5065L111.419 69.2855L110.318 72.1575ZM113.311 73.3058H109.876L108.896 75.8633H107.607L111.003 67.1523H112.345L115.62 75.8633H114.251L113.311 73.3058Z" fill="#232933"/>
<path d="M120.45 70.9947C120.221 70.8444 119.684 70.7211 119.242 70.7211C118.101 70.7211 117.228 71.3918 117.228 72.9367C117.228 74.2768 117.994 74.9198 119.242 74.9198C119.712 74.9198 120.168 74.8236 120.45 74.7003V70.9947ZM121.563 75.371C120.893 75.7676 120.047 75.9999 119.107 75.9999C117.215 75.9999 116.047 74.8921 116.047 72.9367C116.047 70.94 117.429 69.641 119.148 69.641C119.698 69.641 120.141 69.7506 120.45 69.901V66.2633L121.563 65.9899V75.371Z" fill="#232933"/>
<path d="M125.816 75.8633H124.823L122.541 69.8459L123.723 69.7092L125.199 73.7846L125.386 74.414L125.602 73.7846L127.225 69.7777H128.42L125.816 75.8633Z" fill="#232933"/>
<path d="M132.753 72.0344V71.8425C132.753 71.1178 132.35 70.6396 131.438 70.6396C130.538 70.6396 129.988 71.3092 129.894 72.0344H132.753ZM133.719 75.3984C133.236 75.8081 132.498 75.9999 131.746 75.9999C129.908 75.9999 128.659 74.742 128.659 72.8545C128.659 70.8169 129.975 69.641 131.545 69.641C132.954 69.641 133.907 70.5165 133.907 72.0067C133.907 72.2667 133.894 72.7178 133.867 72.9912H129.8C129.827 74.1676 130.673 74.9062 131.921 74.9062C132.713 74.9062 133.384 74.5776 133.719 74.2357V75.3984Z" fill="#232933"/>
<path d="M139.166 75.8633V71.5145C139.166 70.9678 138.871 70.7078 138.173 70.7078C137.569 70.7078 136.804 71.0223 136.401 71.3367V75.8633H135.287V69.7777H136.267L136.388 70.3381C137.072 69.8325 137.784 69.6411 138.495 69.6411C139.542 69.6411 140.28 70.1333 140.28 71.487V75.8633H139.166Z" fill="#232933"/>
<path d="M145.149 75.3984C144.801 75.8221 144.264 75.9999 143.754 75.9999C142.868 75.9999 142.224 75.5211 142.224 74.5231V70.7762H141.217V69.7776H142.224V68.4376L143.338 68.1642V69.7776H144.908V70.7762H143.338V74.3588C143.338 74.7691 143.579 74.9328 144.049 74.9328C144.519 74.9328 144.921 74.7003 145.149 74.4139V75.3984Z" fill="#232933"/>
<path d="M147.351 69.7776V74.1265C147.351 74.6739 147.645 74.9328 148.344 74.9328C148.853 74.9328 149.618 74.6187 150.021 74.3038V69.7776H151.135V75.8632H150.155L150.035 75.2888C149.377 75.781 148.639 75.9999 148.021 75.9999C146.975 75.9999 146.236 75.5077 146.236 74.1542V69.7776H147.351Z" fill="#232933"/>
<path d="M156.072 70.8856C155.924 70.817 155.723 70.7763 155.468 70.7763C154.958 70.7763 154.34 70.9678 153.83 71.4189V75.8633H152.716V69.7777H153.696L153.83 70.4074C154.367 69.8459 154.903 69.6411 155.427 69.6411C155.709 69.6411 155.897 69.7092 156.072 69.8325V70.8856Z" fill="#232933"/>
<path d="M160.553 72.0344V71.8425C160.553 71.1178 160.15 70.6396 159.237 70.6396C158.338 70.6396 157.788 71.3092 157.694 72.0344H160.553ZM161.519 75.3984C161.036 75.8081 160.298 75.9999 159.546 75.9999C157.707 75.9999 156.459 74.742 156.459 72.8545C156.459 70.8169 157.775 69.641 159.345 69.641C160.754 69.641 161.707 70.5165 161.707 72.0067C161.707 72.2667 161.693 72.7178 161.666 72.9912H157.6C157.627 74.1676 158.472 74.9062 159.721 74.9062C160.512 74.9062 161.183 74.5776 161.519 74.2357V75.3984Z" fill="#232933"/>
<path d="M162.752 74.3724C163.088 74.728 163.732 74.9468 164.39 74.9468C165.181 74.9468 165.45 74.6598 165.45 74.181C165.45 73.142 162.685 73.3742 162.685 71.4869C162.685 70.3798 163.597 69.641 164.86 69.641C165.504 69.641 166.04 69.7642 166.403 70.0102V71.2274C166.148 70.94 165.517 70.6936 164.886 70.6936C164.135 70.6936 163.866 70.9677 163.866 71.4322C163.866 72.3488 166.631 72.1711 166.631 74.1265C166.631 75.1791 165.839 75.9999 164.403 75.9999C163.665 75.9999 163.021 75.8221 162.672 75.5488L162.752 74.3724Z" fill="#232933"/>
</svg>
