<svg xmlns="http://www.w3.org/2000/svg" width="174" height="56" fill="none" viewBox="0 0 174 56"><g clip-path="url(#a)"><path fill="#FDB52B" d="m15.543 41.06-.003-.002-.226-.15.007-.012c-6.653-4.581-8.512-13.76-4.12-20.651 4.442-6.97 13.589-8.951 20.428-4.424 6.841 4.525 8.785 13.845 4.342 20.813a14.84 14.84 0 0 1-4.295 4.388l7.81 5.166c4.723-4.395 7.687-10.718 7.687-17.748 0-13.272-10.562-24.031-23.587-24.031S0 15.168 0 28.439c0 13.273 10.561 24.032 23.586 24.032 2.578 0 5.057-.427 7.379-1.206l-15.42-10.203-.002-.003Z"/><path fill="currentColor" d="M118.909 30.89c0 .684-.542 1.236-1.211 1.236a1.225 1.225 0 0 1-1.213-1.235c0-.682.544-1.236 1.213-1.236s1.211.553 1.211 1.236Zm13.642 0c0 .684-.542 1.236-1.213 1.236-.67 0-1.212-.552-1.212-1.235 0-.682.542-1.236 1.212-1.236.671 0 1.213.553 1.213 1.236ZM57.166 46.154V29.666h9.857v2.252H59.58v4.789h6.681v2.25H59.58v4.946h7.723v2.251H57.166Zm19.332 0-2.999-4.322-3.022 4.322h-2.465l4.32-5.875-4.027-5.644h2.642l2.806 4.064 2.77-4.064h2.413l-4.014 5.618 4.243 5.901h-2.667Zm5.714-2.303c.507.31 1.372.518 2.286.518 2.184 0 3.81-1.27 3.81-4.194 0-2.588-1.523-3.753-3.81-3.753-.813 0-1.728.155-2.286.387v7.042Zm2.312 2.563c-.814 0-1.575-.13-2.312-.39v6.343l-2.11.512V35.412c1.271-.673 2.872-1.035 4.65-1.035 3.582 0 5.792 2.07 5.792 5.798 0 3.779-2.514 6.239-6.02 6.239Zm15.062-7.508v-.362c0-1.372-.761-2.278-2.49-2.278-1.702 0-2.743 1.268-2.92 2.64h5.41Zm1.83 6.368c-.915.777-2.312 1.14-3.734 1.14-3.481 0-5.844-2.382-5.844-5.954 0-3.857 2.49-6.084 5.462-6.084 2.667 0 4.471 1.657 4.471 4.478 0 .492-.025 1.347-.076 1.864h-7.697c.05 2.227 1.65 3.624 4.013 3.624 1.5 0 2.769-.62 3.405-1.268v2.2Zm10.073-8.335c-.433-.285-1.449-.518-2.288-.518-2.158 0-3.81 1.269-3.81 4.194 0 2.536 1.448 3.754 3.81 3.754.89 0 1.754-.182 2.288-.416V36.94Zm2.108 8.283c-1.27.751-2.87 1.192-4.649 1.192-3.581 0-5.792-2.098-5.792-5.799 0-3.78 2.617-6.239 5.869-6.239 1.04 0 1.879.207 2.464.492v-6.925l2.108-.505v17.784Zm3.047.932V34.635h2.108v11.52h-2.108Zm11.584-.88c-.661.803-1.678 1.14-2.642 1.14-1.678 0-2.897-.907-2.897-2.797v-7.092h-1.906v-1.89h1.906v-3.241l2.109-.503v3.744h2.972v1.89h-2.972v6.782c0 .777.457 1.087 1.345 1.087.89 0 1.652-.44 2.085-.983v1.863Zm2.056.88V34.635h2.108v11.52h-2.108Zm13.565-5.798c0-2.46-1.524-3.935-3.581-3.935-2.084 0-3.659 1.58-3.659 4.013 0 2.459 1.525 3.935 3.582 3.935 2.084 0 3.658-1.58 3.658-4.013Zm-3.658 6.058c-3.354 0-5.818-2.434-5.818-5.98 0-3.495 2.643-6.057 5.895-6.057 3.352 0 5.818 2.432 5.818 5.979 0 3.495-2.643 6.058-5.895 6.058Zm15.216-.26v-8.23c0-1.036-.559-1.528-1.88-1.528-1.143 0-2.591.595-3.354 1.19v8.568h-2.108V34.635h1.855l.228 1.062c1.296-.958 2.642-1.32 3.989-1.32 1.981 0 3.379.931 3.379 3.494v8.283h-2.109Zm4.519-2.821c.636.673 1.854 1.087 3.099 1.087 1.499 0 2.007-.544 2.007-1.45 0-1.967-5.233-1.527-5.233-5.099 0-2.097 1.728-3.495 4.116-3.495 1.22 0 2.235.233 2.923.7v2.303c-.484-.543-1.678-1.01-2.872-1.01-1.423 0-1.931.519-1.931 1.398 0 1.735 5.234 1.398 5.234 5.1 0 1.993-1.499 3.547-4.218 3.547-1.398 0-2.617-.337-3.277-.855l.152-2.226ZM59.99 11.03c1.842-2.891 5.635-3.712 8.472-1.836 2.837 1.878 3.643 5.742 1.8 8.632-1.842 2.892-5.635 3.713-8.471 1.835-2.837-1.876-3.643-5.74-1.801-8.63Zm12.097 8.004c2.496-3.917 1.404-9.154-2.44-11.697-3.845-2.544-8.985-1.432-11.482 2.486-2.468 3.873-1.423 9.03 2.316 11.605l.053.045 9.778 6.47 2.948-.693-6.783-4.487a8.264 8.264 0 0 0 5.61-3.729Zm5.159-7.864v8.23c0 1.036.56 1.527 1.88 1.527.966 0 2.414-.595 3.176-1.19V11.17h2.109v11.519h-1.855l-.229-1.087c-1.244.932-2.642 1.346-3.81 1.346-1.982 0-3.38-.933-3.38-3.495V11.17h2.109Zm15.083 6.471c-2.718.414-3.709 1.01-3.709 2.175 0 .906.508 1.32 1.779 1.32.711 0 1.549-.233 1.93-.57v-2.925Zm-2.845 5.307c-1.678 0-3.075-.958-3.075-2.796 0-2.33 1.905-3.65 5.92-4.194v-1.657c0-.517-.127-.75-.432-.957-.38-.259-.965-.388-1.727-.388-1.373 0-2.693.57-3.303 1.295v-2.123c.763-.802 2.16-1.217 3.582-1.217 2.566 0 3.99 1.216 3.99 3.624 0 .389-.128 5.617-.128 6.187.305.206.711.31 1.092.31.102 0 .177 0 .255-.026l-.204 1.864a2.257 2.257 0 0 1-.583.078c-.864 0-1.627-.26-2.186-.933-1.093.726-2.211.933-3.201.933Zm14.283-9.681c-.279-.13-.66-.207-1.143-.207-.966 0-2.134.363-3.1 1.216v8.413h-2.109V11.17h1.855l.254 1.19c1.016-1.06 2.032-1.449 3.024-1.449.533 0 .889.13 1.219.363v1.993Zm8.713 9.422-4.471-5.358h-.585v5.358h-2.109V4.509L107.424 4v11.88h.585l4.572-4.84 2.489.26-5.08 5.125 5.233 6.264h-2.743Zm58.697 9.848c-.348 0-.686.093-1.014.272a1.92 1.92 0 0 0-.772.78 2.161 2.161 0 0 0-.279 1.053c0 .363.092.71.274 1.042.18.333.439.595.764.78.329.184.671.278 1.027.278.356 0 .698-.094 1.026-.279.327-.184.583-.446.762-.779a2.14 2.14 0 0 0-.004-2.095 1.911 1.911 0 0 0-.771-.78 2.105 2.105 0 0 0-1.013-.272Zm0-.417c.415 0 .821.109 1.216.325.396.218.704.527.923.932.221.404.332.827.332 1.265 0 .434-.109.85-.326 1.252-.218.4-.522.713-.913.933a2.465 2.465 0 0 1-1.232.333c-.428 0-.838-.11-1.231-.333a2.327 2.327 0 0 1-.916-.933 2.583 2.583 0 0 1-.327-1.252c0-.438.111-.861.331-1.265.222-.405.531-.714.927-.932a2.508 2.508 0 0 1 1.216-.325Z"/><path fill="currentColor" d="M170.496 34.488h.698a.988.988 0 0 0 .349-.05.371.371 0 0 0 .19-.148.402.402 0 0 0 .064-.224.369.369 0 0 0-.126-.292c-.082-.076-.216-.114-.397-.114h-.778v.828Zm-.323 1.395v-2.5h1.085c.221 0 .389.023.5.07a.545.545 0 0 1 .273.237.703.703 0 0 1 .101.376.632.632 0 0 1-.167.447c-.113.122-.287.199-.523.232a.764.764 0 0 1 .194.125c.096.089.187.199.27.332l.428.681h-.409l-.325-.52a4.251 4.251 0 0 0-.233-.344.716.716 0 0 0-.165-.169.461.461 0 0 0-.15-.066.982.982 0 0 0-.179-.01h-.377v1.11h-.323Z"/></g><defs><clipPath id="a"><path fill="#fff" d="M0 0h174v56H0z"/></clipPath></defs></svg>
