<svg width="174" height="72" viewBox="0 0 174 72" fill="none" xmlns="http://www.w3.org/2000/svg"><path d="m15.543 37.06-.003-.002-.226-.15.007-.012c-6.653-4.58-8.512-13.759-4.12-20.651 4.442-6.97 13.589-8.95 20.428-4.424 6.841 4.525 8.785 13.845 4.342 20.813a14.84 14.84 0 0 1-4.295 4.388l7.81 5.167c4.723-4.395 7.687-10.718 7.687-17.749C47.173 11.168 36.61.41 23.586.41S0 11.167 0 24.44c0 13.272 10.561 24.032 23.586 24.032a23.15 23.15 0 0 0 7.379-1.207l-15.42-10.203-.002-.002Z" fill="#FDB52B"/><path d="M118.91 26.891c0 .683-.543 1.236-1.211 1.236-.67 0-1.214-.553-1.214-1.236 0-.682.544-1.236 1.214-1.236.668 0 1.211.554 1.211 1.236ZM132.552 26.891c0 .683-.543 1.236-1.214 1.236a1.224 1.224 0 0 1-1.212-1.236c0-.682.543-1.236 1.212-1.236.671 0 1.214.554 1.214 1.236ZM57.166 42.154V25.665h9.857v2.252H59.58v4.79h6.681v2.25H59.58v4.946h7.722v2.251H57.166ZM76.497 42.154 73.5 37.832l-3.023 4.322h-2.464l4.319-5.875-4.026-5.644h2.641l2.807 4.064 2.77-4.064h2.413l-4.014 5.618 4.243 5.901h-2.668ZM82.212 39.851c.507.31 1.372.518 2.286.518 2.184 0 3.81-1.27 3.81-4.194 0-2.588-1.523-3.754-3.81-3.754-.813 0-1.728.156-2.286.388v7.042Zm2.312 2.563c-.814 0-1.575-.13-2.312-.39v6.343l-2.11.512V31.412c1.271-.673 2.872-1.035 4.65-1.035 3.582 0 5.792 2.07 5.792 5.798 0 3.778-2.514 6.239-6.02 6.239ZM99.586 34.906v-.362c0-1.372-.761-2.278-2.49-2.278-1.702 0-2.743 1.268-2.92 2.64h5.41Zm1.83 6.368c-.915.777-2.312 1.14-3.734 1.14-3.481 0-5.844-2.382-5.844-5.954 0-3.857 2.49-6.084 5.462-6.084 2.667 0 4.471 1.657 4.471 4.478 0 .492-.025 1.347-.076 1.864h-7.697c.05 2.227 1.65 3.624 4.013 3.624 1.5 0 2.769-.62 3.405-1.268v2.2ZM111.489 32.939c-.433-.285-1.449-.518-2.287-.518-2.159 0-3.811 1.269-3.811 4.194 0 2.536 1.448 3.754 3.811 3.754.889 0 1.753-.182 2.287-.416V32.94Zm2.108 8.283c-1.27.751-2.87 1.192-4.649 1.192-3.581 0-5.792-2.098-5.792-5.799 0-3.78 2.617-6.239 5.869-6.239 1.04 0 1.88.207 2.464.492v-6.925l2.108-.505v17.784ZM116.644 42.154V30.635h2.108v11.52h-2.108ZM128.228 41.274c-.661.803-1.678 1.14-2.642 1.14-1.678 0-2.897-.907-2.897-2.797v-7.092h-1.906v-1.89h1.906v-3.241l2.108-.503v3.744h2.973v1.89h-2.973v6.782c0 .777.458 1.087 1.346 1.087.89 0 1.651-.44 2.085-.983v1.863ZM130.284 42.154V30.635h2.108v11.52h-2.108ZM143.849 36.356c0-2.46-1.524-3.935-3.581-3.935-2.084 0-3.659 1.58-3.659 4.013 0 2.459 1.525 3.935 3.582 3.935 2.084 0 3.658-1.58 3.658-4.013Zm-3.658 6.058c-3.354 0-5.818-2.434-5.818-5.98 0-3.495 2.643-6.057 5.895-6.057 3.352 0 5.818 2.432 5.818 5.979 0 3.495-2.643 6.058-5.895 6.058ZM155.406 42.154v-8.231c0-1.035-.558-1.527-1.88-1.527-1.143 0-2.591.594-3.353 1.19v8.568h-2.109V30.635h1.855l.229 1.062a6.52 6.52 0 0 1 3.989-1.32c1.98 0 3.379.931 3.379 3.494v8.283h-2.11ZM159.926 39.333c.636.673 1.855 1.087 3.099 1.087 1.5 0 2.008-.544 2.008-1.45 0-1.967-5.234-1.527-5.234-5.099 0-2.097 1.728-3.495 4.117-3.495 1.219 0 2.235.233 2.922.7v2.303c-.483-.543-1.678-1.01-2.871-1.01-1.424 0-1.932.519-1.932 1.398 0 1.735 5.234 1.398 5.234 5.1 0 1.993-1.499 3.547-4.218 3.547-1.397 0-2.617-.337-3.277-.855l.152-2.226ZM59.99 7.03c1.843-2.891 5.636-3.712 8.473-1.836 2.837 1.878 3.643 5.743 1.8 8.633-1.842 2.891-5.635 3.712-8.472 1.834-2.837-1.876-3.643-5.74-1.801-8.63Zm12.098 8.005c2.495-3.918 1.404-9.155-2.44-11.698-3.846-2.544-8.985-1.431-11.482 2.486-2.469 3.873-1.423 9.031 2.316 11.606l.052.044 9.778 6.47 2.948-.692-6.783-4.488a8.264 8.264 0 0 0 5.61-3.728ZM77.245 7.17V15.4c0 1.036.56 1.527 1.88 1.527.966 0 2.414-.595 3.176-1.19V7.17h2.11v11.519h-1.856l-.228-1.087c-1.245.932-2.643 1.346-3.81 1.346-1.983 0-3.38-.933-3.38-3.495V7.17h2.108ZM92.328 13.641c-2.717.414-3.708 1.01-3.708 2.175 0 .906.508 1.32 1.778 1.32.712 0 1.55-.233 1.93-.57v-2.925Zm-2.844 5.307c-1.678 0-3.075-.958-3.075-2.796 0-2.33 1.905-3.65 5.92-4.194v-1.657c0-.517-.128-.75-.432-.957-.38-.259-.965-.388-1.728-.388-1.372 0-2.692.57-3.302 1.295V8.127c.762-.801 2.159-1.216 3.582-1.216 2.566 0 3.989 1.216 3.989 3.624 0 .389-.127 5.617-.127 6.187.305.206.711.31 1.092.31.102 0 .177 0 .255-.026l-.205 1.864a2.258 2.258 0 0 1-.583.078c-.864 0-1.626-.26-2.186-.933-1.092.726-2.21.933-3.2.933ZM103.767 9.267c-.279-.13-.66-.207-1.143-.207-.966 0-2.134.363-3.1 1.216v8.413h-2.109V7.17h1.855l.254 1.19c1.016-1.06 2.032-1.449 3.023-1.449.534 0 .89.13 1.22.363v1.993ZM112.479 18.689l-4.471-5.358h-.584v5.358h-2.11V.509l2.11-.509v11.88h.584l4.573-4.84 2.489.26-5.08 5.125 5.233 6.264h-2.744ZM171.176 28.537c-.348 0-.685.093-1.014.273-.329.181-.586.44-.771.779-.186.337-.279.689-.279 1.053 0 .363.091.71.274 1.042.18.333.438.595.764.78.329.184.671.278 1.026.278.356 0 .699-.094 1.026-.279.328-.184.583-.446.762-.779a2.14 2.14 0 0 0 .274-1.042c0-.364-.092-.716-.278-1.053a1.916 1.916 0 0 0-.77-.78 2.106 2.106 0 0 0-1.014-.272Zm0-.417c.416 0 .821.109 1.217.325.395.219.703.527.922.932.222.404.333.827.333 1.265 0 .434-.11.85-.326 1.252-.218.4-.523.713-.914.933a2.463 2.463 0 0 1-1.232.333c-.427 0-.838-.11-1.23-.333a2.322 2.322 0 0 1-.917-.933 2.594 2.594 0 0 1-.327-1.252c0-.438.111-.86.332-1.265.221-.405.531-.713.926-.932a2.513 2.513 0 0 1 1.216-.325Z" fill="#fff"/><path d="M170.496 30.488h.698a.988.988 0 0 0 .349-.05.371.371 0 0 0 .19-.148.402.402 0 0 0 .064-.224.369.369 0 0 0-.126-.292c-.082-.076-.216-.114-.397-.114h-.778v.828Zm-.323 1.395v-2.5h1.085c.221 0 .389.023.5.07a.545.545 0 0 1 .273.237.703.703 0 0 1 .101.376.632.632 0 0 1-.167.447c-.113.122-.287.199-.523.232a.764.764 0 0 1 .194.125c.096.089.187.199.27.332l.428.681h-.409l-.325-.52a4.251 4.251 0 0 0-.233-.344.716.716 0 0 0-.165-.169.461.461 0 0 0-.15-.066.982.982 0 0 0-.179-.01h-.377v1.11h-.323ZM8.981 64.342v7.521H7.706v-7.521H4.901v-1.19h6.885v1.19H8.981ZM16.91 71.863v-4.349c0-.546-.295-.806-.993-.806-.725 0-1.49.314-1.892.629v4.526H12.91v-9.6l1.114-.273v4.348c.711-.506 1.382-.697 2.214-.697 1.047 0 1.785.492 1.785 1.846v4.376H16.91ZM23.297 68.034v-.191c0-.725-.403-1.203-1.316-1.203-.9 0-1.45.67-1.543 1.394h2.859Zm.966 3.364c-.483.41-1.222.602-1.973.602-1.839 0-3.087-1.258-3.087-3.145 0-2.038 1.315-3.214 2.886-3.214 1.409 0 2.362.876 2.362 2.366 0 .26-.014.71-.04.984h-4.067c.027 1.177.872 1.915 2.12 1.915.793 0 1.463-.328 1.799-.67v1.162ZM28.918 71.863v-8.71h1.275v7.52h3.986v1.19h-5.261ZM38.767 68.034v-.191c0-.725-.402-1.203-1.315-1.203-.9 0-1.45.67-1.543 1.394h2.858Zm.966 3.364c-.483.41-1.22.602-1.972.602-1.84 0-3.087-1.258-3.087-3.145 0-2.038 1.315-3.214 2.885-3.214 1.41 0 2.362.876 2.362 2.366 0 .26-.013.71-.04.984h-4.066c.027 1.177.872 1.915 2.12 1.915.792 0 1.463-.328 1.798-.67v1.162ZM44.201 69.197c-1.436.218-1.96.533-1.96 1.148 0 .479.269.698.94.698.376 0 .819-.123 1.02-.3v-1.546ZM42.698 72c-.886 0-1.624-.506-1.624-1.477 0-1.23 1.007-1.928 3.127-2.216v-.875c0-.273-.067-.396-.228-.506-.201-.136-.51-.205-.913-.205-.724 0-1.422.301-1.744.684v-1.121c.402-.424 1.14-.643 1.892-.643 1.356 0 2.107.643 2.107 1.915 0 .205-.067 2.967-.067 3.268.161.109.376.164.577.164.054 0 .094 0 .134-.014l-.107.985a1.187 1.187 0 0 1-.309.041c-.456 0-.858-.137-1.154-.492A2.985 2.985 0 0 1 42.7 72ZM50.91 66.995c-.228-.15-.765-.274-1.208-.274-1.14 0-2.013.67-2.013 2.216 0 1.34.765 1.983 2.013 1.983.47 0 .926-.096 1.208-.22v-3.705Zm1.114 4.376c-.671.397-1.517.629-2.456.629-1.893 0-3.06-1.108-3.06-3.063 0-1.997 1.382-3.296 3.1-3.296.55 0 .993.11 1.302.26v-3.638l1.114-.273v9.381ZM57.27 68.034v-.191c0-.725-.403-1.203-1.316-1.203-.9 0-1.45.67-1.543 1.394h2.858Zm.965 3.364c-.483.41-1.221.602-1.972.602-1.84 0-3.087-1.258-3.087-3.145 0-2.038 1.315-3.214 2.886-3.214 1.409 0 2.362.876 2.362 2.366 0 .26-.014.71-.04.984h-4.067c.026 1.177.872 1.915 2.12 1.915.792 0 1.463-.328 1.798-.67v1.162ZM63.16 66.885a1.45 1.45 0 0 0-.605-.109c-.51 0-1.127.192-1.638.643v4.444h-1.113v-6.085h.98l.133.63c.538-.562 1.074-.767 1.598-.767.281 0 .47.068.644.191v1.053ZM67.197 71.863v-6.085h1.114v6.085h-1.114Zm.55-7.48c-.483 0-.765-.342-.765-.793 0-.465.282-.807.778-.807.483 0 .766.342.766.807 0 .451-.282.793-.779.793ZM73.8 71.863v-4.349c0-.546-.296-.806-.994-.806-.604 0-1.369.314-1.771.629v4.526H69.92v-6.085h.98l.12.56a3.446 3.446 0 0 1 2.107-.697c1.047 0 1.785.492 1.785 1.846v4.376H73.8ZM80.815 67.487h1.087c1.1 0 1.785-.574 1.785-1.655 0-1.039-.617-1.572-1.919-1.572h-.953v3.227Zm1.087 1.108h-1.087v3.268H79.54v-8.71h2.402c2.094 0 3.088 1.066 3.088 2.666 0 1.545-1.155 2.776-3.128 2.776ZM90.45 68.8c0-1.299-.806-2.079-1.892-2.079-1.1 0-1.933.835-1.933 2.12 0 1.3.805 2.079 1.892 2.079 1.1 0 1.933-.835 1.933-2.12ZM88.517 72c-1.772 0-3.074-1.286-3.074-3.159 0-1.846 1.396-3.2 3.115-3.2 1.771 0 3.073 1.285 3.073 3.158 0 1.847-1.396 3.201-3.114 3.201ZM92.876 71.863v-9.6l1.114-.273v9.873h-1.114ZM98.432 69.197c-1.436.218-1.96.533-1.96 1.148 0 .479.27.698.94.698.376 0 .819-.123 1.02-.3v-1.546ZM96.93 72c-.886 0-1.624-.506-1.624-1.477 0-1.23 1.006-1.928 3.127-2.216v-.875c0-.273-.067-.396-.228-.506-.201-.136-.51-.205-.913-.205-.725 0-1.423.301-1.745.684v-1.121c.403-.424 1.141-.643 1.893-.643 1.355 0 2.107.643 2.107 1.915 0 .205-.067 2.967-.067 3.268.161.109.375.164.577.164.053 0 .094 0 .134-.014l-.108.985a1.172 1.172 0 0 1-.308.041c-.456 0-.859-.137-1.154-.492a2.983 2.983 0 0 1-1.691.492ZM104.591 66.885a1.45 1.45 0 0 0-.604-.109c-.51 0-1.127.192-1.637.643v4.444h-1.115v-6.085h.98l.135.63c.536-.562 1.073-.767 1.596-.767.283 0 .47.068.645.191v1.053ZM110.318 68.157h2.577l-1.06-2.872-.201-.779-.215.78-1.101 2.871Zm2.993 1.149h-3.435l-.98 2.557h-1.289l3.396-8.71h1.342l3.275 8.71h-1.369l-.94-2.557ZM120.45 66.995c-.229-.15-.766-.274-1.208-.274-1.141 0-2.014.67-2.014 2.216 0 1.34.766 1.983 2.014 1.983.47 0 .926-.096 1.208-.22v-3.705Zm1.113 4.376c-.67.397-1.516.629-2.456.629-1.892 0-3.06-1.108-3.06-3.063 0-1.997 1.382-3.296 3.101-3.296.55 0 .993.11 1.302.26v-3.638l1.113-.273v9.381ZM125.816 71.863h-.993l-2.282-6.017 1.182-.137 1.476 4.076.187.629.216-.63 1.623-4.006h1.195l-2.604 6.085ZM132.753 68.034v-.191c0-.725-.403-1.203-1.315-1.203-.9 0-1.45.67-1.544 1.394h2.859Zm.966 3.364c-.483.41-1.221.602-1.973.602-1.838 0-3.087-1.258-3.087-3.145 0-2.038 1.316-3.214 2.886-3.214 1.409 0 2.362.876 2.362 2.366 0 .26-.013.71-.04.984H129.8c.027 1.177.873 1.915 2.121 1.915.792 0 1.463-.328 1.798-.67v1.162ZM139.166 71.863v-4.349c0-.546-.295-.806-.993-.806-.604 0-1.369.314-1.772.629v4.526h-1.114v-6.085h.98l.121.56a3.445 3.445 0 0 1 2.107-.697c1.047 0 1.785.492 1.785 1.846v4.376h-1.114ZM145.149 71.398c-.348.424-.885.602-1.395.602-.886 0-1.53-.479-1.53-1.477v-3.747h-1.007v-.998h1.007v-1.34l1.114-.274v1.614h1.57v.998h-1.57v3.583c0 .41.241.574.711.574s.872-.233 1.1-.519v.984ZM147.351 65.778v4.349c0 .547.294.806.993.806.509 0 1.274-.314 1.677-.63v-4.525h1.114v6.085h-.98l-.12-.574c-.658.492-1.396.711-2.014.711-1.046 0-1.785-.492-1.785-1.846v-4.376h1.115ZM156.072 66.885a1.45 1.45 0 0 0-.604-.109c-.51 0-1.128.192-1.638.643v4.444h-1.114v-6.085h.98l.134.63c.537-.562 1.073-.767 1.597-.767.282 0 .47.068.645.191v1.053ZM160.553 68.034v-.191c0-.725-.403-1.203-1.316-1.203-.899 0-1.449.67-1.543 1.394h2.859Zm.966 3.364c-.483.41-1.221.602-1.973.602-1.839 0-3.087-1.258-3.087-3.145 0-2.038 1.316-3.214 2.886-3.214 1.409 0 2.362.876 2.362 2.366 0 .26-.014.71-.041.984H157.6c.027 1.177.872 1.915 2.121 1.915.791 0 1.462-.328 1.798-.67v1.162ZM162.752 70.373c.336.355.98.574 1.638.574.791 0 1.06-.287 1.06-.766 0-1.039-2.765-.807-2.765-2.694 0-1.107.912-1.846 2.175-1.846.644 0 1.18.123 1.543.37v1.217c-.255-.288-.886-.534-1.517-.534-.751 0-1.02.274-1.02.738 0 .917 2.765.74 2.765 2.695 0 1.052-.792 1.873-2.228 1.873-.738 0-1.382-.178-1.731-.451l.08-1.177Z" fill="#fff"/></svg>
