<svg xmlns="http://www.w3.org/2000/svg" width="100" height="42" viewBox="0 0 100 42"><g fill="none" transform="translate(0 .299)"><path fill="#FDB52B" d="M8.93275862,21.2988506 L8.93103448,21.2977011 L8.80114943,21.2114943 L8.80517241,21.2045977 C4.9816092,18.5718391 3.91321839,13.2965517 6.43735632,9.3362069 C8.99022989,5.33045977 14.2471264,4.19195402 18.1775862,6.79367816 C22.1091954,9.39425287 23.2264368,14.7505747 20.6729885,18.7551724 C20.0349954,19.7586739 19.194204,20.6176711 18.2045977,21.2770115 L22.6931034,24.245977 C25.4074713,21.7201149 27.1109195,18.0862069 27.1109195,14.045977 C27.1109195,6.4183908 21.0408046,0.235057471 13.5551724,0.235057471 C6.06954023,0.235057471 0,6.4183908 0,14.0454023 C0,21.6735632 6.06954023,27.8568966 13.5551724,27.8568966 C15.0367816,27.8568966 16.4614943,27.6114943 17.795977,27.1637931 L8.93390805,21.3 L8.93275862,21.2982759 L8.93275862,21.2988506 Z"/><path fill="currentColor" d="M68.3390805,15.454023 C68.3390805,15.8471264 68.0270115,16.1643678 67.6431034,16.1643678 C67.258046,16.1643678 66.9454023,15.8471264 66.9454023,15.4545977 C66.9454023,15.0626437 67.258046,14.7442529 67.6431034,14.7442529 C68.0270115,14.7442529 68.3390805,15.062069 68.3390805,15.4545977 L68.3390805,15.454023 Z M76.1793103,15.454023 C76.1793103,15.8471264 75.8672414,16.1643678 75.4816092,16.1643678 C75.0933241,16.1605768 74.7815493,15.8428855 74.7850575,15.4545977 C74.7850575,15.0626437 75.0971264,14.7442529 75.4816092,14.7442529 C75.8672414,14.7442529 76.1793103,15.062069 76.1793103,15.4545977 L76.1793103,15.454023 Z M32.854023,24.2264368 L32.854023,14.7505747 L38.5189655,14.7505747 L38.5189655,16.0448276 L34.2413793,16.0448276 L34.2413793,18.7971264 L38.0810345,18.7971264 L38.0810345,20.0902299 L34.2413793,20.0902299 L34.2413793,22.9327586 L38.6793103,22.9327586 L38.6793103,24.2264368 L32.854023,24.2264368 L32.854023,24.2264368 Z M43.9637931,24.2264368 L42.2413793,21.7425287 L40.504023,24.2264368 L39.087931,24.2264368 L41.5701149,20.85 L39.2563218,17.6063218 L40.7741379,17.6063218 L42.3873563,19.941954 L43.9793103,17.6063218 L45.366092,17.6063218 L43.0591954,20.8350575 L45.4977011,24.2264368 L43.9643678,24.2264368 L43.9637931,24.2264368 Z M47.2482759,22.9028736 C47.5396552,23.0810345 48.0367816,23.2005747 48.562069,23.2005747 C49.8172414,23.2005747 50.7517241,22.4706897 50.7517241,20.7902299 C50.7517241,19.3028736 49.8764368,18.6333333 48.562069,18.6333333 C48.0948276,18.6333333 47.5689655,18.7224138 47.2482759,18.8557471 L47.2482759,22.9028736 Z M48.5770115,24.3758621 C48.1091954,24.3758621 47.6718391,24.3011494 47.2482759,24.1517241 L47.2482759,27.7971264 L46.0356322,28.0913793 L46.0356322,18.0528736 C46.766092,17.666092 47.6862069,17.458046 48.708046,17.458046 C50.7666667,17.458046 52.0367816,18.6477011 52.0367816,20.7902299 C52.0367816,22.962069 50.591954,24.3758621 48.5770115,24.3758621 L48.5770115,24.3758621 Z M57.2333333,20.0609195 L57.2333333,19.8528736 C57.2333333,19.0643678 56.795977,18.5436782 55.8022989,18.5436782 C54.8241379,18.5436782 54.2258621,19.2724138 54.1241379,20.0609195 L57.2333333,20.0609195 Z M58.2850575,23.7206897 C57.7591954,24.1672414 56.9563218,24.3758621 56.1390805,24.3758621 C54.1385057,24.3758621 52.7804598,23.0068966 52.7804598,20.954023 C52.7804598,18.7373563 54.2114943,17.4574713 55.9195402,17.4574713 C57.4522989,17.4574713 58.4890805,18.4097701 58.4890805,20.0310345 C58.4890805,20.3137931 58.4747126,20.8051724 58.4454023,21.1022989 L54.0218391,21.1022989 C54.0505747,22.3821839 54.9701149,23.1850575 56.3281609,23.1850575 C57.1902299,23.1850575 57.9195402,22.8287356 58.2850575,22.4563218 L58.2850575,23.7206897 L58.2850575,23.7206897 Z M64.0741379,18.9304598 C63.8252874,18.7666667 63.2413793,18.6327586 62.7597701,18.6327586 C61.5189655,18.6327586 60.5695402,19.362069 60.5695402,21.0431034 C60.5695402,22.5005747 61.4017241,23.2005747 62.7597701,23.2005747 C63.2706897,23.2005747 63.7672414,23.095977 64.0741379,22.9614943 L64.0741379,18.9310345 L64.0741379,18.9304598 Z M65.2856322,23.6908046 C64.5557471,24.1224138 63.6362069,24.3758621 62.6137931,24.3758621 C60.5557471,24.3758621 59.2850575,23.1701149 59.2850575,21.0431034 C59.2850575,18.8706897 60.7890805,17.4574713 62.658046,17.4574713 C63.2557471,17.4574713 63.7385057,17.5764368 64.0741379,17.7402299 L64.0741379,13.7603448 L65.2856322,13.4701149 L65.2856322,23.6908046 Z M67.0367816,24.2264368 L67.0367816,17.6063218 L68.2482759,17.6063218 L68.2482759,24.2270115 L67.0367816,24.2270115 L67.0367816,24.2264368 Z M73.6942529,23.7206897 C73.3143678,24.1821839 72.7298851,24.3758621 72.1758621,24.3758621 C71.2114943,24.3758621 70.5109195,23.8545977 70.5109195,22.7683908 L70.5109195,18.6925287 L69.4155172,18.6925287 L69.4155172,17.6063218 L70.5109195,17.6063218 L70.5109195,15.7436782 L71.7224138,15.4545977 L71.7224138,17.6063218 L73.4310345,17.6063218 L73.4310345,18.6925287 L71.7224138,18.6925287 L71.7224138,22.5902299 C71.7224138,23.0367816 71.9856322,23.2149425 72.495977,23.2149425 C73.0074713,23.2149425 73.4448276,22.962069 73.6942529,22.65 L73.6942529,23.7206897 L73.6942529,23.7206897 Z M74.8758621,24.2264368 L74.8758621,17.6063218 L76.0873563,17.6063218 L76.0873563,24.2270115 L74.8758621,24.2270115 L74.8758621,24.2264368 Z M82.6718391,20.8942529 C82.6718391,19.4804598 81.795977,18.6327586 80.6137931,18.6327586 C79.416092,18.6327586 78.5109195,19.5408046 78.5109195,20.9390805 C78.5109195,22.3522989 79.3873563,23.2005747 80.5695402,23.2005747 C81.7672414,23.2005747 82.6718391,22.2925287 82.6718391,20.8942529 Z M80.5695402,24.3758621 C78.641954,24.3758621 77.2258621,22.9770115 77.2258621,20.9390805 C77.2258621,18.9304598 78.7448276,17.458046 80.6137931,17.458046 C82.5402299,17.458046 83.9574713,18.8557471 83.9574713,20.8942529 C83.9574713,22.9028736 82.4385057,24.3758621 80.5695402,24.3758621 L80.5695402,24.3758621 Z M89.3137931,24.2264368 L89.3137931,19.4965517 C89.3137931,18.9011494 88.9931034,18.6183908 88.2333333,18.6183908 C87.5764368,18.6183908 86.7442529,18.9603448 86.3063218,19.3022989 L86.3063218,24.2264368 L85.0942529,24.2264368 L85.0942529,17.6063218 L86.1603448,17.6063218 L86.291954,18.2166667 C86.9514805,17.7177434 87.7575305,17.4510134 88.5844828,17.458046 C89.7224138,17.458046 90.5264368,17.9931034 90.5264368,19.466092 L90.5264368,24.2264368 L89.3137931,24.2264368 L89.3137931,24.2264368 Z M91.9114943,22.6051724 C92.2770115,22.991954 92.9775862,23.2298851 93.6925287,23.2298851 C94.5545977,23.2298851 94.8465517,22.9172414 94.8465517,22.3965517 C94.8465517,21.266092 91.8385057,21.5189655 91.8385057,19.466092 C91.8385057,18.2609195 92.8316092,17.4574713 94.2045977,17.4574713 C94.9051724,17.4574713 95.4890805,17.5913793 95.883908,17.8597701 L95.883908,19.1833333 C95.6063218,18.8712644 94.9195402,18.6028736 94.233908,18.6028736 C93.4155172,18.6028736 93.1235632,18.9011494 93.1235632,19.4063218 C93.1235632,20.4034483 96.1316092,20.2097701 96.1316092,22.3373563 C96.1316092,23.4827586 95.2701149,24.3758621 93.7074713,24.3758621 C92.9045977,24.3758621 92.2034483,24.1821839 91.8241379,23.8844828 L91.9114943,22.6051724 L91.9114943,22.6051724 Z M34.4770115,4.04022989 C35.5362069,2.37873563 37.716092,1.90689655 39.3465517,2.98505747 C40.9770115,4.06436782 41.4402299,6.28505747 40.3810345,7.94597701 C39.3224138,9.60804598 37.1425287,10.0798851 35.512069,9.00057471 C33.8816092,7.92241379 33.4183908,5.70172414 34.4770115,4.0408046 L34.4770115,4.04022989 Z M41.4298851,8.64022989 C42.8637931,6.38908046 42.2367816,3.37931034 40.0275862,1.91781609 C37.8172414,0.455747126 34.8637931,1.09482759 33.4287356,3.34655172 C32.0097701,5.57241379 32.6109195,8.5362069 34.7597701,10.016092 L34.7896552,10.041954 L40.4091954,13.7603448 L42.1034483,13.362069 L38.2051724,10.7833333 C39.5354785,10.5592826 40.707738,9.78007479 41.4293103,8.64022989 L41.4298851,8.64022989 Z M44.3936782,4.12068966 L44.3936782,8.85057471 C44.3936782,9.44597701 44.7155172,9.72816092 45.4741379,9.72816092 C46.0293103,9.72816092 46.8614943,9.3862069 47.2994253,9.04425287 L47.2994253,4.12068966 L48.512069,4.12068966 L48.512069,10.7408046 L47.4454023,10.7408046 L47.3143678,10.116092 C46.5988506,10.6517241 45.7954023,10.8896552 45.1247126,10.8896552 C43.9850575,10.8896552 43.1821839,10.3534483 43.1821839,8.88103448 L43.1821839,4.12068966 L44.3936782,4.12068966 L44.3936782,4.12068966 Z M53.062069,7.83965517 C51.5005747,8.07758621 50.9310345,8.42011494 50.9310345,9.08965517 C50.9310345,9.61034483 51.2229885,9.84827586 51.9528736,9.84827586 C52.362069,9.84827586 52.8436782,9.71436782 53.062069,9.52068966 L53.062069,7.83965517 L53.062069,7.83965517 Z M51.4275862,10.8896552 C50.4632184,10.8896552 49.6603448,10.3390805 49.6603448,9.28275862 C49.6603448,7.94367816 50.7551724,7.18505747 53.0626437,6.87241379 L53.0626437,5.92011494 C53.0626437,5.62298851 52.9890805,5.48908046 52.8143678,5.37011494 C52.595977,5.22126437 52.2597701,5.14712644 51.8212644,5.14712644 C51.0327586,5.14712644 50.2741379,5.47471264 49.9235632,5.89137931 L49.9235632,4.67068966 C50.3614943,4.21034483 51.1643678,3.97183908 51.9821839,3.97183908 C53.4568966,3.97183908 54.2747126,4.67068966 54.2747126,6.0545977 C54.2747126,6.27816092 54.2017241,9.28275862 54.2017241,9.61034483 C54.3770115,9.72873563 54.6103448,9.78850575 54.8293103,9.78850575 C54.887931,9.78850575 54.9310345,9.78850575 54.9758621,9.77356322 L54.858046,10.8448276 C54.7487924,10.8743151 54.6361511,10.8893855 54.5229885,10.8896552 C54.0264368,10.8896552 53.5885057,10.7402299 53.2666667,10.3534483 C52.6390805,10.7706897 51.9965517,10.8896552 51.4275862,10.8896552 L51.4275862,10.8896552 Z M59.6362069,5.32586207 C59.4758621,5.25114943 59.2568966,5.20689655 58.9793103,5.20689655 C58.4241379,5.20689655 57.7528736,5.41551724 57.1977011,5.90574713 L57.1977011,10.7408046 L55.9856322,10.7408046 L55.9856322,4.12068966 L57.0517241,4.12068966 L57.1977011,4.8045977 C57.7816092,4.1954023 58.3655172,3.97183908 58.9350575,3.97183908 C59.241954,3.97183908 59.4465517,4.04655172 59.6362069,4.18045977 L59.6362069,5.32586207 L59.6362069,5.32586207 Z M64.6431034,10.7408046 L62.0735632,7.66149425 L61.737931,7.66149425 L61.737931,10.7408046 L60.5252874,10.7408046 L60.5252874,0.292528736 L61.737931,0 L61.737931,6.82758621 L62.0735632,6.82758621 L64.7017241,4.04597701 L66.1321839,4.1954023 L63.2126437,7.1408046 L66.2201149,10.7408046 L64.6431034,10.7408046 Z M98.3770115,16.4005747 C98.1770115,16.4005747 97.9833333,16.454023 97.7942529,16.5568966 C97.6051724,16.6614943 97.4574713,16.8103448 97.3511494,17.0051724 C97.2442529,17.1982759 97.1908046,17.4011494 97.1908046,17.6103448 C97.1908046,17.8189655 97.2431034,18.0183908 97.3482759,18.2091954 C97.4517241,18.4005747 97.6,18.5511494 97.7873563,18.6574713 C97.9764368,18.7632184 98.1729885,18.8172414 98.3770115,18.8172414 C98.5816092,18.8172414 98.7787356,18.7632184 98.9666667,18.6568966 C99.1551724,18.5511494 99.3017241,18.4005747 99.4045977,18.2091954 C99.5091954,18.0183908 99.562069,17.8183908 99.562069,17.6103448 C99.562069,17.4011494 99.5091954,17.1982759 99.4022989,17.0051724 C99.3016143,16.8158238 99.1478039,16.6600158 98.9597701,16.5568966 C98.7818279,16.4564306 98.5813459,16.4026524 98.3770115,16.4005747 L98.3770115,16.4005747 Z M98.3770115,16.1609195 C98.616092,16.1609195 98.8488506,16.2235632 99.0764368,16.3477011 C99.3034483,16.4729885 99.4804598,16.6505747 99.6063218,16.8833333 C99.733908,17.1155172 99.7977011,17.3586207 99.7977011,17.6103448 C99.7977011,17.8597701 99.7344828,18.0988506 99.6103448,18.3298851 C99.4850575,18.5597701 99.3097701,18.7396552 99.0850575,18.866092 C98.8699661,18.9910103 98.6257456,19.0570212 98.3770115,19.0574713 C98.1316092,19.0574713 97.8954023,18.9942529 97.6701149,18.866092 C97.4467051,18.7415326 97.2637801,18.5554159 97.1431034,18.3298851 C97.0206821,18.1097649 96.9560268,17.8622161 96.9551724,17.6103448 C96.9551724,17.3586207 97.0189655,17.1155172 97.145977,16.8833333 C97.2729885,16.6505747 97.4511494,16.4729885 97.6781609,16.3477011 C97.8915044,16.2271889 98.1319918,16.1629139 98.3770115,16.1609195 L98.3770115,16.1609195 Z"/><path fill="currentColor" d="M97.9862069,17.5218391 L98.3873563,17.5218391 C98.4553967,17.5243635 98.5233364,17.51463 98.587931,17.4931034 C98.6327755,17.4776829 98.6711995,17.4477526 98.6971264,17.408046 C98.7218247,17.3697052 98.7346228,17.324912 98.733908,17.2793103 C98.7363511,17.2153065 98.7097361,17.1536272 98.6614943,17.1114943 C98.6143678,17.0678161 98.5373563,17.045977 98.4333333,17.045977 L97.9862069,17.045977 L97.9862069,17.5218391 L97.9862069,17.5218391 Z M97.8005747,18.3235632 L97.8005747,16.8867816 L98.4241379,16.8867816 C98.5511494,16.8867816 98.6477011,16.9 98.7114943,16.9270115 C98.7777671,16.9532401 98.8331125,17.0012873 98.8683908,17.0632184 C98.907697,17.1283481 98.9278174,17.2032515 98.9264368,17.2793103 C98.9292429,17.3741941 98.8947923,17.4664062 98.8304598,17.5362069 C98.7655172,17.6063218 98.6655172,17.6505747 98.5298851,17.6695402 C98.570473,17.6877028 98.6080666,17.7119255 98.6413793,17.7413793 C98.6965517,17.7925287 98.7488506,17.8557471 98.7965517,17.9321839 L99.0425287,18.3235632 L98.8074713,18.3235632 L98.6206897,18.0247126 C98.5793027,17.956669 98.5346133,17.8906899 98.4867816,17.8270115 C98.4607671,17.7896098 98.428722,17.7567878 98.391954,17.7298851 C98.3657143,17.7121943 98.3365175,17.6993477 98.3057471,17.691954 C98.2717029,17.6869056 98.2372683,17.6849819 98.2028736,17.6862069 L97.9862069,17.6862069 L97.9862069,18.3241379 L97.8005747,18.3241379 L97.8005747,18.3235632 Z M5.16149425,36.9781609 L5.16149425,41.3005747 L4.42873563,41.3005747 L4.42873563,36.9787356 L2.81666667,36.9787356 L2.81666667,36.2948276 L6.77356322,36.2948276 L6.77356322,36.9787356 L5.16149425,36.9787356 L5.16149425,36.9781609 Z M9.7183908,41.3005747 L9.7183908,38.8011494 C9.7183908,38.4873563 9.54885057,38.337931 9.14770115,38.337931 C8.73103448,38.337931 8.29137931,38.5183908 8.06034483,38.6994253 L8.06034483,41.3005747 L7.41954023,41.3005747 L7.41954023,35.7833333 L8.05977011,35.6264368 L8.05977011,38.1252874 C8.4683908,37.8350575 8.85402299,37.7247126 9.33218391,37.7247126 C9.93390805,37.7247126 10.358046,38.0074713 10.358046,38.7856322 L10.358046,41.3005747 L9.7183908,41.3005747 L9.7183908,41.3005747 Z M13.3890805,39.1 L13.3890805,38.9896552 C13.3890805,38.5735632 13.1574713,38.2988506 12.6327586,38.2988506 C12.1155172,38.2988506 11.7994253,38.683908 11.745977,39.1 L13.3890805,39.1 L13.3890805,39.1 Z M13.9442529,41.0333333 C13.6666667,41.2689655 13.241954,41.3793103 12.8103448,41.3793103 C11.7534483,41.3793103 11.0362069,40.6563218 11.0362069,39.5718391 C11.0362069,38.4005747 11.791954,37.7247126 12.6948276,37.7247126 C13.5045977,37.7247126 14.0522989,38.2275862 14.0522989,39.0844828 C14.0522989,39.233908 14.0442529,39.4925287 14.0293103,39.65 L11.691954,39.65 C11.7074713,40.3264368 12.1931034,40.7505747 12.9103448,40.7505747 C13.366092,40.7505747 13.7511494,40.562069 13.9442529,40.3655172 L13.9442529,41.0333333 L13.9442529,41.0333333 Z M16.6195402,41.3005747 L16.6195402,36.2948276 L17.3522989,36.2948276 L17.3522989,40.6172414 L19.6431034,40.6172414 L19.6431034,41.3011494 L16.6195402,41.3011494 L16.6195402,41.3005747 Z M22.2798851,39.1 L22.2798851,38.9896552 C22.2798851,38.5735632 22.0488506,38.2988506 21.5241379,38.2988506 C21.0068966,38.2988506 20.6908046,38.683908 20.6373563,39.1 L22.2798851,39.1 L22.2798851,39.1 Z M22.8350575,41.0333333 C22.5574713,41.2689655 22.133908,41.3793103 21.7017241,41.3793103 C20.6442529,41.3793103 19.9275862,40.6563218 19.9275862,39.5718391 C19.9275862,38.4005747 20.6833333,37.7247126 21.5856322,37.7247126 C22.395977,37.7247126 22.9431034,38.2275862 22.9431034,39.0844828 C22.9431034,39.233908 22.9356322,39.4925287 22.9201149,39.65 L20.5833333,39.65 C20.5988506,40.3264368 21.0844828,40.7505747 21.8017241,40.7505747 C22.2568966,40.7505747 22.6425287,40.562069 22.8350575,40.3655172 L22.8350575,41.0333333 L22.8350575,41.0333333 Z M25.4028736,39.7683908 C24.5775862,39.8936782 24.2764368,40.0747126 24.2764368,40.4281609 C24.2764368,40.7034483 24.4310345,40.8293103 24.8166667,40.8293103 C25.0327586,40.8293103 25.2873563,40.7586207 25.4028736,40.6563218 L25.4028736,39.7678161 L25.4028736,39.7683908 Z M24.5390805,41.3793103 C24.0298851,41.3793103 23.6057471,41.0885057 23.6057471,40.5304598 C23.6057471,39.8235632 24.1844828,39.4224138 25.4028736,39.2568966 L25.4028736,38.754023 C25.4028736,38.5971264 25.3643678,38.5264368 25.2718391,38.4632184 C25.1563218,38.3850575 24.9787356,38.3454023 24.7471264,38.3454023 C24.3310345,38.3454023 23.9298851,38.5183908 23.7448276,38.7385057 L23.7448276,38.0942529 C23.9758621,37.8505747 24.4,37.7247126 24.8321839,37.7247126 C25.6114943,37.7247126 26.0431034,38.0942529 26.0431034,38.8247126 C26.0431034,38.9431034 26.0045977,40.5304598 26.0045977,40.7034483 C26.0971264,40.766092 26.2206897,40.7977011 26.3362069,40.7977011 C26.3672414,40.7977011 26.3902299,40.7977011 26.4132184,40.7896552 L26.3517241,41.3557471 C26.293796,41.3711796 26.2340863,41.378909 26.1741379,41.3787356 C25.912069,41.3787356 25.6810345,41.3005747 25.5109195,41.0965517 C25.2231073,41.2861749 24.884851,41.3847078 24.5402299,41.3793103 L24.5390805,41.3793103 Z M29.2586207,38.5028736 C29.1275862,38.4166667 28.8189655,38.3454023 28.5643678,38.3454023 C27.9091954,38.3454023 27.4074713,38.7304598 27.4074713,39.6189655 C27.4074713,40.3890805 27.8471264,40.7586207 28.5643678,40.7586207 C28.8344828,40.7586207 29.0965517,40.7034483 29.2586207,40.6321839 L29.2586207,38.5028736 Z M29.8988506,41.0178161 C29.5132184,41.245977 29.0270115,41.3793103 28.4873563,41.3793103 C27.3994253,41.3793103 26.7287356,40.7425287 26.7287356,39.6189655 C26.7287356,38.4712644 27.5229885,37.7247126 28.5103448,37.7247126 C28.8264368,37.7247126 29.0810345,37.787931 29.2586207,37.8741379 L29.2586207,35.7833333 L29.8988506,35.6264368 L29.8988506,41.0178161 Z M32.9137931,39.1 L32.9137931,38.9896552 C32.9137931,38.5735632 32.6821839,38.2988506 32.1574713,38.2988506 C31.6402299,38.2988506 31.3241379,38.683908 31.2706897,39.1 L32.9132184,39.1 L32.9137931,39.1 Z M33.4683908,41.0333333 C33.1908046,41.2689655 32.7666667,41.3793103 32.3350575,41.3793103 C31.2775862,41.3793103 30.5609195,40.6563218 30.5609195,39.5718391 C30.5609195,38.4005747 31.3166667,37.7247126 32.2195402,37.7247126 C33.0293103,37.7247126 33.5770115,38.2275862 33.5770115,39.0844828 C33.5770115,39.233908 33.5689655,39.4925287 33.554023,39.65 L31.2166667,39.65 C31.2316092,40.3264368 31.7178161,40.7505747 32.4350575,40.7505747 C32.8902299,40.7505747 33.2758621,40.562069 33.4683908,40.3655172 L33.4683908,41.0333333 L33.4683908,41.0333333 Z M36.2988506,38.4402299 C36.1888129,38.3945067 36.0702392,38.3729479 35.9511494,38.3770115 C35.658046,38.3770115 35.3034483,38.4873563 35.0097701,38.7465517 L35.0097701,41.3005747 L34.3701149,41.3005747 L34.3701149,37.8034483 L34.9333333,37.8034483 L35.0097701,38.1655172 C35.3189655,37.8425287 35.6270115,37.7247126 35.9281609,37.7247126 C36.0896552,37.7247126 36.1982759,37.7637931 36.2982759,37.8344828 L36.2982759,38.4402299 L36.2988506,38.4402299 Z M38.6189655,41.3005747 L38.6189655,37.8034483 L39.2591954,37.8034483 L39.2591954,41.3005747 L38.6189655,41.3005747 Z M38.9350575,37.0017241 C38.6574713,37.0017241 38.4954023,36.8051724 38.4954023,36.545977 C38.4954023,36.2787356 38.6574713,36.0821839 38.9425287,36.0821839 C39.2201149,36.0821839 39.3827586,36.2787356 39.3827586,36.545977 C39.3827586,36.8051724 39.2206897,37.0017241 38.9350575,37.0017241 L38.9350575,37.0017241 Z M42.4137931,41.3005747 L42.4137931,38.8011494 C42.4137931,38.4873563 42.2436782,38.337931 41.8425287,38.337931 C41.4954023,38.337931 41.0557471,38.5183908 40.8247126,38.6994253 L40.8247126,41.3005747 L40.183908,41.3005747 L40.183908,37.8034483 L40.7471264,37.8034483 L40.816092,38.1252874 C41.1645153,37.8618835 41.5902427,37.721052 42.0270115,37.7247126 C42.6287356,37.7247126 43.0528736,38.0074713 43.0528736,38.7856322 L43.0528736,41.3005747 L42.4137931,41.3005747 L42.4137931,41.3005747 Z M46.4454023,38.7856322 L47.0701149,38.7856322 C47.7022989,38.7856322 48.095977,38.4557471 48.095977,37.8350575 C48.095977,37.2373563 47.7413793,36.9310345 46.9931034,36.9310345 L46.4454023,36.9310345 L46.4454023,38.7856322 L46.4454023,38.7856322 Z M47.0701149,39.4224138 L46.4454023,39.4224138 L46.4454023,41.3005747 L45.7126437,41.3005747 L45.7126437,36.2948276 L47.0931034,36.2948276 C48.2965517,36.2948276 48.8678161,36.9074713 48.8678161,37.8270115 C48.8678161,38.7149425 48.204023,39.4224138 47.0701149,39.4224138 L47.0701149,39.4224138 Z M51.9827586,39.5402299 C51.9827586,38.7936782 51.5195402,38.3454023 50.8954023,38.3454023 C50.2632184,38.3454023 49.7844828,38.8247126 49.7844828,39.5637931 C49.7844828,40.3109195 50.2471264,40.7586207 50.8718391,40.7586207 C51.504023,40.7586207 51.9827586,40.2787356 51.9827586,39.5402299 Z M50.8718391,41.3793103 C49.8534483,41.3793103 49.1051724,40.6402299 49.1051724,39.5637931 C49.1051724,38.5028736 49.9074713,37.7247126 50.8954023,37.7247126 C51.9132184,37.7247126 52.6614943,38.4632184 52.6614943,39.5396552 C52.6614943,40.6011494 51.8591954,41.3787356 50.8718391,41.3787356 L50.8718391,41.3793103 Z M53.3770115,41.3005747 L53.3770115,35.7833333 L54.0172414,35.6264368 L54.0172414,41.3005747 L53.3770115,41.3005747 L53.3770115,41.3005747 Z M56.5701149,39.7683908 C55.7448276,39.8936782 55.4436782,40.0747126 55.4436782,40.4281609 C55.4436782,40.7034483 55.5988506,40.8293103 55.983908,40.8293103 C56.2,40.8293103 56.4545977,40.7586207 56.5701149,40.6563218 L56.5701149,39.7678161 L56.5701149,39.7683908 Z M55.7068966,41.3793103 C55.1977011,41.3793103 54.7735632,41.0885057 54.7735632,40.5304598 C54.7735632,39.8235632 55.3517241,39.4224138 56.5706897,39.2568966 L56.5706897,38.754023 C56.5706897,38.5971264 56.5321839,38.5264368 56.4396552,38.4632184 C56.3241379,38.3850575 56.1465517,38.3454023 55.9149425,38.3454023 C55.4982759,38.3454023 55.0971264,38.5183908 54.912069,38.7385057 L54.912069,38.0942529 C55.1436782,37.8505747 55.5678161,37.7247126 56,37.7247126 C56.7787356,37.7247126 57.2109195,38.0942529 57.2109195,38.8247126 C57.2109195,38.9431034 57.1724138,40.5304598 57.1724138,40.7034483 C57.2649425,40.766092 57.387931,40.7977011 57.504023,40.7977011 C57.5344828,40.7977011 57.558046,40.7977011 57.5810345,40.7896552 L57.5189655,41.3557471 C57.4612428,41.3712288 57.4017164,41.3789595 57.341954,41.3787356 C57.0798851,41.3787356 56.8482759,41.3005747 56.6787356,41.0965517 C56.3906133,41.2864297 56.0519125,41.3849754 55.7068966,41.3793103 L55.7068966,41.3793103 Z M60.1097701,38.4402299 C59.999905,38.3946049 59.8815397,38.3730484 59.7626437,38.3770115 C59.4695402,38.3770115 59.1149425,38.4873563 58.8218391,38.7465517 L58.8218391,41.3005747 L58.1810345,41.3005747 L58.1810345,37.8034483 L58.7442529,37.8034483 L58.8218391,38.1655172 C59.1298851,37.8425287 59.4385057,37.7247126 59.7390805,37.7247126 C59.9017241,37.7247126 60.0091954,37.7637931 60.1097701,37.8344828 L60.1097701,38.4402299 L60.1097701,38.4402299 Z M63.4011494,39.1706897 L64.8821839,39.1706897 L64.2729885,37.5206897 L64.1574713,37.0724138 L64.033908,37.5206897 L63.4011494,39.1706897 Z M65.1212644,39.8310345 L63.1471264,39.8310345 L62.583908,41.3005747 L61.8431034,41.3005747 L63.7948276,36.2948276 L64.566092,36.2948276 L66.4482759,41.3005747 L65.6614943,41.3005747 L65.1212644,39.8310345 Z M69.2241379,38.5028736 C69.0925287,38.4166667 68.783908,38.3454023 68.5298851,38.3454023 C67.8741379,38.3454023 67.3724138,38.7304598 67.3724138,39.6189655 C67.3724138,40.3890805 67.8126437,40.7586207 68.5298851,40.7586207 C68.8,40.7586207 69.062069,40.7034483 69.2241379,40.6321839 L69.2241379,38.5028736 Z M69.8637931,41.0178161 C69.4787356,41.245977 68.9925287,41.3793103 68.4522989,41.3793103 C67.3649425,41.3793103 66.6936782,40.7425287 66.6936782,39.6189655 C66.6936782,38.4712644 67.487931,37.7247126 68.4758621,37.7247126 C68.791954,37.7247126 69.0465517,37.787931 69.2241379,37.8741379 L69.2241379,35.7833333 L69.8637931,35.6264368 L69.8637931,41.0178161 Z M72.308046,41.3005747 L71.7373563,41.3005747 L70.4258621,37.8425287 L71.1051724,37.7637931 L71.9534483,40.1063218 L72.0609195,40.4678161 L72.1850575,40.1057471 L73.1178161,37.8034483 L73.8045977,37.8034483 L72.308046,41.3005747 L72.308046,41.3005747 Z M76.2948276,39.1 L76.2948276,38.9896552 C76.2948276,38.5735632 76.0632184,38.2988506 75.5390805,38.2988506 C75.0218391,38.2988506 74.7057471,38.683908 74.6517241,39.1 L76.2948276,39.1 L76.2948276,39.1 Z M76.85,41.0333333 C76.5724138,41.2689655 76.1482759,41.3793103 75.716092,41.3793103 C74.6597701,41.3793103 73.941954,40.6563218 73.941954,39.5718391 C73.941954,38.4005747 74.6982759,37.7247126 75.6005747,37.7247126 C76.4103448,37.7247126 76.958046,38.2275862 76.958046,39.0844828 C76.958046,39.233908 76.9505747,39.4925287 76.9350575,39.65 L74.5977011,39.65 C74.6132184,40.3264368 75.0994253,40.7505747 75.8166667,40.7505747 C76.2718391,40.7505747 76.6574713,40.562069 76.85,40.3655172 L76.85,41.0333333 L76.85,41.0333333 Z M79.9804598,41.3005747 L79.9804598,38.8011494 C79.9804598,38.4873563 79.8109195,38.337931 79.4097701,38.337931 C79.0626437,38.337931 78.6229885,38.5183908 78.3913793,38.6994253 L78.3913793,41.3005747 L77.7511494,41.3005747 L77.7511494,37.8034483 L78.3143678,37.8034483 L78.383908,38.1252874 C78.7323314,37.8618835 79.1580588,37.721052 79.5948276,37.7247126 C80.1965517,37.7247126 80.6206897,38.0074713 80.6206897,38.7856322 L80.6206897,41.3005747 L79.9804598,41.3005747 L79.9804598,41.3005747 Z M83.4189655,41.0333333 C83.2189655,41.2770115 82.9103448,41.3793103 82.6172414,41.3793103 C82.108046,41.3793103 81.737931,41.104023 81.737931,40.5304598 L81.737931,38.3770115 L81.1591954,38.3770115 L81.1591954,37.8034483 L81.737931,37.8034483 L81.737931,37.0333333 L82.3781609,36.8758621 L82.3781609,37.8034483 L83.2804598,37.8034483 L83.2804598,38.3770115 L82.3781609,38.3770115 L82.3781609,40.4362069 C82.3781609,40.6718391 82.5166667,40.766092 82.7867816,40.766092 C83.0568966,40.766092 83.287931,40.6321839 83.4189655,40.4672414 L83.4189655,41.0333333 Z M84.6844828,37.8034483 L84.6844828,40.3022989 C84.6844828,40.6172414 84.8534483,40.766092 85.2551724,40.766092 C85.5477011,40.766092 85.9873563,40.5856322 86.2189655,40.404023 L86.2189655,37.8034483 L86.8591954,37.8034483 L86.8591954,41.3005747 L86.295977,41.3005747 L86.2270115,40.9706897 C85.8488506,41.2534483 85.4247126,41.3787356 85.0695402,41.3787356 C84.4683908,41.3787356 84.0436782,41.0965517 84.0436782,40.3183908 L84.0436782,37.8034483 L84.6844828,37.8034483 L84.6844828,37.8034483 Z M89.6965517,38.4402299 C89.5866866,38.3946049 89.4683214,38.3730484 89.3494253,38.3770115 C89.0563218,38.3770115 88.7011494,38.4873563 88.408046,38.7465517 L88.408046,41.3005747 L87.7678161,41.3005747 L87.7678161,37.8034483 L88.3310345,37.8034483 L88.408046,38.1655172 C88.7166667,37.8425287 89.0247126,37.7247126 89.3258621,37.7247126 C89.487931,37.7247126 89.595977,37.7637931 89.6965517,37.8344828 L89.6965517,38.4402299 L89.6965517,38.4402299 Z M92.2718391,39.1 L92.2718391,38.9896552 C92.2718391,38.5735632 92.0402299,38.2988506 91.5155172,38.2988506 C90.9988506,38.2988506 90.6827586,38.683908 90.6287356,39.1 L92.2718391,39.1 L92.2718391,39.1 Z M92.8270115,41.0333333 C92.5494253,41.2689655 92.1252874,41.3793103 91.6931034,41.3793103 C90.6362069,41.3793103 89.9189655,40.6563218 89.9189655,39.5718391 C89.9189655,38.4005747 90.6752874,37.7247126 91.5775862,37.7247126 C92.3873563,37.7247126 92.9350575,38.2275862 92.9350575,39.0844828 C92.9350575,39.233908 92.9270115,39.4925287 92.9114943,39.65 L90.5747126,39.65 C90.5902299,40.3264368 91.0758621,40.7505747 91.7936782,40.7505747 C92.2482759,40.7505747 92.633908,40.562069 92.8270115,40.3655172 L92.8270115,41.0333333 L92.8270115,41.0333333 Z M93.5356322,40.4436782 C93.7287356,40.6482759 94.0988506,40.7741379 94.4770115,40.7741379 C94.9316092,40.7741379 95.0862069,40.6091954 95.0862069,40.333908 C95.0862069,39.7367816 93.4971264,39.8701149 93.4971264,38.7856322 C93.4971264,38.1494253 94.0212644,37.7247126 94.7471264,37.7247126 C95.1172414,37.7247126 95.4252874,37.7954023 95.633908,37.9373563 L95.633908,38.6362069 C95.4873563,38.4712644 95.1247126,38.3298851 94.762069,38.3298851 C94.3304598,38.3298851 94.1758621,38.4873563 94.1758621,38.754023 C94.1758621,39.2810345 95.7649425,39.1793103 95.7649425,40.3022989 C95.7649425,40.9074713 95.3097701,41.3793103 94.4844828,41.3793103 C94.0603448,41.3793103 93.6902299,41.2770115 93.4896552,41.1201149 L93.5356322,40.4436782 L93.5356322,40.4436782 Z"/></g></svg>
