<svg xmlns="http://www.w3.org/2000/svg" width="173" height="72" viewBox="0 0 173 72" fill="none"><path fill="#fff" d="M10.04 63.787v7.52H8.763v-7.52H5.96v-1.19h6.886v1.19h-2.806ZM17.969 71.308v-4.349c0-.547-.296-.807-.994-.807-.724 0-1.489.315-1.892.63v4.526H13.97v-9.6l1.114-.273v4.348c.712-.506 1.383-.697 2.215-.697 1.046 0 1.785.492 1.785 1.846v4.376h-1.114ZM24.355 67.479v-.192c0-.725-.402-1.203-1.315-1.203-.9 0-1.45.67-1.543 1.395h2.858Zm.966 3.364c-.483.41-1.221.602-1.973.602-1.838 0-3.086-1.258-3.086-3.146 0-2.038 1.315-3.213 2.885-3.213 1.41 0 2.362.875 2.362 2.365 0 .26-.013.711-.04.985h-4.067c.027 1.176.873 1.915 2.121 1.915.792 0 1.463-.329 1.799-.67v1.162ZM29.976 71.308v-8.711h1.275v7.522h3.986v1.189h-5.261ZM39.825 67.479v-.192c0-.725-.402-1.203-1.315-1.203-.899 0-1.45.67-1.543 1.395h2.858Zm.967 3.364c-.483.41-1.222.602-1.973.602-1.84 0-3.087-1.258-3.087-3.146 0-2.038 1.315-3.213 2.886-3.213 1.409 0 2.361.875 2.361 2.365 0 .26-.013.711-.04.985h-4.066c.027 1.176.872 1.915 2.12 1.915.792 0 1.463-.329 1.799-.67v1.162ZM45.26 68.641c-1.437.219-1.96.533-1.96 1.149 0 .478.268.697.94.697.375 0 .818-.123 1.02-.3V68.64Zm-1.504 2.803c-.886 0-1.624-.505-1.624-1.476 0-1.231 1.006-1.929 3.127-2.216v-.875c0-.274-.067-.396-.228-.506-.201-.136-.51-.205-.913-.205-.724 0-1.422.3-1.744.684v-1.121c.402-.425 1.14-.643 1.892-.643 1.356 0 2.107.643 2.107 1.914 0 .205-.067 2.968-.067 3.268.161.11.376.165.577.165.054 0 .094 0 .134-.014l-.107.984a1.186 1.186 0 0 1-.309.041c-.456 0-.859-.136-1.154-.492a2.985 2.985 0 0 1-1.691.493ZM51.968 66.44c-.228-.151-.765-.274-1.208-.274-1.14 0-2.013.67-2.013 2.215 0 1.34.765 1.983 2.013 1.983.47 0 .926-.096 1.208-.22V66.44Zm1.114 4.376c-.671.396-1.517.629-2.456.629-1.893 0-3.06-1.108-3.06-3.064 0-1.996 1.382-3.295 3.1-3.295.55 0 .993.11 1.302.26v-3.638l1.114-.273v9.38ZM58.327 67.479v-.192c0-.725-.403-1.203-1.315-1.203-.9 0-1.45.67-1.544 1.395h2.859Zm.966 3.364c-.483.41-1.221.602-1.973.602-1.838 0-3.086-1.258-3.086-3.146 0-2.038 1.315-3.213 2.885-3.213 1.41 0 2.362.875 2.362 2.365 0 .26-.013.711-.04.985h-4.067c.027 1.176.873 1.915 2.12 1.915.793 0 1.464-.329 1.8-.67v1.162ZM64.218 66.33a1.449 1.449 0 0 0-.605-.11c-.51 0-1.127.192-1.637.644v4.444h-1.114v-6.086h.98l.134.63c.537-.562 1.074-.766 1.597-.766.282 0 .47.068.645.191v1.053ZM68.254 71.308v-6.086h1.114v6.086h-1.114Zm.55-7.48c-.482 0-.764-.342-.764-.793 0-.465.282-.807.778-.807.483 0 .765.342.765.807 0 .45-.282.793-.778.793ZM74.857 71.308v-4.349c0-.547-.295-.807-.993-.807-.604 0-1.37.315-1.772.63v4.526h-1.114v-6.086h.98l.121.56a3.446 3.446 0 0 1 2.107-.696c1.047 0 1.785.492 1.785 1.846v4.376h-1.114ZM81.873 66.932h1.087c1.1 0 1.785-.574 1.785-1.655 0-1.04-.617-1.572-1.919-1.572h-.953v3.227Zm1.087 1.107h-1.087v3.269h-1.275v-8.711h2.403c2.093 0 3.087 1.067 3.087 2.666 0 1.546-1.155 2.776-3.128 2.776ZM91.507 68.244c0-1.298-.805-2.078-1.892-2.078-1.1 0-1.932.834-1.932 2.12 0 1.299.805 2.078 1.891 2.078 1.101 0 1.933-.834 1.933-2.12Zm-1.933 3.2c-1.771 0-3.073-1.285-3.073-3.158 0-1.847 1.396-3.2 3.114-3.2 1.772 0 3.073 1.285 3.073 3.158 0 1.847-1.395 3.2-3.114 3.2ZM93.934 71.308v-9.6l1.115-.273v9.873h-1.115ZM99.49 68.641c-1.436.219-1.96.533-1.96 1.149 0 .478.27.697.94.697.376 0 .819-.123 1.02-.3V68.64Zm-1.503 2.803c-.886 0-1.624-.505-1.624-1.476 0-1.231 1.006-1.929 3.127-2.216v-.875c0-.274-.067-.396-.228-.506-.201-.136-.51-.205-.913-.205-.725 0-1.422.3-1.745.684v-1.121c.403-.425 1.141-.643 1.893-.643 1.355 0 2.107.643 2.107 1.914 0 .205-.067 2.968-.067 3.268.161.11.376.165.577.165.054 0 .094 0 .134-.014l-.107.984a1.185 1.185 0 0 1-.309.041c-.456 0-.859-.136-1.154-.492a2.984 2.984 0 0 1-1.691.493ZM105.648 66.33a1.444 1.444 0 0 0-.603-.11c-.51 0-1.128.192-1.638.644v4.444h-1.114v-6.086h.98l.134.63c.537-.562 1.074-.766 1.597-.766.282 0 .47.068.644.191v1.053ZM111.377 67.602h2.576l-1.06-2.872-.201-.779-.215.78-1.1 2.871Zm2.992 1.148h-3.435l-.98 2.558h-1.288l3.395-8.711h1.342l3.275 8.71h-1.369l-.94-2.557ZM121.508 66.44c-.229-.151-.766-.274-1.209-.274-1.14 0-2.013.67-2.013 2.215 0 1.34.766 1.983 2.013 1.983.47 0 .926-.096 1.209-.22V66.44Zm1.113 4.376c-.671.396-1.516.629-2.456.629-1.892 0-3.06-1.108-3.06-3.064 0-1.996 1.382-3.295 3.101-3.295.55 0 .992.11 1.302.26v-3.638l1.113-.273v9.38ZM126.874 71.308h-.993l-2.282-6.018 1.181-.136 1.477 4.075.187.63.215-.63 1.624-4.007h1.195l-2.604 6.086ZM133.81 67.479v-.192c0-.725-.402-1.203-1.315-1.203-.899 0-1.449.67-1.544 1.395h2.859Zm.967 3.364c-.483.41-1.222.602-1.973.602-1.839 0-3.087-1.258-3.087-3.146 0-2.038 1.316-3.213 2.886-3.213 1.408 0 2.362.875 2.362 2.365 0 .26-.013.711-.04.985h-4.067c.027 1.176.872 1.915 2.12 1.915.792 0 1.464-.329 1.799-.67v1.162ZM140.224 71.308v-4.349c0-.547-.295-.807-.993-.807-.604 0-1.369.315-1.772.63v4.526h-1.114v-6.086h.98l.121.56a3.446 3.446 0 0 1 2.107-.696c1.047 0 1.785.492 1.785 1.846v4.376h-1.114ZM146.207 70.843c-.348.424-.885.602-1.395.602-.886 0-1.53-.48-1.53-1.477V66.22h-1.007v-.999h1.007v-1.34l1.114-.273v1.613h1.57v.999h-1.57v3.582c0 .41.242.574.711.574.47 0 .872-.232 1.1-.518v.984ZM148.408 65.222v4.35c0 .546.295.805.994.805.509 0 1.274-.314 1.677-.629v-4.526h1.114v6.086h-.98l-.121-.575c-.657.493-1.395.712-2.013.712-1.047 0-1.785-.493-1.785-1.846v-4.377h1.114ZM157.13 66.33a1.449 1.449 0 0 0-.604-.11c-.51 0-1.127.192-1.638.644v4.444h-1.114v-6.086h.98l.134.63c.538-.562 1.074-.766 1.598-.766.281 0 .469.068.644.191v1.053ZM161.611 67.479v-.192c0-.725-.403-1.203-1.315-1.203-.9 0-1.45.67-1.544 1.395h2.859Zm.966 3.364c-.483.41-1.221.602-1.973.602-1.838 0-3.087-1.258-3.087-3.146 0-2.038 1.316-3.213 2.886-3.213 1.409 0 2.362.875 2.362 2.365 0 .26-.014.711-.041.985h-4.066c.027 1.176.872 1.915 2.121 1.915.791 0 1.462-.329 1.798-.67v1.162ZM163.81 69.817c.336.356.98.574 1.638.574.792 0 1.06-.287 1.06-.765 0-1.04-2.765-.807-2.765-2.695 0-1.107.912-1.845 2.175-1.845.644 0 1.18.123 1.543.369v1.217c-.255-.287-.886-.534-1.517-.534-.751 0-1.02.274-1.02.739 0 .916 2.765.739 2.765 2.694 0 1.053-.792 1.874-2.228 1.874-.738 0-1.382-.178-1.731-.452l.08-1.176Z"/><path fill="#FDB52B" d="m16.37 37.614-.003-.001-.226-.15.007-.013c-6.653-4.58-8.512-13.759-4.12-20.65 4.443-6.97 13.589-8.951 20.428-4.424 6.842 4.525 8.785 13.845 4.342 20.812a14.838 14.838 0 0 1-4.295 4.389l7.81 5.166C45.035 38.348 48 32.025 48 24.995 48 11.723 37.438.964 24.413.964S.827 11.723.827 24.994c0 13.273 10.561 24.032 23.586 24.032a23.15 23.15 0 0 0 7.379-1.206l-15.42-10.204-.002-.002Z"/><path fill="#fff" d="M131.724 27.446c0 .683-.542 1.236-1.213 1.236a1.224 1.224 0 0 1-1.212-1.236c0-.682.543-1.235 1.212-1.235.671 0 1.213.553 1.213 1.235ZM56.34 42.71V26.22h9.856v2.252h-7.443v4.79h6.681v2.25h-6.681v4.945h7.723v2.252H56.339ZM75.67 42.71l-2.998-4.323-3.023 4.323h-2.464l4.319-5.875-4.026-5.644h2.642l2.806 4.064 2.77-4.064h2.413l-4.014 5.617 4.243 5.902H75.67ZM81.385 40.407c.507.31 1.372.517 2.286.517 2.185 0 3.81-1.269 3.81-4.194 0-2.588-1.523-3.753-3.81-3.753-.813 0-1.727.155-2.286.388v7.042Zm2.312 2.562c-.814 0-1.575-.13-2.312-.389v6.342l-2.11.512V31.967c1.271-.672 2.872-1.035 4.65-1.035 3.582 0 5.792 2.071 5.792 5.798 0 3.779-2.514 6.24-6.02 6.24ZM98.76 35.462V35.1c0-1.373-.762-2.278-2.49-2.278-1.703 0-2.743 1.268-2.921 2.64h5.41Zm1.829 6.368c-.915.776-2.312 1.14-3.734 1.14-3.481 0-5.844-2.382-5.844-5.954 0-3.858 2.49-6.084 5.462-6.084 2.667 0 4.471 1.656 4.471 4.478 0 .492-.025 1.347-.075 1.864h-7.698c.05 2.226 1.65 3.624 4.014 3.624 1.499 0 2.768-.621 3.404-1.268v2.2ZM110.662 33.494c-.433-.284-1.449-.517-2.287-.517-2.159 0-3.811 1.268-3.811 4.194 0 2.536 1.448 3.753 3.811 3.753.889 0 1.753-.181 2.287-.415v-7.015Zm2.108 8.284c-1.27.75-2.87 1.191-4.649 1.191-3.581 0-5.792-2.098-5.792-5.798 0-3.78 2.617-6.239 5.869-6.239 1.04 0 1.879.207 2.464.492v-6.925l2.108-.506v17.785ZM115.816 42.71V31.19h2.109v11.52h-2.109ZM127.401 41.83c-.661.803-1.678 1.14-2.642 1.14-1.678 0-2.896-.907-2.896-2.797V33.08h-1.906v-1.89h1.906v-3.242l2.108-.503v3.745h2.972v1.89h-2.972v6.782c0 .777.457 1.087 1.345 1.087.89 0 1.652-.441 2.085-.984v1.864ZM129.458 42.71V31.19h2.107v11.52h-2.107ZM143.022 36.911c0-2.46-1.524-3.934-3.581-3.934-2.084 0-3.659 1.579-3.659 4.012 0 2.46 1.525 3.935 3.582 3.935 2.085 0 3.658-1.58 3.658-4.013Zm-3.658 6.058c-3.354 0-5.818-2.434-5.818-5.98 0-3.495 2.643-6.057 5.895-6.057 3.353 0 5.818 2.433 5.818 5.98 0 3.495-2.643 6.057-5.895 6.057ZM154.58 42.71v-8.231c0-1.035-.559-1.528-1.88-1.528-1.143 0-2.592.595-3.354 1.191v8.568h-2.108V31.19h1.854l.229 1.062a6.52 6.52 0 0 1 3.989-1.32c1.98 0 3.379.932 3.379 3.495v8.283h-2.109ZM159.099 39.888c.636.674 1.855 1.088 3.099 1.088 1.499 0 2.007-.544 2.007-1.45 0-1.967-5.233-1.528-5.233-5.1 0-2.096 1.728-3.494 4.116-3.494 1.22 0 2.235.233 2.923.699v2.304c-.483-.544-1.678-1.01-2.871-1.01-1.424 0-1.932.518-1.932 1.398 0 1.734 5.234 1.398 5.234 5.1 0 1.992-1.499 3.546-4.218 3.546-1.397 0-2.617-.336-3.277-.855l.152-2.226ZM59.163 7.586c1.842-2.892 5.635-3.712 8.472-1.836 2.837 1.878 3.643 5.742 1.8 8.632-1.842 2.892-5.634 3.713-8.471 1.835-2.837-1.877-3.643-5.741-1.801-8.631ZM71.26 15.59c2.496-3.917 1.404-9.154-2.44-11.697-3.845-2.544-8.985-1.432-11.482 2.485-2.468 3.873-1.423 9.031 2.316 11.606l.053.044 9.778 6.47 2.948-.692-6.783-4.488a8.264 8.264 0 0 0 5.61-3.728ZM76.419 7.725v8.232c0 1.035.559 1.527 1.88 1.527.965 0 2.414-.596 3.176-1.19V7.725h2.108v11.52H81.73l-.229-1.088c-1.244.932-2.642 1.346-3.81 1.346-1.983 0-3.38-.932-3.38-3.495V7.725h2.109ZM91.502 14.197c-2.718.413-3.709 1.009-3.709 2.174 0 .906.508 1.32 1.779 1.32.712 0 1.55-.233 1.93-.57v-2.924Zm-2.845 5.306c-1.677 0-3.075-.958-3.075-2.796 0-2.33 1.905-3.65 5.92-4.194v-1.656c0-.517-.127-.75-.432-.958-.38-.259-.965-.388-1.727-.388-1.372 0-2.693.57-3.303 1.295V8.683c.763-.802 2.16-1.216 3.582-1.216 2.566 0 3.99 1.216 3.99 3.623 0 .389-.128 5.617-.128 6.187.305.207.712.31 1.093.31.102 0 .176 0 .254-.025l-.204 1.863a2.262 2.262 0 0 1-.583.078c-.864 0-1.627-.259-2.186-.932-1.093.725-2.211.932-3.201.932ZM102.94 9.822c-.279-.13-.66-.207-1.143-.207-.966 0-2.134.363-3.1 1.217v8.412h-2.109V7.726h1.856l.253 1.19c1.016-1.061 2.033-1.45 3.024-1.45.534 0 .889.13 1.219.363v1.993ZM111.652 19.244l-4.47-5.358h-.585v5.358h-2.109V1.064l2.109-.509v11.881h.585l4.572-4.84 2.489.259-5.08 5.125 5.233 6.264h-2.744ZM170.35 29.093c-.348 0-.686.092-1.015.272-.329.182-.586.44-.771.779-.186.337-.279.69-.279 1.053s.092.71.274 1.043c.18.333.438.594.764.779.329.184.671.279 1.027.279.356 0 .698-.095 1.026-.28.327-.184.583-.445.762-.779a2.14 2.14 0 0 0-.004-2.095 1.918 1.918 0 0 0-.771-.78 2.105 2.105 0 0 0-1.013-.271Zm0-.418c.415 0 .821.109 1.216.325.395.219.703.527.923.933.221.403.332.826.332 1.264 0 .434-.109.85-.326 1.253-.218.399-.523.712-.913.932a2.465 2.465 0 0 1-1.232.333c-.428 0-.839-.11-1.231-.333a2.335 2.335 0 0 1-.917-.932 2.594 2.594 0 0 1-.327-1.253c0-.438.111-.86.332-1.264a2.31 2.31 0 0 1 .927-.933 2.507 2.507 0 0 1 1.216-.325Z"/><path fill="#fff" d="M169.669 31.043h.698c.15 0 .265-.017.349-.05a.372.372 0 0 0 .19-.147.402.402 0 0 0 .064-.224.368.368 0 0 0-.126-.293c-.082-.076-.215-.114-.397-.114h-.778v.828Zm-.323 1.396v-2.5h1.085c.221 0 .389.023.5.069a.546.546 0 0 1 .273.237.703.703 0 0 1 .101.377.632.632 0 0 1-.167.447c-.113.122-.287.198-.523.232a.764.764 0 0 1 .194.125c.096.089.187.198.27.331l.428.682h-.409l-.325-.52a4.264 4.264 0 0 0-.233-.344.714.714 0 0 0-.165-.17.454.454 0 0 0-.149-.065 1.005 1.005 0 0 0-.18-.011h-.377v1.11h-.323ZM118.082 27.446c0 .683-.542 1.236-1.21 1.236-.67 0-1.214-.553-1.214-1.236 0-.682.544-1.235 1.214-1.235.668 0 1.21.553 1.21 1.235Z"/></svg>