<svg xmlns="http://www.w3.org/2000/svg" width="21" height="15" viewBox="0 0 21 15"><path fill="#232933" fill-rule="evenodd" d="M14.38,9 C14.527,9.002 14.679,9.09 14.786,9.249 L18.866,16.249 L20.074,14.167 C20.153378,14.0326314 20.2951071,13.9472932 20.451,13.94 C20.619301,13.9355012 20.7768882,14.0223272 20.863,14.167 L25.895,22.824 C26.165,23.274 25.875,23.578 25.461,23.578 L6.441,23.578 C6.125,23.575 5.893,23.169 6.051,22.895 L13.997,9.25 C14.093,9.084 14.234,9 14.381,9.001 L14.38,9 Z M14.594,11.914 C14.4206388,11.9058206 14.2577234,11.9969756 14.174,12.149 L10.45,18.509 C10.3674716,18.6501199 10.3664989,18.8245484 10.4474481,18.96658 C10.5283974,19.1086117 10.6789705,19.1966684 10.8424481,19.1975872 C11.0059257,19.1984917 11.1574717,19.1121199 11.24,18.971 L14.964,12.603 C15.0471644,12.4654481 15.0515819,12.2942229 14.9756208,12.1525657 C14.8996597,12.0109085 14.7545928,11.9198415 14.594,11.913 L14.594,11.914 L14.594,11.914 Z" transform="translate(-5.8 -9)"/></svg>