<svg class="icon icon-mountains" width="33" height="32" fill="none" xmlns="http://www.w3.org/2000/svg"><circle cx="16.2" cy="16" r="16" fill="#ECEEF2"/><path fill-rule="evenodd" clip-rule="evenodd" d="M14.58 9c.147.002.299.09.406.249l4.08 7 1.208-2.082a.463.463 0 0 1 .377-.227.465.465 0 0 1 .412.227l5.032 8.657c.27.45-.02.754-.434.754H6.641c-.316-.003-.548-.409-.39-.683L14.197 9.25c.096-.166.237-.25.384-.249Zm.214 2.914a.455.455 0 0 0-.42.235l-3.724 6.36a.457.457 0 1 0 .79.462l3.724-6.368a.455.455 0 0 0-.37-.69v.001Z" fill="#232933"/></svg>
