<svg xmlns="http://www.w3.org/2000/svg" width="66" height="37" viewBox="0 0 66 37" fill="none"><path d="M64.966 23.841c.05-.097 0-.244.05-.341.048-.098.097-.244.145-.341h-.048c-.05-.049-.098-.147-.147-.195-.048-.098-.048-.195-.048-.342 0-.048 0-.097.048-.146.147-.146.098-.341-.048-.439 0 0-.05 0-.05-.048a1.735 1.735 0 0 1-.097-.488c0-.049.098-.098.147-.195v-.244c-.147 0-.293-.049-.293-.244 0-.146-.097-.243 0-.438.097-.147.049-.293-.146-.39a.105.105 0 0 1-.098-.098c-.049-.195-.243-.439.049-.634-.244-.048-.049-.146-.098-.195h-.097c-.195.049-.244-.048-.292-.195 0-.048-.05-.097-.05-.146 0-.049-.048-.098 0-.146 0-.098.05-.146.098-.195a.67.67 0 0 0-.146-.195.268.268 0 0 1-.244-.147c-.097-.195-.292-.34-.097-.536-.05-.097-.098-.195-.147-.292 0-.05-.048-.05-.097-.098-.146 0-.244-.049-.293-.146-.048-.098-.097-.195-.048-.293.048-.097 0-.195-.05-.292h-.194c-.098 0-.439-.341-.39-.488v-.049c0-.048.049-.146.097-.243-.146 0-.195-.05-.146-.195-.244.146-.292 0-.439-.098-.146-.146-.146-.292-.097-.439h-.147v-.146h-.048c-.147.049-.293.098-.39-.097-.05-.147-.293-.196-.147-.39 0 0 0-.05-.048-.05-.098-.048-.195-.243-.342-.097h-.097c-.146-.146-.439-.195-.293-.536h-.146c-.049-.146-.195-.146-.293-.098 0 0-.048 0-.097-.048-.098-.098-.195-.147-.293-.244-.048-.049-.048-.098-.048-.146 0-.244-.098-.293-.342-.244-.195.049-.487-.146-.536-.341 0-.05-.049-.098-.097-.147-.05-.048-.098-.097-.147-.097-.097 0-.195.097-.292.049-.098 0-.244-.098-.341-.147-.05-.048-.05-.097-.098-.146-.049-.049.049-.195-.097-.195-.098 0-.147-.049-.244 0-.195.049-.537-.049-.634-.244-.098-.146-.244-.195-.39-.097-.049 0-.098.048-.098.048l-.438-.146c-.05-.049-.05-.146-.098-.195-.097 0-.146-.049-.244-.049-.097.195-.244.098-.439.098s-.292-.146-.34-.244c-.098-.049-.196-.049-.245-.097-.048.048-.048.097-.097.146-.098.097-.536 0-.585-.098-.098-.097-.293-.146-.39-.048-.147.097-.536.097-.683-.05-.097-.097-.243-.097-.39 0-.146.098-.536.098-.682 0-.147-.145-.293-.097-.39 0-.05.05-.098.05-.147.098h-.243c-.098.05-.196 0-.293-.097 0-.049-.097-.049-.097-.049h-.196c-.048.195-.438.341-.633.244-.147-.098-.293-.049-.39.049-.05.048-.098.097-.098.097a.905.905 0 0 1-.341.098c-.049 0-.098 0-.146-.05-.098-.048-.293-.048-.342.05-.097.195-.244.195-.39.243a.311.311 0 0 1-.292 0c-.05-.097-.244-.39-.244-.487-.244-.488-.439-.975-.683-1.414l-.048-.146c-.195-.39-.342-.732-.537-1.122-.048-.146-.146-.292-.195-.487-.097-.195-.585-1.414-.634-1.463-.146-.292-.292-.634-.438-.926-.098-.195-.147-.341-.244-.536l-.049-.05c-.049-.097-.097-.194-.146-.34-.049-.05-.098-.196-.293-.196v-.048c0-.05-.048-.147-.048-.195-.05-.05-.05-.147-.05-.195a6.41 6.41 0 0 1 .83-.44.904.904 0 0 0 .34.098c.196 0 .391-.097.586-.243.049 0 .049-.05.098-.05.048 0 .097-.048.146-.048h.049l.39-.146c.146 0 .243 0 .34-.049l.586-.146a.37.37 0 0 1 .195-.098c.049 0 .049-.048.097-.097l-.097-.39c-.049 0-.098-.049-.195-.147a1.754 1.754 0 0 0-.683-.536c-.243-.097-.438-.244-.682-.39-.049-.049-.098-.049-.146-.097v-.05c0-.292-.195-.535-.488-.633-.244-.097-.488-.195-.78-.292a.311.311 0 0 0-.293 0c-.048.048-.097.048-.146.048-.097 0-.195-.049-.293-.097C43.514 0 43.417 0 43.32 0c-.195 0-.341.098-.488.146-.34.195-.536.537-.438.927 0 .097.048.195.097.243 0 .05.049.098.049.147v.097c-.049.244-.049.439.049.634h-.098a.808.808 0 0 0-.585.244l-.146.146a2.12 2.12 0 0 0-.293.341c-.097.147-.146.293-.048.44.097.145.243.243.39.243v.097c-.098.098-.147.293-.098.488.049.146.195.195.244.244 0 0 .049 0 .049.048 0 0 .048 0 .048.05.05.145.098.292.147.438v.146c0 .05-.05.147 0 .293.048.146.048.195 0 .195 0 0-.05.049-.195.097h-.098c-.975.44-1.901.927-2.73 1.512-.829.536-1.61 1.17-2.39 1.706h-.048c-1.219.927-2.486 1.853-3.705 2.78-.585.438-1.17.877-1.707 1.267-.097.049-.195.146-.292.195-.585.439-1.17.877-1.804 1.17a.577.577 0 0 1-.488.049 8.621 8.621 0 0 1-2.535-1.22c-.341-.243-.536-.487-.585-.828 0-.146-.049-.244-.098-.39 0-.049-.048-.098-.048-.098.39-.146.34-.438.292-.536-.049-.195-.195-.292-.39-.292h-.195v-.098c-.097-.439-.244-.829-.341-1.267-.195-.732-.439-1.512-.634-2.243a3.655 3.655 0 0 1-.195-.78l-.049-.098c.049 0 .098-.049.146-.097a.474.474 0 0 0 .05-.44v-.145c.34-.05.633-.195.926-.488.097-.097.243-.195.39-.341.097-.098.243-.146.34-.244.147-.098.293-.146.537-.146.098 0 .195 0 .293.048.097 0 .244.05.39.05.195 0 .39-.05.536-.147h.585c.146 0 .293-.049.341-.195a.538.538 0 0 0 0-.39c-.146-.244-.34-.439-.633-.488l-.098-.048c-.292-.098-.634-.147-.975-.195-.439 0-.878.048-1.268.048-.146 0-.292 0-.438.05-.244 0-.488.048-.683.048-.439.049-.926.097-1.365.097H22.5c-.438 0-.877 0-1.316-.048h-.244c-.195 0-.438-.05-.634-.05-.146 0-.292-.048-.438-.048-.244 0-.537-.049-.78-.049h-.147a.6.6 0 0 0-.487.244.685.685 0 0 0-.098.683c.098.243.244.438.488.536l.097.049c.293.097.537.195.732.341a.786.786 0 0 0 .341.195l.439.146c.292.098.585.195.877.342.098.048.147.048.244.097h.049c.098 0 .146 0 .244.049 0 .244.146.439.195.536.048.098.146.146.195.195l.243.244.05-.049.34 1.22c.342 1.12.634 2.242.976 3.314v.05c-.05.048-.05.048-.098.097-.049.097 0 .244.049.292.049.049.049.098.097.195.05.098.098.147.098.244.049.146.098.341.146.536.049.098.049.244.098.342v.048c-.39.293-.78.537-1.122.78-.146.098-.34.244-.487.342-.049-.049-.146-.146-.293-.146l-.292.146a.786.786 0 0 1-.195-.341c-.049-.147-.146-.244-.244-.244-.244 0-.341-.195-.488-.293a.105.105 0 0 1-.097-.097c.049-.147-.049-.244-.195-.244a.531.531 0 0 0-.244-.049c-.146-.097-.293-.146-.39-.292-.098-.147-.195-.244-.341-.244-.244.049-.439-.146-.585-.293-.147-.097-.244-.195-.39-.195-.195 0-.39-.048-.537-.243-.097-.147-.195-.196-.39-.147-.195.049-.487-.097-.634-.244-.097-.097-.243-.146-.34-.097a.64.64 0 0 1-.586-.146c-.146-.147-.244-.195-.439-.098-.146.049-.487-.049-.585-.146a.524.524 0 0 0-.292-.098c-.098 0-.195.05-.293.05-.097 0-.244 0-.341-.05-.146-.146-.341-.097-.488-.048-.146.048-.34.048-.487.048l-.049-.048c-.146-.147-.341-.147-.488 0-.097.097-.438.097-.585 0a.375.375 0 0 0-.487.048c-.049.05-.098.098-.146.098-.147 0-.342 0-.488-.049-.146-.049-.293 0-.439.098a.373.373 0 0 1-.243.097c-.098 0-.244-.049-.39-.049a.554.554 0 0 0-.39.147c-.098.146-.39.195-.537.146-.097-.049-.341 0-.439.098-.146.243-.341.243-.585.243-.097 0-.292.049-.341.146-.146.244-.341.196-.536.244a.582.582 0 0 0-.44.244c-.048.098-.292.293-.438.293-.244-.05-.39.048-.487.243-.098.195-.244.293-.44.244-.097 0-.34.146-.34.293-.05.146-.244.341-.39.341-.196 0-.39.098-.44.341-.048.195-.194.341-.39.341-.146 0-.292.196-.292.293 0 .195-.244.439-.439.488-.146.048-.244.146-.244.292a.475.475 0 0 1-.39.488c-.097.049-.243.195-.243.292a.53.53 0 0 1-.342.585c-.097.049-.195.195-.195.293.05.195-.097.439-.292.536-.146.049-.195.244-.195.39v.146a.71.71 0 0 1-.293.44c-.049 0-.049.048-.049.097-.048.097-.097.195 0 .292.05.098-.097.488-.243.537-.147.048-.195.243-.147.292.147.195.05.341 0 .488a.37.37 0 0 1-.097.195c-.146.097-.195.244-.098.39.05.049.05.097 0 .146 0 .049 0 .146-.048.195-.05.098-.098.146-.147.244a1.011 1.011 0 0 0-.097.292c.195.195.049.39.049.634 0 .049-.05.049-.05.098-.145.097-.145.243-.048.39.098.146.098.536 0 .634a.297.297 0 0 0 0 .39c.098.146.146.536.049.633-.098.098-.049.244 0 .342.195.146.097.39.146.585 0 .049 0 .049-.049.097-.097.146-.097.293.05.39.048.049.048.098.097.146.048.098.048.196.048.293.05.098.05.146-.048.244-.05.049 0 .244.048.292.244.098.195.342.244.537v.097c-.097.195-.049.293.098.39.048 0 .097.049.097.098.049.097.098.243.146.341 0 .049 0 .098-.048.146-.049.147 0 .293.097.342.195.048.195.195.244.34.098.147.146.293 0 .39.049.05.049.098.098.196 0 .049.048.049.097.049.195 0 .195.195.293.292.097.146.195.244 0 .39.146.098.243.147.34.195.05 0 .098.049.098.098.05.097.147.195.195.292.05.05.05.098.05.147-.05.146.048.243.194.292.244.049.293.293.439.39v.098c-.098.195.097.292.195.292.195.049.293.195.39.293.098.097.146.146.049.341.146.049.244.098.39.146.146.098.292.244.39.342v.048c0 .147.097.293.244.293.243-.049.34.146.487.244.049.048.049.097.049.146 0 .097.195.244.244.244.243-.098.341.146.536.244.049 0 .049.048.049.097a.367.367 0 0 0 .341.244c.146-.049.488.146.536.292a.672.672 0 0 1 .147.195c.097.098.146.05.243 0h.147c.292.05.341.39.633.488h.05c.194-.146.536-.049.682.146.097.195.244.195.439.098h.146c.097 0 .146.048.244.048.146.05.243.05.146.244h.439c.244 0 .487 0 .682.146.05.05.244.05.293.05.244-.098.439-.098.682.097.147.097.244.097.39 0a.512.512 0 0 1 .634 0c.146.097.244.146.39 0 .195-.195.44-.147.683-.05.146.05.341.05.439-.048.146-.146.39-.146.536-.097.195.097.341.048.487-.05a.373.373 0 0 1 .244-.097c.147 0 .244.05.39.05.293 0 .342-.245.342-.245.195-.048.34-.097.536-.097 0 0 .049 0 .049.049.097.048.292 0 .341-.098.098-.195.39-.292.585-.244.146.05.293-.048.39-.146.146-.244.39-.341.683-.244a.587.587 0 0 0 .243-.244c.098-.243.342-.292.585-.34a.41.41 0 0 0 .342-.196c.146-.292.341-.39.634-.292.048-.05.097-.098.146-.147.049-.048.049-.097.049-.097 0-.195.243-.439.438-.39.195 0 .342-.146.342-.293 0-.097.292-.438.39-.39.097 0 .195 0 .243-.097.05-.098.147-.146.147-.244.049-.244.195-.439.487-.439.05-.097.147-.195.147-.244-.05-.146.048-.243.146-.34.097-.098.146-.245.292-.196 0 0 .05-.049.098-.049.097-.195.146-.39.244-.536a.381.381 0 0 1 .195-.195c.195-.097.195-.195.244-.39 0-.146.097-.293.195-.439.048-.049.146-.049.195-.049 0 0 .048 0 .048-.048v-.244c.098 0 .147-.049.244-.049v-.049c0-.048.049-.146.049-.146.049 0 .146-.049.244-.049h.195c.048 0 .097 0 .097-.048.049 0 .146-.05.195-.05.049 0 .146 0 .195-.048h.244c.049 0 .098 0 .195-.049.049 0 .098 0 .146-.048h.098c.049 0 .097 0 .146-.05.098 0 .146 0 .244-.048h.244c.048 0 .146 0 .195-.049h1.316c1.073-.195 1.804-.78 2.243-1.804.341 0 .682 0 1.072-.048.39 0 .732 0 1.122-.05h1.072c.244 0 .537-.048.83-.243h.048s0 .049.049.049l.097.195.244-.049c.049 0 .049 0 .097-.049h.098c.39 0 .439-.243.487-.34.05-.147.05-.293.05-.44v-.097c0-.146-.147-.244-.196-.244-.049 0-.049-.049-.097-.049-.049 0-.098-.049-.147-.097l-.195-.098-.195.195c-.146-.292-.39-.39-.585-.439h-.097c-.098 0-.195-.048-.293-.048-1.218-.049-2.291-.05-3.315-.098v-.049c-.146-.292-.293-.536-.439-.828.146-.244.293-.44.39-.634h.146a.423.423 0 0 0 .342-.195c.097-.098.146-.293-.049-.488.293-.439.585-.829.829-1.17h.097c.098 0 .293 0 .39-.195.098-.146.05-.341 0-.488.05-.097.147-.194.195-.243.05-.049.05-.098.098-.146.341-.488.683-.976.975-1.414.293-.44.585-.878.878-1.268l.243-.341c.585-.83 1.22-1.707 1.804-2.584.342-.488.683-.927 1.024-1.414.439-.585.878-1.22 1.317-1.804.73-1.073 1.414-1.804 2.145-2.39.341-.292.682-.536 1.072-.584.195-.049.39-.098.537-.195.048 0 .097-.05.146-.05v.098c0 .147 0 .342.097.488.196.488.44.975.683 1.414l.098.195c.195.341.34.731.585 1.121.048.147.146.293.146.342-.244.195-.39.146-.683.195 0 .243-.243.536-.487.536-.146 0-.244.097-.342.195-.097.146-.146.244-.243.341-.098.147-.439.195-.537.244.098.195-.048.292-.146.439-.146.146-.244.244-.39.146-.049.098-.146.146-.146.244-.049.341-.244.536-.488.536-.048.098-.097.146-.146.195.098.146 0 .293-.097.439-.098.146-.244.244-.342.195-.048.097-.097.146-.146.195.098.146 0 .536-.195.634-.097.049-.244.097-.39.195.195.195.146.39 0 .536-.049.098-.098.195-.244.195l-.049.049c-.048.049-.097.146-.146.195a.37.37 0 0 1 .098.195c-.05.195-.098.39-.293.488-.146.097-.195.243-.146.39.049.097-.049.487-.195.536-.195.097-.244.244-.146.439 0 .048.048.048.048.097-.048.195-.097.39-.243.537-.05.048-.147.243-.098.292.146.146.098.293.049.439a.373.373 0 0 1-.098.244c-.146.146-.195.292-.048.438 0 .05.048.098.048.147v.243c-.048.098-.048.195-.097.293 0 .049-.049.049-.049.098v.194s.049.05.098.05c.097.097.097.535 0 .633-.098.098-.098.244-.05.39.05.098.147.244.147.341 0 .244-.097.44-.146.683.244.098.341.488.195.683-.049.097 0 .292.097.34.147.098.244.44.147.635-.05.146 0 .34.097.39.146.097.244.439.146.585-.048.097 0 .292.147.341.146.098.292.439.243.585a.331.331 0 0 0 .195.39c.147.049.293.39.293.536-.049.147.049.293.146.342.244.097.39.39.342.585.097.097.146.244.195.244.243.048.292.292.39.438v.098c-.05.146.097.292.243.341.098 0 .44.293.44.39-.05.195.097.293.145.39.293-.048.585.244.537.537.097.048.195.146.292.146a.947.947 0 0 1 .536.439c.05.097.147.243.196.243.195-.048.34.098.438.195.05.05.098.147.147.195.048.098.195.244.34.195.196-.048.489.147.586.342.049.097.195.244.341.195.147-.049.488.097.537.243.097.098.146.195.243.293.244-.098.244-.098.39-.049.098.05.244.098.342.195.146.147.243.195.438.147h.147c.243.048.487.536.585.536.097 0 .195 0 .195-.146 0-.05.536.097.634.146.195.049.34.049.487 0 .147-.049.342 0 .439.049.195.146.244.146.488.097.243-.097.487-.097.682.098a.236.236 0 0 0 .341 0c.147-.195.488-.195.634 0 .098.097.293.146.39.048.195-.195.44-.146.683-.048.146.048.244.048.39-.05.195-.194.39-.194.634-.097.146.05.292.05.39-.048.146-.098.243-.244.438-.244h.147v.049c-.049 0-.098.048-.147.048v.05h.44s.048-.05.048-.098c.049-.147.098-.293.293-.342.097 0 .146-.048.243-.048h.147c.146.097.292.048.34-.05.099-.194.342-.194.489-.292.048-.049.146 0 .195 0 .146.098.292-.049.292-.097.049-.244.293-.244.488-.39h.097c.098.097.146 0 .244 0 .146 0 .146-.098.146-.195 0-.049.049-.049.049-.098.097-.097.244-.146.341-.195h.098c.195.049.292 0 .341-.195.049-.244.292-.292.439-.39h.097c.098.049.293-.049.293-.146 0-.244.244-.341.39-.488h.097c.195 0 .293-.097.293-.243 0-.098.292-.488.39-.488.195.049.244-.097.39-.146-.146-.195 0-.293.049-.39.146-.244.39-.195.585-.293v-.097c0-.098-.049-.195 0-.244.097-.146.195-.244.292-.39h.098c.146 0 .244-.146.244-.293-.05-.195.146-.536.34-.585.147-.049.245-.195.196-.341-.049-.098.146-.585.244-.585.195 0 .195-.146.292-.293-.195-.097-.097-.243-.049-.39.05-.244.342-.341.44-.585-.147-.097-.147-.243-.05-.439.05-.048.05-.146.098-.195.049-.048.049-.097.097-.097.147-.049.196-.244.098-.341-.049-.05-.049-.098-.049-.195 0-.098.05-.244.098-.342 0-.048.049-.097.097-.097.098-.049.195-.244.147-.341-.147-.195-.05-.39-.05-.537 0-.049.05-.097.098-.146.098-.049.147-.293.05-.341-.147-.098-.05-.244-.05-.342 0-.146-.048-.292.147-.34 0 0 .048-.05.048-.098v-.244c-.39.146-.438.049-.39-.098ZM19.77 30.472a9.32 9.32 0 0 1-6.63 2.73 9.384 9.384 0 0 1-9.41-9.41 9.44 9.44 0 0 1 2.584-6.484c.049-.049.049-.097.097-.097.098-.098.195-.195.293-.244l.244-.244.731-.585c.097-.098.195-.146.292-.195h.05c.048-.049.097-.098.194-.098 0-.048.049-.097.098-.097s.097-.049.146-.049c.244-.146.488-.244.731-.39a.37.37 0 0 1 .195-.097h.05c.097-.05.145-.05.243-.098.049-.049.146-.097.341-.146h.098c.292-.098.633-.195.926-.244.049 0 .049 0 .098-.049.048 0 .048-.048.097-.048.585-.098 1.17-.196 1.804-.196 2.243 0 4.242.78 5.85 2.048.098.049.147.098.147.098-.049 0-1.219 1.072-1.56 1.316l-.83.585c-.438.293-2.29 1.658-2.34 1.658l-.34.244c-.342-.098-.683-.195-1.073-.195-1.902 0-3.413 1.56-3.413 3.413a3.405 3.405 0 0 0 3.12 3.412h.293l-1.658 2.097c-.049 0-.146 0-.244.049-.097.048-.195.195-.243.34 0 .196.146.342.243.39.05.05.098.05.147.099v.048l.048.049c0 .049.05.049.05.098l.097.097v.049l.048.049c.098.048.147.146.244.195.293.195.634.243.975.146 0 0 7.021-.488 7.167-.488.098.098.049.146 0 .244Zm2.438-4.193a9.295 9.295 0 0 1-1.414 2.974c-.146 0-7.216.683-7.264.683h-.05v-.244c0-.195.732-2.39.78-2.438.05-.146.098-.244.147-.39 0-.049.049-.097.049-.195a3.232 3.232 0 0 0 1.609-1.511c.049 0 .585.097.585.097l1.121.146c.195 0 .342.05.537.05.536.048 1.12.145 1.657.194.585.098 2.292.293 2.292.341-.049.195-.049.195-.049.293Zm-5.704-3.023h-.05c-.097-.926-.535-1.804-1.267-2.34.147-.098 3.12-2.145 3.803-2.633.293-.195.585-.439.878-.634.097-.097.244-.146.244-.195 1.365 1.56 2.291 3.657 2.389 5.9 0 .195 0 .146.048.244-1.95-.098-4.095-.195-6.045-.342Zm9.75-.487c-.097-.05-.146-.195-.194-.293-.05-.195-.098-.39 0-.585a.257.257 0 0 0-.098-.341c-.097-.049-.195-.537-.146-.634.146-.146 0-.293-.049-.39a.98.98 0 0 1-.195-.634c.049-.195 0-.292-.146-.439-.098-.048-.195-.487-.195-.585.049-.195.049-.243-.146-.341-.147-.098-.195-.195-.244-.341 0-.098 0-.244-.049-.342h.049c-.049-.048-.098-.048-.098-.097a.21.21 0 0 0-.195-.195c-.097 0-.243-.341-.243-.488a.512.512 0 0 0-.244-.439l-.147-.146a.37.37 0 0 1-.097-.195c-.049-.049-.049-.097-.049-.195a.367.367 0 0 0-.244-.341.105.105 0 0 1-.097-.098c-.146-.146-.293-.34-.293-.536 0-.049 0-.097.05-.097a8.49 8.49 0 0 1 .877-.537c.049-.049.097 0 .195 0 .049 0 .097 0 .097.049.585.146.585.146.732.731l.146.585c.097.342 1.17 5.461 1.414 6.729v.146c-.146.097-.293.097-.39.049ZM36.738 12.09a57.31 57.31 0 0 0-1.658 2.536c-.39.633-.828 1.218-1.218 1.852l-.05.098c-.39.585-.828 1.267-1.267 1.95 0 0 0 .049-.049.049h-.097a.41.41 0 0 0-.341.195.375.375 0 0 0 .048.487l-.048.05c-.244.39-.488.78-.78 1.17a.443.443 0 0 0-.39.194c-.098.146-.05.341.048.488-.195.292-.39.585-.536.877a26.304 26.304 0 0 0-.975 1.512c-.146 0-.293-.049-.439-.098-.39-1.267-.78-2.584-1.219-4.193-.195-.585-.341-1.219-.536-1.852l-.146-.537c-.05-.146-.05-.146.097-.195.146-.049.244-.097.39-.146.293-.098.634-.195.926-.293.098-.048 2.438-.78 2.584-.877.244-.146.488-.341.732-.488.487-.292.926-.585 1.414-.926.439-.341.926-.683 1.365-.975.292-.244.585-.439.877-.683.44-.341.927-.633 1.366-.926l.146-.098c.049-.048.682-.438.682-.438.05-.05.098-.05.147-.098-.39.39-.732.878-1.073 1.365ZM51.802 33.35c-5.265 0-9.556-4.29-9.556-9.556a9.543 9.543 0 0 1 4.632-8.191c0 .048.098.146.098.195.195.39.438.78.633 1.17.195.341.39.682.537 1.072.048.05.195.39.195.39.097.147.146.293.244.39.243.488.487 1.024.78 1.512.048.049.048.146.097.244 0 .048.049.341.049.439-.683.585-1.17 1.51-1.17 2.486a3.288 3.288 0 0 0 3.315 3.315 3.319 3.319 0 0 0 3.316-3.315 3.288 3.288 0 0 0-3.316-3.315c-.195 0-.39 0-.585.048-.146-.292-.536-1.17-.536-1.17a4.917 4.917 0 0 0-.341-.731c-.488-1.073-.976-2.194-1.463-3.267v-.048c-.049-.098-.098-.244-.146-.293l.097-.049a9.534 9.534 0 0 1 3.12-.536c5.266 0 9.556 4.29 9.556 9.556 0 5.363-4.29 9.654-9.556 9.654Z" fill="#232933"/></svg>
