<svg xmlns="http://www.w3.org/2000/svg" width="64" height="64" viewBox="0 0 64 64" fill="none"><path fill="currentColor" d="M24.898 16.966a.612.612 0 1 1 0-1.225.612.612 0 0 1 0 1.225Z"/><path fill="#2A5F8C" d="M11.892 49.098a.616.616 0 0 1-.551-.348.618.618 0 0 1 .074-.648 13.401 13.401 0 0 0 2.926-8.34v-9.477c0-3.647 1.048-7.19 3.032-10.248l.058-.092.712-3.98A6.021 6.021 0 0 1 24.076 11c2.11 0 4.094 1.13 5.178 2.951l.155.262h1.313a6.667 6.667 0 0 1 6.218 4.21.611.611 0 0 1-.569.842h-6.273v.72l.094.138a21.123 21.123 0 0 1 3.73 12.039v.203c0 3.596-.97 7.15-2.806 10.271l-.368.625.706.168a5.185 5.185 0 0 1 3.998 5.059.612.612 0 0 1-.612.612H11.892v-.002Zm17.822-4.382a20.094 20.094 0 0 1-1.996 2.235l-.955.922h7.495l-.254-.713a3.989 3.989 0 0 0-3.751-2.652h-.379l-.16.208Zm-2.36-21.162c-.777 0-1.389.163-1.82.486-.686.515-.953 1.508-.793 2.958.023.211.048.384.087.61l.022.132.082.107c.563.736 1.6 2.263 2.222 4.188.91 2.812.566 5.448-.99 7.627a.615.615 0 0 1-.397.246l-.353.061-.079.348c-.525 2.299-1.463 4.567-2.783 6.746l-.493.813h2.642l.165-.12a19.09 19.09 0 0 0 7.837-15.39v-.204c0-2.616-.492-5.153-1.463-7.54l-.088-.217-.219-.084c-1.303-.495-2.573-.767-3.578-.767Zm-3.278-11.33a4.796 4.796 0 0 0-4.727 3.957l-.734 4.107a.577.577 0 0 1-.094.231 17.554 17.554 0 0 0-2.956 9.769v9.476c0 2.557-.681 5.082-1.966 7.307l-.465.802h7.424l.16-.23c1.81-2.635 2.966-5.281 3.528-8.09l.066-.33-.27-.203a10.116 10.116 0 0 1-1.518-1.415c-1.29-1.476-2.83-4.102-2.83-8.244a.612.612 0 0 1 1.225 0c0 5.168 2.53 7.74 4.035 8.818l.514.365.279-.566c2.08-4.229-1.26-8.734-1.95-9.595a.61.61 0 0 1-.125-.277 15.15 15.15 0 0 1-.148-.976c-.21-1.907.219-3.276 1.275-4.068.646-.485 1.512-.73 2.573-.73.564 0 1.184.07 1.847.209l1.211.252-.645-1.057a19.933 19.933 0 0 0-.792-1.199.617.617 0 0 1-.114-.355v-3.157a4.81 4.81 0 0 0-4.803-4.8Zm5.945 3.835c.054.323.08.648.08.968v1.013h5.447l-.858-.904a5.484 5.484 0 0 0-3.968-1.696h-.802l.101.62ZM42.802 49.636c-3.675 0-6.667-4.536-6.667-10.111 0-5.575 2.992-10.111 6.667-10.111s6.667 4.536 6.667 10.11c0 5.576-2.992 10.112-6.667 10.112Zm0-18.952c-2.977 0-5.397 3.967-5.397 8.84 0 4.875 2.42 8.842 5.397 8.842 2.977 0 5.397-3.967 5.397-8.841 0-4.874-2.42-8.841-5.397-8.841Z"/></svg>