<svg xmlns="http://www.w3.org/2000/svg" width="39" height="39" viewBox="0 0 39 39" fill="none"><path d="M13.8982 5.96615C13.5604 5.96615 13.2861 5.69184 13.2861 5.35404C13.2861 5.01625 13.5604 4.74194 13.8982 4.74194C14.236 4.74194 14.5103 5.01625 14.5103 5.35404C14.5103 5.69184 14.236 5.96615 13.8982 5.96615Z" fill="currentColor"/><path d="M0.892059 38.0976C0.658394 38.0976 0.442508 37.9604 0.340915 37.7496C0.239321 37.5388 0.269799 37.2848 0.41457 37.1019C2.30167 34.7424 3.34046 31.781 3.34046 28.7611V19.285C3.34046 15.6378 4.38942 12.0947 6.37303 9.03674L6.43144 8.94531L7.1426 4.96538C7.65819 2.08775 10.1523 0 13.0757 0C15.1863 0 17.1699 1.13023 18.2544 2.95129L18.4093 3.21289H19.7224C22.4756 3.21289 24.9164 4.86633 25.9399 7.42394C26.0161 7.61189 25.9933 7.82524 25.879 7.99541C25.7647 8.16304 25.5767 8.26463 25.371 8.26463H19.0976V8.98594L19.1916 9.12309C21.6324 12.6662 22.9226 16.829 22.9226 21.1619V21.3651C22.9226 24.9615 21.9524 28.5147 20.1161 31.6362L19.7478 32.261L20.4539 32.4286C22.8083 32.9899 24.4516 35.0701 24.4516 37.488C24.4516 37.8258 24.1773 38.1001 23.8395 38.1001H0.892059V38.0976ZM18.7141 33.7163C18.1071 34.5088 17.434 35.2606 16.7178 35.9514L15.7628 36.8734H23.2579L23.0039 36.1597C22.4426 34.5748 20.9339 33.5081 19.2525 33.5081H18.8741L18.7141 33.7163ZM16.3546 12.5544C15.5774 12.5544 14.9653 12.717 14.5335 13.0395C13.8478 13.5551 13.5811 14.5482 13.7411 15.9984C13.764 16.2092 13.7894 16.3819 13.8275 16.608L13.8503 16.7401L13.9316 16.8467C14.4954 17.5833 15.5317 19.1097 16.1539 21.0349C17.0632 23.8465 16.7203 26.4829 15.1634 28.6621C15.0694 28.7916 14.9297 28.8805 14.7672 28.9084L14.4142 28.9694L14.3354 29.3173C13.8097 31.6159 12.8725 33.884 11.5518 36.0631L11.059 36.8759H13.7005L13.8655 36.7565C18.7725 33.188 21.7035 27.4328 21.7035 21.3651V21.1619C21.7035 18.5459 21.2108 16.0086 20.2405 13.6211L20.1516 13.4053L19.9332 13.3214C18.6303 12.8262 17.3604 12.5544 16.3546 12.5544ZM13.0757 1.2242C10.7466 1.2242 8.75793 2.8878 8.34902 5.18127L7.61501 9.28818C7.59977 9.372 7.56929 9.45073 7.52103 9.51931C5.58568 12.4223 4.56466 15.8003 4.56466 19.2875V28.7637C4.56466 31.3213 3.88399 33.8459 2.59883 36.0708L2.13404 36.8734H9.55798L9.71799 36.6422C11.5289 34.0084 12.6845 31.3619 13.2458 28.5528L13.3119 28.2227L13.0426 28.0195C12.494 27.6055 11.9835 27.1305 11.5238 26.6048C10.2336 25.1291 8.69444 22.503 8.69444 18.3605C8.69444 18.0227 8.96874 17.7484 9.30654 17.7484C9.64434 17.7484 9.91864 18.0227 9.91864 18.3605C9.91864 23.5291 12.4483 26.1019 13.9544 27.1788L14.4675 27.5445L14.7469 26.9781C16.827 22.7493 13.4871 18.2437 12.7963 17.3826C12.7328 17.3039 12.6896 17.2074 12.6718 17.1058C12.6083 16.7502 12.5652 16.4785 12.5245 16.1305C12.3137 14.2231 12.7429 12.8541 13.7995 12.0617C14.4446 11.5766 15.3107 11.3328 16.3724 11.3328C16.9362 11.3328 17.5559 11.4013 18.2188 11.541L19.4303 11.7925L18.7852 10.7359C18.5338 10.3244 18.2671 9.9206 17.9928 9.53709C17.9191 9.43295 17.8785 9.3085 17.8785 9.18151V6.02449C17.876 3.37798 15.7222 1.2242 13.0757 1.2242ZM19.0214 5.05935C19.0748 5.38191 19.1002 5.70701 19.1002 6.02703V7.04043H24.5481L23.6896 6.13625C22.6661 5.05682 21.2209 4.43964 19.7224 4.43964H18.9198L19.0214 5.05935Z" fill="currentColor"/><path d="M31.8018 38.636C28.1267 38.636 25.1348 34.0998 25.1348 28.5249C25.1348 22.95 28.1267 18.4138 31.8018 18.4138C35.477 18.4138 38.4689 22.95 38.4689 28.5249C38.4689 34.0998 35.477 38.636 31.8018 38.636ZM31.8018 19.6837C28.8251 19.6837 26.4047 23.651 26.4047 28.5249C26.4047 33.3989 28.8251 37.3661 31.8018 37.3661C34.7785 37.3661 37.199 33.3989 37.199 28.5249C37.199 23.651 34.7785 19.6837 31.8018 19.6837Z" fill="currentColor"/></svg>