<svg xmlns="http://www.w3.org/2000/svg" width="52" height="34" viewBox="0 0 52 34" fill="none"><path d="M51.47 14.54a.979.979 0 0 0-.14-.37c-.28-.45-.48-.93-.62-1.44l-.05-.29-.45-2.46c-.19-1.02-1.49-1.89-2.41-2.37l-.3-.16.05.25-.21-.25c-1.04.07-2.04.48-2.83 1.16 0 0-2.47 1.97-.84 3.47 1.63 1.5 4.22-.75 4.22-.75-.19 2.25-3.09 4.12-4.96 1.97-1.87-2.15-.2-5.11.75-5.99.77-.79 1.47-1.65 2.08-2.58a4.85 4.85 0 0 0-3.86-2.87c-2.56-.38-5.33.69-8.34-.73C32.7.71 31.78.4 30.84.21c-2.67-.5-4.82.44-7.37 2.35-1 .93-2.85 1.22-4.2 1.43-1.48.37-2.99.61-4.51.71-1.89-.11-3.78-.03-5.65.22C3.81 5.99-.77 8.25.72 16.12c.12.63.27 1.29.47 1.99 1.29 4.58.56 6.99.14 9.49-.4 2.02-.27 4.11.37 6.06h4.69c-.09-.41-1.22-1.28-1.85-1.82-.15-.11-.29-.25-.4-.4-1.03-2.14.42-4.88 2.39-6.49l1.11 1.38 1.83 2.28c.67.83 1.21 1.76 1.62 2.74l-.05 2.54h4.79s0-.93-1.48-2.22l-2.77-5.83h-.03l-.31-.64-.36-.75c.8-.01 1.82.24 4.19 1.27.49.16.99.28 1.51.36l.03.45.62-.65.31.86.76-1.21h3.86c-.29.44-.48.95-.54 1.48-.07.4-.24.78-.49 1.1a9.785 9.785 0 0 0 3.3-1.89c.59-.46 1.16-.94 1.75-1.36v1.42l.52 3.55.06.41c.07.43.15.86.25 1.28.11.51.28 1.01.49 1.49-.14.46-.23.85-.23.85h1.21c.34.06.68.06 1.01 0h2.24s-1.13-1.93-1.87-1.94a1.554 1.554 0 0 1-.85-2.02c.04-.1.09-.2.16-.29.14-.25.24-.52.3-.8l.5-1.33.09-.23c.25.57.54 1.11.88 1.63l.41-.32c.15.66.36 1.3.63 1.91.43.77.75 1.39 1.03 1.88l.58 1.55h4.37a8.04 8.04 0 0 0-2.98-2.54c-.8-.56-1.08-1.61-.67-2.5.6-1.64-.84-3.86 1.55-5.41v2.46c1.31-.75.81-3.2 3.29-2.83L39 19.6l1.24 2.71.76 1.93 1.12-1.16.73.74.22-3.25c1.25.74 2.31 1.96 3.31 1.17.28-.23.53-.5.75-.79.3-.16.63-.28.96-.36.41-.12.81-.25.93-.31a5.136 5.136 0 0 0 2.51-5.78" fill="#1A1818"/></svg>
