<svg xmlns="http://www.w3.org/2000/svg" width="37" height="38" viewBox="0 0 37 38" fill="none">
<path d="M33.2653 29.496C32.452 28.6439 31.6516 27.9159 30.672 27.1372C30.5742 27.0592 30.4681 26.9904 30.3553 26.9324C29.3644 26.4227 28.4964 26.1405 27.2349 26.3145C27.0576 26.3387 26.8857 26.3903 26.7197 26.4405C26.6415 26.4639 26.5291 26.4973 26.4428 26.5167C25.3711 25.482 24.2175 24.3495 22.9168 23.0534C21.6065 21.7443 20.322 20.4432 19.0123 19.1151C20.1402 17.9715 21.5382 16.5538 22.9163 15.1775C22.9166 15.1772 22.9169 15.1767 22.9172 15.1766C24.2255 13.8732 25.379 12.7403 26.4429 11.7134C26.5291 11.7329 26.6413 11.7662 26.7194 11.7897C26.8857 11.8398 27.0572 11.8915 27.2346 11.9158C27.4832 11.9497 27.7177 11.9659 27.9412 11.9659C28.8762 11.9659 29.6249 11.6832 30.4617 11.2424L30.5822 11.1641C31.6199 10.3444 32.424 9.61581 33.2599 8.73971C33.8858 8.10991 34.7929 7.11771 35.5618 5.96811C36.4414 4.65291 36.4411 4.35551 36.0354 2.88731L35.9324 2.50941C35.7477 1.84811 34.618 0.992906 34.2199 0.779506C34.0955 0.712806 33.7148 0.510808 33.2969 0.645908C33.2403 0.663908 33.1752 0.684708 33.063 0.738708C32.18 1.16171 31.4744 1.61281 30.7601 2.21381C29.6671 3.17931 28.6086 4.22151 27.5241 5.39981L27.2703 5.67311C26.3051 6.70911 25.3065 7.78041 25.2466 9.63321C25.2393 9.86601 25.2781 10.0992 25.3126 10.3048C25.3268 10.3901 25.3455 10.5039 25.3538 10.5882C24.2919 11.6095 23.1323 12.7485 21.8119 14.0679C20.5907 15.2848 19.3142 16.5723 17.9127 18.0004C17.8829 17.9702 17.8531 17.94 17.8233 17.9098L17.5756 17.6586C16.1967 16.1987 14.8478 14.8591 13.543 13.5636L12.673 12.6984L11.0777 11.0864C11.0928 11.0147 11.1131 10.9319 11.1293 10.8666C11.1886 10.629 11.2499 10.3834 11.2424 10.1317C11.1883 8.34421 10.5286 6.74911 9.2817 5.39161C8.3587 4.38651 7.2537 3.21641 6.0581 2.16021C5.5512 1.71231 4.9929 1.41241 4.4531 1.12251C4.2359 1.00571 4.0185 0.889406 3.7979 0.757106C3.7345 0.718106 3.5859 0.627007 3.3819 0.603807C2.5955 0.509007 1.0512 1.86761 0.875003 2.49891L0.798602 2.78081C0.368602 4.34501 0.399002 4.57981 1.2121 5.93561C2.2791 7.71431 3.6402 9.01411 4.8307 10.0511C5.2272 10.3964 5.6374 10.7144 6.0341 11.022L6.1541 11.1149C7.1738 11.9065 8.3753 12.2182 9.8259 12.067C9.8426 12.0736 9.8569 12.0808 9.8569 12.0782L9.8996 12.1213C10.4305 12.6688 10.9885 13.2298 11.5654 13.8047C13.2807 15.538 14.9878 17.2649 16.7086 19.0088L16.8132 19.1148C15.0556 20.896 13.3119 22.6602 11.5606 24.4297C10.9893 24.999 10.4371 25.5547 9.9107 26.0973L9.9089 26.0992C9.9066 26.1015 9.9042 26.1039 9.902 26.1063L9.8697 26.1389C9.8587 26.1465 9.841 26.1557 9.8248 26.1627C8.3766 26.0129 7.1735 26.3235 6.154 27.1148L6.0299 27.2111C5.6346 27.5178 5.2258 27.8345 4.8306 28.1788C3.6397 29.2159 2.2786 30.5159 1.2039 32.3082C0.398903 33.6501 0.368503 33.8849 0.798503 35.4491L0.875202 35.7319C1.0455 36.3416 2.5014 37.6306 3.3054 37.6306C3.332 37.6306 3.3578 37.6291 3.3829 37.626C3.5871 37.6022 3.7347 37.5117 3.8071 37.4673C4.0181 37.3407 4.2353 37.2245 4.4524 37.1077C4.9923 36.8179 5.5508 36.5179 6.058 36.0697C7.2564 35.0109 8.3601 33.8421 9.2816 32.8383C10.5284 31.4808 11.1882 29.886 11.2423 28.0984C11.2498 27.8465 11.1885 27.601 11.1292 27.3634C11.113 27.2981 11.0927 27.2153 11.0776 27.1435L12.6732 25.5311L13.5396 24.6698C14.8453 23.3734 16.1953 22.0331 17.5756 20.5713L17.9102 20.2321L17.9129 20.2298C19.3183 21.6622 20.5946 22.9496 21.8116 24.162C23.1337 25.483 24.2938 26.622 25.3539 27.6417C25.3456 27.726 25.3269 27.8399 25.3127 27.9254C25.2782 28.1309 25.2393 28.3638 25.2467 28.5968C25.3066 30.4493 26.3049 31.5206 27.2704 32.5565L27.5242 32.8301C28.6078 34.0078 29.6662 35.0498 30.7746 36.0285C31.4738 36.6167 32.1798 37.068 33.0637 37.4918C33.178 37.5462 33.2429 37.567 33.3092 37.5878C33.4055 37.6193 33.5003 37.6318 33.5905 37.6318C33.8816 37.6318 34.1249 37.5012 34.2203 37.4502C34.6184 37.2368 35.7478 36.3816 35.9322 35.7206L36.0355 35.3427C36.4412 33.8745 36.4415 33.5767 35.5619 32.262C34.7957 31.1161 33.8911 30.1265 33.2653 29.496Z" fill="#232933"/>
</svg>
