<svg xmlns="http://www.w3.org/2000/svg" width="29" height="30" viewBox="0 0 29 30" fill="none"><path fill="currentColor" d="M25.873 23.164a19.184 19.184 0 0 0-2.017-1.835 1.495 1.495 0 0 0-.246-.16c-.77-.396-1.446-.615-2.427-.48a2.605 2.605 0 0 0-.4.098 3.55 3.55 0 0 1-.216.06c-.834-.805-1.731-1.686-2.743-2.694a571.815 571.815 0 0 1-3.037-3.063c.878-.89 1.965-1.993 3.037-3.063a243.08 243.08 0 0 1 2.743-2.694c.067.015.154.04.215.059.13.039.263.08.4.098.194.026.376.039.55.039.727 0 1.31-.22 1.96-.563l.094-.06A19.096 19.096 0 0 0 25.87 7.02a15.025 15.025 0 0 0 1.79-2.156c.684-1.023.684-1.254.369-2.396l-.08-.294c-.144-.514-1.023-1.18-1.332-1.346-.097-.051-.393-.208-.718-.103a1.22 1.22 0 0 0-.182.072 8.084 8.084 0 0 0-1.791 1.147 33.932 33.932 0 0 0-2.517 2.478l-.198.213c-.75.805-1.527 1.639-1.574 3.08-.005.18.025.362.052.522.01.066.025.155.032.22a202.57 202.57 0 0 0-2.755 2.707c-.95.946-1.943 1.948-3.033 3.059l-.07-.07-.192-.196a136.908 136.908 0 0 0-3.136-3.185l-.677-.673-1.24-1.254c.01-.056.027-.12.04-.171.045-.185.093-.376.087-.572-.042-1.39-.555-2.63-1.525-3.686-.718-.782-1.577-1.692-2.507-2.514-.394-.348-.829-.581-1.248-.807-.17-.09-.338-.181-.51-.284a.777.777 0 0 0-.324-.12C2.02.619.818 1.676.68 2.167l-.059.22C.287 3.601.311 3.783.943 4.838c.83 1.383 1.888 2.394 2.814 3.2.309.27.628.517.936.756l.094.072c.793.616 1.727.858 2.855.74l.025.01.033.033c.413.426.847.862 1.295 1.31 1.335 1.347 2.662 2.69 4 4.047l.082.082a3857.91 3857.91 0 0 1-4.085 4.134c-.445.443-.874.875-1.284 1.297l-.001.002a.343.343 0 0 0-.005.005l-.025.025a.23.23 0 0 1-.035.019c-1.127-.117-2.063.125-2.855.74l-.097.075c-.307.239-.625.485-.933.753-.926.807-1.985 1.818-2.82 3.212-.627 1.044-.65 1.226-.316 2.443l.06.22c.132.474 1.265 1.477 1.89 1.477.02 0 .04-.002.06-.004.16-.019.274-.089.33-.123.164-.099.333-.19.502-.28.42-.226.854-.459 1.249-.808.932-.823 1.79-1.732 2.507-2.513.97-1.056 1.483-2.296 1.525-3.687.006-.195-.042-.386-.088-.571a5.166 5.166 0 0 1-.04-.171l1.241-1.254.674-.67c1.015-1.009 2.066-2.05 3.139-3.188l.26-.264.002-.002a375.691 375.691 0 0 0 3.033 3.059 203.627 203.627 0 0 0 2.755 2.706 3.749 3.749 0 0 1-.032.221c-.027.16-.057.341-.052.522.047 1.441.823 2.274 1.574 3.08l.198.213a33.86 33.86 0 0 0 2.528 2.487 8.07 8.07 0 0 0 1.78 1.139c.09.042.14.058.191.074a.7.7 0 0 0 .22.034c.226 0 .415-.101.489-.14.31-.167 1.188-.832 1.331-1.346l.08-.294c.316-1.142.316-1.374-.368-2.396a15.017 15.017 0 0 0-1.786-2.151Z"/></svg>