<svg xmlns="http://www.w3.org/2000/svg" width="46" height="32" viewBox="0 0 46 32" fill="none"><path d="M11.2736 4.53101C10.9226 4.53101 10.6406 4.81601 10.6406 5.16401C10.6406 5.51501 10.9256 5.79701 11.2736 5.79701C11.6246 5.79701 11.9066 5.51201 11.9066 5.16401C11.9096 4.81601 11.6246 4.53101 11.2736 4.53101Z" fill="currentColor"/><path d="M20.9427 6.7449C20.1117 4.6629 18.1257 3.3189 15.8847 3.3189H14.9307L14.8497 3.1839C13.9647 1.6989 12.3447 0.774902 10.6227 0.774902C8.23772 0.774902 6.20072 2.4789 5.78372 4.8279L5.22572 7.9479L5.19572 7.9929C3.60873 10.4379 2.77172 13.2699 2.77172 16.1829V23.6799C2.77172 26.0349 1.96172 28.3449 0.488725 30.1869C0.338725 30.3759 0.308725 30.6399 0.413725 30.8589C0.518725 31.0779 0.743725 31.2189 0.986725 31.2189H19.1457C19.4967 31.2189 19.7787 30.9339 19.7787 30.5859C19.7787 28.6029 18.4317 26.8959 16.4997 26.4369L16.1397 26.3499L16.3287 26.0319C17.7957 23.5389 18.5697 20.7009 18.5697 17.8299V17.6709C18.5697 14.2119 17.5407 10.8879 15.5907 8.0619L15.5427 7.9929V7.6179H20.3547C20.5647 7.6179 20.7627 7.5129 20.8797 7.3389C20.9967 7.1619 21.0207 6.9429 20.9427 6.7449ZM18.3357 29.5869L18.4647 29.9529H13.1217L13.6107 29.4819C14.1837 28.9299 14.7207 28.3269 15.2067 27.6969L15.2877 27.5889H15.5127C16.7787 27.5889 17.9127 28.3929 18.3357 29.5869ZM15.9957 11.6079L16.1067 11.6499L16.1517 11.7609C16.9107 13.6329 17.2977 15.6219 17.2977 17.6709V17.8299C17.2977 22.5849 15.0027 27.0909 11.1597 29.8869L11.0697 29.9529H9.29373L9.54572 29.5359C10.5987 27.7989 11.3457 25.9899 11.7657 24.1539L11.8077 23.9769L11.9877 23.9469C12.1557 23.9169 12.2997 23.8269 12.3957 23.6919C13.6557 21.9279 13.9347 19.7949 13.1997 17.5239C12.7017 15.9789 11.8677 14.7549 11.4177 14.1639L11.3757 14.1099L11.3637 14.0439C11.3337 13.8669 11.3157 13.7349 11.2977 13.5699C11.1777 12.4809 11.3667 11.7399 11.8647 11.3649C12.1797 11.1309 12.6327 11.0109 13.2147 11.0109C13.9947 11.0109 14.9817 11.2239 15.9957 11.6079ZM15.7137 6.3609C15.3987 6.3699 15.0837 6.3759 14.7687 6.3789C14.6277 6.3819 14.4867 6.3819 14.3487 6.3849C14.3247 6.3849 14.3007 6.3849 14.2737 6.3849V8.1879C14.2737 8.3199 14.3157 8.4489 14.3907 8.5569C14.6037 8.8569 14.8137 9.1719 15.0117 9.4959L15.3417 10.0359L14.7207 9.9099C13.1697 9.5859 11.9247 9.7359 11.1057 10.3509C10.2237 11.0109 9.86372 12.1419 10.0377 13.7079C10.0677 13.9869 10.1037 14.2059 10.1547 14.4879C10.1727 14.5929 10.2177 14.6919 10.2837 14.7729C10.8207 15.4419 13.4157 18.9399 11.8107 22.2039L11.6697 22.4919L11.4087 22.3059C10.2387 21.4719 8.27672 19.4739 8.27672 15.4509C8.27672 15.0999 7.99172 14.8179 7.64372 14.8179C7.29272 14.8179 7.01072 15.1029 7.01072 15.4509C7.01072 18.7749 8.24672 20.8869 9.28472 22.0719C9.65672 22.4949 10.0677 22.8789 10.5087 23.2119L10.6467 23.3169L10.6137 23.4849C10.1727 25.6869 9.26672 27.7629 7.84472 29.8299L7.76372 29.9499H2.22572L2.46273 29.5389C3.49472 27.7569 4.03772 25.7319 4.03772 23.6829V16.1859C4.03772 13.4559 4.83872 10.8129 6.35372 8.5419C6.40172 8.4699 6.43472 8.3889 6.44973 8.3019L7.02872 5.0529C7.34072 3.3099 8.84972 2.0469 10.6197 2.0469C12.2427 2.0469 13.6197 3.1119 14.0907 4.5789H15.5937C15.6177 4.5789 15.6417 4.5849 15.6657 4.5879H15.8787C17.0217 4.5879 18.1287 5.0589 18.9087 5.8839L19.3467 6.3459H15.7767C15.7587 6.3549 15.7347 6.3609 15.7137 6.3609Z" fill="currentColor"/><path d="M34.7277 4.53101C34.3767 4.53101 34.0947 4.81601 34.0947 5.16401C34.0947 5.51501 34.3797 5.79701 34.7277 5.79701C35.0787 5.79701 35.3607 5.51201 35.3607 5.16401C35.3607 4.81601 35.0757 4.53101 34.7277 4.53101Z" fill="currentColor"/><path d="M45.5129 30.1898C44.0399 28.3508 43.2299 26.0408 43.2299 23.6828V16.1858C43.2299 13.2698 42.3929 10.4378 40.8059 7.99583L40.7759 7.95083L40.2179 4.83083C39.7979 2.48183 37.7639 0.777832 35.3789 0.777832C33.6569 0.777832 32.0369 1.70183 31.1519 3.18683L31.0709 3.32183H30.1169C27.8759 3.32183 25.8899 4.66583 25.0589 6.74783C24.9809 6.94283 25.0049 7.16483 25.1219 7.33883C25.2389 7.51283 25.4369 7.61783 25.6469 7.61783H30.4589V7.99283L30.4109 8.06183C28.4639 10.8908 27.4319 14.2118 27.4319 17.6708V17.8298C27.4319 20.7038 28.2059 23.5388 29.6729 26.0318L29.8619 26.3498L29.5019 26.4368C27.5699 26.8958 26.2229 28.6028 26.2229 30.5858C26.2229 30.9368 26.5079 31.2188 26.8559 31.2188H45.0149C45.2579 31.2188 45.4829 31.0778 45.5879 30.8588C45.6929 30.6428 45.6629 30.3788 45.5129 30.1898ZM27.5339 29.9528L27.6629 29.5868C28.0859 28.3928 29.2229 27.5888 30.4889 27.5888H30.7139L30.7949 27.6968C31.2809 28.3298 31.8179 28.9298 32.3909 29.4818L32.8799 29.9528H27.5339ZM34.9349 29.9528L34.8449 29.8868C31.0019 27.0908 28.7069 22.5848 28.7069 17.8298V17.6708C28.7069 15.6218 29.0909 13.6328 29.8529 11.7608L29.8979 11.6498L30.0089 11.6078C31.0229 11.2238 32.0099 11.0108 32.7869 11.0108C33.3689 11.0108 33.8219 11.1308 34.1369 11.3648C34.6349 11.7368 34.8239 12.4778 34.7039 13.5698C34.6859 13.7348 34.6679 13.8668 34.6379 14.0438L34.6259 14.1098L34.5839 14.1638C34.1339 14.7548 33.2999 15.9788 32.8019 17.5238C32.0669 19.7948 32.3459 21.9278 33.6059 23.6918C33.7019 23.8268 33.8489 23.9168 34.0139 23.9468L34.1939 23.9768L34.2359 24.1538C34.6559 25.9868 35.4029 27.7988 36.4559 29.5358L36.7079 29.9528H34.9349ZM38.2409 29.9528L38.1599 29.8328C36.7379 27.7658 35.8319 25.6898 35.3909 23.4878L35.3579 23.3198L35.4959 23.2148C35.9369 22.8818 36.3509 22.4978 36.7199 22.0748C37.7579 20.8898 38.9939 18.7778 38.9939 15.4538C38.9939 15.1028 38.7089 14.8208 38.3609 14.8208C38.0099 14.8208 37.7279 15.1058 37.7279 15.4538C37.7279 19.4738 35.7659 21.4748 34.5959 22.3088L34.3349 22.4948L34.1939 22.2068C32.5859 18.9428 35.1839 15.4448 35.7209 14.7758C35.7869 14.6948 35.8319 14.5958 35.8499 14.4908C35.9009 14.2088 35.9369 13.9898 35.9669 13.7108C36.1409 12.1448 35.7809 11.0138 34.8989 10.3538C34.0799 9.73883 32.8349 9.59183 31.2839 9.91283L30.6659 10.0418L30.9959 9.50183C31.1939 9.18083 31.4009 8.86583 31.6169 8.56283C31.6949 8.45483 31.7339 8.32583 31.7339 8.19383V6.40583C31.1249 6.36683 30.5129 6.36383 29.9039 6.36383C29.8709 6.36383 29.8409 6.35783 29.8109 6.34883H26.6549L27.0929 5.88683C27.8729 5.06183 28.9769 4.59083 30.1229 4.59083H30.5819V4.59683H31.9049C32.3729 3.12083 33.7559 2.04983 35.3819 2.04983C37.1519 2.04983 38.6639 3.31583 38.9729 5.05583L39.5519 8.30483C39.5669 8.39183 39.5999 8.47283 39.6479 8.54483C41.1629 10.8158 41.9639 13.4588 41.9639 16.1888V23.6858C41.9639 25.7348 42.5099 27.7598 43.5389 29.5418L43.7759 29.9528H38.2409Z" fill="currentColor"/></svg>