<svg xmlns="http://www.w3.org/2000/svg" width="17" height="16" viewBox="0 0 17 16" fill="none"><path d="M16.5 12.6363C16.5 12.8409 16.4622 13.1078 16.3864 13.4374C16.3106 13.767 16.231 14.0265 16.1478 14.2159C15.9887 14.5947 15.5266 14.9962 14.7614 15.4204C14.0493 15.8068 13.3448 16 12.6478 16C12.4432 16 12.2443 15.9867 12.0512 15.9603C11.858 15.9337 11.6403 15.8864 11.3978 15.8182C11.1554 15.75 10.9755 15.6951 10.858 15.6535C10.7406 15.6118 10.5304 15.5342 10.2274 15.4205C9.92436 15.3069 9.73873 15.2387 9.67056 15.216C8.92816 14.9508 8.26519 14.6364 7.68193 14.2728C6.71228 13.6743 5.7104 12.858 4.67623 11.8239C3.64209 10.7896 2.82578 9.78772 2.22724 8.81818C1.86361 8.23481 1.54924 7.57198 1.28404 6.82956C1.26127 6.76137 1.19308 6.57576 1.07946 6.27276C0.965845 5.96975 0.888167 5.75948 0.846539 5.64208C0.804911 5.52466 0.749999 5.34476 0.681808 5.10233C0.613617 4.85991 0.566294 4.64208 0.539731 4.44888C0.513281 4.25569 0.5 4.05679 0.5 3.85222C0.5 3.15523 0.693191 2.45066 1.07957 1.7386C1.5038 0.973432 1.90534 0.511376 2.28414 0.352233C2.47342 0.268974 2.73291 0.189399 3.06248 0.113617C3.39205 0.037837 3.65902 0 3.86359 0C3.96962 0 4.04919 0.011384 4.10221 0.0340399C4.23859 0.0794626 4.43938 0.36741 4.70443 0.897666C4.78781 1.04164 4.90142 1.24609 5.0454 1.51129C5.18938 1.77647 5.32197 2.01698 5.44317 2.23283C5.56438 2.44879 5.68179 2.65135 5.7954 2.84075C5.81817 2.87099 5.88446 2.96575 5.99428 3.12479C6.10411 3.28383 6.18558 3.4183 6.23859 3.52824C6.29161 3.63806 6.31817 3.7461 6.31817 3.85213C6.31817 4.00369 6.21025 4.1931 5.99428 4.42032C5.77832 4.64756 5.54351 4.85592 5.28971 5.04532C5.03592 5.23472 4.80109 5.43549 4.58515 5.64755C4.36919 5.8596 4.26126 6.03392 4.26126 6.17032C4.26126 6.23851 4.28023 6.32378 4.31807 6.42601C4.3559 6.52824 4.38816 6.60592 4.41461 6.65893C4.44117 6.71195 4.49419 6.80291 4.57365 6.9317C4.65323 7.06049 4.69675 7.13248 4.70434 7.14766C5.28011 8.18549 5.93916 9.07565 6.68156 9.81808C7.42396 10.5605 8.31416 11.2196 9.35198 11.7953C9.36716 11.8029 9.43904 11.8464 9.56794 11.926C9.69674 12.0056 9.78758 12.0586 9.84071 12.085C9.89372 12.1116 9.9714 12.1437 10.0736 12.1816C10.1759 12.2195 10.2611 12.2384 10.3293 12.2384C10.4657 12.2384 10.6399 12.1305 10.8521 11.9145C11.0643 11.6985 11.265 11.4637 11.4543 11.2099C11.6437 10.9561 11.8521 10.7213 12.0793 10.5054C12.3065 10.2894 12.4959 10.1815 12.6475 10.1815C12.7535 10.1815 12.8616 10.208 12.9714 10.2611C13.0812 10.3141 13.2157 10.3955 13.3749 10.5054C13.5339 10.6152 13.6287 10.6815 13.6589 10.7042C13.8483 10.8179 14.051 10.9353 14.2668 11.0565C14.4828 11.1777 14.7233 11.3103 14.9883 11.4542C15.2535 11.5982 15.458 11.7118 15.602 11.7952C16.1323 12.0604 16.4202 12.2612 16.4656 12.3974C16.4884 12.4504 16.4996 12.53 16.4996 12.6361L16.5 12.6363Z" fill="currentColor"/></svg>