<svg xmlns="http://www.w3.org/2000/svg" width="31" height="48" viewBox="0 0 31 48" fill="none">
<path d="M15.2711 6.02339C10.233 6.01486 6.17246 10.0028 6.14815 14.9833C6.12384 19.8772 10.2137 23.9438 15.1692 23.9523C20.1695 23.9605 24.2689 19.973 24.2851 15.0849C24.3017 10.0837 20.2709 6.03153 15.2711 6.02339ZM15.2057 48C13.4049 44.5188 11.681 41.1916 9.96231 37.8618C7.16705 32.445 4.3919 27.0184 1.57819 21.6116C-2.9905 12.8314 2.857 1.57561 12.7324 0.174102C21.5863 -1.08269 29.1884 4.58293 30.3104 13.3514C30.6697 16.1611 30.2269 18.9101 28.922 21.4562C24.4732 30.1345 19.994 38.7971 15.525 47.465C15.4562 47.598 15.372 47.7229 15.2057 48Z" fill="#232933"/>
</svg>
