<svg xmlns="http://www.w3.org/2000/svg" width="30" height="32" viewBox="0 0 30 32" fill="none"><path fill="currentColor" d="M29.128 31.425c-.916 0-1.384-.348-1.798-.654-.367-.272-.658-.487-1.293-.487-.639 0-.931.216-1.302.49-.413.305-.882.65-1.79.65-.909 0-1.38-.346-1.795-.652-.372-.273-.665-.488-1.296-.488-.63 0-.92.215-1.287.487-.414.306-.882.654-1.792.654-.909 0-1.38-.347-1.796-.653-.37-.273-.663-.488-1.294-.488-.63 0-.92.215-1.288.487-.414.306-.882.654-1.792.654s-1.378-.348-1.791-.654c-.368-.271-.658-.487-1.288-.487s-.924.215-1.296.488c-.415.306-.886.653-1.795.653-.91 0-1.378-.348-1.792-.654-.367-.272-.658-.487-1.288-.487a.423.423 0 1 1 0-.846c.91 0 1.378.348 1.792.654.367.272.658.487 1.288.487s.924-.215 1.295-.488c.415-.306.887-.652 1.796-.652.91 0 1.378.347 1.791.653.368.272.658.488 1.288.488s.92-.216 1.288-.488c.414-.306.882-.653 1.792-.653.909 0 1.38.346 1.795.652.371.273.664.488 1.295.488.63 0 .92-.215 1.288-.487.414-.306.882-.654 1.791-.654.91 0 1.38.347 1.796.654.372.272.665.487 1.295.487.63 0 .92-.214 1.288-.486.416-.307.887-.655 1.803-.655.916 0 1.384.348 1.798.654.367.272.658.487 1.294.487a.422.422 0 1 1 0 .846Z"/><path fill="currentColor" d="M29.128 29.52c-.915 0-1.384-.347-1.798-.654-.367-.272-.657-.487-1.293-.487-.639 0-.931.216-1.302.489-.413.306-.882.651-1.79.651s-1.38-.346-1.795-.652c-.372-.272-.664-.488-1.296-.488-.63 0-.92.215-1.287.487-.414.307-.883.653-1.792.653-.908 0-1.38-.346-1.796-.652-.37-.272-.663-.488-1.294-.488s-.92.215-1.288.487c-.414.307-.883.653-1.792.653s-1.378-.346-1.791-.653c-.368-.272-.657-.487-1.288-.487-.632 0-.924.216-1.296.488-.416.306-.887.652-1.795.652-.91 0-1.378-.346-1.792-.653-.367-.272-.657-.487-1.288-.487a.423.423 0 1 1 0-.845c.91 0 1.378.347 1.792.653.367.272.657.487 1.288.487s.924-.215 1.295-.488c.416-.305.888-.652 1.796-.652.909 0 1.378.347 1.791.653.368.272.658.487 1.288.487.631 0 .92-.215 1.288-.487.414-.306.883-.653 1.792-.653.908 0 1.38.347 1.795.652.371.273.663.488 1.295.488.63 0 .92-.215 1.288-.487.414-.306.882-.653 1.791-.653.909 0 1.38.347 1.796.652.372.273.664.488 1.295.488.63 0 .92-.215 1.288-.486.416-.307.887-.654 1.803-.654.915 0 1.384.347 1.798.653.367.272.657.487 1.294.487a.423.423 0 1 1 0 .845ZM24.257 6.468a2.475 2.475 0 1 0-1.759 3.026c.005 0 .01-.002.014-.003a2.475 2.475 0 0 0 1.745-3.023Z"/><path fill="currentColor" d="M19.08 7.791a2.68 2.68 0 0 0-.959-1.448L14.7 3.412 11.107.4A1.403 1.403 0 0 0 9.11.57c-.5.604-.424 1.498.171 2.008l3.593 3.011.9.764-2.862.742-2.646.707a2.806 2.806 0 0 0-1.334 4.676c.027.044.058.086.09.126l.07.057.068.068 4.357 3.65-2.487 5.326a1.426 1.426 0 0 0 2.578 1.21l2.954-6.32v-.102a1.14 1.14 0 0 0 0-.798.98.98 0 0 0-.069-.263 2.414 2.414 0 0 0-.136-.228 1.78 1.78 0 0 0-.183-.228v-.069l-2.532-2.132.753-.206 4.745-1.266a2.772 2.772 0 0 0 1.97-3.388l-.009-.033-.023-.092ZM15.886 24.09H.819v1.14h15.067v-1.14Z"/></svg>