<svg xmlns="http://www.w3.org/2000/svg" width="32" height="40" viewBox="0 0 32 40" fill="none">
<path d="M8.34768 6.48259C10.0681 6.48259 11.4572 5.08419 11.4572 3.36379C11.4576 1.64339 10.0686 0.244995 8.34768 0.244995C6.62678 0.244995 5.22888 1.64339 5.22888 3.36379C5.22928 5.08419 6.62728 6.48259 8.34768 6.48259Z" fill="#232933"/>
<path d="M20.1538 17.1735C21.1075 17.429 22.0968 16.8578 22.3523 15.9042C22.6079 14.9506 22.0366 13.9613 21.083 13.7057L16.0788 12.3648L13.4938 7.8877C13.4923 7.8851 13.4926 7.88211 13.4911 7.87941C13.1588 7.30381 12.5534 7.01071 11.9333 7.01011V6.98151H4.7532V7.01011C4.1331 7.01071 3.5277 7.30381 3.1954 7.87941C3.194 7.88191 3.1942 7.88481 3.1928 7.88721L0.235697 13.0091C0.218097 13.0395 0.219196 13.074 0.203596 13.105C0.145996 13.2185 0.115496 13.3396 0.0827961 13.4654C0.0548961 13.5747 0.0240958 13.6791 0.0172958 13.79C0.0145958 13.8303 -0.00610352 13.8645 -0.00610352 13.9056C-0.00610352 13.9085 -0.00440407 13.911 -0.00440407 13.9139V19.828C-0.00440407 20.8153 0.803397 21.623 1.7907 21.623C2.778 21.623 3.5857 20.8153 3.5857 19.828V14.3869L4.7531 12.3648V20.1465L3.9944 28.819C3.9938 28.8252 3.9897 28.8302 3.9892 28.8365C3.9889 28.8393 3.9903 28.8418 3.9901 28.8446L3.2237 37.6052C3.1377 38.5887 3.8719 39.4638 4.8555 39.5499C5.839 39.6359 6.7141 38.9017 6.8001 37.9182L7.5664 29.1598C7.5668 29.1565 7.5689 29.1539 7.5691 29.1506L8.0333 23.8449C8.2408 23.8627 8.4478 23.8676 8.6533 23.8496L9.1163 29.1411C9.1166 29.1445 9.1149 29.1475 9.1152 29.1509C9.1155 29.1538 9.1173 29.1561 9.1176 29.159L9.884 37.9194C9.97 38.9029 10.8452 39.6372 11.8287 39.5511C12.8122 39.465 13.5466 38.59 13.4605 37.6064L12.6934 28.839C12.6934 28.8385 12.6937 28.838 12.6937 28.838L11.9333 20.1474V12.3648L13.3412 14.8034L13.3418 14.8043C13.3445 14.809 13.3495 14.8114 13.3523 14.8162C13.4686 15.0134 13.6217 15.1882 13.8062 15.3296C13.9345 15.4273 14.0847 15.4815 14.2323 15.5413C14.3021 15.5699 14.3569 15.6203 14.4317 15.6403L20.1538 17.1735Z" fill="#232933"/>
<path d="M31.2178 12.5547L29.7016 13.371L17.7218 19.8198L15.5601 20.9836L16.2392 22.16L17.7218 21.3618V39.3467H29.7016V14.9129L31.8633 13.7491L31.2178 12.5547Z" fill="#232933"/>
</svg>
