<svg xmlns="http://www.w3.org/2000/svg" width="52" height="30" viewBox="0 0 52 30" fill="none">
<path d="M50.1907 7.77029L28.9352 26.9431C27.6035 28.1429 26.2747 28.712 24.978 28.627C23.0861 28.5067 21.8335 27.0194 21.8217 27.0047L1.72494 7.42139L0.842041 8.15759L20.8801 27.6765C21.0824 27.92 22.5638 29.5539 24.8813 29.7093C24.9986 29.7183 25.1158 29.7211 25.2362 29.7211C26.7763 29.7211 28.3046 29.0465 29.7829 27.7089L51.0413 8.53609L50.1907 7.77029Z" fill="#232933"/>
<path d="M38.0584 8.67178C40.1587 8.67178 41.8602 6.91768 41.8602 4.74988C41.8602 2.58208 40.1588 0.822083 38.0584 0.822083C35.958 0.822083 34.2509 2.58208 34.2509 4.74988C34.2509 6.91768 35.9581 8.67178 38.0584 8.67178Z" fill="#232933"/>
<path d="M22.8279 23.7954C23.1477 24.2206 23.5553 24.5873 24.0217 24.8602C24.1802 24.9658 24.3415 25.048 24.5056 25.0978C25.6115 25.5526 26.9316 25.4704 28.0698 24.4554C31.4608 21.431 34.8431 18.4067 38.2282 15.3823C38.4101 15.221 38.5655 15.0538 38.6975 14.8778C40.2288 12.8215 38.0463 10.4661 38.0463 10.4661C36.82 9.4101 34.9398 9.0698 33.3939 10.4455C32.3673 11.3636 31.3376 12.2817 30.3108 13.2029C30.0116 12.1645 29.7477 11.1113 29.5159 10.0525L30.3051 10.026L29.8269 9.7062L30.443 9.1138L26.2336 1.7099L24.8401 3.995L24.9251 4.1416L24.9076 4.1532L27.1077 8.0371C26.2952 8.3304 25.6235 9.14 25.8464 10.2547C26.2247 12.1556 26.7176 14.0271 27.3278 15.8605C26.5651 16.5439 25.7995 17.2275 25.0368 17.9109C24.3357 15.4528 23.6346 12.9916 22.9336 10.5305C22.7105 9.7474 22.0006 9.1401 21.1853 9.1576C18.4338 9.2281 15.6821 9.3044 12.9365 9.3776C12.8427 9.3806 12.7634 9.3982 12.6842 9.41C11.9743 8.7558 11.2615 8.0957 10.5516 7.4416C8.81492 5.837 6.23652 8.4741 7.98772 10.0875C12.9364 14.6548 17.882 19.225 22.8279 23.7954ZM19.8386 12.9387C20.2346 14.3322 20.6337 15.7226 21.0296 17.1189C19.5513 15.7548 18.0758 14.3878 16.5973 13.0239C17.6767 12.9945 18.7563 12.968 19.8386 12.9387Z" fill="#232933"/>
<path d="M40.2409 12.3316L41.5932 14.0243L48.777 7.55608L47.4277 5.86338C46.0226 4.19718 44.7582 4.88958 44.1276 5.45568L40.3053 8.90528C39.6747 9.47158 38.833 10.6595 40.2409 12.3316Z" fill="#232933"/>
</svg>
