<svg xmlns="http://www.w3.org/2000/svg" width="51" height="34" viewBox="0 0 51 34" fill="none">
<path d="M24.8638 5.93401C26.287 6.31541 27.7461 5.46651 28.1275 4.04331C28.5092 2.62021 27.67 1.15541 26.2465 0.774013C24.823 0.392613 23.3565 1.23951 22.9752 2.66271C22.5942 4.08601 23.4406 5.55271 24.8638 5.93401Z" fill="#232933"/>
<path d="M32.2691 17.0525C32.2537 17.2467 31.4163 17.5042 30.0949 17.6728L31.9187 15.9658L31.9394 15.9754C32.7057 16.3328 33.625 15.9981 33.9823 15.2319C34.1973 14.7708 34.1378 14.2674 33.9085 13.8512L34.0796 13.8525L36.6501 11.4466C36.8546 11.3689 37.0718 11.3168 37.3033 11.3062C39.0089 11.1403 40.6042 10.3876 42.0238 9.04429L43.3888 7.75259C44.0972 7.08219 44.1086 6.03759 43.437 5.32799L42.3362 4.16469C41.6632 3.45349 40.6193 3.40699 39.9109 4.07729L38.5458 5.36899C37.1261 6.71249 36.2882 8.26539 36.03 9.96069C36.0061 10.1894 35.9416 10.4014 35.853 10.5999L33.1374 13.1417L29.0154 11.2196L26.3432 7.40329C26.3374 7.39499 26.3275 7.39059 26.3215 7.38249C25.9306 6.89999 25.3957 6.52729 24.7499 6.35429L24.7248 6.3476L24.6997 6.34089C23.0733 5.90509 21.4016 6.87019 20.9658 8.49659L20.2901 11.0187L19.6143 13.5408L18.8252 16.4856L18.8321 16.4875C18.772 16.6937 18.7361 16.902 18.7203 17.1117C18.704 17.0919 18.6779 17.0715 18.6763 17.0528C9.19131 17.0666 0.622407 17.9983 0.622407 17.9983C0.608607 18.1463 2.13641 21.6776 6.48041 22.1781C11.1339 22.7142 15.6401 22.9478 22.6861 23.015L20.1156 25.4209C19.9111 25.4986 19.6939 25.5507 19.4624 25.5613C17.7568 25.7272 16.1615 26.4799 14.7419 27.8232L13.3769 29.1149C12.6685 29.7853 12.6571 30.8299 13.3287 31.5395L14.4295 32.7028C15.1025 33.414 16.1464 33.4605 16.8548 32.7902L18.2199 31.4985C19.6396 30.155 20.4775 28.6021 20.7357 26.9068C20.7596 26.6781 20.8241 26.4661 20.9127 26.2676L24.3742 23.0277C24.6218 23.0291 24.8626 23.0309 25.1164 23.0319C25.2317 23.0324 25.3552 23.0306 25.4727 23.0302C25.5901 23.0306 25.7136 23.0324 25.8289 23.0319C34.3196 22.9964 39.2959 22.7735 44.4649 22.178C48.8089 21.6776 50.3367 18.1463 50.3229 17.9982C50.3229 17.9982 41.7541 17.0663 32.2691 17.0525ZM27.0124 17.8666C26.5167 17.878 26.0019 17.8839 25.4728 17.8839C25.248 17.8839 25.0379 17.8786 24.8187 17.8765L25.5541 15.1321L26.2299 12.61L26.2315 12.6041L26.7337 13.3212C26.7509 13.3458 26.778 13.3576 26.7965 13.3808C26.8638 13.4666 26.9469 13.5343 27.0328 13.6051C27.1075 13.6663 27.1772 13.7279 27.2607 13.7732C27.291 13.7899 27.3102 13.8184 27.3421 13.8332C27.3445 13.8343 27.3471 13.8339 27.3495 13.835L30.7832 15.4361L28.2322 17.8238L27.0124 17.8666Z" fill="#232933"/>
</svg>
