<svg xmlns="http://www.w3.org/2000/svg" width="45" height="45" viewBox="0 0 45 45" fill="none"><path d="M30.9437 44.979H28.2317C27.8327 44.979 27.5087 44.655 27.5087 44.256C27.5087 43.857 27.8327 43.533 28.2317 43.533H29.9507L27.6347 36.582L27.1367 36.627C25.7027 36.753 24.1397 36.816 22.4927 36.816C21.4007 36.816 20.3027 36.777 19.2347 36.702L18.2897 36.636L20.5907 43.536H22.7897C23.1887 43.536 23.5127 43.86 23.5127 44.259C23.5127 44.658 23.1887 44.982 22.7897 44.982H17.3477C16.9487 44.982 16.6247 44.658 16.6247 44.259C16.6247 43.86 16.9487 43.536 17.3477 43.536H19.0667L16.7027 36.447L16.3157 36.39C10.9457 35.619 7.25866 33.921 5.11365 32.631C1.61265 30.531 0.181654 28.419 0.121654 28.332C0.00765434 28.161 -0.0283456 27.948 0.0226544 27.75C0.0736544 27.552 0.208654 27.384 0.394654 27.288C4.04565 25.425 7.78065 23.853 11.3957 22.332C22.7117 17.568 29.5487 14.337 27.5477 8.247L27.5387 8.217C27.3047 7.557 27.1877 6.867 27.1877 6.165C27.1877 2.766 29.9537 0 33.3527 0C35.3777 0 37.2737 0.998999 38.4287 2.673L38.5697 2.877L38.8097 2.931C41.3807 3.51 43.1867 4.563 44.1857 6.063C45.2597 7.68 44.9777 9.183 44.9417 9.351C44.8697 9.681 44.5727 9.921 44.2367 9.921H38.6267L38.6357 10.56C38.6507 11.865 39.2327 12.951 39.9677 14.328C40.9877 16.242 42.2597 18.627 42.2597 22.488C42.2597 25.689 41.8457 29.736 38.6207 32.652C36.6107 34.467 33.7367 35.658 29.8337 36.294L29.0987 36.414L31.4717 43.536H33.6707C34.0697 43.536 34.3937 43.86 34.3937 44.259C34.3937 44.658 34.0697 44.982 33.6707 44.982H30.9677L30.9437 44.979ZM5.58765 31.227C5.72865 31.314 5.87265 31.401 6.02265 31.491C9.03165 33.261 14.3327 35.373 22.4927 35.373C29.8727 35.373 34.8317 34.134 37.6517 31.584C39.8387 29.607 40.8137 26.802 40.8137 22.494C40.8137 21.807 40.7687 21.135 40.6817 20.499L40.6367 20.166L40.3367 20.016C40.1507 19.923 39.9767 19.878 39.8117 19.878C39.5507 19.878 39.3707 19.989 39.2747 20.046C38.6237 20.445 37.7807 21.489 36.6107 22.932L36.6017 22.941C35.8727 23.844 34.9637 24.966 33.8477 26.247C31.7627 28.641 28.6817 30.246 24.6947 31.017C22.8437 31.374 20.7737 31.557 18.5387 31.557C17.0087 31.557 15.3797 31.473 13.6937 31.305C11.2457 31.062 8.67765 30.648 6.05565 30.075L2.46165 29.292L5.58765 31.227ZM28.9427 12.501C28.8767 12.687 28.8107 12.849 28.7417 12.999C28.0907 14.436 26.9147 15.771 25.1447 17.082C21.9407 19.458 17.0897 21.498 11.9567 23.661C9.58066 24.663 6.88665 25.797 4.28265 27.006L2.65066 27.765L4.39666 28.194C7.95466 29.07 13.3067 30.117 18.6077 30.117C25.2107 30.117 29.9717 28.494 32.7587 25.296C33.8627 24.027 34.7657 22.914 35.4887 22.02C36.7937 20.406 37.6577 19.341 38.5187 18.813C38.8217 18.627 39.1337 18.507 39.4457 18.456L40.2137 18.33L39.9317 17.604C39.5597 16.644 39.1157 15.813 38.6897 15.012C38.2817 14.25 37.8617 13.461 37.5737 12.63L37.2977 11.838L36.6107 12.318C35.6957 12.96 34.5887 13.299 33.4067 13.299C33.3437 13.299 33.2777 13.299 33.2147 13.296C32.0117 13.26 30.8627 12.879 29.8997 12.201L29.2217 11.724L28.9427 12.501ZM28.9157 7.782C29.0357 8.145 29.1287 8.502 29.1977 8.85L29.2007 8.871L29.2067 8.892C29.7347 10.857 31.6787 11.805 33.2627 11.853C33.3047 11.853 33.3467 11.856 33.3947 11.856C34.3037 11.856 36.5117 11.562 37.4117 8.853L37.4177 8.835L37.4237 8.817C37.4747 8.625 37.5317 8.436 37.5977 8.25C37.6067 8.226 37.6157 8.202 37.6277 8.178C37.9247 7.548 38.0747 6.873 38.0747 6.168C38.0747 3.567 35.9567 1.449 33.3557 1.449C32.0957 1.449 30.9107 1.941 30.0197 2.832C29.1287 3.723 28.6367 4.908 28.6367 6.168C28.6367 6.711 28.7297 7.245 28.9097 7.752V7.749C28.9097 7.758 28.9127 7.77 28.9157 7.782ZM39.4877 5.562C39.5087 5.766 39.5177 5.97 39.5177 6.165C39.5177 6.678 39.4547 7.191 39.3257 7.686L39.1247 8.475H43.6667L43.3667 7.632C43.2947 7.428 43.2017 7.23 43.0907 7.041C42.5747 6.159 41.6537 5.445 40.3517 4.914L39.3827 4.518L39.4877 5.562Z" fill="currentColor"/><path d="M33.3524 6.8879C32.9054 6.8879 32.6444 6.5009 32.6294 6.1379C32.6204 5.9279 32.7434 5.7659 32.8184 5.6879C32.9654 5.5349 33.1664 5.44189 33.3524 5.44189C33.7994 5.44189 34.0604 5.82889 34.0754 6.19189C34.0844 6.40189 33.9614 6.56389 33.8864 6.64189C33.7424 6.79789 33.5414 6.8879 33.3524 6.8879Z" fill="currentColor"/></svg>