<svg xmlns="http://www.w3.org/2000/svg" width="64" height="64" viewBox="0 0 64 64" fill="none"><path fill="currentColor" d="M39.944 54.979h-2.712a.723.723 0 0 1 0-1.446h1.719l-2.316-6.951-.498.045a53.48 53.48 0 0 1-4.644.189c-1.092 0-2.19-.039-3.258-.114l-.945-.066 2.3 6.9h2.2a.723.723 0 0 1 0 1.446h-5.442a.723.723 0 0 1 0-1.446h1.719l-2.364-7.089-.387-.057c-5.37-.771-9.057-2.469-11.202-3.759-3.501-2.1-4.932-4.212-4.992-4.299a.726.726 0 0 1-.1-.582.725.725 0 0 1 .373-.462c3.65-1.863 7.386-3.435 11-4.956 11.317-4.764 18.154-7.995 16.153-14.085l-.01-.03A6.172 6.172 0 0 1 42.353 10c2.026 0 3.922.999 5.077 2.673l.14.204.24.054c2.572.579 4.378 1.632 5.377 3.132 1.074 1.617.792 3.12.756 3.288a.728.728 0 0 1-.705.57h-5.61l.009.639c.015 1.305.597 2.391 1.332 3.768 1.02 1.914 2.292 4.299 2.292 8.16 0 3.201-.414 7.248-3.64 10.164-2.01 1.815-4.883 3.006-8.786 3.642l-.735.12 2.373 7.122h2.199a.723.723 0 0 1 0 1.446h-2.703l-.024-.003ZM14.588 41.227c.14.087.285.174.435.264 3.009 1.77 8.31 3.882 16.47 3.882 7.38 0 12.339-1.239 15.159-3.789 2.187-1.977 3.162-4.782 3.162-9.09 0-.687-.045-1.359-.132-1.995l-.045-.333-.3-.15a1.173 1.173 0 0 0-.525-.138c-.261 0-.441.111-.537.168-.651.399-1.494 1.443-2.664 2.886l-.01.009c-.728.903-1.637 2.025-2.753 3.306-2.085 2.394-5.166 3.999-9.153 4.77-1.851.357-3.921.54-6.156.54-1.53 0-3.16-.084-4.845-.252a66.942 66.942 0 0 1-7.638-1.23l-3.594-.783 3.126 1.935Zm23.355-18.726a5.905 5.905 0 0 1-.201.498c-.651 1.437-1.827 2.772-3.597 4.083-3.204 2.376-8.055 4.416-13.188 6.579-2.376 1.002-5.07 2.136-7.674 3.345l-1.632.759 1.746.429c3.558.876 8.91 1.923 14.21 1.923 6.604 0 11.365-1.623 14.152-4.821a114.192 114.192 0 0 0 2.73-3.276c1.305-1.614 2.169-2.679 3.03-3.207.303-.186.615-.306.927-.357l.768-.126-.282-.726c-.372-.96-.816-1.791-1.242-2.592-.408-.762-.828-1.551-1.116-2.382l-.276-.792-.687.48c-.915.642-2.022.981-3.204.981-.063 0-.13 0-.192-.003a6.06 6.06 0 0 1-3.315-1.095l-.678-.477-.28.777Zm-.027-4.719c.12.363.213.72.282 1.068l.003.021.006.021c.528 1.965 2.472 2.913 4.056 2.961.042 0 .084.003.132.003.909 0 3.117-.294 4.017-3.003l.006-.018.006-.018c.05-.192.108-.381.174-.567a.733.733 0 0 1 .03-.072 4.726 4.726 0 0 0-4.272-6.729c-1.26 0-2.445.492-3.336 1.383a4.689 4.689 0 0 0-1.383 3.336c0 .543.093 1.077.273 1.584v-.003c0 .009.003.021.006.033Zm10.572-2.22a6.04 6.04 0 0 1-.162 2.124l-.201.789h4.542l-.3-.843a3.41 3.41 0 0 0-.276-.591c-.516-.882-1.437-1.596-2.74-2.127l-.968-.396.105 1.044Z"/><path fill="#2A5F8C" d="M42.352 16.888c-.447 0-.708-.387-.723-.75a.631.631 0 0 1 .19-.45.77.77 0 0 1 .533-.246c.447 0 .708.387.723.75a.631.631 0 0 1-.189.45.747.747 0 0 1-.534.246Z"/></svg>