<svg xmlns="http://www.w3.org/2000/svg" width="46" height="42" viewBox="0 0 46 42" fill="none"><path d="M33.9359 7.71602C34.3352 7.71602 34.6589 7.39232 34.6589 6.99302C34.6589 6.59372 34.3352 6.27002 33.9359 6.27002C33.5366 6.27002 33.2129 6.59372 33.2129 6.99302C33.2129 7.39232 33.5366 7.71602 33.9359 7.71602Z" fill="currentColor"/><path d="M1.22364 41.1511C0.92364 41.1511 0.66264 40.971 0.55164 40.695C0.44064 40.416 0.51264 40.107 0.72864 39.903C2.42064 38.316 3.39264 36.0751 3.39264 33.7561V30.06C3.39264 26.193 5.68164 22.6861 9.22164 21.1261L21.7646 15.609C24.4646 14.421 26.4476 11.988 27.0656 9.10505L27.7796 5.76905C28.0766 4.38305 28.8476 3.12605 29.9516 2.23505C31.0556 1.34405 32.4446 0.852051 33.8606 0.852051C35.7836 0.852051 37.6346 1.77305 38.8106 3.31505L38.9996 3.56405H42.0476C43.6376 3.56405 45.0146 4.58705 45.3926 6.05105C45.8336 7.76105 44.8766 9.53405 43.2146 10.0891L40.0826 11.133V20.553C40.0826 23.313 39.2486 25.965 37.6676 28.2181C37.6286 28.275 37.5866 28.332 37.5446 28.389L37.3706 28.626V30.6751H38.4536C40.8446 30.6751 42.7916 32.6221 42.7916 35.0131C42.7916 36.4081 41.6576 37.542 40.2626 37.542H35.7446C34.4996 37.542 33.2936 37.098 32.3516 36.291L31.7426 35.7721L31.3766 36.486C30.4736 38.253 28.6826 39.351 26.7086 39.351H22.1876C20.7926 39.351 19.6586 38.2171 19.6586 36.8221C19.6586 36.1291 19.8176 35.466 20.1356 34.851L20.6066 33.93H11.1506L11.0666 34.4641C10.7726 36.3091 9.82464 38.0041 8.39664 39.2341C6.95364 40.476 5.11464 41.16 3.21264 41.16H1.22364V41.1511ZM33.8606 2.29505C31.6256 2.29505 29.6606 3.88205 29.1926 6.06905L28.4786 9.40505C27.7646 12.7441 25.4696 15.555 22.3466 16.9291L9.80364 22.446C6.78864 23.772 4.83864 26.76 4.83864 30.054V33.7471C4.83864 35.4751 4.37964 37.1821 3.50964 38.6881L2.85864 39.8161L4.14864 39.6301C7.32564 39.1711 9.71964 36.4021 9.71964 33.1921V29.577C9.71964 29.178 10.0436 28.854 10.4426 28.854C10.8416 28.854 11.1656 29.178 11.1656 29.577V32.469H25.0826V27.771C25.0826 27.372 25.4066 27.0481 25.8056 27.0481C26.2046 27.0481 26.5286 27.372 26.5286 27.771V33.1921C26.5286 33.591 26.2046 33.9151 25.8056 33.9151H23.9996C22.4066 33.9151 21.1076 35.2111 21.1076 36.807C21.1076 37.404 21.5936 37.89 22.1906 37.89H26.7086C28.8026 37.89 30.5036 36.189 30.5036 34.095V27.771C30.5036 27.372 30.8276 27.0481 31.2266 27.0481C31.6256 27.0481 31.9496 27.372 31.9496 27.771V31.3141L32.9126 30.7231C36.4436 28.5601 38.6366 24.6571 38.6366 20.5411V10.6081C38.6366 10.2961 38.8346 10.0201 39.1316 9.92105L42.7586 8.71205C43.7216 8.39105 44.2526 7.40105 43.9946 6.40805C43.7846 5.59505 42.9656 5.00405 42.0476 5.00405H38.5946C38.3396 5.00405 38.1026 4.86905 37.9706 4.64705C37.1006 3.17705 35.5646 2.29505 33.8606 2.29505ZM34.9226 31.104C34.1576 31.698 33.3266 32.211 32.4476 32.628L31.9556 32.862L32.1146 33.384C32.5946 34.9771 34.0886 36.09 35.7476 36.09H40.2656C40.8626 36.09 41.3486 35.604 41.3486 35.007C41.3486 33.4141 40.0526 32.1151 38.4566 32.1151H36.6506C36.2936 32.1151 35.9936 31.8601 35.9396 31.5061L35.7716 30.4471L34.9226 31.104Z" fill="currentColor"/></svg>