<svg xmlns="http://www.w3.org/2000/svg" width="64" height="64" viewBox="0 0 64 64" fill="none"><path fill="currentColor" d="M42.936 18.716a.723.723 0 1 0 0-1.446.723.723 0 0 0 0 1.446Z"/><path fill="#2A5F8C" d="M10.224 52.151a.72.72 0 0 1-.495-1.248 8.46 8.46 0 0 0 2.664-6.147V41.06a9.77 9.77 0 0 1 5.829-8.934l12.543-5.517a9.245 9.245 0 0 0 5.3-6.504l.715-3.336a6.236 6.236 0 0 1 2.172-3.534 6.248 6.248 0 0 1 3.909-1.383c1.923 0 3.774.921 4.95 2.463l.189.25h3.048c1.59 0 2.967 1.022 3.345 2.486.44 1.71-.516 3.483-2.178 4.038l-3.132 1.044v9.42c0 2.76-.834 5.412-2.415 7.665l-.123.171-.174.237v2.05h1.083a4.344 4.344 0 0 1 4.338 4.337 2.531 2.531 0 0 1-2.53 2.529h-4.517a5.219 5.219 0 0 1-3.393-1.251l-.61-.519-.365.714a5.227 5.227 0 0 1-4.668 2.865h-4.521a2.531 2.531 0 0 1-2.53-2.529c0-.693.16-1.356.478-1.971l.47-.921h-9.455l-.084.534a7.964 7.964 0 0 1-7.854 6.696h-1.99v-.009ZM42.86 13.295a4.8 4.8 0 0 0-4.668 3.774l-.714 3.336a10.685 10.685 0 0 1-6.132 7.524l-12.543 5.517a8.316 8.316 0 0 0-4.965 7.608v3.693a9.888 9.888 0 0 1-1.33 4.941l-.65 1.128 1.29-.186c3.177-.459 5.57-3.228 5.57-6.438v-3.615a.723.723 0 0 1 1.447 0v2.892h13.917v-4.698a.723.723 0 0 1 1.446 0v5.421a.723.723 0 0 1-.723.723H33a2.895 2.895 0 0 0-2.892 2.892c0 .597.486 1.083 1.083 1.083h4.518a3.797 3.797 0 0 0 3.795-3.795v-6.324a.723.723 0 0 1 1.446 0v3.543l.963-.59c3.53-2.164 5.724-6.067 5.724-10.183v-9.933c0-.312.198-.588.495-.687l3.627-1.209c.963-.32 1.494-1.31 1.236-2.304-.21-.813-1.03-1.404-1.947-1.404h-3.453a.726.726 0 0 1-.624-.357 4.74 4.74 0 0 0-4.11-2.352Zm1.062 28.809a13.418 13.418 0 0 1-2.475 1.524l-.492.234.159.522a3.823 3.823 0 0 0 3.633 2.706h4.518c.597 0 1.083-.486 1.083-1.083a2.895 2.895 0 0 0-2.892-2.892H45.65a.714.714 0 0 1-.711-.609l-.168-1.059-.85.657Z"/></svg>