<svg class="icon icon-ship" width="33" height="32" fill="none" xmlns="http://www.w3.org/2000/svg"><circle cx="16.6" cy="16" r="16" fill="#ECEEF2"/><path d="M18.642 9.186a.877.877 0 0 0-.875-.875h-.875v-.874a.437.437 0 1 0-.874 0v.874h-.875a.877.877 0 0 0-.875.875v.437h4.373v-.437ZM16.461 11.81a1.3 1.3 0 0 1 .626.161l2.866 1.51v-2.109a.877.877 0 0 0-.874-.874H13.83a.877.877 0 0 0-.875.874v2.113l2.895-1.522a1.28 1.28 0 0 1 .61-.153Z" fill="#232933"/><path d="m8.045 17.05 7.965-4.187V25H9.766c-.624-2.259-1.9-6.874-2.01-7.264a.566.566 0 0 1 .29-.685ZM24.858 17.05l-7.965-4.187V25h6.244c.625-2.259 1.9-6.874 2.01-7.264a.566.566 0 0 0-.289-.685ZM16.893 20.98l-.883.456V25h.883v-4.02Z" fill="#232933"/></svg>
