<svg class="icon icon-ship" width="33" height="32" viewBox="0 0 33 32" fill="none" xmlns="http://www.w3.org/2000/svg">
<circle cx="16.6001" cy="16" r="16" fill="#ECEEF2"/>
<path d="M18.6415 9.18562C18.6415 8.70449 18.2479 8.31094 17.7668 8.31094H16.8925L16.8923 7.43736C16.8923 7.19577 16.6967 7 16.4549 7C16.2132 7 16.0176 7.19575 16.0176 7.43736V8.31111H15.1427C14.6616 8.31111 14.2681 8.70467 14.2681 9.18579V9.62315H18.6413L18.6415 9.18562Z" fill="#232933"/>
<path d="M16.4613 11.8097C16.6795 11.8097 16.8961 11.8657 17.0874 11.9712L19.9533 13.4804V11.3724C19.9533 10.8912 19.5598 10.4977 19.0787 10.4977H13.8307C13.3496 10.4977 12.9561 10.8912 12.9561 11.3724V13.4848L15.851 11.9628C16.0265 11.8657 16.243 11.8097 16.4613 11.8097V11.8097Z" fill="#232933"/>
<path d="M8.04534 17.0507L16.0098 12.8629V25H9.76616C9.14179 22.7411 7.86565 18.1259 7.756 17.736C7.64636 17.3462 7.90321 17.1167 8.04534 17.0507Z" fill="#232933"/>
<path d="M24.858 17.0507L16.8935 12.8629V25H23.1372C23.7615 22.7411 25.0377 18.1259 25.1473 17.736C25.257 17.3462 25.0001 17.1167 24.858 17.0507Z" fill="#232933"/>
<path d="M16.8935 20.9795L16.0103 21.4363V24.9998H16.8935V20.9795Z" fill="#232933"/>
</svg>
