<svg xmlns="http://www.w3.org/2000/svg" width="19" height="18" viewBox="0 0 19 18"><g fill="#232933" transform="translate(.728)"><path d="M10.9142039,2.18600004 C10.9131042,1.70320715 10.5219968,1.3120998 10.0392039,1.31100004 L9.16420392,1.31100004 L9.16420392,0.437000037 C9.16420393,0.280874965 9.08091221,0.136609444 8.94570393,0.0585469047 C8.81049566,-0.0195156349 8.64391219,-0.0195156349 8.50870391,0.0585469047 C8.37349563,0.136609444 8.29020391,0.280874965 8.29020392,0.437000037 L8.29020392,1.31100004 L7.41520392,1.31100004 C6.93241103,1.3120998 6.54130368,1.70320715 6.54020392,2.18600004 L6.54020392,2.62300004 L10.9132039,2.62300004 L10.9132039,2.18600004 L10.9142039,2.18600004 Z M8.73320392,4.81000004 C8.95209736,4.81010802 9.16741959,4.86548642 9.35920392,4.97100004 L12.2252039,6.48100004 L12.2252039,4.37200004 C12.2235579,3.88998663 11.8332173,3.49964608 11.3512039,3.49800004 L6.10220392,3.49800004 C5.61980003,3.49909734 5.22885286,3.88959772 5.22720392,4.37200004 L5.22720392,6.48500004 L8.12220392,4.96300004 C8.30964953,4.86206505 8.51931086,4.80947787 8.73220392,4.81000004 L8.73320392,4.81000004 Z"/><path d="M0.31720392,10.05 L8.28220392,5.86300004 L8.28220392,18 L2.03820392,18 C1.41420392,15.741 0.13820392,11.126 0.0282039203,10.736 C-0.0598067145,10.467283 0.0640018592,10.1748387 0.31820392,10.051 L0.31720392,10.05 Z M17.1302039,10.05 L9.16520392,5.86300004 L9.16520392,18 L15.4092039,18 C16.0342039,15.741 17.3092039,11.126 17.4192039,10.736 C17.5073636,10.4675385 17.3840195,10.175183 17.1302039,10.051 L17.1302039,10.05 Z M9.16520392,13.98 L8.28220392,14.436 L8.28220392,18 L9.16520392,18 L9.16520392,13.98 Z"/></g></svg>