<svg class="icon icon-star" width="32" height="32" fill="none" xmlns="http://www.w3.org/2000/svg"><circle cx="16" cy="16" r="16" fill="#ECEEF2"/><path d="M21.001 24.995a.868.868 0 0 1-.415-.104l-4.6-2.528-4.6 2.528a.866.866 0 0 1-.951-.073.942.942 0 0 1-.305-.412.991.991 0 0 1-.051-.518l.902-5.332-3.716-3.787a.96.96 0 0 1-.238-.441.992.992 0 0 1 .012-.506.95.95 0 0 1 .278-.432.881.881 0 0 1 .453-.212l5.14-.786 2.265-4.858a.933.933 0 0 1 .332-.39.87.87 0 0 1 .958 0c.144.095.26.23.333.39l2.291 4.848 5.141.786a.883.883 0 0 1 .453.213.95.95 0 0 1 .29.938.961.961 0 0 1-.238.44l-3.716 3.788.902 5.331a.991.991 0 0 1-.048.529.942.942 0 0 1-.313.418.871.871 0 0 1-.559.17Z" fill="#232933"/></svg>
