<svg xmlns="http://www.w3.org/2000/svg" width="30" height="30" fill="none" viewBox="9 8.996 30 30">
  <path d="M24 32.996a1.5 1.5 0 0 1 1.5 1.5v3a1.5 1.5 0 0 1-3 0v-3a1.5 1.5 0 0 1 1.5-1.5Zm-6.364-2.636a1.5 1.5 0 0 1 0 2.121l-2.121 2.122a1.5 1.5 0 1 1-2.122-2.122l2.122-2.12a1.5 1.5 0 0 1 2.121 0Zm14.85 0 2.12 2.121a1.5 1.5 0 1 1-2.12 2.122l-2.122-2.122a1.5 1.5 0 1 1 2.121-2.12ZM24 16.496a7.5 7.5 0 1 1 0 15 7.5 7.5 0 0 1 0-15Zm13.5 6a1.5 1.5 0 0 1 0 3h-3a1.5 1.5 0 0 1 0-3h3Zm-24 0a1.5 1.5 0 0 1 0 3h-3a1.5 1.5 0 0 1 0-3h3Zm21.107-9.106a1.5 1.5 0 0 1 0 2.12l-2.122 2.122a1.5 1.5 0 1 1-2.121-2.121l2.121-2.121a1.5 1.5 0 0 1 2.122 0Zm-19.092 0 2.121 2.12a1.5 1.5 0 1 1-2.121 2.122l-2.122-2.121a1.5 1.5 0 1 1 2.122-2.121ZM24 8.995a1.5 1.5 0 0 1 1.5 1.5v3a1.5 1.5 0 0 1-3 0v-3a1.5 1.5 0 0 1 1.5-1.5Z" fill="#232933"/>
</svg>
