<svg width="28" height="28" viewBox="0 0 28 28" fill="none" xmlns="http://www.w3.org/2000/svg"><path d="M14 0.666504C6.62413 0.666504 0.666687 6.62395 0.666687 13.9998C0.666687 21.3757 6.62413 27.3332 14 27.3332C21.3759 27.3332 27.3334 21.3757 27.3334 13.9998C27.3334 6.62395 21.3759 0.666504 14 0.666504ZM15.1348 13.9998C15.1348 14.397 14.9078 14.7942 14.5674 14.9644L7.87236 18.5388C7.70215 18.6523 7.53193 18.6523 7.36172 18.6523C6.96456 18.6523 6.5674 18.4254 6.39718 18.0849C6.1135 17.5176 6.28371 16.8935 6.85108 16.553L12.8653 13.319V9.00693C12.8653 8.38282 13.3759 7.87218 14 7.87218C14.6241 7.87218 15.1348 8.38282 15.1348 9.00693V13.9998Z" fill="#232933"/></svg>
