<svg xmlns="http://www.w3.org/2000/svg" width="18" height="18" viewBox="0 0 18 18" fill="none"><path fill="currentColor" d="m12.184 13.15.966-.966L9.687 8.72V4.416H8.313v4.862l3.87 3.871Zm-3.182 4.558a8.483 8.483 0 0 1-3.397-.685A8.798 8.798 0 0 1 2.84 15.16a8.792 8.792 0 0 1-1.862-2.764 8.475 8.475 0 0 1-.686-3.396c0-1.204.228-2.336.685-3.396a8.797 8.797 0 0 1 1.861-2.766A8.792 8.792 0 0 1 5.603.977 8.475 8.475 0 0 1 8.998.292c1.205 0 2.337.228 3.397.685a8.796 8.796 0 0 1 2.765 1.861 8.794 8.794 0 0 1 1.862 2.765 8.475 8.475 0 0 1 .686 3.395 8.482 8.482 0 0 1-.685 3.397 8.797 8.797 0 0 1-1.861 2.765 8.793 8.793 0 0 1-2.765 1.862 8.475 8.475 0 0 1-3.395.686ZM9 16.333c2.032 0 3.762-.714 5.19-2.143 1.43-1.428 2.143-3.158 2.143-5.19 0-2.032-.714-3.762-2.142-5.19C12.762 2.38 11.03 1.665 9 1.665c-2.032 0-3.762.715-5.19 2.143C2.38 5.238 1.666 6.968 1.666 9c0 2.033.714 3.763 2.142 5.191C5.238 15.62 6.97 16.333 9 16.333Z"/></svg>