<svg xmlns="http://www.w3.org/2000/svg" width="30" height="24" viewBox="0 0 30 24" fill="none"><g fill="#232933"><path d="M28.222 16.722H1.778a.947.947 0 0 0-.945.945V20.5c0 .472.35.869.813.935l13.222 1.889c.047.01.085.01.132.01s.085 0 .132-.01l13.222-1.89a.946.946 0 0 0 .813-.934v-2.833a.947.947 0 0 0-.945-.945ZM25.389 14.833h1.889V12c0-3.995-2.57-7.499-6.167-8.85l-.284 1.937-.906 6.11a.952.952 0 0 1-.935.803c-.048 0-.095 0-.142-.01a.991.991 0 0 1-.444-.188.973.973 0 0 1-.35-.888l.945-6.366.283-1.88.029-.235a2.562 2.562 0 0 0-.52-.831 2.805 2.805 0 0 0-2.096-.935H13.31c-.803 0-1.568.34-2.097.935a2.562 2.562 0 0 0-.52.83l.029.237.283 1.88.944 6.365a.958.958 0 0 1-.793 1.077c-.047.009-.094.009-.142.009a.952.952 0 0 1-.935-.803l-.906-6.11-.284-1.936C5.291 4.5 2.722 8.005 2.722 12v2.833H25.39Z"/></g></svg>
