<svg xmlns="http://www.w3.org/2000/svg" width="44" height="34" fill="none"><path d="M41.833 24.083H2.167A1.42 1.42 0 0 0 .75 25.5v4.25c0 .708.524 1.303 1.218 1.402l19.834 2.834c.07.014.127.014.198.014.07 0 .128 0 .198-.014l19.834-2.833a1.419 1.419 0 0 0 1.218-1.403V25.5a1.42 1.42 0 0 0-1.417-1.417ZM37.583 21.25h2.834V17c0-5.992-3.854-11.248-9.251-13.274L30.74 6.63l-1.36 9.166A1.428 1.428 0 0 1 27.978 17c-.07 0-.141 0-.212-.014a1.488 1.488 0 0 1-.666-.284 1.46 1.46 0 0 1-.524-1.331l1.416-9.549.425-2.819.043-.354a3.842 3.842 0 0 0-.78-1.246A4.208 4.208 0 0 0 24.537 0h-5.072c-1.204 0-2.351.51-3.145 1.403-.34.368-.609.793-.779 1.246l.043.354.425 2.82 1.416 9.548c.071.524-.142 1.02-.538 1.332-.184.141-.411.24-.652.283-.07.014-.142.014-.212.014-.695 0-1.29-.51-1.403-1.204L13.26 6.63l-.425-2.904C7.437 5.752 3.584 11.008 3.584 17v4.25h33.999Z" fill="#232933"/></svg>
