<svg xmlns="http://www.w3.org/2000/svg" width="42" height="42" viewBox="0 0 42 42" fill="none"><path d="M7.908 42c-.785-.174-1.656-.261-2.353-.523-3.137-.958-5.054-3.05-5.49-6.36a9.268 9.268 0 0 1 .523-4.358c.61-1.655 1.307-3.31 2.004-4.966.61-1.482 1.307-3.05 1.917-4.532.175-.522.262-1.132.349-1.655.087-.523-.174-.784-.61-.872-.436 0-.697.262-.784.697-.087.698-.523 1.133-1.133 1.133-.523 0-1.133-.348-1.22-.958-.087-.436 0-.784.087-1.22.436-1.481 1.917-2.353 3.486-2.178 1.48.174 2.614 1.568 2.614 3.05 0 1.568-.523 3.05-1.133 4.53-.697 1.569-1.481 3.137-2.178 4.706-.175.436-.262.871-.175 1.307.175.523.436.784 1.046.871h31.63c1.22 0 1.918-.958 1.395-2.091-.523-1.22-1.133-2.44-1.743-3.66-.61-1.307-1.22-2.701-1.481-4.095-.087-.697-.175-1.482 0-2.179.261-1.568 1.83-2.527 3.485-2.352 1.482.174 2.701 1.568 2.701 3.05 0 .697-.435 1.22-1.132 1.22-.61.086-1.22-.35-1.307-1.046-.087-.61-.349-.872-.785-.872-.435 0-.61.349-.61 1.046.087 1.22.523 2.353 1.046 3.398.784 1.743 1.656 3.399 2.353 5.141.784 1.83 1.394 3.66 1.481 5.664.087 3.486-1.917 6.361-5.315 7.407-.785.261-1.569.349-2.353.523-.087 0-.174.087-.349.087H7.908V42Z" fill="#232933"/><path d="M21.152 0c.698.349.959.871.872 1.656v2.44h7.058c.348 0 .697.174.871.435.175.349.175.697-.087.959-1.481 1.917-2.265 4.095-2.701 6.448-.523 2.614-.523 5.228.174 7.755.349 1.22.872 2.353 1.743 3.311.261.349.436.697.261 1.046-.174.435-.523.523-.958.523H22.11v3.572h-2.44v-3.572h-4.357c-.61 0-1.045-.175-1.568-.436-1.133-.784-1.917-1.83-2.44-3.05-2.004-4.095-2.353-8.19-.436-12.373.61-1.395 1.569-2.614 2.702-3.66.697-.697 1.568-.959 2.527-.959h3.485v-2.44c0-.784.174-1.306.871-1.655h.698Z" fill="#232933"/></svg>
