<svg xmlns="http://www.w3.org/2000/svg" width="29" height="22" viewBox="0 0 29 22" fill="none"><path fill="currentColor" d="m18.397 21.584-1.302-3.568a4.472 4.472 0 0 1 .278-3.523c.572-1.086 1.566-2.264 2.749-2.595 2.81-.786 11.74-5.21 6.497-11.55a.52.52 0 0 0-.804.003c-.841 1.04-2.965 3.365-5.111 3.32-2.493-.053-5.197.688-6.476 2.534-1.282-1.845-3.987-2.582-6.48-2.527-2.146.048-4.272-2.275-5.114-3.313A.52.52 0 0 0 1.829.36c-5.236 6.348 3.7 10.761 6.51 11.544a4.472 4.472 0 0 1 3.036 5.74l-1.334 3.939h8.356Z"/></svg>