<svg xmlns="http://www.w3.org/2000/svg" width="64" height="64" viewBox="0 0 64 64" fill="none"><path fill="currentColor" d="M22.472 54.814a.723.723 0 0 1-.723-.723c0-1.683.64-3.276 1.797-4.49l.537-.562-.66-.41a16.91 16.91 0 0 1-5.256-5.158 16.914 16.914 0 0 1-2.742-9.255v-9.735l-.294-.186c-1.647-1.047-2.904-2.307-3.732-3.744-2.496-4.326-.906-9.804-.837-10.035a.727.727 0 0 1 .861-.495c.171.042 4.218 1.038 6.972 4.011l.465.501.465-.5c2.754-2.974 6.801-3.97 6.972-4.012a.727.727 0 0 1 .861.495c.07.231 1.66 5.712-.837 10.035-.687 1.191-1.674 2.265-2.93 3.195l-.36.267.767 2.535a4.671 4.671 0 0 0 4.494 3.33h20.562a6.152 6.152 0 0 1 6.144 6.144c0 8.37-6.81 15.18-15.18 15.18h-4.86l-.186.297a7.024 7.024 0 0 1-5.976 3.318h-6.324v-.003ZM11.642 12.38c-.264 1.674-.483 4.87 1.008 7.45.807 1.4 2.106 2.612 3.855 3.605a.727.727 0 0 1 .366.63v10.152c0 2.811.771 5.577 2.235 8.007l.183.306h10.413c.4 0 .723.324.723.723v1.584a4.477 4.477 0 0 1-3.393 4.347 5.03 5.03 0 0 0-3.594 3.363l-.264.825H28.8a5.607 5.607 0 0 0 5.601-5.6v-4.519c0-.399.324-.723.723-.723H51.92l.174-.348a13.564 13.564 0 0 0 1.461-6.156 4.703 4.703 0 0 0-4.698-4.698H28.292a6.103 6.103 0 0 1-3.657-1.206 6.107 6.107 0 0 1-2.22-3.147l-.933-3.06a.729.729 0 0 1 .303-.822c1.458-.927 2.562-2.025 3.276-3.26 1.488-2.578 1.272-5.773 1.008-7.447l-.123-.777-.732.285c-1.49.58-4.218 1.905-5.754 4.3a.724.724 0 0 1-1.218 0c-1.467-2.29-3.939-3.604-5.754-4.306l-.732-.282-.114.774Zm24.201 35.388c0 .408-.039.828-.11 1.245l-.133.744h4.221a13.74 13.74 0 0 0 10.368-4.734l.91-1.047H35.845v3.792h-.003Zm-14.568-2.72a15.485 15.485 0 0 0 4.02 2.987l.258.132.27-.108a6.5 6.5 0 0 1 .858-.279 3.03 3.03 0 0 0 2.298-2.943v-.86h-8.742l1.038 1.07Z"/><path fill="#2A5F8C" d="M47.952 36.745a.723.723 0 1 1 0-1.446.723.723 0 0 1 0 1.446Z"/></svg>