<svg xmlns="http://www.w3.org/2000/svg" width="45" height="45" viewBox="0 0 45 45" fill="none"><path d="M12.4723 44.8142C12.0733 44.8142 11.7493 44.4902 11.7493 44.0912C11.7493 42.4082 12.3883 40.8152 13.5463 39.6002L14.0833 39.0392L13.4233 38.6283C11.2993 37.3022 9.53229 35.5682 8.16729 33.4712C6.37329 30.7172 5.42529 27.5162 5.42529 24.2162V14.4812L5.13129 14.2952C3.48429 13.2482 2.22729 11.9882 1.39929 10.5512C-1.09671 6.22524 0.49329 0.747245 0.56229 0.516245C0.65229 0.213245 0.93729 0.000244141 1.25529 0.000244141C1.31229 0.000244141 1.36929 0.00624405 1.42329 0.021244C1.59429 0.0632441 5.64129 1.05924 8.39529 4.03224L8.86029 4.53324L9.32529 4.03224C12.0793 1.05924 16.1263 0.0632441 16.2973 0.021244C16.3543 0.00924405 16.4113 0.000244141 16.4653 0.000244141C16.7833 0.000244141 17.0683 0.213245 17.1583 0.516245C17.2273 0.747245 18.8173 6.22824 16.3213 10.5512C15.6343 11.7422 14.6473 12.8162 13.3903 13.7462L13.0303 14.0132L13.7983 16.5482C14.4043 18.5402 16.2103 19.8782 18.2923 19.8782H38.8543C42.2413 19.8782 44.9983 22.6352 44.9983 26.0222C44.9983 34.3922 38.1883 41.2022 29.8183 41.2022H24.9583L24.7723 41.4992C23.4703 43.5752 21.2353 44.8172 18.7963 44.8172H12.4723V44.8142ZM1.64229 2.37924C1.37829 4.05325 1.15929 7.24824 2.65029 9.82825C3.45729 11.2292 4.75629 12.4412 6.50529 13.4342C6.73029 13.5632 6.87129 13.8032 6.87129 14.0642V24.2162C6.87129 27.0272 7.64229 29.7932 9.10629 32.2232L9.28929 32.5292H19.7023C20.1013 32.5292 20.4253 32.8532 20.4253 33.2522V34.8362C20.4253 36.8942 19.0303 38.6822 17.0323 39.1832C15.3193 39.6122 13.9753 40.8692 13.4383 42.5462L13.1743 43.3712H18.7993C21.8893 43.3712 24.4003 40.8573 24.4003 37.7702V33.2522C24.4003 32.8532 24.7243 32.5292 25.1233 32.5292H41.9203L42.0943 32.1812C43.0633 30.2582 43.5553 28.1852 43.5553 26.0252C43.5553 23.4332 41.4463 21.3272 38.8573 21.3272H18.2923C16.9663 21.3272 15.7003 20.9102 14.6353 20.1212C13.5703 19.3322 12.8023 18.2432 12.4153 16.9742L11.4823 13.9142C11.3893 13.6052 11.5123 13.2662 11.7853 13.0922C13.2433 12.1652 14.3473 11.0672 15.0613 9.83125C16.5493 7.25425 16.3333 4.05924 16.0693 2.38524L15.9463 1.60824L15.2143 1.89324C13.7233 2.47224 10.9963 3.79824 9.46029 6.19225C9.32529 6.39924 9.10029 6.52525 8.85129 6.52525C8.60229 6.52525 8.37729 6.39924 8.24229 6.19225C6.77529 3.90324 4.30329 2.58924 2.48829 1.88724L1.75629 1.60524L1.64229 2.37924ZM25.8433 37.7672C25.8433 38.1752 25.8043 38.5952 25.7323 39.0122L25.6003 39.7562H29.8213C33.7933 39.7562 37.5733 38.0312 40.1893 35.0222L41.0983 33.9752H25.8463V37.7672H25.8433ZM11.2753 35.0462C12.4513 36.2582 13.8013 37.2632 15.2953 38.0342L15.5533 38.1662L15.8233 38.0582C16.1053 37.9442 16.3933 37.8512 16.6813 37.7792C18.0343 37.4402 18.9793 36.2312 18.9793 34.8362V33.9752H10.2373L11.2753 35.0462Z" fill="currentColor"/><path d="M37.9515 26.7453C37.5525 26.7453 37.2285 26.4213 37.2285 26.0223C37.2285 25.6233 37.5525 25.2993 37.9515 25.2993C38.3505 25.2993 38.6745 25.6233 38.6745 26.0223C38.6745 26.4213 38.3505 26.7453 37.9515 26.7453Z" fill="currentColor"/></svg>