<svg xmlns="http://www.w3.org/2000/svg" width="24" height="45" viewBox="0 0 24 45" fill="none">
<path d="M14.4096 0.708579C13.5559 0.726879 11.2239 0.941778 9.60359 3.64488C9.10069 4.59188 8.85529 5.91808 8.64649 6.44328C8.43559 6.97048 8.44979 7.63158 8.20849 7.88308C7.96719 8.13658 6.20499 10.6511 5.86839 11.592C5.52979 12.5349 5.00859 13.8388 4.75919 15.0819C4.51179 16.325 3.68849 17.6917 2.55089 19.8615C1.41529 22.0313 0.504788 24.2376 0.164088 27.8349C-0.150212 31.1423 0.308089 34.5166 1.29559 34.4132C2.28309 34.3098 2.14729 30.9071 2.37849 29.7958C2.52859 29.0779 4.35159 25.5718 4.66179 24.6573C4.63749 28.5913 5.13429 32.5436 5.35329 33.7481C5.57029 34.9526 6.58619 36.9318 6.69779 37.5158C6.85389 38.3107 7.19259 40.0364 7.33859 40.3913C7.48259 40.7441 7.28589 41.7662 7.28589 41.7662C6.57009 41.8088 3.74329 42.0359 3.22409 42.2934C3.36599 42.484 4.68619 42.482 4.90919 42.5611C3.73509 42.9991 3.30319 43.3925 3.58099 43.4696C3.85679 43.5467 6.24149 43.1654 6.51729 43.1593C6.68759 43.431 7.04659 43.4493 7.37299 43.3317C7.70149 43.2161 9.40689 43.1796 9.76179 43.0884C10.1167 42.9992 10.4391 42.6078 10.4614 42.3584C10.4837 42.111 10.2181 39.9716 10.2181 39.9716C10.6906 40.2089 12.3311 39.7891 12.69 39.8073C13.0489 39.8276 13.5721 39.8722 13.5944 40.9165C13.6167 41.9608 12.7285 41.6506 12.5176 42.0947C12.3087 42.5388 10.1978 42.9139 9.95849 43.2506C10.1795 43.3277 10.8447 43.5345 10.8447 43.5345C10.4939 43.8448 9.70909 44.4653 10.0133 44.5687C10.3175 44.6721 11.816 43.9522 12.1202 44.0577C12.4244 44.1591 12.2703 44.6032 12.6839 44.6498C13.0976 44.6964 15.458 44.4531 15.6547 43.3743C15.7723 42.4922 15.5148 41.9751 15.5148 41.9751C15.8717 41.9122 15.9609 42.3239 16.1779 42.1535C16.3949 41.9831 15.9995 41.4965 16.3057 39.0976C16.6119 36.6987 17.4311 35.1393 17.4332 32.6917C17.4352 30.2441 17.7942 28.9706 17.9848 27.6181C18.1774 26.2655 18.652 24.2154 18.3599 20.328C19.165 21.934 19.311 22.2646 19.6739 25.0914C20.0369 27.9162 20.4526 30.1488 20.6959 32.5376C20.9392 34.9244 21.3468 35.6341 21.5963 35.6564C21.8437 35.6767 21.4929 27.0482 20.994 24.2255C20.4931 21.4028 19.4062 16.9152 18.9337 15.4389C18.4632 13.9647 18.3193 12.4539 17.6116 11.5333C16.9059 10.6127 15.7764 9.29048 14.7726 8.62338C13.7668 7.95828 13.8601 7.13088 13.9919 6.87948C14.1237 6.63008 15.3708 5.77838 15.7764 5.41128C16.1799 5.04428 17.3987 4.13778 18.3274 3.76058C19.2541 3.38338 22.2391 2.74258 23.8066 2.73448C24.2466 2.72638 23.4578 1.91728 22.9346 1.90108C22.4114 1.88488 19.0107 2.05928 18.011 1.92538C16.6057 1.73478 15.6202 0.682179 14.4096 0.708579Z" fill="#232933"/>
</svg>
