<svg xmlns="http://www.w3.org/2000/svg" width="53" height="27" viewBox="0 0 53 27" fill="none">
<path d="M52.2519 12.2537C52.157 12.0811 52.0383 11.9215 51.9175 11.764C51.2919 10.9421 50.6555 10.1245 50.0342 9.29613C49.9479 9.18183 49.8638 9.03083 49.8616 8.89483C49.8487 8.11603 49.3654 7.59183 48.9232 7.03953C48.2933 6.24993 47.3268 5.70843 47.2211 5.12603C47.2211 5.12603 47.1154 4.54143 47.0571 4.56733C46.9989 4.59323 46.891 4.60403 46.8586 4.66013C46.5997 5.10883 46.2761 4.92763 45.9353 4.78743C45.2061 4.49193 44.4683 4.22003 43.7349 3.93533C42.8936 3.60953 42.0263 3.33773 41.2216 2.94083C38.3028 1.50623 35.2955 1.26243 32.1739 2.10163C31.6583 2.23973 31.0931 2.39283 30.5818 2.32163C28.733 2.05843 26.882 1.76293 25.0591 1.36163C23.6935 1.05963 22.3409 0.731729 20.9365 0.738129C19.1308 0.744629 17.323 0.759728 15.595 1.39823C14.704 1.73043 13.8131 2.06483 12.9351 2.43593C11.5436 3.02273 10.2752 3.85973 9.2612 4.95353C7.6885 6.64913 6.4351 8.59933 5.5895 10.7717C4.9553 12.394 4.4332 14.0616 3.8356 15.699C3.3135 17.1379 2.6059 18.4474 1.3784 19.4441C0.7636 19.9446 0.4831 20.6781 0.8369 21.4914C1.2036 22.3327 1.5963 23.1611 1.9932 23.9895C2.3664 24.7661 3.0546 25.0142 3.8506 25.0725C4.3058 25.107 4.761 25.1933 5.2162 25.1955C5.6973 25.1977 6.1848 25.1567 6.6573 25.0725C6.832 25.0423 7.1233 24.805 7.106 24.7122C7.0564 24.4641 6.9032 24.2095 6.7263 24.0176C6.5537 23.8299 6.2797 23.7393 6.0899 23.5624C5.995 23.474 5.9173 23.2604 5.9562 23.1482C6.2561 22.322 6.7285 21.6295 7.544 21.226C8.0294 20.9865 8.504 20.7212 8.998 20.5011C9.6948 20.1904 10.3139 19.8021 10.8446 19.2261C11.3969 18.6242 12.0462 18.1065 12.6761 17.5779C12.7732 17.4981 13.0277 17.483 13.1334 17.5542C13.9855 18.1302 14.7082 18.8054 15.1785 19.7719C15.6639 20.7729 16.2981 21.7005 16.8547 22.6691C16.982 22.8891 17.0747 23.1372 17.1373 23.3853C17.2775 23.9419 17.366 24.5136 17.5191 25.0658C17.724 25.7928 18.2289 26.1164 18.9861 26.1272C19.9849 26.1401 21.0032 26.0992 21.9804 26.2696C23.0936 26.4638 24.1722 26.3969 25.2552 26.2027C25.5162 26.1552 25.8636 25.9568 25.9585 25.7346C26.1138 25.3722 25.7277 24.8048 25.3825 24.6473C24.9705 24.4596 24.567 24.2504 24.1701 24.0303C23.4841 23.6506 23.1993 23.0681 23.2101 22.2743C23.2144 21.8299 23.1324 21.3402 22.9404 20.9476C22.427 19.9078 22.3795 18.7925 22.3148 18.3049C22.3148 18.3049 22.2501 17.8174 22.5305 17.6512C22.8131 17.4851 23.305 17.1917 23.5617 17.0407C23.5617 17.0407 23.8206 16.8875 23.9328 16.9695C24.0471 17.0515 24.3492 17.2694 24.5131 17.388C24.5131 17.388 24.6749 17.5067 24.6835 17.4225C24.6921 17.3362 24.7072 17.183 24.7159 17.1097C24.7159 17.1097 24.7224 17.0364 25.0373 16.9738C25.3523 16.9134 26.0232 17.5757 26.295 17.2111C26.295 17.2111 26.569 16.8465 26.6402 16.9091C26.7135 16.9717 26.8602 17.0968 26.8883 17.1227C26.8883 17.1227 26.9185 17.1464 27.1105 17.0148C27.3047 16.881 27.6434 16.6481 27.7793 16.5553C27.7793 16.5553 27.9174 16.4604 28.049 16.5682C28.1806 16.6782 28.3985 16.8573 28.5322 16.9673C28.5322 16.9673 28.666 17.0773 28.7048 16.9414C28.7436 16.8076 28.7868 16.6545 28.8019 16.6027C28.8019 16.6027 28.817 16.5509 28.9551 16.5401C29.091 16.5315 29.3197 16.5142 29.4448 16.5056C29.4448 16.5056 29.5699 16.497 29.5462 16.607C29.5203 16.717 29.4707 16.9414 29.4211 17.1636C29.0198 19.0016 29.4448 20.7059 30.3336 22.298C30.6011 22.7748 30.8557 23.1609 30.8557 23.7606C30.8579 24.8263 31.1361 25.0442 32.2126 25.042C33.1143 25.0398 34.0161 24.9902 34.9157 24.9212C35.455 24.8824 35.9555 24.7206 36.0073 24.3279C36.0073 24.3279 36.0591 23.9353 36.2252 24.0992C36.3913 24.2632 36.6718 24.4897 36.8896 24.7658C37.224 25.1929 37.4872 25.6762 37.8345 26.0925C38.0071 26.2974 38.294 26.5218 38.5378 26.5304C40.1407 26.5973 41.7479 26.6339 43.3529 26.6232C43.9915 26.6189 44.2741 26.1292 43.9375 25.5489C43.6722 25.0851 43.2666 24.6256 42.8071 24.3689C41.804 23.808 41.0079 23.0594 40.3564 22.1296C40.0436 21.6852 39.7545 21.2192 39.3986 20.8115C39.2756 20.6713 39.1893 20.4297 39.0987 20.3822C39.0987 20.3822 39.0103 20.3347 38.9304 20.2355C38.8484 20.1341 38.6586 19.8882 38.5701 19.7652C38.5701 19.7652 38.4795 19.6422 38.4838 19.5883C38.4903 19.5365 38.473 19.4416 38.4234 19.3683C38.2853 19.1612 38.0437 18.9649 37.9229 18.7686C37.8841 18.6823 37.856 18.609 37.8496 18.5529C37.8474 17.8453 37.8669 17.073 38.1387 16.4431C38.5853 15.4054 39.2152 14.4411 39.8279 13.4854C39.9897 13.2308 40.3608 12.9763 40.6477 12.9612C41.5408 12.9159 42.4447 12.9418 43.3357 13.0216C44.2137 13.1014 45.081 13.2999 45.959 13.4121C46.8996 13.5329 47.8574 13.5459 48.7829 13.7292C50.0471 13.9794 51.1214 13.6537 52.1159 12.903C52.3618 12.7175 52.3878 12.4996 52.2519 12.2537Z" fill="#232933"/>
</svg>
