<svg xmlns="http://www.w3.org/2000/svg" width="34" height="18" viewBox="0 0 34 18" fill="none"><path fill="currentColor" d="M21.395 5.899a1.696 1.696 0 1 0-.015 3.391 1.696 1.696 0 0 0 .015-3.391ZM26.278 9.29a1.696 1.696 0 1 0-.008 0h.008ZM15.135 3.976a1.696 1.696 0 1 0 0-3.391 1.696 1.696 0 0 0 0 3.391Z"/><path fill="currentColor" d="M33.898 14.91a2.344 2.344 0 0 0-2.836-2.244l-2.892.313v-1.446a1.938 1.938 0 0 0-1.938-1.93 1.938 1.938 0 0 0-1.961 1.914v1.736h-.946v-1.72a1.938 1.938 0 0 0-1.93-1.93 1.938 1.938 0 0 0-1.97 1.906v1.744h-2.344V6.163l3.126-.828 2.165-.586a.977.977 0 0 0-.508-1.884l-3.126.829-2.017.539h-3.54a.961.961 0 0 0-.844.477l-1.563 2.782v.047a.944.944 0 0 0-.062.195c-.004.06-.004.12 0 .18v2.907l-1.07.281a1.766 1.766 0 0 0-1.908-.703l-1.266.352a1.774 1.774 0 0 0-1.25 2.164c.068.245.188.471.352.665-2.126.351-4.642.953-4.642 1.625 0 1.07 4.782 2.65 5.853 2.65h18.584l5.705-.524c1.406-.235 2.813-.829 2.828-2.345v-.078ZM9.79 11.923l.938-.25a.969.969 0 0 0 1.82-.461V8.259l.633-1.094v6.087H9.422c.303-.372.436-.854.368-1.328Z"/></svg>